<?xml version="1.0" encoding="utf-8"?>
<!-- Generator: Adobe Illustrator 17.0.0, SVG Export Plug-In . SVG Version: 6.00 Build 0)  -->
<!DOCTYPE svg PUBLIC "-//W3C//DTD SVG 1.1//EN" "http://www.w3.org/Graphics/SVG/1.1/DTD/svg11.dtd">
<svg version="1.1" id="Layer_1" xmlns="http://www.w3.org/2000/svg" xmlns:xlink="http://www.w3.org/1999/xlink" x="0px" y="0px"
	 width="308.571px" height="339.802px" viewBox="0 0 308.571 339.802" enable-background="new 0 0 308.571 339.802"
	 xml:space="preserve">
<g>
	<g>
		<path opacity="0.4" fill-rule="evenodd" clip-rule="evenodd" fill="#615248" d="M131.296,18.603
			c0.413-1.575,2.099-2.552,3.764-2.185l161.401,35.759c0.441,0.097,0.834,0.285,1.169,0.531v-0.001
			c0.12,0.086,0.23,0.181,0.333,0.282c0.063,0.061,0.116,0.128,0.173,0.195c0.054,0.063,0.106,0.126,0.153,0.194
			c0.049,0.065,0.094,0.133,0.137,0.204c0.05,0.088,0.097,0.182,0.141,0.277c0.024,0.053,0.055,0.104,0.075,0.16
			c0.057,0.148,0.097,0.303,0.127,0.459c0.011,0.054,0.015,0.107,0.022,0.162c0.016,0.122,0.023,0.246,0.023,0.37
			c0.001,0.053,0,0.105-0.004,0.161c-0.011,0.173-0.033,0.349-0.078,0.525l-52.144,199.189c-0.412,1.575-2.097,2.552-3.764,2.185
			l-161.4-35.759c-0.188-0.042-0.362-0.102-0.53-0.173c-0.053-0.022-0.103-0.045-0.151-0.07c-0.12-0.055-0.23-0.117-0.338-0.188
			c-0.048-0.028-0.097-0.059-0.141-0.091c-0.134-0.098-0.259-0.204-0.374-0.318c-0.042-0.042-0.075-0.089-0.112-0.134
			c-0.072-0.078-0.14-0.161-0.2-0.249c-0.045-0.067-0.088-0.134-0.127-0.202c-0.043-0.073-0.081-0.15-0.116-0.227
			c-0.033-0.076-0.072-0.149-0.102-0.226c-0.048-0.137-0.086-0.273-0.114-0.415h-0.001c-0.075-0.395-0.073-0.809,0.036-1.227
			L131.296,18.603z"/>
		<path fill-rule="evenodd" clip-rule="evenodd" fill="#F3F3F3" d="M90.869,214.103c-0.352,1.59,0.712,3.178,2.379,3.547
			l161.4,35.756c1.667,0.371,3.304-0.619,3.655-2.206l44.504-200.881c0.352-1.589-0.713-3.177-2.38-3.546l-161.4-35.757
			c-1.665-0.369-3.302,0.62-3.655,2.208L90.869,214.103z"/>
		<path fill-rule="evenodd" clip-rule="evenodd" fill="#D2D0CF" d="M92.059,215.877l161.399,35.76
			c1.667,0.367,3.303-0.622,3.655-2.212l44.505-200.879c0.093-0.421,0.081-0.841-0.011-1.238c0.948,0.682,1.458,1.844,1.2,3.012
			L258.303,251.2c-0.35,1.587-1.988,2.577-3.655,2.206l-161.4-35.756c-1.225-0.273-2.117-1.202-2.369-2.308
			C91.222,215.591,91.617,215.777,92.059,215.877z"/>
		
			<rect x="128.062" y="38.145" transform="matrix(-0.9763 -0.2163 0.2163 -0.9763 376.0558 259.3646)" fill-rule="evenodd" clip-rule="evenodd" fill="#D2D0CF" width="148.319" height="141.915"/>
		<polygon fill-rule="evenodd" clip-rule="evenodd" fill="#B3B2B2" points="117.047,161.339 259.277,194.422 289.973,55.866 
			145.166,23.785 		"/>
		<g>
			<defs>
				<polygon id="SVGID_1_" points="117.046,161.362 259.276,194.447 289.973,55.891 145.165,23.808 				"/>
			</defs>
			<clipPath id="SVGID_2_">
				<use xlink:href="#SVGID_1_"  overflow="visible"/>
			</clipPath>
			<g clip-path="url(#SVGID_2_)">
				
					<rect x="100.086" y="15.79" transform="matrix(-0.9985 -0.0543 0.0543 -0.9985 397.3182 240.149)" fill="#EEE3CB" width="203.665" height="197.783"/>
				<g>
					<path fill="#E8C97C" d="M211.728,84.315c-1.809-0.097-3.393-2.449-6.921,0.379c-3.528,2.83-22.956,13.411-21.917,7.876
						c1.04-5.535,15.22-22.744,14.382-23.543c-0.838-0.803-19.859-14.98-17.437-17.871c2.423-2.89,24.985,4.532,27.652,2.711
						c2.668-1.818,15.571-22.42,17.575-20.347c2.002,2.073-4.027,26.825,4.327,28.791c8.354,1.964,23.443,2.333,23.047,6.841
						c-0.396,4.511-27.137,1.699-27.432,7.123c-0.294,5.422,7.954,26.873,1.745,26.685
						C220.544,102.774,211.728,84.315,211.728,84.315z"/>
					<path opacity="0.3" fill="#E8C97C" d="M224.804,76.818c-0.726-1.881-2.617-6.092,0.088-7.087
						c2.504-0.921,5.857,0.127,8.281,0.847c1.837,0.546,3.633,1.229,5.463,1.797c-6.756,0.539-13.483,1.194-13.631,3.9
						c-0.017,0.319-0.004,0.697,0.034,1.12C224.959,77.203,224.879,77.012,224.804,76.818z"/>
					<path opacity="0.3" fill="#E8C97C" d="M225.106,60.82c-0.45-1.936-0.323-3.824-0.025-5.704c0.317,2.446,0.952,4.523,2.1,5.833
						C226.502,61.002,225.799,60.922,225.106,60.82z"/>
					<path opacity="0.3" fill="#E8C97C" d="M212.681,49.99c-0.029,1.476,0.31,2.816,0.575,4.254
						c0.178,0.975,0.549,2.338-0.539,2.845c-0.722,0.337-1.338,0.699-1.848,1.131c-0.228-0.335-0.557-0.621-1.006-0.818
						c-1.188-0.521-2.427-0.688-3.632-1.129c-0.178-0.045-0.345-0.113-0.508-0.193c-0.421-0.76-0.943-1.427-1.542-2.03
						c1.621,0.177,2.809,0.158,3.307-0.182c1.131-0.771,4.102-4.917,7.302-9.283c-0.101,0.427-0.276,0.858-0.582,1.318
						C213.411,47.097,212.712,48.52,212.681,49.99z"/>
					<path fill="#E8C97C" d="M196.088,52.622c1.246,0.253,2.466,0.498,3.619,0.715C198.718,53.639,197.14,53.243,196.088,52.622z"/>
					<path opacity="0.3" fill="#E8C97C" d="M197.34,71.692c-1.15,1.268-1.502,2.958-2.448,4.344
						c-0.988,1.446-2.209,1.92-3.752,2.481c3.432-4.883,6.537-9.105,6.132-9.49c-0.342-0.329-3.746-2.908-7.472-6.034
						c1.185,0.216,2.35,0.485,3.458,1.01c1.357,0.642,2.662,1.474,4.086,1.968c1.946,0.678,4.028,0.598,5.964,1.055
						c-0.017,0.117-0.03,0.234-0.031,0.363C203.263,70.619,199.042,69.819,197.34,71.692z"/>
					<path fill="#E8C97C" d="M180.691,52.11c1.042,0.011,2.107-0.167,3.145-0.083c0.71,0.057,0.944,0.597,1.322,1.15
						c0.733,1.073,1.91,2.394,3.353,2.378c0.724-0.009,1.365-0.086,2.032-0.388c0.337-0.144,0.667-0.302,0.992-0.475
						c0.039-0.012,0.065-0.021,0.1-0.032c0.802,0.928,1.568,1.704,2.783,2.195c1.755,0.714,3.564,0.991,5.452,0.979
						c0.472-0.003,0.987-0.094,1.46-0.257c0.099,0.117,0.192,0.24,0.267,0.375c1.482,2.712,4.24,2.608,6.829,3.741
						c0.263,0.113,0.513,0.175,0.748,0.194c0.065,2.539,4.202,2.623,4.535-0.129c0.043-0.359,0.833-0.46,1.398-0.812
						c0.927-0.58,1.673-1.221,2.17-2.212c0.65-1.297,0.778-2.748,0.599-4.178c-0.172-1.371-0.868-2.943-0.676-4.322
						c0.2-1.422,1.354-2.324,1.825-3.63c0.266-0.736,0.531-1.627,0.487-2.422c-0.039-0.684-0.265-1.704,0.032-2.354
						c0.51-1.114,1.393-1.985,1.977-3.053c0.712-1.306,1.09-2.556,1.358-4.016c0.018-0.096,0.029-0.189,0.036-0.279
						c1.007-0.939,1.77-1.351,2.147-0.961c0.018,0.018,0.033,0.042,0.049,0.063c-0.376,0.245-0.67,0.653-0.796,1.258
						c-0.491,2.356-1.03,4.404-1.899,6.646c-0.796,2.052-0.596,3.867-0.739,6.008c-0.331,4.917-2.203,9.55-0.951,14.493
						c0.181,0.717,0.604,1.192,1.12,1.452c0.224,0.842,0.865,1.585,1.95,1.739c1.697,0.243,3.749,0.616,5.433,0.064
						c0.647-0.212,1.173-0.463,1.747-0.792c0.027,0.042,0.055,0.085,0.09,0.136c0.083,0.135,0.165,0.273,0.248,0.408
						c1.426,2.347,3.725,2.157,5.856,1.105c0.796-0.392,2.985,1.329,3.691,1.676c1.206,0.595,2.429,0.894,3.773,0.972
						c1.603,0.095,3.207,0.097,4.762,0.288c-3.17,0.42-6.678,1.675-9.587,0.499c-1.531-0.62-3.152-1.42-4.838-1.483
						c-1.802-0.063-3.651,0.128-5.441-0.111c-2.474-0.33-4.828-1.037-7.353-0.877c-2.005,0.129-5.003,1.208-4.905,3.759
						c0.108,2.846,3.059,4.233,3.001,7.06c-0.051,2.496,0.718,4.341,3.007,5.572c0.782,0.421,0.382,0.246,0.134,1.347
						c-0.183,0.808-0.153,1.642-0.059,2.461c0.15,1.305,0.566,2.483,1.273,3.59c0.663,1.04,1.491,1.98,2.569,2.597
						c0.061,0.033,0.109,0.061,0.152,0.086c0.066,0.471,0.059,0.942-0.023,1.41c-0.101,0.664-0.203,1.32-0.27,1.989
						c-0.146,1.44,0.893,2.224,2.013,2.294c-0.019,1.082-0.17,1.98-0.495,2.624c-0.379-0.645-1.036-1.127-1.915-1.134
						c-0.013-0.097-0.025-0.209-0.038-0.354c-0.047-0.554-0.057-1.111-0.117-1.664c-0.131-1.212-0.581-2.374-1.442-3.269
						c-0.912-0.944-2.219-1.576-3.042-2.576c-0.89-1.083-0.631-2.563-0.747-3.869c-0.24-2.678-3.065-3.697-3.368-6.15
						c-0.3-2.43-0.923-6.228-3.857-6.893c-1.44-0.326-2.742-0.227-4.123,0.317c-1.705,0.669-3.042,2.232-4.956,2.331
						c-1.675,0.086-3.024,0.316-4.33,1.437c-1.178,1.013-1.056,2.636-1.873,3.799c-0.753,1.071-2.027,1.439-3.113,2.149
						c-1.637,1.067-3.054,2.494-4.768,3.44c-1.15,0.635-2.697,1.28-3.316,2.55c-0.286,0.583-0.485,1.17-0.655,1.767
						c-0.734,0.201-1.393,0.334-1.962,0.385c0.035-0.043,0.07-0.089,0.102-0.138c1.036-1.562,1.571-3.291,2.254-5.018
						c0.163-0.408,0.905-2.077,1.01-2.085c0.852-0.066,1.461-0.162,2.23-0.548c0.872-0.438,1.381-1.437,1.534-2.352
						c0.083-0.498,0.126-1.071,0.669-1.269c1.348-0.49,2.67-0.872,3.802-1.818c1.476-1.234,2.462-2.771,3.226-4.525
						c0.665-1.522,0.558-1.369,1.954-1.829c3.04-1,5.626-2.851,6.009-6.102c1.509-0.534,2.353-2.87,0.62-4.09
						c-1.461-1.028-3.032-1.691-4.81-1.928c-1.588-0.213-3.27-0.124-4.772-0.742c-1.603-0.657-3.072-1.625-4.697-2.229
						c-1.515-0.563-3.085-0.814-4.674-1.088c-1.92-0.329-3.729-0.781-4.986-2.383c-0.893-1.137-1.882-1.991-3.241-2.527
						c-0.384-0.152-0.773-0.283-1.167-0.404c-0.238-0.456-0.381-0.864-0.394-1.205C179.916,52.004,180.27,52.105,180.691,52.11z"/>
					<path opacity="0.3" fill="#E8C97C" d="M204.724,83.113c1.478-0.084,2.959-0.312,4.259-1.086
						c0.426-0.253,3.193-2.384,3.673-1.759c0.702,0.915,0.672,2.434,0.827,3.533c0.166,1.174,0.542,2.278,1.294,3.21
						c0.613,0.761,1.949,1.534,2.042,2.571c0.249,2.799,0.331,5.062,2.625,7.027c0.642,0.551,2.384,1.402,2.536,2.305
						c0.078,0.456,0.1,0.919,0.127,1.378c-5.21-5.156-10.378-15.977-10.378-15.977c-1.809-0.097-3.393-2.449-6.921,0.379
						c-0.476,0.382-1.241,0.905-2.204,1.508C203.163,85.04,203.299,83.191,204.724,83.113z"/>
				</g>
				<path opacity="0.6" fill="#CBEAE9" d="M296.005,129.056c-3.811,1.694-8.126,1.442-12.101,0.554
					c-4.755-1.064-8.65-0.489-12.602,2.429c-1.468,1.082-3.311,2.725-5.284,2.495c-1.483-0.176-2.732-2.289-3.433-3.415
					c-2.081-3.329-3.65-7.044-6.317-9.964c-2.973-3.253-6.514-6.022-10.317-8.243c-8.036-4.688-17.487-8.024-26.877-8.083
					c-5.409-0.034-10.648,1.184-15.737,2.965c-2.698,0.946-5.318,2.117-7.785,3.564c-2.379,1.401-4.073,2.976-6.076,4.819
					c-4.395,4.043-11.056,0.371-15.323-2.01c-5.001-2.791-9.972-5.214-15.798-5.595c-3.902-0.256-7.514,0.354-10.952,1.485
					c-0.459-0.483-1.145-0.735-2.007-0.502c-3.486,0.942-7.311-0.039-10.866-0.17c-2.556-0.097-5.204,0.099-7.508,1.32
					c-4.091,2.167-7.796,6.561-12.784,5.726c-4.164-0.697-8.951,1.046-10.972,4.926c-0.761,1.46-1.253,3.096-2.115,4.494
					c-0.564,0.916-1.136,1.285-1.894,1.317l6.344-116.76l203.366,11.052l-5.427,99.859
					C301.704,124.47,299.41,127.543,296.005,129.056z"/>
				<path opacity="0.6" fill="#CBEAE9" d="M231.559,105.556c5.301,1.018,10.647,1.559,16.002,2.19
					c4.994,0.588,10.599,1.014,15.255,3.05c6.835,2.99,11.299,10.926,19.347,11.163c8.353,0.247,14.231-6.502,21.815-8.69
					l-0.437,8.05c-1.837,3.15-4.131,6.223-7.536,7.736c-3.811,1.694-8.126,1.442-12.101,0.554c-4.755-1.064-8.65-0.489-12.602,2.429
					c-1.468,1.082-3.311,2.725-5.284,2.495c-1.483-0.176-2.732-2.289-3.433-3.415c-2.081-3.329-3.65-7.044-6.317-9.964
					c-2.973-3.253-6.514-6.022-10.317-8.243c-8.036-4.688-17.487-8.024-26.877-8.083c-1.716-0.01-3.413,0.104-5.098,0.326
					C218.795,101.685,225.915,104.469,231.559,105.556z"/>
				<path opacity="0.6" fill="#CBEAE9" d="M162.203,60.726c-2.614,1.001-5.743,0.732-8.468,0.515
					c-3.033-0.244-6.07-0.733-9.117-0.768c-3.54-0.039-6.415,1.146-9.513,2.821c-2.122,1.147-4.325,2.211-6.807,1.562
					c-2.519-0.658-4.421-1.957-6.553-3.395c-2.173-1.463-4.563-2.814-7.229-3.05c-2.305-0.203-4.276,0.703-6.335,1.628
					c-1.129,0.507-3.279,1.764-3.47-0.317c-0.136-1.476,0.92-3.183,1.728-4.325c1.115-1.581,2.521-3.219,4.248-4.154
					c1.826-0.988,3.654-0.599,5.537,0.104c4.446,1.656,9.986,5.116,14.721,2.43c2.079-1.179,3.725-3.387,6.114-3.927
					c2.639-0.594,4.983-0.006,7.454,0.964c2.707,1.063,5.387,2.213,8.287,2.641c1.751,0.259,3.51-0.064,5.232-0.405
					c2.01-0.4,6.256-1.882,7.383,0.251c-0.165,0.301-0.25,0.675-0.221,1.125C165.363,57.121,164.976,59.664,162.203,60.726z"/>
				<path opacity="0.6" fill="#CBEAE9" d="M211.741,27.452c2.458-1.06,5.159-1.486,7.715-0.497c2.169,0.839,4.179,2.22,6.441,2.805
					c3.154,0.819,6.064-0.115,9.172-0.71c2.882-0.552,5.859-0.508,8.68,0.351c5.489,1.668,10.867,5.086,16.751,5.122
					c2.765,0.017,5.012-0.781,7.352-2.229c1.852-1.143,3.976-2.874,6.288-2.65c2.061,0.196,3.488,2.096,5.155,3.132
					c0.383,0.237,0.764,0.437,1.146,0.616c-0.672,1.155-0.47,2.745,1.182,3.097c1.325,0.282,2.696,1.044,0.84,2.076
					c-1.164,0.65-2.601,0.01-3.79-0.374c-3.514-1.137-6.946-2.625-10.71-2.218c-4.103,0.445-8.187,1.53-12.335,1.394
					c-2.589-0.084-5.038-0.423-7.499-1.239c-2.371-0.785-4.716-1.433-7.235-1.313c-5.134,0.241-9.119,6.53-14.286,2.465
					c-1.919-1.512-3.597-3.274-5.88-4.259c-2.533-1.093-5.01-0.672-7.646-0.307c-1.182,0.165-4.905-0.622-4.656-2.419
					C208.613,28.93,210.657,27.918,211.741,27.452z"/>
				<path opacity="0.6" fill="#CBEAE9" d="M236.814,69.824c1.676-1.212,3.657-1.336,5.588-0.705
					c4.168,1.363,7.63,4.491,11.876,5.606c2.41,0.633,4.906,0.459,7.201-0.547c1.968-0.864,3.677-2.277,5.7-3.013
					c0.659-0.238,1.687-0.585,2.39-0.543c0.08,0.004,0.117-0.007,0.14-0.022c0.025,0.038,0.064,0.086,0.116,0.15
					c0.531,0.626,1.106,1.179,1.813,1.604c2.36,1.422,6.064,1.038,8.7,0.909c4.149-0.203,8.262-0.811,12.386-1.252
					c0.213,0.502,0.656,0.914,1.38,1.088c1.616,0.39,3.479,1.082,3.683,2.984c0.115,1.071-0.294,2.076-0.902,2.945
					c-2.675-1.679-5.431-1.946-8.607-0.108c-1.853,1.073-3.54,1.964-5.766,1.812c-2.679-0.184-5.192-1.09-7.823-1.552
					c-2.926-0.511-5.876-0.358-8.737,0.441c-2.378,0.665-4.727,1.607-7.181,1.952c-6.389,0.895-11.387-3.205-17.377-4.359
					c-1.155-0.222-8.105-0.707-8.32-2.088C232.81,73.413,235.626,70.684,236.814,69.824z"/>
				<path opacity="0.6" fill="#CBEAE9" d="M108.279,110.846c3.8-0.659,7.065-2.215,9.939-4.799c2.098-1.887,3.99-4.47,6.702-5.5
					c3.56-1.354,7.664,0.064,11.301,0.345c1.749,0.138,3.492,0.12,5.244,0.063c2.467-0.086,4.872-0.732,7.33-0.804
					c4.123-0.125,8.076,1.865,11.241,4.414c2.236,1.802,4.268,3.854,6.341,5.833c-2.538-0.963-5.179-1.639-8.021-1.824
					c-3.902-0.256-7.514,0.354-10.952,1.485c-0.459-0.483-1.145-0.735-2.007-0.502c-3.486,0.942-7.311-0.039-10.866-0.17
					c-2.556-0.097-5.204,0.099-7.508,1.32c-4.091,2.167-7.796,6.561-12.784,5.726c-4.164-0.697-8.951,1.046-10.972,4.926
					c-0.761,1.46-1.253,3.096-2.115,4.494c-0.564,0.916-1.136,1.285-1.894,1.317l0.841-15.483
					C102.827,111.442,105.57,111.317,108.279,110.846z"/>
				<g>
					<path fill="#F6CCC5" d="M146.451,183.243c1.412,12.419,12.625,21.338,25.043,19.926l5.374-0.611
						c12.418-1.414,21.338-12.626,19.925-25.043l-6.14-53.961c-1.414-12.418-12.626-21.34-25.044-19.927l-5.374,0.61
						c-12.419,1.414-21.339,12.627-19.927,25.043L146.451,183.243z"/>
					<path fill="#E5B7B1" d="M153.132,190.895c0,0-0.05-0.39-0.14-1.105c-0.899-7.018-5.976-45.346-10.392-51.138
						c-4.867-6.382-4.986-12.51-1.109-12.98c3.879-0.467,4.899,4.802,6.142,3.282c1.242-1.518-2.634-9.436,1.434-9.216
						c4.067,0.221,5.86,8.931,7.553,6.983c1.692-1.946-0.364-9.991,3.691-9.545c4.056,0.447,4.377,7.037,6.411,7.147
						c2.034,0.111,0.039-9.063,3.667-9.091c3.627-0.03,5.298,10.938,7.516,7.659c2.217-3.28-0.192-13.156,10.33-10.77
						c10.521,2.386,1.822,12.338-1.044,19.206c-2.866,6.87,0.739,61.46,0.739,61.46"/>
					<path fill="#F8E9D4" d="M154.512,190.517c0,0-0.049-0.39-0.141-1.104c-0.898-7.023-5.975-45.346-10.392-51.141
						c-4.865-6.385-4.985-12.509-1.106-12.978c3.877-0.469,4.899,4.798,6.14,3.28c1.242-1.52-2.633-9.436,1.433-9.214
						c4.067,0.222,5.86,8.931,7.554,6.983c1.692-1.947-0.364-9.992,3.691-9.545c4.054,0.447,4.377,7.036,6.411,7.147
						c2.033,0.111,0.039-9.062,3.667-9.093c3.626-0.029,5.296,10.941,7.515,7.661c2.217-3.279-0.192-13.154,10.33-10.77
						c10.523,2.384,1.823,12.337-1.043,19.207c-2.866,6.87,0.741,61.456,0.741,61.456"/>
					<path fill="#F8E9D4" d="M177.194,121.155c0,0-0.246,6.788,0.047,9.749c0.291,2.961,15.131,19.744,14.913,21.661
						c-0.217,1.913,0.269,3.411-1.799,1.828c-2.067-1.584-15.974-20.926-15.974-20.926s-27.269,32.626-28.941,30.043
						c-1.673-2.584,25.326-30.24,27.331-33.756c2.003-3.518,3.448-8.652,3.448-8.652L177.194,121.155"/>
					<path fill="#9FC1BD" d="M177.882,121.193c0,0-0.079,7.7,0.213,10.663c0.293,2.962,15.132,19.746,14.915,21.661
						c-0.218,1.915,0.269,3.413-1.799,1.828c-2.067-1.586-15.974-20.924-15.974-20.924s-27.267,32.624-28.941,30.043
						c-1.672-2.586,25.327-30.24,27.33-33.757c2.004-3.517,2.594-9.605,2.594-9.605l2.115,0.114"/>
					<path fill="#F58C7D" d="M190.925,123.775c0,0-2.971-0.411-5.939-1.82c-2.968-1.406-3.592-1.841-3.592-1.841
						s1.619-7.745,7.677-6.32C195.133,115.222,190.925,123.775,190.925,123.775z"/>
					<path fill="#F58C7D" d="M174.098,119.369l-3.259,0.271c0,0-0.225-2.957,1.071-3.035
						C173.204,116.524,174.098,119.369,174.098,119.369z"/>
					<path fill="#F58C7D" d="M164.627,121l-4.302,0.216c0,0-0.299-3.159,1.577-3.309C163.778,117.758,164.627,121,164.627,121z"/>
					<path fill="#F58C7D" d="M149.898,123.942l3.204-1.124c0,0-1.498-2.726-2.628-2.138
						C149.344,121.266,149.898,123.942,149.898,123.942z"/>
					<path fill="#F58C7D" d="M144.882,128.06l-3.221,1.422c0,0-0.896-2.808,0.862-3.005
						C144.28,126.281,144.882,128.06,144.882,128.06z"/>
				</g>
				<g>
					<path fill="#F6CCC5" d="M244.572,192.87c-2.969,12.137-15.219,19.572-27.359,16.602l-5.253-1.284
						c-12.14-2.971-19.573-15.22-16.604-27.36l12.905-52.755c2.969-12.138,15.22-19.574,27.358-16.602l5.253,1.286
						c12.142,2.97,19.575,15.218,16.605,27.358L244.572,192.87z"/>
					<path fill="#E5B7B1" d="M238.538,200.372c0,0,0.09-0.384,0.259-1.082c1.655-6.884,10.854-44.43,15.873-49.713
						c5.529-5.818,6.312-11.895,2.507-12.781c-3.804-0.887-5.389,4.239-6.46,2.593c-1.07-1.644,3.64-9.092-0.427-9.314
						c-4.067-0.221-6.793,8.243-8.266,6.123c-1.471-2.121,1.445-9.892-2.635-9.888c-4.079,0.004-5.113,6.52-7.147,6.41
						c-2.035-0.11,0.943-9.014-2.661-9.435c-3.602-0.424-6.452,10.301-8.302,6.798c-1.849-3.499,1.616-13.055-9.102-11.825
						c-10.719,1.232-3.149,12.067-1.044,19.207c2.105,7.141-7.395,61.015-7.395,61.015"/>
					<path fill="#F8E9D4" d="M237.208,199.847c0,0,0.089-0.384,0.258-1.082c1.654-6.884,10.854-44.431,15.872-49.714
						c5.529-5.816,6.313-11.894,2.508-12.78c-3.804-0.887-5.39,4.239-6.46,2.594c-1.07-1.643,3.64-9.092-0.426-9.314
						c-4.068-0.221-6.794,8.244-8.267,6.123c-1.47-2.12,1.445-9.894-2.635-9.89c-4.08,0.007-5.113,6.523-7.146,6.413
						c-2.034-0.111,0.941-9.015-2.66-9.438c-3.604-0.421-6.453,10.302-8.303,6.802c-1.848-3.5,1.616-13.057-9.102-11.826
						c-10.718,1.231-3.149,12.066-1.044,19.207c2.105,7.14-7.395,61.015-7.395,61.015"/>
					<path fill="#F8E9D4" d="M222.174,128.435c0,0-0.492,6.771-1.102,9.685c-0.612,2.914-17.181,17.989-17.173,19.917
						c0.009,1.927-0.636,3.364,1.59,2.013c2.227-1.354,18.148-19.071,18.148-19.071s23.573,35.39,25.515,33.001
						c1.944-2.387-21.898-32.803-23.511-36.519c-1.611-3.713-2.491-8.974-2.491-8.974L222.174,128.435"/>
					<path fill="#9FC1BD" d="M221.486,128.397c0,0-0.755,7.664-1.368,10.576c-0.611,2.914-17.18,17.99-17.173,19.919
						c0.009,1.928-0.635,3.363,1.591,2.013c2.226-1.354,18.147-19.072,18.147-19.072s23.572,35.39,25.516,33.003
						c1.942-2.39-21.901-32.807-23.512-36.52c-1.611-3.713-1.538-9.829-1.538-9.829l-2.115-0.114"/>
					<path fill="#F58C7D" d="M208.24,129.553c0,0,2.998-0.087,6.101-1.167c3.104-1.078,3.77-1.441,3.77-1.441
						s-0.77-7.875-6.948-7.114C204.985,120.592,208.24,129.553,208.24,129.553z"/>
					<path fill="#F58C7D" d="M225.445,126.994l3.211,0.622c0,0,0.543-2.914-0.736-3.134
						C226.642,124.264,225.445,126.994,225.445,126.994z"/>
					<path fill="#F58C7D" d="M234.683,129.642l4.255,0.679c0,0,0.638-3.105-1.21-3.457
						C235.879,126.51,234.683,129.642,234.683,129.642z"/>
					<path fill="#F58C7D" d="M249.009,134.163l-3.064-1.466c0,0,1.784-2.546,2.844-1.84
						C249.848,131.562,249.009,134.163,249.009,134.163z"/>
					<path fill="#F58C7D" d="M253.547,138.8l3.049,1.763c0,0,1.194-2.696-0.531-3.082C254.338,137.097,253.547,138.8,253.547,138.8z
						"/>
				</g>
			</g>
		</g>
	</g>
	<path opacity="0.4" fill="#615248" d="M11.846,216.645c3.657,2.138,5.211-1.743,3.703-5.088c-0.723-1.601,2.402-5.481,6.26-9.256
		c0.069,13.262,7,26.143,19.32,33.178c18.369,10.487,41.844,4.077,52.333-14.291c0.679-1.191,1.283-2.399,1.823-3.628
		c2.698,1.12,5.418,2.253,8.147,3.392c3.632,2.716,7.239,5.425,10.783,8.09c-0.657,0.942-1.283,1.915-1.864,2.934
		c-10.487,18.366-4.076,41.843,14.293,52.33c10.419,5.951,22.483,6.455,32.887,2.431c-1.025,2.912-2.185,4.999-3.341,5.127
		c-3.646,0.4-6.197,3.711-2.498,5.774c3.662,2.043,5.851,2.15,10.586-13.112c5.946-3.289,11.091-8.19,14.699-14.51
		c2.088-3.656,3.496-7.518,4.282-11.436c3.751,1.4,8.068-0.071,10.116-3.66c2.277-3.986,0.89-9.064-3.096-11.343
		c-2.257-1.29-4.861-1.395-7.109-0.525c-2.195-10.336-8.608-19.73-18.483-25.369c-13.743-7.848-30.345-6.232-42.227,2.771
		c1.474-6.211-1.218-12.915-7.035-16.235c-5.636-3.219-12.514-2.292-17.119,1.794c1.45-14.61-5.582-29.419-19.134-37.157
		c-10.23-5.842-22.045-6.434-32.318-2.644c-0.104-2.771-1.585-5.429-4.172-6.906c-3.987-2.276-9.064-0.892-11.341,3.097
		c-2.272,3.98-0.893,9.046,3.076,11.327c-2.935,2.654-5.512,5.799-7.578,9.419c-2.371,4.152-3.869,8.566-4.57,13.031
		c-1.269,1.222-2.655,2.65-4.194,4.336C6.987,212.672,8.187,214.51,11.846,216.645z M117.74,222.537
		c-0.057,0.098-0.122,0.189-0.179,0.284c-4.107-1.666-8.236-3.343-12.339-5.007c-2.637-2.016-5.289-4.04-7.936-6.059
		c0.067-0.262,0.132-0.523,0.193-0.786l0.989,0.566c3.034-5.313,9.823-7.168,15.137-4.135
		C118.92,210.434,120.773,217.226,117.74,222.537z"/>
	<g>
		<path fill="#F7CCD1" d="M36.265,171.346l-1.858,4.592c0,0,128.123,93.921,128.687,97.909c0.566,3.986-3.105,23.834-6.752,24.234
			c-3.646,0.4-6.197,3.712-2.499,5.776c3.7,2.061,5.892,2.161,10.727-13.565c4.834-15.723,2.415-18.261-1.949-22.184
			C158.259,264.184,36.265,171.346,36.265,171.346z"/>
		<path fill="#EDBCC3" d="M185.877,256.769l-3.011,3.936c0,0-146.005-62.602-149.726-61.061c-3.721,1.54-18.949,14.789-17.44,18.135
			c1.51,3.341-0.045,7.223-3.702,5.085c-3.659-2.136-4.858-3.976,6.227-16.132c11.085-12.155,14.498-11.359,20.096-9.598
			C43.92,198.895,185.877,256.769,185.877,256.769z"/>
		<circle opacity="0.8" fill="#25293A" cx="145.817" cy="257.213" r="36.526"/>
		<g>
			<path fill="#EDBCC3" d="M112.504,238.191c10.489-18.368,33.966-24.78,52.335-14.291c18.368,10.486,24.779,33.964,14.291,52.333
				c-10.487,18.367-33.964,24.78-52.333,14.292C108.428,280.036,102.016,256.558,112.504,238.191z M115.691,240.01
				c-9.485,16.612-3.688,37.845,12.924,47.329c16.613,9.485,37.844,3.688,47.33-12.925c9.485-16.612,3.687-37.846-12.926-47.33
				C146.406,217.598,125.175,223.397,115.691,240.01z"/>
		</g>
		<g opacity="0.3">
			<path fill="#FFFFFF" d="M128.383,278.088c14.066,8.032,31.98,3.141,40.011-10.925c5.607-9.819,4.907-21.508-0.804-30.408
				c8.467,9.451,10.379,23.613,3.742,35.238c-8.297,14.531-26.804,19.585-41.335,11.287c-8.211-4.688-13.393-12.633-14.854-21.279
				C117.358,268.568,121.889,274.381,128.383,278.088z"/>
		</g>
		<g>
			<path fill="#F7CCD1" d="M120.371,231.692c0.25-0.36,0.488-0.736,0.706-1.116c4.037-7.07,1.568-16.105-5.5-20.143
				c-7.069-4.036-16.105-1.567-20.14,5.502l3.184,1.818c3.034-5.314,9.824-7.168,15.137-4.134c5.315,3.033,7.168,9.822,4.133,15.136
				c-0.165,0.289-0.345,0.571-0.531,0.845L120.371,231.692z"/>
		</g>
		<circle opacity="0.8" fill="#25293A" cx="60.302" cy="208.386" r="36.527"/>
		<g>
			<path fill="#F7CCD1" d="M26.991,189.363c10.487-18.365,33.964-24.778,52.334-14.291c18.367,10.489,24.778,33.966,14.29,52.335
				c-10.488,18.366-33.964,24.779-52.333,14.292C22.914,231.21,16.502,207.731,26.991,189.363z M30.176,191.182
				c-9.485,16.613-3.687,37.844,12.924,47.329c16.612,9.485,37.844,3.689,47.329-12.925c9.485-16.612,3.687-37.844-12.924-47.329
				C60.893,168.772,39.661,174.569,30.176,191.182z"/>
		</g>
		<g opacity="0.2">
			<path fill="#FFFFFF" d="M42.868,229.263c14.066,8.03,31.98,3.139,40.012-10.928c5.606-9.819,4.908-21.508-0.805-30.406
				c8.468,9.452,10.379,23.613,3.741,35.237c-8.296,14.53-26.803,19.584-41.334,11.288c-8.211-4.688-13.392-12.634-14.854-21.28
				C31.844,219.741,36.376,225.555,42.868,229.263z"/>
		</g>
		<g>
			<path fill="#F7CCD1" d="M181.577,263.021c0.131-4.038,0.614-8.153-1.162-11.859c2.583-2.603,6.678-3.271,10.015-1.364
				c3.987,2.275,5.374,7.352,3.096,11.341c-2.275,3.984-7.353,5.372-11.34,3.097c-0.245-0.142-0.479-0.292-0.705-0.453
				C181.534,263.544,181.569,263.293,181.577,263.021z"/>
		</g>
		<g>
			<path fill="#F7CCD1" d="M35.943,179.868c3.412-2.166,6.71-4.673,10.805-5.028c0.93-3.546-0.576-7.412-3.914-9.319
				c-3.986-2.275-9.063-0.889-11.341,3.1c-2.276,3.986-0.89,9.064,3.097,11.34c0.245,0.139,0.495,0.267,0.747,0.378
				C35.515,180.172,35.714,180.014,35.943,179.868z"/>
		</g>
	</g>
</g>
</svg>
