<?xml version="1.0" encoding="utf-8"?>
<!-- Generator: Adobe Illustrator 17.0.0, SVG Export Plug-In . SVG Version: 6.00 Build 0)  -->
<!DOCTYPE svg PUBLIC "-//W3C//DTD SVG 1.1//EN" "http://www.w3.org/Graphics/SVG/1.1/DTD/svg11.dtd">
<svg version="1.1" id="Layer_1" xmlns="http://www.w3.org/2000/svg" xmlns:xlink="http://www.w3.org/1999/xlink" x="0px" y="0px"
	 width="772px" height="293px" viewBox="0 0 772 293" enable-background="new 0 0 772 293" xml:space="preserve">
<g>
	<g>
		<g opacity="0.4">
			<path fill-rule="evenodd" clip-rule="evenodd" fill="#615248" d="M326.322,68.184c1.771,2.073,3.957,8.118,4.713,11.219
				c0.754,3.102,4.098,5.729,5.842,7.427c1.743,1.699,2.676,3.254,1.253,4.489c-1.423,1.236-1.476,2.062-0.341,3.003
				c1.134,0.94,0.483,1.477-0.787,2.369c-1.269,0.889-0.581,1.193,0.198,1.517c0.778,0.323,0.922,1.091,0.266,2.183
				c-0.655,1.09-0.675,1.736-0.076,3.604c0.601,1.867,0.302,5.156-3.288,4.99c-3.589-0.165-10.706-0.857-13.381-2.533
				c-2.676-1.677-5.89-4.023-6.736-6.858c-0.848-2.837-8.157-16.724-4.733-25.702C312.676,64.915,323.367,65.276,326.322,68.184z"/>
			<path fill-rule="evenodd" clip-rule="evenodd" fill="#615248" d="M315.271,101.833c-2.868-1.848-11.877,1.614-15.704,0.438
				c-3.826-1.177-15.368-5.645-14.384-18.915c0.985-13.27,8.223-20.732,20.289-22.396c12.065-1.662,18.266,2.197,21.666,8.675
				C330.539,76.114,320.94,94.427,315.271,101.833z"/>
			<path fill-rule="evenodd" clip-rule="evenodd" fill="#615248" d="M323.517,107.553c-7.654-1.328-9.767,1.767-12.066,13.559
				c-1.654,8.479-0.892,23.209,5.224,48.595c0.188,0.781,0.358,1.539,0.522,2.29h-41.682c-0.565-27.465,33.278-52.829,20.03-69.649
				c-6.679-8.478,9.362-13.016,19.76-8.724C325.704,97.916,329.494,108.591,323.517,107.553z"/>
			<path fill-rule="evenodd" clip-rule="evenodd" fill="#615248" d="M250.154,57.996c3.851,7.151,8.375,14.98,33.551,1.1
				c25.175-13.878,44.448-3.088,44.498,9.746c0.616,13.709-20.416,18.54-44.621,15.973C264.596,82.8,245.543,75.446,250.154,57.996z
				"/>
			<path fill-rule="evenodd" clip-rule="evenodd" fill="#615248" d="M244.597,94.184c1.418-4.839-0.332-11.452,20.242-4.986
				c20.575,6.463,28.686-3.699,27.064-11.504c-1.391-8.408-16.072-8.783-30.449-4.106C250.178,77.256,239.548,84.175,244.597,94.184
				z"/>
			<path fill-rule="evenodd" clip-rule="evenodd" fill="#615248" d="M235.264,92.197c6.29,5.138,9.985,15.512,31.425-11.802
				c21.44-27.314,41.465-21.201,46.414-9.358c5.808,12.433-13.35,26.296-36.701,33.17
				C258.086,109.601,237.669,110.087,235.264,92.197z"/>
			<path fill-rule="evenodd" clip-rule="evenodd" fill="#615248" d="M324.787,64.426c-17.583,11.993-16.396,22.986-22.224,48.841
				c-5.828,25.853-32.581,39.766-51.692,18.126c15.413,4.503,18.349-0.616,23.311-19.921
				C281.963,81.206,280.861,41.14,324.787,64.426z"/>
			
				<ellipse transform="matrix(-0.3101 -0.9507 0.9507 -0.3101 320.2436 410.1805)" fill-rule="evenodd" clip-rule="evenodd" fill="#615248" cx="308.944" cy="88.899" rx="9.625" ry="4.95"/>
			<path fill-rule="evenodd" clip-rule="evenodd" fill="#615248" d="M275.395,134.391v0.745c-2,0.378-4.143,0.635-6.447,0.746
				C271.255,135.546,273.398,135.038,275.395,134.391L275.395,134.391z M275.395,97.21c-7.397,7.009-18.695,10.984-30.391,4.729
				c11.331,3.763,22.787-0.583,30.391-6.638V97.21L275.395,97.21z M261.054,80.362c5.266,1.252,10.022,1.975,14.341,2.256v1.379
				C271.092,83.328,266.335,82.144,261.054,80.362z M299.208,96.939c3.186,8.728,1.424,33.42-23.813,38.197v-0.745
				C296.373,127.575,300.721,104.929,299.208,96.939L299.208,96.939z M275.395,82.618c19.805,1.287,30.385-6.764,38.285-16.201
				c-6.798,11.589-16.918,20.916-38.285,17.58V82.618L275.395,82.618z M275.395,97.21c2.746-2.601,4.955-5.622,6.446-8.691
				c-1.549,2.286-3.758,4.641-6.446,6.782V97.21z"/>
		</g>
		<g>
			<defs>
				<rect id="SVGID_1_" x="240.217" y="43.932" width="113.399" height="88.243"/>
			</defs>
			<clipPath id="SVGID_2_">
				<use xlink:href="#SVGID_1_"  overflow="visible"/>
			</clipPath>
			<g clip-path="url(#SVGID_2_)">
				<path fill-rule="evenodd" clip-rule="evenodd" fill="#FFFFFF" d="M329.616,68.371c1.77,2.071,3.958,8.116,4.712,11.219
					c0.755,3.102,4.098,5.729,5.842,7.427c1.743,1.698,2.677,3.254,1.254,4.489c-1.423,1.236-1.476,2.062-0.341,3.003
					c1.134,0.94,0.483,1.475-0.787,2.367c-1.269,0.891-0.581,1.196,0.198,1.52c0.779,0.321,0.923,1.09,0.267,2.182
					c-0.655,1.09-0.676,1.736-0.075,3.604c0.6,1.868,0.301,5.157-3.289,4.99c-3.589-0.164-10.706-0.856-13.381-2.534
					c-2.675-1.675-5.89-4.021-6.736-6.858c-0.847-2.837-8.156-16.722-4.733-25.7C315.969,65.101,326.66,65.464,329.616,68.371z"/>
				<path fill-rule="evenodd" clip-rule="evenodd" fill="#FFFFFF" d="M318.565,102.023c-2.869-1.851-11.877,1.61-15.704,0.435
					c-3.826-1.175-15.368-5.645-14.384-18.913c0.985-13.271,8.224-20.732,20.289-22.396c12.065-1.664,18.266,2.195,21.666,8.675
					C333.832,76.302,324.233,94.614,318.565,102.023z"/>
				<path fill-rule="evenodd" clip-rule="evenodd" fill="#FFFFFF" d="M326.81,107.739c-7.655-1.328-9.768,1.766-12.067,13.56
					c-1.653,8.479-0.891,23.209,5.224,48.595c0.189,0.782,0.358,1.539,0.523,2.291h-41.682
					c-0.566-27.468,33.278-52.828,20.028-69.65c-6.678-8.478,9.362-13.018,19.76-8.726
					C328.998,98.102,332.787,108.777,326.81,107.739z"/>
				<path fill-rule="evenodd" clip-rule="evenodd" fill="#EAB46A" d="M253.448,58.182c3.85,7.153,8.374,14.981,33.55,1.102
					c25.175-13.878,44.448-3.088,44.498,9.746c0.616,13.709-20.415,18.54-44.621,15.972
					C267.889,82.986,248.836,75.634,253.448,58.182z"/>
				
					<path fill-rule="evenodd" clip-rule="evenodd" fill="#EAB46A" stroke="#6F6F6F" stroke-width="0.216" stroke-miterlimit="22.9256" d="
					M247.891,94.371c1.418-4.841-0.332-11.452,20.242-4.986c20.574,6.463,28.686-3.699,27.063-11.504
					c-1.391-8.408-16.072-8.783-30.448-4.106C253.471,77.441,242.841,84.362,247.891,94.371z"/>
				
					<ellipse transform="matrix(-0.3101 -0.9507 0.9507 -0.3101 324.3803 413.5573)" fill-rule="evenodd" clip-rule="evenodd" fill="#FFFFFF" cx="312.237" cy="89.087" rx="9.625" ry="4.95"/>
			</g>
		</g>
	</g>
	<g>
		<path fill="#595A5C" d="M378.445,126.815c0.634,1.355,2.248,1.939,3.604,1.307l1.151-0.538c1.355-0.636,1.941-2.248,1.306-3.604
			l-7.344-15.697c-0.634-1.354-2.247-1.94-3.603-1.306l-1.151,0.539c-1.355,0.631-1.941,2.247-1.305,3.604L378.445,126.815z"/>
		<path fill="#279AAB" d="M754,165.575c0,0-55.972-47.357-176.27-47.357l-313.681,5.354l-43.495-25.429
			c0,0-135.169-0.3-200.744,67.433c0,0-20.075,26.249,16.059,48.331c0,0,100.372,35.465,185.354,36.134l5.353-10.038l328.551,0.67
			l3.345,9.368l122.078-24.091C680.551,225.949,792.946,234.349,754,165.575z"/>
		<path fill="#3EAEB7" d="M19.81,165.575c65.576-67.732,200.744-67.433,200.744-67.433l43.495,25.429
			C264.049,123.571,128.787,122.304,19.81,165.575z"/>
		<path fill="#18817E" d="M754,166.768c12.405,21.904,9.445,34.232-0.335,45.232H30.859C1.703,189,19.81,166.768,19.81,166.768
			c0.169-0.176,0.347-0.768,0.518-0.768h733.029C753.785,166,754,166.768,754,166.768z"/>
		<polygon fill="#595A5C" points="399.598,121.744 350.369,67 357.061,67 414.431,121.736 		"/>
		<polygon fill="#A8C6E8" points="357.061,66.024 433.608,120.678 414.431,121.004 		"/>
		<path fill="#111316" d="M681.065,225.949l-119.85,23.599l0.733-39.739c0-20.863,26.757-37.809,51.191-37.809h44.574
			C678.578,172,694,188.82,694,209.685v16.583C686,226.319,681.065,225.949,681.065,225.949z"/>
		<path fill="#4A4A4A" d="M570.542,233.463c0,32.239,26.136,58.375,58.378,58.375c32.24,0,58.376-26.136,58.376-58.375
			c0-32.243-26.136-58.379-58.376-58.379C596.678,175.084,570.542,201.22,570.542,233.463z"/>
		<circle fill="#FFFFFF" cx="628.918" cy="233.463" r="47.001"/>
		<circle fill="#4A4A4A" cx="628.917" cy="233.463" r="41.871"/>
		<circle fill="#FFFFFF" cx="628.918" cy="233.463" r="33.392"/>
		<g>
			<path fill="#4A4A4A" d="M625.304,233.463c0,1.994,1.619,3.612,3.615,3.612c1.996,0,3.613-1.618,3.613-3.612
				c0-1.998-1.617-3.615-3.613-3.615C626.922,229.848,625.304,231.465,625.304,233.463z"/>
			<polygon fill="#4A4A4A" points="637.502,261 628.399,245.233 619.296,261 			"/>
			<polygon fill="#4A4A4A" points="605.503,248.624 618.765,236.15 601.332,230.904 			"/>
			<polygon fill="#4A4A4A" points="609.318,214.853 624.498,224.902 625.611,206.732 			"/>
			<polygon fill="#4A4A4A" points="643.065,210.827 636.761,227.905 654.706,224.824 			"/>
			<polygon fill="#4A4A4A" points="655.743,229.707 638.706,236.127 652.787,247.669 			"/>
		</g>
		<path fill="#111316" d="M183.956,172C204.821,172,219,188.82,219,209.685v40.326c-46-0.648-95.309-11.11-131.471-20.61
			l0.48-19.591c0-20.863,26.939-37.809,51.373-37.809H183.956z"/>
		<path fill="#4A4A4A" d="M96.785,233.463c0,32.239,26.136,58.375,58.377,58.375c32.24,0,58.376-26.136,58.376-58.375
			c0-32.243-26.136-58.379-58.376-58.379C122.921,175.084,96.785,201.22,96.785,233.463z"/>
		<circle fill="#FFFFFF" cx="155.162" cy="233.463" r="47.001"/>
		<circle fill="#4A4A4A" cx="155.162" cy="233.463" r="41.87"/>
		<circle fill="#FFFFFF" cx="155.162" cy="233.463" r="33.391"/>
		<g>
			<path fill="#4A4A4A" d="M151.548,233.463c0,1.994,1.618,3.612,3.614,3.612c1.995,0,3.613-1.618,3.613-3.612
				c0-1.998-1.618-3.615-3.613-3.615C153.166,229.848,151.548,231.465,151.548,233.463z"/>
			<polygon fill="#4A4A4A" points="163.746,261 154.644,245.233 145.54,261 			"/>
			<polygon fill="#4A4A4A" points="131.748,248.624 145.008,236.15 127.575,230.904 			"/>
			<polygon fill="#4A4A4A" points="135.561,214.853 150.743,224.902 151.854,206.732 			"/>
			<polygon fill="#4A4A4A" points="169.31,210.827 163.005,227.905 180.949,224.824 			"/>
			<polygon fill="#4A4A4A" points="181.987,229.707 164.949,236.127 179.03,247.669 			"/>
		</g>
		<path fill="#595A5C" d="M264.049,123.571l-1.554-0.911l3.421-30.54c0,0,11.762-20.427,34.409,30.832L264.049,123.571z"/>
		<path fill="#E45453" d="M49,186H14.341c-0.323-5,0.292-8,1.21-11H49V186z"/>
		<rect x="36" y="175" fill="#DD9427" width="13" height="11"/>
		<path fill="#FFFFFF" d="M735.925,156.991c-2.719,5.355-15.65,4.257-28.88-2.462c-12.495-6.343-20.775-15.419-19.371-20.923
			c21.566,6.646,37.721,14.284,48.684,20.431C736.485,155.114,736.369,156.115,735.925,156.991z"/>
		<path fill="#E5E6E7" d="M723.697,152.226c-1.787,3.521-10.286,2.798-18.98-1.617c-8.212-4.168-13.653-10.133-12.73-13.752
			c14.173,4.367,24.791,9.39,31.996,13.429C724.065,150.993,723.988,151.651,723.697,152.226z"/>
		<path opacity="0.7" fill="#FFFFFF" d="M680.643,139.534c0,0-45.836-15.963-103.048-15.63l-62.9,1.673
			C514.694,125.577,613.341,125.71,680.643,139.534z"/>
		<rect x="692" y="176" fill="#085753" width="17" height="5"/>
		<polygon opacity="0.7" fill="#FFFFFF" points="324.188,128.377 259.631,130.055 222.828,109.239 259.331,135.788 		"/>
	</g>
	<g>
		<path fill-rule="evenodd" clip-rule="evenodd" fill="#EAB46A" d="M238.557,92.384c6.29,5.137,9.985,15.513,31.425-11.803
			c21.439-27.313,41.465-21.199,46.415-9.358c5.807,12.435-13.351,26.297-36.702,33.172
			C261.379,109.788,240.963,110.273,238.557,92.384z"/>
		<path fill-rule="evenodd" clip-rule="evenodd" fill="#EAB46A" d="M328.08,64.611c-17.583,11.993-16.396,22.986-22.224,48.841
			c-5.828,25.852-32.581,39.767-51.693,18.128c15.414,4.501,18.349-0.617,23.312-19.923
			C285.256,81.394,284.154,41.327,328.08,64.611z"/>
		<path fill-rule="evenodd" clip-rule="evenodd" fill="#F05B7A" d="M278.688,134.576v0.745c-1.999,0.379-4.143,0.637-6.447,0.747
			C274.548,135.732,276.692,135.225,278.688,134.576L278.688,134.576z M278.688,97.398c-7.397,7.008-18.695,10.984-30.39,4.729
			c11.331,3.761,22.787-0.583,30.39-6.638V97.398L278.688,97.398z M264.348,80.548c5.265,1.253,10.021,1.977,14.34,2.258v1.379
			C274.385,83.516,269.628,82.331,264.348,80.548z M302.501,97.126c3.186,8.726,1.424,33.418-23.814,38.195v-0.745
			C299.666,127.763,304.014,105.116,302.501,97.126L302.501,97.126z M278.688,82.806c19.806,1.287,30.386-6.766,38.286-16.203
			c-6.799,11.591-16.919,20.916-38.286,17.582V82.806L278.688,82.806z M278.688,97.398c2.746-2.603,4.957-5.622,6.447-8.693
			c-1.55,2.288-3.757,4.643-6.447,6.784V97.398z"/>
	</g>
</g>
</svg>
