<?xml version="1.0" encoding="utf-8"?>
<!-- Generator: Adobe Illustrator 17.0.0, SVG Export Plug-In . SVG Version: 6.00 Build 0)  -->
<!DOCTYPE svg PUBLIC "-//W3C//DTD SVG 1.1//EN" "http://www.w3.org/Graphics/SVG/1.1/DTD/svg11.dtd">
<svg version="1.1" id="Layer_1" xmlns="http://www.w3.org/2000/svg" xmlns:xlink="http://www.w3.org/1999/xlink" x="0px" y="0px"
	 width="96px" height="121px" viewBox="0 0 96 121" enable-background="new 0 0 96 121" xml:space="preserve">
<g>
	<path opacity="0.4" fill="#615248" d="M46.293,84.662c-5.972-10.893-26.894-11.194-31.545-1.71
		c-6.428,13.072,0.227,24.083,13.307,26.256c13.079,2.186,22.826-5.382,24.203-13.649c1.375-8.253,9.404-56.428,9.404-56.428
		c13.066,2.176,19.949,28.783,19.029,34.294c-0.916,5.502-13.531,21.79-5.379,15.37c17.831-14.069,16.97-33.951,5.955-48.522
		c-11.01-14.563-17.896-24.195-17.896-24.195l-5.677-0.947L46.293,84.662z"/>
	<path fill="#D8E028" d="M41.293,84.662c-5.972-10.893-26.894-11.194-31.545-1.71c-6.428,13.072,0.227,24.083,13.307,26.256
		c13.079,2.186,22.826-5.382,24.203-13.649c1.375-8.253,9.404-56.428,9.404-56.428c13.066,2.176,19.949,28.783,19.029,34.294
		c-0.916,5.502-13.531,21.79-5.379,15.37c17.831-14.069,16.97-33.951,5.955-48.522c-11.01-14.563-17.896-24.195-17.896-24.195
		l-5.677-0.947L41.293,84.662z"/>
</g>
</svg>
