<?xml version="1.0" encoding="utf-8"?>
<!-- Generator: Adobe Illustrator 17.0.0, SVG Export Plug-In . SVG Version: 6.00 Build 0)  -->
<!DOCTYPE svg PUBLIC "-//W3C//DTD SVG 1.1//EN" "http://www.w3.org/Graphics/SVG/1.1/DTD/svg11.dtd">
<svg version="1.1" id="Layer_1" xmlns="http://www.w3.org/2000/svg" xmlns:xlink="http://www.w3.org/1999/xlink" x="0px" y="0px"
	 width="96px" height="90px" viewBox="0 0 96 90" enable-background="new 0 0 96 90" xml:space="preserve">
<g opacity="0.4">
	<path fill="#615248" d="M60.319,14.222l22.918,43.673c2.599,4.944,0.463,12.908-7.368,17.02c-7.837,4.114-15.819,0.93-17.666-8.61
		c-1.348-6.916,9.899-15.197,17.472-11.797L64.132,32.653L38.21,38.231L51.912,64.34c2.596,4.947,0.464,12.908-7.373,17.021
		c-7.839,4.107-15.817,0.934-17.663-8.615c-1.347-6.918,9.897-15.187,17.467-11.797L23.876,22.189L60.319,14.222z"/>
	<polygon fill="#615248" points="60.499,25.778 58.545,22.062 32.651,27.64 34.605,31.357 	"/>
</g>
<g>
	<path fill="#F8ED34" d="M55.11,11.013l22.918,43.673c2.599,4.944,0.463,12.908-7.368,17.02c-7.837,4.113-15.819,0.93-17.666-8.61
		c-1.348-6.916,9.899-15.197,17.472-11.797L58.923,29.443l-25.922,5.578l13.702,26.109c2.596,4.948,0.464,12.908-7.373,17.022
		c-7.839,4.107-15.817,0.932-17.663-8.615C20.32,62.618,31.565,54.35,39.134,57.74L18.667,18.979L55.11,11.013z"/>
	<polygon fill="#F8ED34" points="55.29,22.569 53.336,18.852 27.442,24.43 29.396,28.147 	"/>
</g>
</svg>
