<?xml version="1.0" encoding="utf-8"?>
<!-- Generator: Adobe Illustrator 17.0.0, SVG Export Plug-In . SVG Version: 6.00 Build 0)  -->
<!DOCTYPE svg PUBLIC "-//W3C//DTD SVG 1.1//EN" "http://www.w3.org/Graphics/SVG/1.1/DTD/svg11.dtd">
<svg version="1.1" id="Layer_1" xmlns="http://www.w3.org/2000/svg" xmlns:xlink="http://www.w3.org/1999/xlink" x="0px" y="0px"
	 width="96px" height="90px" viewBox="0 0 96 90" enable-background="new 0 0 96 90" xml:space="preserve">
<path opacity="0.4" fill="#615248" d="M56.071,34.777c-5.716-4.188-2.72-26.102-9.393-26.293L46.57,8.481v0.011
	c-6.538,0.061-4.116,21.965-9.895,25.93c-5.913,3.999-25.601-6.175-28.391,0.472C5.431,41.55,27.906,45.832,29.843,52.511
	c1.994,6.664-15.788,22.684-9.813,26.83c6.077,4.13,18.45-15.513,25.99-15.45c0.027,0,0.055,0.008,0.084,0.009
	c7.538,0.209,19.362,19.635,25.521,15.608c6.082-4.023-11.314-20.061-9.156-26.613c2.096-6.543,24.684-10.07,21.986-16.632
	C81.818,29.692,61.887,38.945,56.071,34.777z"/>
<g>
	<g>
		<path fill="#F0882A" d="M88.843,37.725c-2.637-6.57-22.568,2.682-28.384-1.485c-5.716-4.188-2.72-26.102-9.392-26.293
			c-0.035-0.002-0.071,0.007-0.108,0.007c-6.538,0.062-4.116,21.965-9.896,25.93c-5.912,4-25.6-6.174-28.391,0.472
			C9.818,43.012,32.294,47.295,34.23,53.973c1.994,6.664-15.788,22.684-9.812,26.829c6.077,4.131,18.45-15.512,25.99-15.449
			c0.027,0,0.055,0.007,0.084,0.009c7.539,0.208,19.361,19.634,25.521,15.607c6.081-4.023-11.314-20.061-9.157-26.612
			C68.953,47.814,91.541,44.287,88.843,37.725z"/>
	</g>
	<g>
		<path fill="#E3E4E5" d="M50.958,9.944v0.01c0.037,0,0.073-0.009,0.108-0.007L50.958,9.944z"/>
		<path fill="#E3E4E5" d="M42.127,47.824c1.047,0.019,1.921-0.784,1.948-1.788c0.03-1.002-0.79-1.832-1.828-1.851
			c-1.041-0.021-1.917,0.781-1.949,1.786C40.259,46.977,41.074,47.808,42.127,47.824z"/>
		<path fill="#E3E4E5" d="M17.236,35.941c-1.021-0.022-1.925,0.782-2.018,1.798c-0.09,1.012,0.67,1.852,1.698,1.874
			c1.031,0.019,1.934-0.787,2.018-1.8C19.017,36.803,18.26,35.96,17.236,35.941z"/>
		<path fill="#E3E4E5" d="M24.89,38.554c-1.025-0.023-1.924,0.784-2,1.796c-0.074,1.01,0.706,1.845,1.74,1.863
			c1.036,0.019,1.931-0.783,1.998-1.791C26.696,39.413,25.919,38.575,24.89,38.554z"/>
		<path fill="#E3E4E5" d="M35.713,43.639c0.046-1.007-0.751-1.838-1.788-1.857c-1.036-0.021-1.917,0.781-1.974,1.788
			c-0.058,1.008,0.744,1.844,1.785,1.862C34.78,45.451,35.664,44.648,35.713,43.639z"/>
		<path fill="#E3E4E5" d="M28.268,74.084c-1.104-0.01-2.055,0.803-2.119,1.813c-0.063,1.01,0.788,1.837,1.905,1.843
			c1.111,0.01,2.063-0.807,2.119-1.813C30.231,74.919,29.377,74.094,28.268,74.084z"/>
		<path fill="#E3E4E5" d="M34.364,67.657c-1.091-0.01-2.018,0.794-2.07,1.807c-0.058,1.006,0.8,1.833,1.897,1.844
			c1.099,0.01,2.027-0.803,2.07-1.807C36.307,68.493,35.456,67.669,34.364,67.657z"/>
		<path fill="#E3E4E5" d="M40.346,61.039c-1.079-0.015-1.984,0.791-2.027,1.798c-0.04,1.01,0.804,1.832,1.891,1.847
			c1.088,0.009,1.994-0.794,2.025-1.8C42.266,61.88,41.422,61.053,40.346,61.039z"/>
		<path fill="#E3E4E5" d="M45.61,53.829c-1.058-0.018-1.943,0.784-1.971,1.788c-0.034,1.003,0.81,1.832,1.88,1.845
			c1.068,0.018,1.955-0.786,1.975-1.791C47.518,54.669,46.676,53.841,45.61,53.829z"/>
		<path fill="#E3E4E5" d="M50.898,17.241c0.022,0.002,0.044,0.009,0.065,0.01c0.977,0.029,1.784-0.766,1.791-1.767
			c0.011-0.998-0.769-1.837-1.737-1.865c-0.031-0.001-0.06,0.004-0.091,0.004c-0.932,0.023-1.685,0.789-1.702,1.76
			C49.207,16.363,49.949,17.178,50.898,17.241z"/>
		<path fill="#E3E4E5" d="M50.767,32.675c0.015,0.003,0.028,0.006,0.04,0.006c1.014,0.024,1.848-0.769,1.856-1.772
			c0.012-1.002-0.797-1.835-1.802-1.859c-0.021,0-0.042,0.005-0.063,0.006c-0.978,0.013-1.775,0.79-1.792,1.769
			C48.987,31.813,49.775,32.632,50.767,32.675z"/>
		<path fill="#E3E4E5" d="M50.691,40.019c0.006,0,0.01-0.002,0.014-0.002c1.022,0.015,1.861-0.777,1.875-1.776
			c0.011-1-0.813-1.831-1.832-1.851c-0.006,0-0.007,0.002-0.012,0c-1.018-0.016-1.855,0.775-1.875,1.774
			C48.842,39.168,49.661,39.999,50.691,40.019z"/>
		<path fill="#E3E4E5" d="M50.978,20.997c-0.037-0.001-0.074,0.008-0.111,0.009c-0.938,0.033-1.688,0.794-1.71,1.76
			c-0.019,0.973,0.727,1.779,1.678,1.852c0.032,0.001,0.059,0.008,0.089,0.01c0.997,0.025,1.818-0.766,1.826-1.767
			C52.759,21.858,51.967,21.026,50.978,20.997z"/>
		<path fill="#E3E4E5" d="M61.321,45.906c-0.006-1-0.856-1.822-1.893-1.843c-1.041-0.019-1.887,0.777-1.887,1.778
			c0,0.997,0.852,1.823,1.899,1.841C60.487,47.699,61.33,46.904,61.321,45.906z"/>
		<path fill="#E3E4E5" d="M68.248,42.423c-1.036-0.019-1.859,0.774-1.842,1.771c0.017,0.996,0.88,1.82,1.922,1.835
			c1.045,0.021,1.87-0.77,1.843-1.77C70.143,43.266,69.282,42.442,68.248,42.423z"/>
		<path fill="#E3E4E5" d="M76.964,40.006c-1.025-0.021-1.83,0.769-1.796,1.765c0.041,0.994,0.914,1.816,1.951,1.832
			c1.039,0.022,1.844-0.767,1.797-1.761C78.872,40.847,77.996,40.026,76.964,40.006z"/>
		<path fill="#E3E4E5" d="M84.687,37.361c-1.022-0.019-1.808,0.769-1.754,1.758c0.056,0.994,0.938,1.813,1.971,1.834
			c1.035,0.021,1.818-0.764,1.754-1.757C86.595,38.205,85.713,37.384,84.687,37.361z"/>
		<path fill="#E3E4E5" d="M56.662,53.156c-1.057-0.018-1.922,0.782-1.926,1.782c-0.009,1,0.851,1.827,1.92,1.84
			c1.068,0.016,1.933-0.784,1.932-1.782C58.586,53.994,57.723,53.172,56.662,53.156z"/>
		<path fill="#E3E4E5" d="M60.839,61.287c-1.077-0.013-1.951,0.788-1.948,1.787c0.003,1.001,0.886,1.821,1.974,1.834
			c1.087,0.008,1.957-0.789,1.946-1.788C62.801,62.121,61.918,61.302,60.839,61.287z"/>
		<path fill="#E3E4E5" d="M67.07,68.398c-1.096-0.01-1.97,0.79-1.955,1.788c0.014,1,0.917,1.815,2.025,1.825
			c1.1,0.009,1.974-0.792,1.951-1.791C69.07,69.228,68.164,68.41,67.07,68.398z"/>
		<path fill="#E3E4E5" d="M72.502,74.438c-1.111-0.007-1.988,0.793-1.963,1.791c0.023,0.996,0.949,1.812,2.067,1.818
			c1.115,0.006,1.992-0.793,1.958-1.787C74.53,75.262,73.607,74.448,72.502,74.438z"/>
	</g>
</g>
</svg>
