<?xml version="1.0" encoding="utf-8"?>
<!-- Generator: Adobe Illustrator 17.0.0, SVG Export Plug-In . SVG Version: 6.00 Build 0)  -->
<!DOCTYPE svg PUBLIC "-//W3C//DTD SVG 1.1//EN" "http://www.w3.org/Graphics/SVG/1.1/DTD/svg11.dtd">
<svg version="1.1" id="Layer_1" xmlns="http://www.w3.org/2000/svg" xmlns:xlink="http://www.w3.org/1999/xlink" x="0px" y="0px"
	 width="58.5px" height="58px" viewBox="0 0 58.5 58" enable-background="new 0 0 58.5 58" xml:space="preserve">
<path opacity="0.4" fill="#615248" d="M34.684,21.871c-3.147-2.306-1.497-14.368-5.17-14.475l-0.061-0.001v0.006
	c-3.599,0.034-2.265,12.09-5.447,14.273c-3.254,2.202-14.091-3.399-15.627,0.26c-1.57,3.665,10.801,6.021,11.866,9.698
	c1.099,3.667-8.69,12.485-5.399,14.768c3.345,2.274,10.154-8.538,14.305-8.504c0.015,0,0.03,0.005,0.046,0.005
	c4.15,0.115,10.657,10.809,14.048,8.592c3.349-2.215-6.227-11.043-5.038-14.649c1.153-3.601,13.587-5.543,12.102-9.155
	C48.857,19.071,37.886,24.164,34.684,21.871z"/>
<g>
	<g>
		<path fill="#F0882A" d="M54.696,24.15c-1.451-3.616-12.422,1.477-15.624-0.817c-3.147-2.305-1.497-14.368-5.171-14.474
			c-0.019,0-0.039,0.004-0.059,0.004c-3.599,0.035-2.265,12.091-5.447,14.274c-3.253,2.202-14.091-3.399-15.626,0.26
			c-1.571,3.665,10.8,6.021,11.865,9.697c1.099,3.668-8.691,12.486-5.4,14.769c3.346,2.273,10.155-8.538,14.306-8.504
			c0.015,0,0.03,0.004,0.046,0.004c4.15,0.116,10.657,10.809,14.049,8.593c3.348-2.215-6.228-11.043-5.039-14.649
			C43.747,29.703,56.181,27.763,54.696,24.15z"/>
	</g>
	<g>
		<path fill="#E3E4E5" d="M33.841,8.858v0.005c0.021,0,0.04-0.004,0.059-0.004L33.841,8.858z"/>
		<path fill="#E3E4E5" d="M28.98,29.709c0.577,0.012,1.058-0.432,1.073-0.984c0.017-0.551-0.436-1.008-1.006-1.018
			c-0.573-0.012-1.056,0.43-1.073,0.982C27.951,29.243,28.403,29.7,28.98,29.709z"/>
		<path fill="#E3E4E5" d="M15.279,23.168c-0.563-0.012-1.059,0.431-1.111,0.991c-0.049,0.556,0.369,1.018,0.935,1.031
			c0.568,0.01,1.065-0.435,1.11-0.991C16.26,23.642,15.842,23.179,15.279,23.168z"/>
		<path fill="#E3E4E5" d="M19.492,24.607c-0.564-0.013-1.06,0.432-1.102,0.988c-0.041,0.556,0.388,1.016,0.959,1.025
			c0.57,0.01,1.062-0.432,1.099-0.985C20.487,25.08,20.059,24.619,19.492,24.607z"/>
		<path fill="#E3E4E5" d="M25.45,27.406c0.024-0.555-0.416-1.012-0.985-1.023c-0.57-0.011-1.055,0.431-1.086,0.984
			c-0.031,0.556,0.41,1.016,0.981,1.025C24.936,28.402,25.423,27.961,25.45,27.406z"/>
		<path fill="#E3E4E5" d="M21.353,44.164c-0.608-0.005-1.132,0.441-1.167,0.999c-0.036,0.556,0.433,1.011,1.049,1.014
			c0.612,0.006,1.135-0.444,1.166-0.998C22.432,44.623,21.961,44.17,21.353,44.164z"/>
		<path fill="#E3E4E5" d="M24.706,40.627c-0.601-0.006-1.11,0.437-1.14,0.994c-0.031,0.554,0.439,1.01,1.045,1.016
			c0.605,0.005,1.115-0.441,1.141-0.994C25.778,41.087,25.309,40.633,24.706,40.627z"/>
		<path fill="#E3E4E5" d="M28,36.983c-0.595-0.008-1.094,0.436-1.116,0.989c-0.022,0.556,0.441,1.009,1.04,1.018
			c0.6,0.004,1.098-0.438,1.115-0.991C29.057,37.446,28.592,36.992,28,36.983z"/>
		<path fill="#E3E4E5" d="M30.899,33.014c-0.582-0.008-1.07,0.434-1.085,0.986c-0.021,0.551,0.445,1.008,1.034,1.015
			c0.588,0.009,1.076-0.433,1.088-0.986C31.947,33.476,31.485,33.021,30.899,33.014z"/>
		<path fill="#E3E4E5" d="M33.809,12.874c0.013,0.002,0.023,0.006,0.035,0.006c0.537,0.016,0.982-0.421,0.987-0.973
			c0.005-0.55-0.425-1.011-0.957-1.026c-0.016,0-0.033,0.002-0.05,0.002c-0.512,0.014-0.929,0.435-0.938,0.969
			C32.879,12.392,33.287,12.84,33.809,12.874z"/>
		<path fill="#E3E4E5" d="M33.736,21.371c0.009,0.001,0.016,0.003,0.022,0.003c0.558,0.013,1.017-0.423,1.023-0.976
			c0.006-0.552-0.44-1.01-0.994-1.024c-0.011,0-0.021,0.003-0.035,0.005c-0.537,0.007-0.977,0.434-0.985,0.973
			C32.757,20.896,33.19,21.347,33.736,21.371z"/>
		<path fill="#E3E4E5" d="M33.694,25.413c0.005,0,0.006,0,0.008,0c0.565,0.007,1.025-0.429,1.034-0.979
			c0.005-0.552-0.448-1.009-1.009-1.02c-0.004,0-0.006,0.001-0.007,0c-0.562-0.009-1.021,0.427-1.032,0.977
			C32.676,24.944,33.127,25.401,33.694,25.413z"/>
		<path fill="#E3E4E5" d="M33.853,14.942c-0.021-0.001-0.042,0.004-0.063,0.004c-0.514,0.019-0.928,0.438-0.939,0.969
			c-0.01,0.535,0.4,0.979,0.923,1.019c0.019,0,0.034,0.005,0.049,0.006c0.55,0.015,1.003-0.421,1.007-0.973
			C34.832,15.416,34.396,14.958,33.853,14.942z"/>
		<path fill="#E3E4E5" d="M39.545,28.653c-0.002-0.55-0.471-1.002-1.041-1.014c-0.572-0.01-1.038,0.427-1.038,0.979
			c0,0.548,0.469,1.004,1.046,1.014C39.087,29.641,39.551,29.203,39.545,28.653z"/>
		<path fill="#E3E4E5" d="M43.36,26.735c-0.572-0.01-1.024,0.427-1.015,0.976c0.009,0.549,0.484,1.003,1.059,1.01
			c0.575,0.013,1.029-0.423,1.013-0.974C44.402,27.201,43.928,26.747,43.36,26.735z"/>
		<path fill="#E3E4E5" d="M48.156,25.405c-0.564-0.011-1.007,0.423-0.988,0.972c0.021,0.547,0.504,1,1.074,1.009
			c0.571,0.013,1.016-0.422,0.99-0.97C49.206,25.868,48.725,25.417,48.156,25.405z"/>
		<path fill="#E3E4E5" d="M52.408,23.95c-0.563-0.012-0.995,0.423-0.965,0.967c0.031,0.547,0.517,0.999,1.085,1.01
			c0.568,0.012,1-0.42,0.966-0.967C53.457,24.414,52.973,23.962,52.408,23.95z"/>
		<path fill="#E3E4E5" d="M36.981,32.645c-0.58-0.009-1.057,0.431-1.059,0.98c-0.005,0.552,0.468,1.006,1.057,1.013
			c0.589,0.009,1.065-0.431,1.063-0.981C38.04,33.105,37.565,32.652,36.981,32.645z"/>
		<path fill="#E3E4E5" d="M39.279,37.12c-0.592-0.007-1.073,0.435-1.072,0.984c0.003,0.55,0.487,1.001,1.087,1.008
			c0.599,0.006,1.077-0.434,1.071-0.983C40.36,37.579,39.874,37.127,39.279,37.12z"/>
		<path fill="#E3E4E5" d="M42.711,41.035c-0.604-0.006-1.084,0.435-1.077,0.984c0.009,0.55,0.505,0.998,1.114,1.004
			c0.606,0.006,1.088-0.436,1.075-0.985C43.811,41.492,43.314,41.041,42.711,41.035z"/>
		<path fill="#E3E4E5" d="M45.699,44.36c-0.61-0.005-1.094,0.436-1.08,0.985c0.014,0.549,0.523,0.997,1.139,1.001
			c0.613,0.003,1.098-0.437,1.077-0.984C46.817,44.813,46.309,44.364,45.699,44.36z"/>
	</g>
</g>
</svg>
