<?xml version="1.0" encoding="utf-8"?>
<!-- Generator: Adobe Illustrator 17.0.0, SVG Export Plug-In . SVG Version: 6.00 Build 0)  -->
<!DOCTYPE svg PUBLIC "-//W3C//DTD SVG 1.1//EN" "http://www.w3.org/Graphics/SVG/1.1/DTD/svg11.dtd">
<svg version="1.1" id="Layer_1" xmlns="http://www.w3.org/2000/svg" xmlns:xlink="http://www.w3.org/1999/xlink" x="0px" y="0px"
	 width="96px" height="94px" viewBox="0 0 96 94" enable-background="new 0 0 96 94" xml:space="preserve">
<path opacity="0.4" fill="#615248" d="M55.354,31.883c-7.214-3.228-9.081-27.825-16.401-26.47l-0.119,0.023l0.002,0.012
	c-7.113,1.598,0.66,24.914-4.713,30.59c-5.512,5.748-29.361-0.734-30.846,7.168c-1.553,7.926,23.956,7.329,27.633,14.158
	c3.734,6.799-11.899,28.432-4.414,31.554c7.594,3.078,16.484-21.237,24.721-22.936c0.029-0.008,0.062-0.006,0.092-0.012
	c8.27-1.537,25.715,16.874,31.485,11.042c5.688-5.813-17.036-19.225-16.22-26.875c0.751-7.625,24.557-16.763,20.077-23.285
	C82.238,20.305,62.673,35.062,55.354,31.883z"/>
<g>
	<path fill="#F0882A" d="M91.777,27.418c-4.414-6.546-23.979,8.213-31.295,5.031C53.266,29.22,51.401,4.626,44.079,5.98
		c-0.04,0.006-0.076,0.025-0.117,0.033c-7.113,1.599,0.658,24.915-4.715,30.592c-5.51,5.746-29.358-0.734-30.846,7.164
		c-1.551,7.929,23.959,7.332,27.636,14.16c3.734,6.799-11.901,28.434-4.414,31.554c7.594,3.08,16.484-21.237,24.721-22.936
		c0.028-0.006,0.06-0.006,0.092-0.01c8.269-1.539,25.711,16.872,31.483,11.038c5.689-5.811-17.037-19.221-16.22-26.872
		C72.454,43.078,96.257,33.94,91.777,27.418z"/>
</g>
<g>
	<path fill="#E3E4E5" d="M43.96,6.001l0.002,0.012c0.041-0.008,0.077-0.027,0.117-0.033L43.96,6.001z"/>
	<path fill="#E3E4E5" d="M43.206,49.375c1.145-0.227,1.912-1.306,1.704-2.407c-0.199-1.1-1.29-1.812-2.425-1.589
		c-1.141,0.223-1.908,1.302-1.709,2.405C40.971,48.888,42.055,49.604,43.206,49.375z"/>
	<path fill="#E3E4E5" d="M13.282,42.25c-1.119,0.215-1.916,1.303-1.777,2.433c0.138,1.125,1.162,1.861,2.289,1.646
		c1.129-0.223,1.925-1.313,1.779-2.436C15.425,42.771,14.403,42.029,13.282,42.25z"/>
	<path fill="#E3E4E5" d="M22.239,43.306c-1.125,0.215-1.915,1.305-1.762,2.426c0.158,1.119,1.203,1.846,2.336,1.623
		c1.134-0.221,1.92-1.305,1.76-2.42C24.409,43.819,23.366,43.088,22.239,43.306z"/>
	<path fill="#E3E4E5" d="M35.232,46.315c-0.185-1.108-1.248-1.828-2.384-1.606c-1.136,0.219-1.907,1.301-1.735,2.412
		c0.176,1.112,1.246,1.836,2.384,1.611C34.64,48.508,35.415,47.426,35.232,46.315z"/>
	<path fill="#E3E4E5" d="M34.249,81.255c-1.207,0.247-2.054,1.356-1.889,2.474c0.168,1.115,1.291,1.817,2.51,1.562
		c1.215-0.249,2.061-1.362,1.887-2.474C36.584,81.706,35.458,81.005,34.249,81.255z"/>
	<path fill="#E3E4E5" d="M39.388,72.819c-1.19,0.245-2.014,1.339-1.835,2.454c0.175,1.111,1.304,1.812,2.503,1.565
		c1.199-0.245,2.022-1.349,1.834-2.454C41.702,73.275,40.581,72.575,39.388,72.819z"/>
	<path fill="#E3E4E5" d="M44.36,64.201c-1.181,0.237-1.978,1.327-1.788,2.435c0.192,1.111,1.305,1.81,2.492,1.572
		c1.19-0.246,1.988-1.334,1.787-2.438C46.65,64.669,45.536,63.963,44.36,64.201z"/>
	<path fill="#E3E4E5" d="M48.411,55.106c-1.158,0.228-1.936,1.31-1.732,2.412c0.2,1.1,1.313,1.808,2.483,1.57
		c1.168-0.23,1.947-1.316,1.734-2.416C50.687,55.575,49.573,54.869,48.411,55.106z"/>
	<path fill="#E3E4E5" d="M45.605,13.973c0.025-0.004,0.051-0.002,0.073-0.004c1.071-0.198,1.766-1.255,1.539-2.347
		c-0.223-1.092-1.269-1.823-2.329-1.627c-0.037,0.006-0.066,0.019-0.1,0.027c-1.01,0.242-1.652,1.253-1.443,2.316
		C43.556,13.412,44.556,14.126,45.605,13.973z"/>
	<path fill="#E3E4E5" d="M49.077,30.834c0.017-0.002,0.031-0.002,0.043-0.004c1.113-0.211,1.837-1.273,1.612-2.369
		c-0.223-1.094-1.301-1.813-2.402-1.604c-0.021,0.006-0.044,0.016-0.067,0.021c-1.061,0.243-1.752,1.277-1.539,2.348
		C46.935,30.309,47.985,31.017,49.077,30.834z"/>
	<path fill="#E3E4E5" d="M50.718,38.858c0.006-0.002,0.008-0.003,0.013-0.005c1.119-0.223,1.849-1.285,1.628-2.379
		c-0.221-1.092-1.314-1.803-2.432-1.588c-0.006,0.002-0.008,0.004-0.012,0.004c-1.113,0.221-1.842,1.279-1.631,2.373
		C48.499,38.363,49.589,39.077,50.718,38.858z"/>
	<path fill="#E3E4E5" d="M46.572,18.049c-0.04,0.007-0.081,0.027-0.119,0.036c-1.015,0.255-1.654,1.261-1.452,2.318
		c0.207,1.065,1.209,1.769,2.262,1.625c0.035-0.006,0.065-0.004,0.1-0.01c1.094-0.206,1.805-1.261,1.578-2.354
		C48.714,18.571,47.656,17.849,46.572,18.049z"/>
	<path fill="#E3E4E5" d="M63.686,42.787c-0.241-1.09-1.362-1.787-2.495-1.566c-1.139,0.223-1.876,1.289-1.643,2.38
		c0.234,1.088,1.357,1.788,2.503,1.563C63.196,44.935,63.929,43.873,63.686,42.787z"/>
	<path fill="#E3E4E5" d="M70.421,37.365c-1.134,0.223-1.846,1.28-1.592,2.363c0.251,1.082,1.385,1.778,2.525,1.55
		c1.143-0.221,1.859-1.276,1.596-2.36C72.686,37.842,71.554,37.142,70.421,37.365z"/>
	<path fill="#E3E4E5" d="M79.361,32.689c-1.125,0.217-1.816,1.266-1.547,2.343c0.279,1.075,1.424,1.767,2.557,1.541
		c1.139-0.219,1.832-1.269,1.548-2.341C81.638,33.159,80.488,32.468,79.361,32.689z"/>
	<path fill="#E3E4E5" d="M87.163,27.995c-1.121,0.219-1.793,1.261-1.503,2.327c0.294,1.071,1.448,1.756,2.577,1.537
		c1.136-0.219,1.806-1.258,1.504-2.325C89.439,28.467,88.283,27.78,87.163,27.995z"/>
	<path fill="#E3E4E5" d="M60.305,51.783c-1.155,0.228-1.913,1.303-1.683,2.394c0.225,1.092,1.354,1.792,2.523,1.557
		c1.17-0.234,1.924-1.309,1.688-2.397C62.6,52.245,61.464,51.552,60.305,51.783z"/>
	<path fill="#E3E4E5" d="M66.764,59.67c-1.179,0.238-1.944,1.316-1.706,2.404c0.236,1.092,1.392,1.779,2.581,1.539
		c1.187-0.247,1.95-1.32,1.704-2.406C69.097,60.121,67.943,59.433,66.764,59.67z"/>
	<path fill="#E3E4E5" d="M75.223,65.964c-1.195,0.246-1.962,1.322-1.712,2.409c0.25,1.086,1.424,1.763,2.637,1.516
		c1.199-0.25,1.965-1.326,1.708-2.41C77.599,66.399,76.42,65.72,75.223,65.964z"/>
	<path fill="#E3E4E5" d="M82.562,71.278c-1.213,0.253-1.98,1.329-1.721,2.412c0.258,1.08,1.459,1.752,2.68,1.498
		c1.217-0.255,1.986-1.331,1.715-2.408C84.966,71.702,83.771,71.03,82.562,71.278z"/>
</g>
</svg>
