<?xml version="1.0" encoding="utf-8"?>
<!-- Generator: Adobe Illustrator 17.0.0, SVG Export Plug-In . SVG Version: 6.00 Build 0)  -->
<!DOCTYPE svg PUBLIC "-//W3C//DTD SVG 1.1//EN" "http://www.w3.org/Graphics/SVG/1.1/DTD/svg11.dtd">
<svg version="1.1" id="Layer_1" xmlns="http://www.w3.org/2000/svg" xmlns:xlink="http://www.w3.org/1999/xlink" x="0px" y="0px"
	 width="141.014px" height="215.799px" viewBox="0 0 141.014 215.799" enable-background="new 0 0 141.014 215.799"
	 xml:space="preserve">
<g>
	<defs>
		<rect id="SVGID_1_" x="10.458" y="-15.693" width="120.099" height="231.492"/>
	</defs>
	<clipPath id="SVGID_2_">
		<use xlink:href="#SVGID_1_"  overflow="visible"/>
	</clipPath>
	<g clip-path="url(#SVGID_2_)">
		<g opacity="0.4">
			<path fill="#615248" d="M105.014,106.143c0,46.146-37.408,83.548-83.547,83.548c-46.14,0-83.546-37.402-83.546-83.548
				c0-46.137,37.407-83.547,83.546-83.547C67.606,22.596,105.014,60.006,105.014,106.143"/>
			<path fill="#615248" d="M92.787,106.143c0,39.389-31.935,71.32-71.319,71.32c-39.392,0-71.32-31.932-71.32-71.32
				s31.929-71.32,71.32-71.32C60.852,34.822,92.787,66.754,92.787,106.143"/>
			<path fill="#615248" d="M83.497,106.143c0,34.259-27.773,62.031-62.029,62.031c-34.258,0-62.03-27.773-62.03-62.031
				c0-34.255,27.773-62.029,62.03-62.029C55.724,44.113,83.497,71.888,83.497,106.143"/>
			<path fill="#615248" d="M30.549,169.57l-0.584-4.037c0.668-0.088,1.321-0.193,1.974-0.311l0.711,4.017
				C31.957,169.359,31.253,169.471,30.549,169.57 M-10.505,161.684c-0.61-0.359-1.221-0.729-1.819-1.105l2.152-3.45
				c0.565,0.347,1.137,0.688,1.708,1.021L-10.505,161.684z M69.169,148.916l-3.035-2.723c0.446-0.49,0.885-0.994,1.3-1.504
				l3.13,2.613C70.108,147.847,69.638,148.387,69.169,148.916 M-38.711,128.166c-0.245-0.672-0.477-1.333-0.699-2.013l3.861-1.276
				c0.214,0.636,0.434,1.264,0.665,1.89L-38.711,128.166z M85.492,108.27l-4.067-0.127c0.018-0.667,0.027-1.333,0.027-2v-0.245
				h4.081v0.245C85.533,106.858,85.519,107.564,85.492,108.27 M-34.964,85.742l-3.832-1.386c0.246-0.675,0.498-1.346,0.768-1.999
				l3.771,1.521C-34.505,84.494-34.743,85.111-34.964,85.742 M68.55,68.969c-0.413-0.522-0.828-1.036-1.264-1.544l3.115-2.63
				c0.455,0.539,0.907,1.086,1.349,1.647L68.55,68.969z M-8.656,54.255l-2.05-3.521c0.604-0.359,1.224-0.703,1.853-1.035
				l1.931,3.581C-7.507,53.597-8.092,53.926-8.656,54.255 M33.67,47.397c-0.653-0.136-1.306-0.263-1.962-0.372l0.694-4.017
				c0.703,0.119,1.398,0.255,2.088,0.396L33.67,47.397z"/>
			<polygon fill="#615248" points="11.041,96.589 64.348,63.623 30.15,115.691 			"/>
			<polygon fill="#615248" points="30.15,115.691 -23.155,148.662 11.041,96.589 			"/>
			<path fill="#615248" d="M26.747,112.295c-3.394,3.393-8.905,3.393-12.302,0c-3.394-3.394-3.39-8.901,0.004-12.304
				c3.396-3.394,8.9-3.394,12.294,0C30.146,103.394,30.146,108.901,26.747,112.295"/>
		</g>
		<g>
			<path fill="#1B3664" d="M96.332,100.497c0,46.146-37.409,83.547-83.547,83.547c-46.14,0-83.546-37.401-83.546-83.547
				c0-46.137,37.407-83.548,83.546-83.548C58.924,16.949,96.332,54.36,96.332,100.497"/>
			<path fill="#FFFFFF" d="M84.104,100.497c0,39.389-31.935,71.319-71.319,71.319c-39.392,0-71.32-31.931-71.32-71.319
				c0-39.39,31.929-71.32,71.32-71.32C52.17,29.177,84.104,61.108,84.104,100.497"/>
			<path fill="#FFFFFF" d="M74.814,100.497c0,34.259-27.772,62.03-62.029,62.03c-34.258,0-62.03-27.771-62.03-62.03
				c0-34.255,27.772-62.029,62.03-62.029C47.042,38.468,74.814,66.242,74.814,100.497"/>
			<path fill="#746FB3" d="M21.867,163.925l-0.584-4.038c0.669-0.088,1.321-0.192,1.974-0.311l0.711,4.016
				C23.274,163.714,22.57,163.824,21.867,163.925 M-19.187,156.037c-0.611-0.359-1.221-0.728-1.819-1.105l2.152-3.45
				c0.565,0.347,1.137,0.688,1.708,1.021L-19.187,156.037z M60.486,143.271l-3.035-2.723c0.446-0.49,0.885-0.995,1.3-1.505
				l3.129,2.613C61.425,142.201,60.955,142.74,60.486,143.271 M-47.394,122.52c-0.245-0.671-0.476-1.333-0.699-2.013l3.861-1.275
				c0.214,0.636,0.434,1.263,0.665,1.89L-47.394,122.52z M76.81,102.623l-4.067-0.127c0.018-0.666,0.027-1.332,0.027-1.999v-0.245
				h4.081v0.245C76.85,101.211,76.837,101.917,76.81,102.623 M-43.647,80.097l-3.832-1.386c0.246-0.675,0.498-1.346,0.768-1.999
				l3.771,1.521C-43.188,78.848-43.426,79.465-43.647,80.097 M59.868,63.322c-0.413-0.522-0.828-1.035-1.264-1.544l3.115-2.63
				c0.455,0.539,0.907,1.086,1.349,1.648L59.868,63.322z M-17.338,48.608l-2.05-3.521c0.605-0.359,1.224-0.702,1.853-1.035
				l1.931,3.582C-16.19,47.951-16.775,48.279-17.338,48.608 M24.987,41.75c-0.653-0.135-1.305-0.263-1.962-0.371l0.694-4.017
				c0.703,0.118,1.398,0.254,2.088,0.396L24.987,41.75z"/>
			<polygon fill="#1072BA" points="2.359,90.942 55.666,57.978 21.468,110.046 			"/>
			<polygon fill="#EC2227" points="21.468,110.046 -31.837,143.017 2.359,90.942 			"/>
			<path fill="#CDCCCC" d="M18.064,106.649c-3.394,3.394-8.905,3.394-12.302,0c-3.395-3.394-3.391-8.901,0.004-12.304
				c3.397-3.394,8.9-3.394,12.294,0C21.464,97.747,21.464,103.255,18.064,106.649"/>
		</g>
	</g>
</g>
</svg>
