<?xml version="1.0" encoding="utf-8"?>
<!-- Generator: Adobe Illustrator 17.0.0, SVG Export Plug-In . SVG Version: 6.00 Build 0)  -->
<!DOCTYPE svg PUBLIC "-//W3C//DTD SVG 1.1//EN" "http://www.w3.org/Graphics/SVG/1.1/DTD/svg11.dtd">
<svg version="1.1" id="Layer_1" xmlns="http://www.w3.org/2000/svg" xmlns:xlink="http://www.w3.org/1999/xlink" x="0px" y="0px"
	 width="73.655px" height="85.085px" viewBox="0 0 73.655 85.085" enable-background="new 0 0 73.655 85.085" xml:space="preserve">
<g>
	<defs>
		<rect id="SVGID_1_" x="4.84" y="-10.191" width="79.939" height="95.275"/>
	</defs>
	<clipPath id="SVGID_2_">
		<use xlink:href="#SVGID_1_"  overflow="visible"/>
	</clipPath>
	<g clip-path="url(#SVGID_2_)">
		<path opacity="0.4" fill="#615248" d="M66.527,39.669c0.094,1.83-0.21,3.705-0.849,5.574c0.596,0.924,0.871,1.654,0.716,2.102
			c-0.244,0.699-0.863,0.752-1.743,0.348c-0.968,1.93-2.292,3.822-3.899,5.627c0.485,0.938,0.748,1.639,0.696,2
			c-0.331,2.217-1.721,2.387-3.327,0.645c-1.823,1.648-3.892,3.184-6.153,4.557c0.262,0.898,0.355,1.502,0.203,1.686
			c-1.196,1.459-2.822,1.916-3.904,0.33c-4.378,2.123-9.289,3.625-14.437,4.23c-0.21,1.191-0.537,1.881-1.009,1.887
			c-0.448,0.006-0.812-0.619-1.111-1.691c-3.151,0.213-6.371,0.092-9.599-0.455c-1.35-0.229-2.721-0.539-4.1-0.914
			c-0.692,1.191-1.353,1.852-1.962,1.768c-0.674-0.096-0.882-1.053-0.77-2.588c-5.168-1.715-10.384-4.324-15.099-7.502
			c-1.123,0.709-1.972,0.842-2.409,0.139c-0.291-0.459-0.294-1.113-0.077-1.908c-3.225-2.406-6.136-5.068-8.546-7.871
			c-1.418,0.203-2.267-1.01-2.411-2.666c-0.006-0.074,0.034-0.17,0.106-0.281c-2.041-2.902-3.492-5.896-4.158-8.873
			c-0.027-0.066-0.037-0.148-0.049-0.223c-0.715-3.387-0.402-6.733,1.242-9.871c-0.43-0.217-0.612-0.561-0.48-1.047
			c0.141-0.504,0.917-0.994,2.123-1.467c0.486-0.609,1.015-1.215,1.621-1.803C-2.124,10.989,7.548,12.7,10.826,10.821
			c3.281-1.875,0.103-6.221,6.303-7.551c6.201-1.326,31.476,3.645,31.476,3.645c3.26-1.455,1.963,9.004,3.267,11.922
			C53.174,21.755,65.796,25.587,66.527,39.669z"/>
		<g>
			<path fill="#F9DBA7" d="M38.546,10.268c2.951-2.006,3.518,8.518,5.315,11.16c1.797,2.642,14.896,4.189,18.099,17.922
				c3.202,13.732-15.949,34.033-38.989,34.244C-0.069,73.809-32.833,54.04-19.399,35.36C-10.671,23.22-0.85,23.198,2.047,20.772
				c2.897-2.424-0.994-6.141,4.874-8.541C12.789,9.831,38.546,10.268,38.546,10.268z"/>
			<path opacity="0.6" fill="#F9EAD1" d="M27.279,44.639c-0.249,6.33-3.885,12.404-8.398,16.695
				c-3.433,3.26-7.02,5.418-11.588,6.531c-1.51,0.367-3.054,0.688-4.611,0.822c-0.018-1.17-0.305-2.389-0.949-3.605
				c-4.66-8.813-14.346-16.74-11.441-27.613c3.565-13.357,18.005-11.381,28.873-8.156C25.235,31.11,27.501,38.989,27.279,44.639z"/>
			<path fill="#D7B576" d="M35.198,27.171c0,0,28.563,16.078,27.985,19.758C62.33,52.36,35.198,27.171,35.198,27.171z"/>
			<path fill="#D7B576" d="M30.821,27.419c0,0,28.8,24.963,28.899,28.231c0.1,3.266-2.792,2.65-6.013-1.899
				C50.483,49.202,30.821,27.419,30.821,27.419z"/>
			<path fill="#D7B576" d="M27.421,28.528c0,0,25.476,33.576,24.383,35.535c-1.095,1.957-3.033,2.668-4.519,0.041
				C45.803,61.477,27.421,28.528,27.421,28.528z"/>
			<path fill="#D7B576" d="M9.449,26.891c0,0-31.62,8.637-31.956,12.346C-23.001,44.708,9.449,26.891,9.449,26.891z"/>
			<path fill="#D7B576" d="M13.634,28.198c0,0-34.013,17.195-34.906,20.34c-0.893,3.145,2.062,3.25,6.293-0.377
				C-10.744,44.534,13.634,28.198,13.634,28.198z"/>
			<path fill="#D7B576" d="M16.66,30.098c0,0-32.89,26.361-32.304,28.527c0.583,2.166,2.291,3.328,4.372,1.143
				C-9.193,57.579,16.66,30.098,16.66,30.098z"/>
			<path fill="#D7B576" d="M19.108,31.139c0,0-25.788,33.301-21.698,37.793C1.497,73.425,19.108,31.139,19.108,31.139z"/>
			<path fill="#D7B576" d="M33.891,73.821c3.749-0.73-9.607-43.498-9.607-43.498S30.144,74.55,33.891,73.821z"/>
			<path fill="#D7B576" d="M22.024,31.862c0,0-0.144,43.463-4.868,43.642C12.431,75.686,22.024,31.862,22.024,31.862z"/>
		</g>
	</g>
</g>
</svg>
