<?xml version="1.0" encoding="utf-8"?>
<!-- Generator: Adobe Illustrator 17.0.0, SVG Export Plug-In . SVG Version: 6.00 Build 0)  -->
<!DOCTYPE svg PUBLIC "-//W3C//DTD SVG 1.1//EN" "http://www.w3.org/Graphics/SVG/1.1/DTD/svg11.dtd">
<svg version="1.1" id="Layer_1" xmlns="http://www.w3.org/2000/svg" xmlns:xlink="http://www.w3.org/1999/xlink" x="0px" y="0px"
	 width="261.285px" height="238px" viewBox="0 0 261.285 238" enable-background="new 0 0 261.285 238" xml:space="preserve">
<g opacity="0.4">
	<polygon fill="#615248" points="178.946,15.432 128.109,43.366 77.404,15.5 21.537,42.813 21.537,232.215 77.271,204.963 
		128.109,229.815 178.946,204.963 234.68,232.215 234.68,46.059 	"/>
	<g>
		<defs>
			<polygon id="SVGID_1_" points="178.946,21.023 128.109,48.959 77.271,21.023 26.436,45.876 26.436,224.362 77.271,199.51 
				128.109,224.362 178.946,199.51 229.78,224.362 229.78,48.959 			"/>
		</defs>
		<use xlink:href="#SVGID_1_"  overflow="visible" fill="#615248"/>
		<clipPath id="SVGID_2_">
			<use xlink:href="#SVGID_1_"  overflow="visible"/>
		</clipPath>
		<g clip-path="url(#SVGID_2_)">
			<polygon fill="#615248" points="26.436,45.876 77.285,21.023 128.123,48.959 178.946,21.023 229.78,48.959 229.78,224.362 
				178.946,199.51 128.123,224.362 77.285,199.51 26.436,224.362 			"/>
			<g>
				<path fill="#615248" d="M229.78,110.152c-12.59,14.303-21.046,35.369-26.76,58.055c-1.33,5.271-2.45,10.74-3.646,16.129
					c-0.564-1.229-1.559-2.184-3.072-2.505c-22.763-4.763-43.903-16.983-66.138-24.36c-6.299-2.091-8.97,10.35-2.682,12.44
					c22.236,7.369,43.371,19.603,66.133,24.36c1.394,0.297,2.601-0.098,3.583-0.858c-1.189,4.502-2.56,8.862-4.302,12.917
					l9.539,4.664c2.081-4.99,3.764-10.355,5.102-15.926c5.549-23.059,11.31-48.307,22.242-66.302V110.152z"/>
				<path fill="#615248" d="M198.712,43.354c-10.748,13.274-19.954,28.936-33.119,38.448c-8.226,5.945-18.837,6.982-28.039,8.332
					c-9.596,1.408-19.271,1.924-28.922,2.286c-16.516,0.614-33.18-0.354-49.84-1.021c0.276-19.736-4.004-38.473-8.803-57.038
					l-9.415,4.604c4.396,16.951,8.309,34.061,8.13,52.085c-7.435-0.208-14.862-0.277-22.268-0.045v13.07
					c11.354-0.13,22.736,0.521,34.052,1.021c9.464,0.418,18.946,0.618,28.43,0.602c-16.788,29.11-27.409,63.219-42.909,93.432
					c-3.58,6.975,5.151,13.434,8.709,6.516c16.468-32.107,27.101-69.21,46.286-99.028c0.237-0.357,0.418-0.728,0.584-1.11
					c6.238-0.15,12.467-0.382,18.688-0.765c17.408-1.062,37.015-2.122,52.498-13.311c13.643-9.87,23.166-27.049,34.471-40.669
					c7.211,5.918,14.711,11.111,22.535,14.971V51.87c-6.533-3.603-12.824-8.194-18.889-13.294l-31.945-17.553l-1.861,1.024
					C184.011,29.137,191.196,36.498,198.712,43.354z"/>
			</g>
			<polygon fill="#615248" points="183.014,201.494 184.647,196.35 80.969,152.684 59.952,207.98 77.285,199.51 128.123,224.362 
				178.946,199.51 			"/>
		</g>
	</g>
	<polygon opacity="0.15" fill="#615248" points="77.285,21.023 77.285,199.51 128.123,224.362 128.123,48.959 	"/>
	<polygon opacity="0.15" fill="#615248" points="178.946,21.023 178.946,199.51 229.78,224.362 229.78,48.959 	"/>
	<g>
		<path fill="#615248" d="M133.587,102.104h-0.002v18.379h0.002c3.379,0,6.122,2.741,6.122,6.12c0,3.38-2.743,6.121-6.122,6.121
			h-0.002v42.881l21.208-36.748c2.089-3.607,3.29-7.784,3.29-12.254C158.083,113.072,147.115,102.104,133.587,102.104z"/>
		<path fill="#615248" d="M133.583,102.104h0.002v18.379h-0.002c-3.381,0-6.123,2.741-6.123,6.12c0,3.38,2.742,6.121,6.123,6.121
			h0.002v42.881l-21.209-36.748c-2.088-3.607-3.29-7.784-3.29-12.254C109.086,113.072,120.052,102.104,133.583,102.104z"/>
	</g>
</g>
<g>
	<polygon fill="#FFFFFF" points="182.044,11.507 129.697,36.497 80.664,5.785 23.33,29.868 12.529,218.962 69.727,194.932 
		119.065,222.643 171.236,200.729 225.326,231.115 235.941,45.263 	"/>
	<g>
		<defs>
			<polygon id="SVGID_3_" points="181.725,17.09 129.378,42.081 80.216,11.292 28.046,33.205 17.869,211.401 70.038,189.487 
				119.376,217.199 171.547,195.285 220.881,222.996 230.883,47.879 			"/>
		</defs>
		<clipPath id="SVGID_4_">
			<use xlink:href="#SVGID_3_"  overflow="visible"/>
		</clipPath>
		<g clip-path="url(#SVGID_4_)">
			<polygon fill="#FEE18F" points="28.046,33.205 80.23,11.293 129.392,42.082 181.725,17.09 230.883,47.879 220.881,222.996 
				171.547,195.285 119.389,217.199 70.051,189.488 17.869,211.401 			"/>
			<g>
				<path fill="#FFCA2A" d="M227.394,108.973c-13.385,13.562-23.028,34.111-30.026,56.434c-1.629,5.186-3.059,10.584-4.561,15.895
					c-0.494-1.259-1.432-2.269-2.925-2.677c-22.454-6.053-42.863-19.459-64.641-28.092c-6.17-2.446-9.546,9.821-3.387,12.268
					c21.78,8.625,42.183,22.044,64.636,28.092c1.374,0.376,2.602,0.051,3.626-0.653c-1.443,4.427-3.061,8.702-5.031,12.651
					l9.258,5.2c2.362-4.863,4.348-10.123,6.003-15.609c6.854-22.704,14.045-47.583,25.986-64.925L227.394,108.973z"/>
				<path fill="#FFCA2A" d="M200.186,40.512c-11.487,12.64-21.571,27.75-35.258,36.497c-8.551,5.467-19.204,5.896-28.468,6.72
					c-9.661,0.858-19.35,0.821-29.005,0.633c-16.523-0.328-33.105-2.245-49.7-3.86c1.401-19.688-1.804-38.639-5.536-57.447
					l-9.662,4.059c3.422,17.175,6.353,34.479,5.146,52.464c-7.412-0.632-14.822-1.124-22.229-1.314l-0.746,13.049
					c11.343,0.518,22.669,1.817,33.938,2.962c9.425,0.957,18.88,1.697,28.349,2.222c-18.42,28.105-30.969,61.553-48.167,90.833
					c-3.972,6.759,4.377,13.705,8.323,7.001c18.272-31.116,31.003-67.552,51.858-96.228c0.257-0.343,0.459-0.702,0.646-1.075
					c6.236,0.205,12.468,0.33,18.701,0.303c17.44-0.067,37.075-0.009,53.172-10.296c14.184-9.076,24.671-25.684,36.733-38.637
					c6.862,6.319,14.054,11.932,21.645,16.231l0.79-13.842c-6.317-3.97-12.336-8.912-18.1-14.35L181.725,17.09l-1.917,0.916
					C186.32,25.479,193.073,33.237,200.186,40.512z"/>
			</g>
			<polygon fill="#3A9444" points="175.496,197.499 177.42,192.456 76.4,142.949 52.264,196.957 70.051,189.488 119.389,217.199 
				171.547,195.285 			"/>
		</g>
	</g>
	<polygon opacity="0.15" fill="#010101" points="80.23,11.293 70.051,189.488 119.389,217.199 129.392,42.082 	"/>
	<polygon opacity="0.15" fill="#010101" points="181.725,17.09 171.547,195.285 220.881,222.996 230.883,47.879 	"/>
	<g>
		<path fill="#D91F26" d="M131.816,95.451h-0.002l-1.048,18.349l0.002,0.001c3.373,0.192,5.956,3.085,5.763,6.459
			s-3.088,5.955-6.461,5.762h-0.002l-2.445,42.812l23.27-35.48c2.291-3.482,3.729-7.584,3.983-12.046
			C155.647,107.799,145.322,96.223,131.816,95.451z"/>
		<path fill="#ED1C24" d="M131.812,95.451h0.002l-1.048,18.349h-0.002c-3.376-0.192-6.27,2.388-6.462,5.761
			c-0.193,3.375,2.389,6.268,5.764,6.461h0.002l-2.445,42.812l-19.079-37.898c-1.879-3.72-2.841-7.959-2.586-12.421
			C106.73,105.005,118.304,94.68,131.812,95.451z"/>
	</g>
</g>
</svg>
