<?xml version="1.0" encoding="utf-8"?>
<!-- Generator: Adobe Illustrator 17.0.0, SVG Export Plug-In . SVG Version: 6.00 Build 0)  -->
<!DOCTYPE svg PUBLIC "-//W3C//DTD SVG 1.1//EN" "http://www.w3.org/Graphics/SVG/1.1/DTD/svg11.dtd">
<svg version="1.1" id="Layer_1" xmlns="http://www.w3.org/2000/svg" xmlns:xlink="http://www.w3.org/1999/xlink" x="0px" y="0px"
	 width="228.714px" height="204.286px" viewBox="0 0 228.714 204.286" enable-background="new 0 0 228.714 204.286"
	 xml:space="preserve">
<g opacity="0.4">
	<g>
		
			<rect x="22.469" y="45.518" transform="matrix(0.9654 0.2609 -0.2609 0.9654 30.0889 -17.6329)" fill="#615248" width="117.957" height="117.952"/>
		
			<rect x="33.541" y="55.424" transform="matrix(0.9654 0.2609 -0.2609 0.9654 28.842 -18.1548)" fill="#615248" width="98.496" height="88.225"/>
		<g>
			<g>
				<g>
					<path fill="#615248" d="M128.927,93.209c-0.02-0.006-0.039-0.011-0.058-0.016c0.528-3.678-1.754-7.269-5.441-8.266
						c-3.98-1.075-8.083,1.283-9.158,5.261c-0.013,0.05-0.02,0.082-0.03,0.122c-0.265-0.149-0.544-0.277-0.848-0.359
						c-1.888-0.51-3.808,0.498-4.523,2.259c-0.414-0.281-0.879-0.503-1.388-0.642c-2.429-0.656-4.929,0.778-5.586,3.208
						c-0.656,2.427,0.783,4.922,3.211,5.578l20.398,5.515c3.5,0.945,7.096-1.123,8.04-4.617
						C134.49,97.758,132.427,94.155,128.927,93.209z"/>
				</g>
			</g>
		</g>
		<polygon fill="#615248" points="23.549,128.764 65.428,82.839 80.084,144.045 		"/>
		<polygon fill="#615248" points="60.894,138.858 97.983,104.764 114.363,153.312 		"/>
	</g>
	<g>
		
			<rect x="70.703" y="55.802" transform="matrix(0.7253 0.6884 -0.6884 0.7253 114.6439 -57.7469)" fill="#615248" width="117.957" height="117.958"/>
		<polygon fill="#615248" points="138.564,176.957 67.125,109.147 127.865,45.161 199.302,112.964 		"/>
		<g>
			<g>
				<g>
					<path fill="#615248" d="M176.819,127.426c-0.02-0.016-0.033-0.027-0.044-0.041c2.216-2.986,1.91-7.234-0.859-9.863
						c-2.994-2.841-7.722-2.717-10.561,0.282c-0.026,0.027-0.055,0.063-0.082,0.091c-0.164-0.26-0.347-0.502-0.58-0.717
						c-1.413-1.351-3.575-1.377-5.047-0.17c-0.233-0.446-0.535-0.856-0.916-1.222c-1.826-1.735-4.707-1.661-6.438,0.164
						c-1.733,1.825-1.659,4.712,0.167,6.444l15.33,14.54c2.625,2.5,6.775,2.395,9.271-0.24
						C179.552,134.072,179.449,129.916,176.819,127.426z"/>
				</g>
			</g>
		</g>
		<polygon fill="#615248" points="67.207,108.612 125.875,88.125 109.679,148.931 		"/>
		<polygon fill="#615248" points="95.266,135.243 144.099,122.889 135.437,173.377 		"/>
	</g>
</g>
<g>
	<g>
		
			<rect x="19.469" y="36.518" transform="matrix(0.9654 0.2609 -0.2609 0.9654 27.6364 -17.1618)" fill="#F7FCFE" width="117.957" height="117.952"/>
		
			<rect x="30.541" y="46.424" transform="matrix(0.9654 0.2609 -0.2609 0.9654 26.3895 -17.6838)" fill="#5EC1D0" width="98.496" height="88.225"/>
		<g>
			<g>
				<g>
					<path fill="#FFFFFF" d="M125.927,84.209c-0.02-0.006-0.039-0.011-0.058-0.016c0.528-3.678-1.754-7.269-5.441-8.266
						c-3.98-1.075-8.083,1.283-9.158,5.261c-0.013,0.05-0.02,0.082-0.03,0.122c-0.265-0.149-0.544-0.277-0.848-0.359
						c-1.888-0.51-3.808,0.498-4.523,2.259c-0.414-0.281-0.879-0.503-1.388-0.642c-2.429-0.656-4.929,0.778-5.586,3.208
						c-0.656,2.427,0.783,4.922,3.211,5.578l20.398,5.515c3.5,0.945,7.096-1.123,8.04-4.617
						C131.49,88.758,129.427,85.155,125.927,84.209z"/>
				</g>
			</g>
		</g>
		<polygon fill="#175079" points="20.549,119.764 62.428,73.839 77.084,135.045 		"/>
		<polygon fill="#175079" points="57.894,129.858 94.983,95.764 111.363,144.312 		"/>
	</g>
	<g>
		
			<rect x="67.703" y="46.802" transform="matrix(0.7253 0.6884 -0.6884 0.7253 107.6238 -58.1539)" fill="#F7FCFE" width="117.957" height="117.958"/>
		<polygon fill="#5EC1D0" points="135.564,167.957 64.125,100.147 124.865,36.161 196.302,103.964 		"/>
		<g>
			<g>
				<g>
					<path fill="#FFFFFF" d="M173.819,118.426c-0.02-0.016-0.033-0.027-0.044-0.041c2.216-2.986,1.91-7.234-0.859-9.863
						c-2.994-2.841-7.722-2.717-10.561,0.282c-0.026,0.027-0.055,0.063-0.082,0.091c-0.164-0.26-0.347-0.502-0.58-0.717
						c-1.413-1.351-3.575-1.377-5.047-0.17c-0.233-0.446-0.535-0.856-0.916-1.222c-1.826-1.735-4.707-1.661-6.438,0.164
						c-1.733,1.825-1.659,4.712,0.167,6.444l15.33,14.54c2.625,2.5,6.775,2.395,9.271-0.24
						C176.552,125.072,176.449,120.916,173.819,118.426z"/>
				</g>
			</g>
		</g>
		<polygon fill="#85A23D" points="64.207,99.612 122.875,79.125 106.679,139.931 		"/>
		<polygon fill="#85A23D" points="92.266,126.243 141.099,113.889 132.437,164.377 		"/>
	</g>
</g>
</svg>
