<?xml version="1.0" encoding="utf-8"?>
<!-- Generator: Adobe Illustrator 17.0.0, SVG Export Plug-In . SVG Version: 6.00 Build 0)  -->
<!DOCTYPE svg PUBLIC "-//W3C//DTD SVG 1.1//EN" "http://www.w3.org/Graphics/SVG/1.1/DTD/svg11.dtd">
<svg version="1.1" id="Layer_1" xmlns="http://www.w3.org/2000/svg" xmlns:xlink="http://www.w3.org/1999/xlink" x="0px" y="0px"
	 width="228.714px" height="372.706px" viewBox="0 0 228.714 372.706" enable-background="new 0 0 228.714 372.706"
	 xml:space="preserve">
<g>
	<defs>
		<rect id="SVGID_1_" x="5.959" y="6.642" width="214.329" height="371.064"/>
	</defs>
	<clipPath id="SVGID_2_">
		<use xlink:href="#SVGID_1_"  overflow="visible"/>
	</clipPath>
	<g opacity="0.4" clip-path="url(#SVGID_2_)">
		<g>
			<path fill="#615248" d="M253.15,63.611c10.849-0.111,19.729,8.593,19.841,19.445l2.425,235.661
				c0.111,10.854-8.587,19.728-19.437,19.839l-145.678,1.5c-10.833,0.111-19.719-8.583-19.832-19.436L88.045,84.959
				c-0.111-10.853,8.594-19.739,19.427-19.85L253.15,63.611z"/>
			<path fill="#615248" d="M88.045,84.959l1.213,117.831l184.946-1.903l-1.212-117.831C272.879,72.203,264,63.499,253.15,63.611
				L107.472,65.11C96.639,65.22,87.934,74.107,88.045,84.959z"/>
			<path fill="#615248" d="M89.796,255.148l-26.627,0.274c-7.344,0.074-13.366-5.836-13.441-13.173l-0.803-78.098
				c-0.076-7.343,5.823-13.367,13.167-13.444l26.627-0.274l-0.164-15.965l-26.628,0.272c-16.142,0.167-29.148,13.432-28.982,29.575
				l0.804,78.099c0.166,16.145,13.443,29.143,29.584,28.979l26.627-0.274L89.796,255.148z"/>
		</g>
		<path fill="#615248" d="M206.989,259.116c-3.97,2.393-3.922,7.004,0.096,9.311l35.17,20.239c2.006,1.145,3.96,1.262,5.503,0.337
			c1.532-0.916,2.395-2.786,2.371-5.136l-0.423-41.07c-0.024-2.345-0.924-4.202-2.475-5.092c-1.563-0.888-3.513-0.721-5.495,0.465
			L206.989,259.116z"/>
		<path fill="#615248" d="M142.917,89.066c-3.295-2.123-6.779-0.365-7.035,3.546l-2.233,34.226c-0.13,1.942,0.505,3.475,1.781,4.303
			c1.27,0.815,3.02,0.78,4.783-0.114l31.016-15.63c1.766-0.889,2.839-2.274,2.932-3.782c0.095-1.521-0.753-2.942-2.394-3.995
			L142.917,89.066z"/>
		<polygon fill="#615248" points="162.526,262.241 138.507,255.867 121.258,273.728 128.041,297.953 152.055,304.337 
			169.308,286.47 		"/>
		<polygon fill="#615248" points="206.414,132.051 181.275,158.069 220.288,196.839 246.432,169.769 207.42,131.01 		"/>
		<path fill="#615248" d="M158.097,202.081c-0.054-5.214-2.078-10.422-6.039-14.367c-3.969-3.944-9.144-5.885-14.29-5.828
			c-5.145,0.05-10.276,2.098-14.153,6.121c-3.895,4.025-5.808,9.274-5.752,14.488c0.051,5.222,2.072,10.425,6.049,14.37
			c3.958,3.938,9.131,5.888,14.276,5.825c5.145-0.042,10.279-2.1,14.166-6.118C156.234,212.547,158.15,207.303,158.097,202.081z"/>
	</g>
</g>
<g>
	<defs>
		<rect id="SVGID_3_" x="10.959" y="1.642" width="214.329" height="371.064"/>
	</defs>
	<clipPath id="SVGID_4_">
		<use xlink:href="#SVGID_3_"  overflow="visible"/>
	</clipPath>
	<g clip-path="url(#SVGID_4_)">
		<g>
			<path fill="#5EC1D0" d="M258.15,58.611c10.849-0.111,19.729,8.593,19.841,19.445l2.425,235.661
				c0.111,10.854-8.587,19.728-19.437,19.839l-145.678,1.5c-10.833,0.111-19.719-8.583-19.832-19.436L93.045,79.959
				c-0.111-10.853,8.594-19.739,19.427-19.85L258.15,58.611z"/>
			<path fill="#175079" d="M93.045,79.959l1.213,117.831l184.946-1.903l-1.212-117.831C277.879,67.203,269,58.499,258.15,58.611
				L112.472,60.11C101.639,60.22,92.934,69.107,93.045,79.959z"/>
			<path fill="#0C3654" d="M94.796,250.148l-26.627,0.274c-7.344,0.074-13.366-5.836-13.441-13.173l-0.803-78.098
				c-0.076-7.343,5.823-13.367,13.167-13.444l26.627-0.274l-0.164-15.965l-26.628,0.272c-16.142,0.167-29.148,13.432-28.982,29.575
				l0.804,78.099c0.166,16.145,13.443,29.143,29.584,28.979l26.627-0.274L94.796,250.148z"/>
		</g>
		<path fill="#F04840" d="M211.989,254.116c-3.97,2.393-3.922,7.004,0.096,9.311l35.17,20.239c2.006,1.145,3.96,1.262,5.503,0.337
			c1.532-0.916,2.395-2.786,2.371-5.136l-0.423-41.07c-0.024-2.345-0.924-4.202-2.475-5.092c-1.563-0.888-3.513-0.721-5.495,0.465
			L211.989,254.116z"/>
		<path fill="#FFFFFF" d="M147.917,84.066c-3.295-2.123-6.779-0.365-7.035,3.546l-2.233,34.226c-0.13,1.942,0.505,3.475,1.781,4.303
			c1.27,0.815,3.02,0.78,4.783-0.114l31.016-15.63c1.766-0.889,2.839-2.274,2.932-3.782c0.095-1.521-0.753-2.942-2.394-3.995
			L147.917,84.066z"/>
		<polygon fill="#FFFFFF" points="167.526,257.241 143.507,250.867 126.258,268.728 133.041,292.953 157.055,299.337 
			174.308,281.47 		"/>
		<polygon fill="#F04840" points="211.414,127.051 186.275,153.069 225.288,191.839 251.432,164.769 212.42,126.01 		"/>
		<path fill="#F04840" d="M163.097,197.081c-0.054-5.214-2.078-10.422-6.039-14.367c-3.969-3.944-9.144-5.885-14.29-5.828
			c-5.145,0.05-10.276,2.098-14.153,6.121c-3.895,4.025-5.808,9.274-5.752,14.488c0.051,5.222,2.072,10.425,6.049,14.37
			c3.958,3.938,9.131,5.888,14.276,5.825c5.145-0.042,10.279-2.1,14.166-6.118C161.234,207.547,163.15,202.303,163.097,197.081z"/>
	</g>
</g>
</svg>
