<?xml version="1.0" encoding="utf-8"?>
<!-- Generator: Adobe Illustrator 17.0.0, SVG Export Plug-In . SVG Version: 6.00 Build 0)  -->
<!DOCTYPE svg PUBLIC "-//W3C//DTD SVG 1.1//EN" "http://www.w3.org/Graphics/SVG/1.1/DTD/svg11.dtd">
<svg version="1.1" id="Layer_1" xmlns="http://www.w3.org/2000/svg" xmlns:xlink="http://www.w3.org/1999/xlink" x="0px" y="0px"
	 width="193px" height="399.849px" viewBox="0 0 193 399.849" enable-background="new 0 0 193 399.849" xml:space="preserve">
<g>
	<path fill="#FFFFFF" d="M47.164,14.143c-3.366,40.539-6.169,85.86-7.208,126.534c-0.521,20.441-0.294,40.837-1.633,61.254
		c-1.328,20.245-3.26,40.448-3.355,60.754c0.573-0.153,1.147-0.307,1.72-0.46c-5.958-10.985-20.835-20.216-27.059-4.322
		c-0.088,0.226-0.063,0.451,0.158,0.59c5.629,3.531,11.045,2.853,17.24,1.226c10.101-2.648,19.836-4.839,30.165-1.764
		c7.312,2.176,2.359,6.967-2.339,8.328c-6.317,1.83-12.674-0.658-15.857-6.365c-0.31-0.557-1.72-0.17-1.72,0.459
		c0,5.386,0,10.772,0,16.155c0,0.908,1.803,0.613,1.803-0.149c0-5.387,0-10.77,0-16.155c-0.573,0.153-1.146,0.307-1.72,0.46
		c3.448,6.185,9.855,8.214,16.598,7.029c2.731-0.481,9.715-2.814,9.065-6.795c-1.066-6.537-16.063-6.066-20.142-5.861
		c-9.368,0.468-18.689,6.447-28.07,4.318c-3.282-1.826-3.596-3.88-0.944-6.161c3.41-4.794,8.531-2.951,12.189-0.859
		c4.081,2.333,6.82,6.627,8.996,10.637c0.303,0.559,1.717,0.163,1.72-0.46c0.09-19.326,1.794-38.577,3.155-57.842
		c1.441-20.401,1.335-40.766,1.763-61.199c0.854-40.668,3.717-88.725,7.031-129.257"/>
</g>
<g>
	<path fill="#FFFFFF" d="M150.902,13.461c4.156,66.704,1.383,74.496,0.092,141.242c-0.64,33.106-0.82,66.229,0.439,99.323
		c0.633,16.633,1.871,33.189,1.839,49.846c-0.033,16.515-0.559,33.026,0.414,49.527c0.457-0.154,0.915-0.309,1.373-0.463
		c-5.407-8.616-17.97-15.347-22.204-2.113c-0.06,0.188-0.028,0.369,0.159,0.471c4.755,2.579,9.121,1.746,14.068,0.105
		c8.068-2.674,15.864-4.956,24.414-2.992c6.051,1.391,2.276,5.539-1.47,6.887c-5.037,1.814-10.331,0.12-13.211-4.352
		c-0.28-0.436-1.406-0.049-1.374,0.462c0.278,4.376,0.557,8.751,0.835,13.124c0.047,0.737,1.496,0.404,1.457-0.215
		c-0.278-4.376-0.557-8.748-0.835-13.124c-0.458,0.154-0.915,0.309-1.373,0.463c3.121,4.846,8.431,6.164,13.847,4.854
		c2.193-0.533,7.747-2.788,7.013-5.989c-1.204-5.256-13.362-4.098-16.666-3.722c-7.586,0.865-14.849,6.204-22.58,4.96
		c-2.76-1.314-3.122-2.967-1.085-4.956c2.522-4.071,6.778-2.839,9.858-1.329c3.436,1.685,5.883,5.032,7.857,8.176
		c0.276,0.439,1.403,0.044,1.374-0.462c-0.925-15.704-0.536-31.432-0.426-47.152c0.117-16.647-1.022-33.185-1.73-49.806
		c-1.408-33.082-1.18-66.211-0.581-99.309c1.222-67.562,4.16-76.151-0.047-143.671C152.313,12.51,150.863,12.839,150.902,13.461
		L150.902,13.461z"/>
</g>
<g opacity="0.4">
	<path fill="#615248" d="M44.858,310.005c7.482,37.95,42.627,64.819,81.999,61.159c15.682-1.474,29.816-7.591,41.171-16.865
		c-11.778,21.55-33.69,37.057-59.968,39.515c-41.985,3.924-79.195-26.936-83.112-68.925c-2.467-26.292,8.719-50.697,27.745-66.242
		c-7.029,12.865-10.425,27.895-8.959,43.589C43.98,304.875,44.355,307.463,44.858,310.005"/>
	<g>
		<g opacity="0.2">
			<path fill="#615248" d="M70.956,371.38c0.783,0.302,1.171,1.18,0.867,1.965c-0.299,0.786-1.177,1.172-1.96,0.868
				c-0.784-0.297-1.172-1.176-0.872-1.961C69.288,371.469,70.173,371.078,70.956,371.38z"/>
			<path fill="#615248" d="M83.042,380.748c0.791,0.305,1.173,1.187,0.875,1.967c-0.304,0.779-1.182,1.176-1.967,0.873
				c-0.782-0.304-1.173-1.185-0.869-1.966C81.384,380.837,82.264,380.448,83.042,380.748z"/>
			<path fill="#615248" d="M94.409,375.709c0.783,0.306,1.173,1.178,0.87,1.965c-0.3,0.783-1.18,1.18-1.962,0.871
				c-0.783-0.307-1.172-1.18-0.874-1.966C92.746,375.799,93.621,375.409,94.409,375.709z"/>
			<path fill="#615248" d="M100.191,381.075c0.784,0.304,1.173,1.185,0.87,1.97c-0.3,0.779-1.178,1.17-1.968,0.871
				c-0.781-0.304-1.174-1.186-0.866-1.968C98.527,381.165,99.405,380.773,100.191,381.075z"/>
			<path fill="#615248" d="M108.821,374.986c0.781,0.302,1.172,1.184,0.875,1.968c-0.305,0.777-1.189,1.164-1.968,0.869
				c-0.782-0.307-1.173-1.185-0.87-1.969C107.163,375.074,108.035,374.679,108.821,374.986z"/>
			<path fill="#615248" d="M58.862,362.014c0.786,0.299,1.176,1.178,0.874,1.957c-0.299,0.786-1.183,1.178-1.961,0.877
				c-0.785-0.305-1.178-1.181-0.875-1.963C57.201,362.099,58.082,361.705,58.862,362.014z"/>
			<path fill="#615248" d="M57.085,350.333c0.785,0.302,1.173,1.183,0.869,1.965c-0.303,0.782-1.182,1.174-1.966,0.875
				c-0.78-0.306-1.168-1.184-0.871-1.972C55.422,350.423,56.302,350.03,57.085,350.333z"/>
		</g>
		<g opacity="0.2">
			<path fill="#615248" d="M51.483,366.777c0.403,0.409,0.408,1.068,0,1.475c-0.402,0.403-1.066,0.403-1.473,0.003
				c-0.407-0.41-0.412-1.069-0.003-1.475C50.414,366.37,51.07,366.371,51.483,366.777z"/>
			<path fill="#615248" d="M56.468,376.001c0.415,0.409,0.406,1.069,0.008,1.479c-0.409,0.407-1.069,0.407-1.483,0.005
				c-0.403-0.407-0.405-1.071,0.004-1.478C55.4,375.598,56.063,375.594,56.468,376.001z"/>
			<path fill="#615248" d="M64.994,375.989c0.412,0.406,0.413,1.067,0.004,1.477c-0.404,0.403-1.067,0.41-1.476,0.001
				c-0.403-0.405-0.409-1.068-0.002-1.469C63.93,375.584,64.591,375.583,64.994,375.989z"/>
			<path fill="#615248" d="M67.135,380.961c0.409,0.408,0.408,1.065,0.004,1.471c-0.407,0.414-1.063,0.413-1.475,0.006
				c-0.408-0.41-0.409-1.068,0-1.482C66.067,380.555,66.728,380.555,67.135,380.961z"/>
			<path fill="#615248" d="M74.238,379.525c0.406,0.409,0.406,1.068,0.007,1.478c-0.411,0.406-1.069,0.404-1.48,0.001
				c-0.407-0.404-0.406-1.065-0.004-1.473C73.17,379.124,73.829,379.119,74.238,379.525z"/>
			<path fill="#615248" d="M46.489,357.549c0.408,0.408,0.412,1.066,0.005,1.475c-0.405,0.407-1.072,0.41-1.476,0.002
				c-0.409-0.407-0.409-1.065-0.001-1.474C45.428,357.143,46.084,357.143,46.489,357.549z"/>
			<path fill="#615248" d="M48.606,349.729c0.412,0.411,0.412,1.068,0.01,1.475c-0.41,0.411-1.069,0.41-1.477,0.005
				c-0.411-0.409-0.415-1.067-0.001-1.476C47.541,349.325,48.2,349.322,48.606,349.729z"/>
		</g>
		<g opacity="0.2">
			<path fill="#615248" d="M35.23,292.214c0,0.574-0.465,1.048-1.041,1.048c-0.573-0.006-1.043-0.465-1.04-1.039
				c-0.002-0.578,0.462-1.044,1.038-1.044C34.763,291.174,35.228,291.641,35.23,292.214z"/>
			<path fill="#615248" d="M32.239,302.271c-0.001,0.576-0.468,1.039-1.045,1.047c-0.578-0.008-1.043-0.472-1.047-1.048
				c0.001-0.575,0.467-1.044,1.045-1.041C31.765,301.226,32.232,301.69,32.239,302.271z"/>
			<path fill="#615248" d="M38.272,308.283c0.002,0.581-0.466,1.044-1.044,1.044c-0.572,0.007-1.039-0.465-1.037-1.043
				c-0.006-0.568,0.464-1.036,1.04-1.04C37.806,307.243,38.268,307.707,38.272,308.283z"/>
			<path fill="#615248" d="M36.271,313.312c0.004,0.575-0.466,1.039-1.039,1.047c-0.577-0.004-1.044-0.462-1.046-1.044
				c0.002-0.575,0.463-1.042,1.041-1.039C35.808,312.269,36.272,312.737,36.271,313.312z"/>
			<path fill="#615248" d="M42.305,317.323c0.002,0.575-0.463,1.046-1.04,1.043c-0.575,0-1.04-0.465-1.045-1.039
				c0.001-0.573,0.47-1.045,1.042-1.049C41.842,316.281,42.307,316.744,42.305,317.323z"/>
			<path fill="#615248" d="M38.227,282.16c-0.002,0.579-0.468,1.044-1.042,1.049c-0.575-0.001-1.039-0.467-1.045-1.045
				c0-0.574,0.47-1.043,1.042-1.047C37.756,281.119,38.228,281.588,38.227,282.16z"/>
			<path fill="#615248" d="M45.25,278.131c0.007,0.577-0.461,1.043-1.036,1.045c-0.579,0-1.042-0.465-1.046-1.04
				c0-0.574,0.468-1.044,1.046-1.042C44.789,277.089,45.252,277.556,45.25,278.131z"/>
		</g>
		<g opacity="0.2">
			<path fill="#615248" d="M76.979,368.639c0.516,0.258,0.723,0.884,0.465,1.4c-0.262,0.51-0.893,0.713-1.4,0.457
				c-0.517-0.261-0.72-0.883-0.466-1.404C75.838,368.584,76.465,368.377,76.979,368.639z"/>
			<path fill="#615248" d="M84.586,375.853c0.516,0.267,0.72,0.889,0.458,1.406c-0.261,0.516-0.885,0.722-1.399,0.461
				c-0.513-0.263-0.718-0.889-0.455-1.397C83.449,375.809,84.071,375.6,84.586,375.853z"/>
			<path fill="#615248" d="M92.683,373.2c0.517,0.257,0.726,0.882,0.467,1.399c-0.264,0.515-0.892,0.721-1.404,0.459
				c-0.517-0.256-0.715-0.885-0.462-1.397C91.546,373.146,92.175,372.941,92.683,373.2z"/>
			<path fill="#615248" d="M96.264,377.259c0.51,0.261,0.717,0.89,0.455,1.405c-0.256,0.51-0.882,0.715-1.396,0.464
				c-0.51-0.264-0.72-0.897-0.462-1.407C95.125,377.205,95.75,376.996,96.264,377.259z"/>
			<path fill="#615248" d="M102.574,373.697c0.509,0.256,0.716,0.883,0.455,1.397c-0.258,0.515-0.888,0.717-1.399,0.465
				c-0.514-0.264-0.718-0.893-0.462-1.408C101.435,373.643,102.054,373.435,102.574,373.697z"/>
			<path fill="#615248" d="M69.374,361.41c0.51,0.263,0.719,0.889,0.457,1.4c-0.255,0.518-0.883,0.723-1.399,0.461
				c-0.512-0.258-0.717-0.885-0.455-1.398C68.232,361.357,68.862,361.152,69.374,361.41z"/>
			<path fill="#615248" d="M68.959,353.324c0.52,0.258,0.719,0.888,0.466,1.396c-0.267,0.518-0.89,0.722-1.409,0.464
				c-0.512-0.264-0.719-0.889-0.455-1.396C67.82,353.267,68.444,353.063,68.959,353.324z"/>
		</g>
		<g opacity="0.2">
			<path fill="#615248" d="M121.285,385.428c0.564-0.118,1.118,0.24,1.231,0.803c0.121,0.56-0.237,1.117-0.794,1.234
				c-0.57,0.12-1.123-0.242-1.239-0.806C120.365,386.099,120.724,385.547,121.285,385.428z"/>
			<path fill="#615248" d="M131.741,386.29c0.562-0.12,1.115,0.244,1.236,0.805c0.113,0.563-0.248,1.117-0.81,1.237
				c-0.563,0.116-1.115-0.242-1.232-0.805C130.82,386.962,131.176,386.415,131.741,386.29z"/>
			<path fill="#615248" d="M136.384,379.146c0.563-0.119,1.115,0.241,1.24,0.804c0.116,0.56-0.242,1.115-0.806,1.233
				c-0.566,0.119-1.115-0.238-1.233-0.802C135.463,379.817,135.823,379.265,136.384,379.146z"/>
			<path fill="#615248" d="M141.718,380.067c0.562-0.118,1.116,0.244,1.237,0.805c0.119,0.563-0.239,1.118-0.801,1.237
				c-0.572,0.122-1.119-0.238-1.246-0.803C140.796,380.743,141.157,380.188,141.718,380.067z"/>
			<path fill="#615248" d="M144.401,373.337c0.56-0.119,1.117,0.238,1.234,0.808c0.118,0.561-0.247,1.113-0.798,1.233
				c-0.57,0.122-1.124-0.242-1.241-0.806C143.481,374.013,143.837,373.461,144.401,373.337z"/>
			<path fill="#615248" d="M110.831,384.558c0.563-0.115,1.115,0.241,1.236,0.806c0.118,0.568-0.242,1.116-0.805,1.236
				c-0.563,0.119-1.113-0.242-1.233-0.808C109.908,385.232,110.265,384.681,110.831,384.558z"/>
			<path fill="#615248" d="M105.438,378.517c0.568-0.119,1.117,0.236,1.23,0.8c0.126,0.566-0.231,1.118-0.799,1.239
				c-0.564,0.116-1.117-0.241-1.237-0.806C104.519,379.188,104.875,378.628,105.438,378.517z"/>
		</g>
		<g opacity="0.2">
			<path fill="#615248" d="M34.289,309.377c0.09,0.838-0.51,1.589-1.341,1.68c-0.839,0.098-1.587-0.501-1.682-1.334
				c-0.09-0.84,0.504-1.591,1.345-1.685C33.436,307.943,34.193,308.546,34.289,309.377z"/>
			<path fill="#615248" d="M31.551,324.432c0.102,0.829-0.503,1.584-1.332,1.675c-0.839,0.1-1.588-0.504-1.685-1.339
				c-0.088-0.833,0.508-1.584,1.346-1.678C30.709,322.997,31.47,323.594,31.551,324.432z"/>
			<path fill="#615248" d="M41.276,332.182c0.089,0.837-0.512,1.589-1.349,1.68c-0.825,0.096-1.581-0.505-1.671-1.342
				c-0.102-0.83,0.502-1.582,1.337-1.679C40.429,330.747,41.179,331.348,41.276,332.182z"/>
			<path fill="#615248" d="M39.178,339.792c0.095,0.833-0.507,1.583-1.335,1.677c-0.838,0.094-1.594-0.504-1.685-1.342
				c-0.091-0.831,0.508-1.584,1.346-1.682C38.335,338.356,39.085,338.955,39.178,339.792z"/>
			<path fill="#615248" d="M48.57,344.633c0.096,0.834-0.501,1.591-1.344,1.678c-0.829,0.097-1.581-0.502-1.672-1.341
				c-0.103-0.829,0.504-1.581,1.338-1.679C47.726,343.203,48.474,343.798,48.57,344.633z"/>
			<path fill="#615248" d="M37.016,294.326c0.097,0.838-0.504,1.589-1.339,1.679c-0.832,0.099-1.585-0.501-1.681-1.336
				c-0.094-0.837,0.512-1.589,1.341-1.678C36.172,292.895,36.926,293.493,37.016,294.326z"/>
		</g>
	</g>
</g>
<g>
	<path fill="#FBF7BF" d="M39.576,312.2c7.481,37.948,42.627,64.821,82,61.158c15.681-1.473,29.815-7.59,41.17-16.866
		c-11.777,21.553-33.691,37.059-59.967,39.516c-41.986,3.922-79.196-26.938-83.113-68.924c-2.468-26.294,8.719-50.696,27.745-66.242
		c-7.029,12.865-10.426,27.893-8.958,43.587C38.697,307.068,39.073,309.658,39.576,312.2"/>
	<g>
		<g opacity="0.2">
			<path fill="#2AAAE2" d="M65.673,373.573c0.783,0.304,1.172,1.182,0.868,1.968c-0.299,0.783-1.178,1.173-1.961,0.866
				c-0.783-0.294-1.172-1.177-0.871-1.96C64.006,373.661,64.891,373.274,65.673,373.573z"/>
			<path fill="#2AAAE2" d="M77.76,382.943c0.792,0.307,1.175,1.186,0.875,1.966c-0.303,0.783-1.183,1.178-1.967,0.873
				c-0.782-0.303-1.173-1.186-0.869-1.965C76.102,383.033,76.982,382.643,77.76,382.943z"/>
			<path fill="#2AAAE2" d="M89.127,377.902c0.783,0.308,1.172,1.182,0.869,1.967c-0.298,0.781-1.179,1.181-1.96,0.873
				c-0.784-0.311-1.173-1.184-0.876-1.967C87.465,377.992,88.339,377.606,89.127,377.902z"/>
			<path fill="#2AAAE2" d="M94.908,383.271c0.786,0.301,1.175,1.185,0.872,1.968c-0.301,0.781-1.178,1.172-1.968,0.874
				c-0.78-0.306-1.173-1.186-0.866-1.971C93.245,383.361,94.123,382.969,94.908,383.271z"/>
			<path fill="#2AAAE2" d="M103.54,377.181c0.781,0.303,1.172,1.181,0.874,1.966c-0.304,0.78-1.188,1.168-1.967,0.87
				c-0.782-0.304-1.173-1.185-0.869-1.97C101.882,377.271,102.753,376.874,103.54,377.181z"/>
			<path fill="#2AAAE2" d="M53.581,364.206c0.786,0.302,1.176,1.182,0.874,1.96c-0.3,0.787-1.183,1.179-1.961,0.875
				c-0.785-0.303-1.178-1.179-0.875-1.961C51.919,364.292,52.8,363.898,53.581,364.206z"/>
			<path fill="#2AAAE2" d="M51.803,352.527c0.785,0.301,1.173,1.181,0.871,1.966c-0.305,0.78-1.183,1.175-1.966,0.876
				c-0.781-0.305-1.169-1.184-0.872-1.973C50.141,352.617,51.021,352.222,51.803,352.527z"/>
		</g>
		<g opacity="0.2">
			<path fill="#2AAAE2" d="M46.201,368.972c0.403,0.406,0.409,1.068,0,1.475c-0.402,0.404-1.065,0.404-1.472,0.004
				c-0.407-0.41-0.411-1.068-0.004-1.476C45.131,368.567,45.789,368.567,46.201,368.972z"/>
			<path fill="#2AAAE2" d="M51.185,378.198c0.415,0.408,0.406,1.067,0.009,1.477c-0.41,0.407-1.069,0.407-1.483,0.003
				c-0.403-0.404-0.405-1.071,0.004-1.476C50.118,377.792,50.781,377.791,51.185,378.198z"/>
			<path fill="#2AAAE2" d="M59.712,378.186c0.411,0.406,0.413,1.065,0.004,1.473c-0.405,0.406-1.067,0.412-1.476,0.001
				c-0.403-0.403-0.409-1.065-0.002-1.468C58.648,377.781,59.309,377.776,59.712,378.186z"/>
			<path fill="#2AAAE2" d="M61.854,383.155c0.409,0.41,0.408,1.068,0.003,1.473c-0.406,0.412-1.063,0.412-1.475,0.006
				c-0.408-0.409-0.409-1.068,0-1.481C60.785,382.751,61.446,382.751,61.854,383.155z"/>
			<path fill="#2AAAE2" d="M68.957,381.721c0.406,0.406,0.406,1.068,0.005,1.475c-0.41,0.409-1.066,0.406-1.478,0.004
				c-0.407-0.404-0.407-1.068-0.004-1.473C67.888,381.317,68.547,381.313,68.957,381.721z"/>
			<path fill="#2AAAE2" d="M41.207,359.746c0.409,0.406,0.412,1.064,0.005,1.47c-0.405,0.407-1.071,0.413-1.476,0.007
				c-0.409-0.409-0.409-1.067-0.001-1.477C40.146,359.34,40.802,359.34,41.207,359.746z"/>
			<path fill="#2AAAE2" d="M43.324,351.923c0.413,0.413,0.412,1.069,0.009,1.477c-0.41,0.411-1.068,0.407-1.476,0.001
				c-0.412-0.404-0.415-1.064-0.002-1.473C42.26,351.521,42.918,351.516,43.324,351.923z"/>
		</g>
		<g opacity="0.2">
			<path fill="#2AAAE2" d="M29.948,294.411c0,0.573-0.465,1.044-1.041,1.043c-0.572-0.001-1.042-0.464-1.04-1.038
				c-0.002-0.576,0.461-1.045,1.038-1.045C29.481,293.37,29.946,293.835,29.948,294.411z"/>
			<path fill="#2AAAE2" d="M26.958,304.467c-0.002,0.572-0.468,1.039-1.046,1.047c-0.578-0.009-1.041-0.476-1.046-1.051
				c0.001-0.576,0.467-1.04,1.044-1.039C26.483,303.419,26.95,303.885,26.958,304.467z"/>
			<path fill="#2AAAE2" d="M32.991,310.48c0.001,0.581-0.467,1.042-1.045,1.044c-0.572,0.006-1.039-0.467-1.037-1.043
				c-0.005-0.57,0.464-1.039,1.039-1.041C32.523,309.438,32.986,309.904,32.991,310.48z"/>
			<path fill="#2AAAE2" d="M30.99,315.507c0.004,0.573-0.466,1.041-1.038,1.046c-0.578-0.004-1.045-0.464-1.047-1.043
				c0.002-0.575,0.463-1.041,1.041-1.04C30.524,314.465,30.991,314.93,30.99,315.507z"/>
			<path fill="#2AAAE2" d="M37.023,319.518c0.002,0.576-0.462,1.046-1.039,1.045c-0.576-0.002-1.04-0.465-1.046-1.04
				c0.002-0.574,0.472-1.044,1.043-1.052C36.56,318.479,37.025,318.941,37.023,319.518z"/>
			<path fill="#2AAAE2" d="M32.945,284.358c-0.002,0.574-0.467,1.041-1.041,1.044c-0.576,0-1.039-0.464-1.046-1.043
				c0.001-0.573,0.47-1.041,1.042-1.044C32.474,283.315,32.946,283.781,32.945,284.358z"/>
			<path fill="#2AAAE2" d="M39.969,280.325c0.007,0.575-0.461,1.044-1.037,1.044c-0.579,0-1.041-0.463-1.046-1.039
				c0-0.573,0.469-1.043,1.046-1.043C39.507,279.285,39.971,279.751,39.969,280.325z"/>
		</g>
		<g opacity="0.2">
			<path fill="#2AAAE2" d="M71.697,370.833c0.517,0.257,0.723,0.886,0.464,1.398c-0.262,0.512-0.893,0.716-1.4,0.458
				c-0.518-0.262-0.72-0.883-0.466-1.403C70.557,370.779,71.184,370.573,71.697,370.833z"/>
			<path fill="#2AAAE2" d="M79.305,378.047c0.515,0.267,0.72,0.891,0.458,1.409c-0.26,0.511-0.886,0.718-1.399,0.459
				c-0.514-0.266-0.719-0.89-0.455-1.399C78.167,378.001,78.789,377.792,79.305,378.047z"/>
			<path fill="#2AAAE2" d="M87.401,375.393c0.517,0.262,0.726,0.887,0.466,1.403c-0.263,0.514-0.892,0.722-1.404,0.46
				c-0.516-0.26-0.715-0.888-0.461-1.397C86.264,375.342,86.893,375.137,87.401,375.393z"/>
			<path fill="#2AAAE2" d="M90.983,379.456c0.51,0.257,0.716,0.886,0.454,1.402c-0.256,0.511-0.882,0.717-1.398,0.464
				c-0.509-0.264-0.719-0.896-0.46-1.404C89.843,379.401,90.468,379.193,90.983,379.456z"/>
			<path fill="#2AAAE2" d="M97.292,375.889c0.508,0.26,0.716,0.885,0.454,1.398c-0.256,0.514-0.887,0.721-1.398,0.469
				c-0.513-0.267-0.718-0.896-0.462-1.408C96.153,375.836,96.774,375.631,97.292,375.889z"/>
			<path fill="#2AAAE2" d="M64.094,363.604c0.508,0.264,0.718,0.892,0.456,1.402c-0.256,0.518-0.883,0.72-1.4,0.46
				c-0.512-0.258-0.717-0.885-0.456-1.397C62.95,363.553,63.581,363.346,64.094,363.604z"/>
			<path fill="#2AAAE2" d="M63.676,355.518c0.52,0.258,0.719,0.89,0.466,1.395c-0.266,0.519-0.89,0.724-1.408,0.468
				c-0.512-0.264-0.72-0.892-0.455-1.399C62.538,355.463,63.163,355.256,63.676,355.518z"/>
		</g>
		<g opacity="0.2">
			<path fill="#2AAAE2" d="M116.005,387.62c0.563-0.117,1.117,0.243,1.231,0.804c0.121,0.561-0.238,1.117-0.794,1.234
				c-0.569,0.119-1.124-0.24-1.237-0.803C115.083,388.291,115.443,387.742,116.005,387.62z"/>
			<path fill="#2AAAE2" d="M126.459,388.487c0.563-0.12,1.116,0.243,1.236,0.802c0.113,0.565-0.248,1.12-0.81,1.239
				c-0.563,0.115-1.115-0.244-1.232-0.807C125.539,389.156,125.893,388.608,126.459,388.487z"/>
			<path fill="#2AAAE2" d="M131.103,381.342c0.563-0.121,1.115,0.242,1.241,0.802c0.116,0.562-0.242,1.116-0.807,1.235
				c-0.566,0.119-1.115-0.238-1.234-0.804C130.181,382.011,130.541,381.46,131.103,381.342z"/>
			<path fill="#2AAAE2" d="M136.436,382.263c0.563-0.119,1.117,0.244,1.237,0.805c0.119,0.563-0.239,1.117-0.801,1.236
				c-0.571,0.12-1.119-0.239-1.246-0.803C135.514,382.936,135.875,382.382,136.436,382.263z"/>
			<path fill="#2AAAE2" d="M139.12,375.532c0.559-0.119,1.116,0.239,1.233,0.807c0.119,0.56-0.246,1.112-0.798,1.234
				c-0.569,0.12-1.124-0.244-1.24-0.806C138.199,376.206,138.553,375.655,139.12,375.532z"/>
			<path fill="#2AAAE2" d="M105.549,386.754c0.562-0.116,1.115,0.241,1.235,0.802c0.119,0.569-0.242,1.12-0.804,1.239
				c-0.563,0.121-1.113-0.242-1.233-0.807C104.626,387.426,104.983,386.876,105.549,386.754z"/>
			<path fill="#2AAAE2" d="M100.157,380.709c0.569-0.117,1.116,0.239,1.23,0.803c0.126,0.564-0.231,1.118-0.799,1.239
				c-0.564,0.118-1.117-0.243-1.238-0.805C99.236,381.38,99.593,380.824,100.157,380.709z"/>
		</g>
		<g opacity="0.2">
			<path fill="#2AAAE2" d="M29.006,311.569c0.09,0.841-0.509,1.593-1.341,1.684c-0.839,0.097-1.587-0.501-1.682-1.338
				c-0.091-0.836,0.504-1.589,1.345-1.683C28.154,310.139,28.911,310.742,29.006,311.569z"/>
			<path fill="#2AAAE2" d="M26.269,326.624c0.102,0.833-0.502,1.586-1.332,1.679c-0.839,0.096-1.588-0.504-1.686-1.338
				c-0.088-0.834,0.508-1.586,1.347-1.682C25.427,325.191,26.188,325.789,26.269,326.624z"/>
			<path fill="#2AAAE2" d="M35.995,334.376c0.088,0.835-0.512,1.59-1.349,1.679c-0.826,0.099-1.582-0.504-1.672-1.338
				c-0.102-0.832,0.503-1.584,1.338-1.681C35.147,332.944,35.897,333.543,35.995,334.376z"/>
			<path fill="#2AAAE2" d="M33.896,341.985c0.095,0.836-0.506,1.586-1.334,1.68c-0.839,0.094-1.595-0.504-1.687-1.342
				c-0.09-0.832,0.509-1.584,1.347-1.685C33.054,340.549,33.803,341.152,33.896,341.985z"/>
			<path fill="#2AAAE2" d="M43.289,346.83c0.096,0.832-0.502,1.589-1.344,1.675c-0.83,0.095-1.582-0.504-1.672-1.338
				c-0.103-0.833,0.503-1.584,1.337-1.681C42.445,345.397,43.192,345.99,43.289,346.83z"/>
			<path fill="#2AAAE2" d="M31.733,296.522c0.098,0.838-0.503,1.586-1.339,1.679c-0.832,0.098-1.586-0.503-1.682-1.335
				c-0.092-0.84,0.514-1.591,1.342-1.681C30.89,295.091,31.643,295.688,31.733,296.522z"/>
		</g>
	</g>
</g>
</svg>
