<?xml version="1.0" encoding="utf-8"?>
<!-- Generator: Adobe Illustrator 17.0.0, SVG Export Plug-In . SVG Version: 6.00 Build 0)  -->
<!DOCTYPE svg PUBLIC "-//W3C//DTD SVG 1.1//EN" "http://www.w3.org/Graphics/SVG/1.1/DTD/svg11.dtd">
<svg version="1.1" id="Layer_1" xmlns="http://www.w3.org/2000/svg" xmlns:xlink="http://www.w3.org/1999/xlink" x="0px" y="0px"
	 width="124.429px" height="81.429px" viewBox="0 0 124.429 81.429" enable-background="new 0 0 124.429 81.429"
	 xml:space="preserve">
<path opacity="0.4" fill="#615248" d="M103.924,38.993c-0.691,0-1.367,0.055-2.033,0.161c-2.161-8.369-9.755-14.542-18.794-14.542
	c-4.654,0-8.925,1.637-12.272,4.365c-0.521-6.864-6.252-12.276-13.256-12.276c-7.347,0-13.301,5.956-13.301,13.299
	c0,0.082,0.003,0.157,0.003,0.237C43.394,30.085,42.493,30,41.571,30c-8.836,0-16,7.165-16,16.001c0,8.835,7.164,16.002,16,16.002
	c2.667,0,5.181-0.657,7.393-1.813c2.281,5.695,7.846,9.72,14.355,9.72c5.665,0,10.609-3.04,13.305-7.582
	c2.022,0.718,4.202,1.112,6.473,1.112c4.019,0,7.756-1.223,10.852-3.314c2.368,2.878,5.957,4.711,9.975,4.711
	c7.136,0,12.92-5.786,12.92-12.924C116.844,44.774,111.06,38.993,103.924,38.993z"/>
<path fill="#A8DEEE" d="M99.442,36.649c-0.796,0-1.574,0.063-2.34,0.187c-2.487-9.633-11.229-16.74-21.632-16.74
	c-5.357,0-10.273,1.885-14.125,5.025C60.743,17.22,54.147,10.99,46.086,10.99c-8.457,0-15.31,6.856-15.31,15.309
	c0,0.094,0.004,0.18,0.004,0.273c-1.011-0.176-2.048-0.273-3.108-0.273c-10.171,0-18.417,8.247-18.417,18.418
	c0,10.169,8.246,18.417,18.417,18.417c3.07,0,5.964-0.757,8.509-2.087c2.626,6.556,9.031,11.188,16.523,11.188
	c6.521,0,12.211-3.5,15.315-8.728c2.326,0.826,4.836,1.281,7.45,1.281c4.625,0,8.926-1.407,12.49-3.816
	c2.726,3.314,6.857,5.425,11.482,5.425c8.214,0,14.871-6.662,14.871-14.877C114.312,43.305,107.655,36.649,99.442,36.649z"/>
</svg>
