<?xml version="1.0" encoding="utf-8"?>
<!-- Generator: Adobe Illustrator 17.0.0, SVG Export Plug-In . SVG Version: 6.00 Build 0)  -->
<!DOCTYPE svg PUBLIC "-//W3C//DTD SVG 1.1//EN" "http://www.w3.org/Graphics/SVG/1.1/DTD/svg11.dtd">
<svg version="1.1" id="Layer_1" xmlns="http://www.w3.org/2000/svg" xmlns:xlink="http://www.w3.org/1999/xlink" x="0px" y="0px"
	 width="348.714px" height="214.286px" viewBox="0 0 348.714 214.286" enable-background="new 0 0 348.714 214.286"
	 xml:space="preserve">
<path opacity="0.4" fill="#615248" d="M216.91,64.935c-1.784,0-3.527,0.144-5.245,0.419c-5.574-21.587-25.163-37.517-48.476-37.517
	c-12.006,0-23.023,4.228-31.655,11.264c-1.346-17.708-16.128-31.668-34.194-31.668c-18.951,0-34.31,15.366-34.31,34.307
	c0,0.213,0.01,0.401,0.01,0.61c-2.265-0.39-4.591-0.61-6.966-0.61c-22.793,0-41.27,18.479-41.27,41.274
	c0,22.787,18.477,41.273,41.27,41.273c6.881,0,13.366-1.698,19.069-4.677c5.887,14.693,20.239,25.072,37.028,25.072
	c14.614,0,27.365-7.844,34.322-19.56c5.211,1.849,10.838,2.872,16.696,2.872c10.362,0,20.004-3.155,27.99-8.557
	c6.108,7.429,15.368,12.158,25.73,12.158c18.406,0,33.325-14.93,33.325-33.336C250.235,79.852,235.316,64.935,216.91,64.935z"/>
<path opacity="0.4" fill="#615248" d="M310.539,127.818c-1.258,0-2.486,0.102-3.697,0.295
	c-3.928-15.215-17.736-26.441-34.167-26.441c-8.462,0-16.228,2.979-22.312,7.938c-0.948-12.482-11.368-22.32-24.101-22.32
	c-13.357,0-24.183,10.829-24.183,24.18c0,0.149,0.007,0.282,0.007,0.432c-1.596-0.275-3.235-0.432-4.909-0.432
	c-16.065,0-29.088,13.026-29.088,29.093c0,16.061,13.023,29.09,29.088,29.09c4.85,0,9.421-1.197,13.44-3.297
	c4.149,10.356,14.265,17.672,26.098,17.672c10.301,0,19.288-5.527,24.191-13.785c3.673,1.303,7.639,2.023,11.768,2.023
	c7.303,0,14.1-2.224,19.728-6.03c4.306,5.235,10.832,8.569,18.136,8.569c12.973,0,23.488-10.522,23.488-23.496
	C334.027,138.332,323.512,127.818,310.539,127.818z"/>
<path fill="#AAE0F4" d="M209.457,67.915c-1.784,0-3.528,0.145-5.245,0.419c-5.574-21.586-25.163-37.514-48.475-37.514
	c-12.006,0-23.022,4.226-31.655,11.264c-1.346-17.709-16.128-31.669-34.193-31.669c-18.951,0-34.31,15.365-34.31,34.306
	c0,0.212,0.01,0.402,0.01,0.611c-2.265-0.39-4.59-0.611-6.966-0.611c-22.792,0-41.269,18.48-41.269,41.275
	c0,22.787,18.476,41.273,41.269,41.273c6.881,0,13.367-1.699,19.069-4.678c5.887,14.693,20.239,25.072,37.028,25.072
	c14.615,0,27.365-7.843,34.322-19.559c5.211,1.848,10.837,2.872,16.696,2.872c10.362,0,20.004-3.157,27.989-8.557
	c6.108,7.428,15.369,12.157,25.731,12.157c18.406,0,33.325-14.929,33.325-33.336C242.782,82.833,227.864,67.915,209.457,67.915z"/>
<path fill="#CBEBF6" d="M305.193,129.308c-1.258,0-2.486,0.102-3.697,0.295c-3.928-15.215-17.736-26.441-34.167-26.441
	c-8.462,0-16.227,2.979-22.311,7.938c-0.949-12.481-11.368-22.32-24.101-22.32c-13.357,0-24.183,10.829-24.183,24.181
	c0,0.148,0.006,0.283,0.006,0.431c-1.596-0.275-3.235-0.431-4.91-0.431c-16.064,0-29.087,13.025-29.087,29.092
	c0,16.061,13.023,29.09,29.087,29.09c4.851,0,9.422-1.195,13.44-3.297c4.15,10.357,14.265,17.672,26.099,17.672
	c10.301,0,19.288-5.527,24.191-13.785c3.673,1.303,7.639,2.023,11.768,2.023c7.303,0,14.1-2.225,19.728-6.03
	c4.306,5.235,10.831,8.568,18.136,8.568c12.973,0,23.488-10.522,23.488-23.496C328.681,139.822,318.165,129.308,305.193,129.308z"/>
</svg>
