<?xml version="1.0" encoding="utf-8"?>
<!-- Generator: Adobe Illustrator 17.0.0, SVG Export Plug-In . SVG Version: 6.00 Build 0)  -->
<!DOCTYPE svg PUBLIC "-//W3C//DTD SVG 1.1//EN" "http://www.w3.org/Graphics/SVG/1.1/DTD/svg11.dtd">
<svg version="1.1" id="Layer_1" xmlns="http://www.w3.org/2000/svg" xmlns:xlink="http://www.w3.org/1999/xlink" x="0px" y="0px"
	 width="118.571px" height="640px" viewBox="0 0 118.571 640" enable-background="new 0 0 118.571 640" xml:space="preserve">
<g>
	<path fill="#FFFFFF" d="M50.69,12.41c6.331,91.858,3.117,154.409,1.944,246.376c-0.581,45.615-0.528,91.248,1.506,136.831
		c1.022,22.908,2.878,45.707,2.985,68.653c0.105,22.753-0.47,45.505,1.02,68.229c0.629-0.217,1.258-0.434,1.888-0.649
		c-7.527-11.822-24.896-20.979-30.609-2.711c-0.081,0.26-0.036,0.51,0.223,0.647c6.574,3.509,12.581,2.324,19.382,0.018
		c11.092-3.756,21.811-6.972,33.607-4.344c8.35,1.86,3.186,7.609-1.962,9.501c-6.922,2.544-14.23,0.259-18.239-5.875
		c-0.39-0.599-1.938-0.055-1.888,0.648c0.423,6.025,0.846,12.051,1.269,18.073c0.071,1.016,2.065,0.544,2.005-0.31
		c-0.423-6.025-0.846-12.047-1.269-18.072c-0.629,0.217-1.258,0.433-1.888,0.649c4.344,6.648,11.671,8.415,19.12,6.561
		c3.017-0.753,10.647-3.911,9.608-8.314c-1.707-7.23-18.446-5.524-22.993-4.975c-10.443,1.26-20.401,8.681-31.063,7.037
		c-3.815-1.786-4.328-4.059-1.54-6.819c3.438-5.631,9.312-3.972,13.569-1.919c4.748,2.289,8.15,6.878,10.899,11.192
		c0.384,0.602,1.934,0.048,1.889-0.649c-1.417-21.628-1.024-43.298-1.015-64.956c0.01-22.935-1.709-45.709-2.835-68.602
		c-2.24-45.563-2.227-91.207-1.702-136.81c1.071-93.09,4.505-156.74-1.904-249.721C52.625,11.086,50.632,11.555,50.69,12.41
		L50.69,12.41z"/>
</g>
<polygon fill="#FBF7BF" points="110.355,591.852 74.473,593.393 57.069,624.815 44.518,591.161 9.258,584.325 37.381,561.99 
	32.989,526.339 62.923,546.186 95.471,530.988 85.848,565.596 "/>
</svg>
