<?xml version="1.0" encoding="utf-8"?>
<!-- Generator: Adobe Illustrator 17.0.0, SVG Export Plug-In . SVG Version: 6.00 Build 0)  -->
<!DOCTYPE svg PUBLIC "-//W3C//DTD SVG 1.1//EN" "http://www.w3.org/Graphics/SVG/1.1/DTD/svg11.dtd">
<svg version="1.1" id="Layer_1" xmlns="http://www.w3.org/2000/svg" xmlns:xlink="http://www.w3.org/1999/xlink" x="0px" y="0px"
	 width="107.143px" height="148.571px" viewBox="0 0 107.143 148.571" enable-background="new 0 0 107.143 148.571"
	 xml:space="preserve">
<g>
	<defs>
		<rect id="SVGID_1_" x="10" y="0" width="117.905" height="168.01"/>
	</defs>
	<clipPath id="SVGID_2_">
		<use xlink:href="#SVGID_1_"  overflow="visible"/>
	</clipPath>
	<g clip-path="url(#SVGID_2_)">
		<path opacity="0.4" fill="#615248" d="M75.727,79.935c-0.664,2.02-1.723,3.783-3.285,5.053
			c-6.294,5.105-13.683,8.797-13.683,8.797s-0.07-0.338-0.181-0.928c-0.862,3.877-1.937,6.879-3.148,7.859
			c-3.019,2.449-7.942,4.709-11.092,6.016c-0.008,4.059-0.524,7.26-1.8,8.295c-3.399,2.756-10.654,6.582-14.302,8.441
			c-0.917,5.039-3.237,9.74-7.59,13.168C3.879,149.86-4.67,148.335-7.305,145.091c-2.634-3.246-0.27-5.549-0.27-5.549
			s5.109-16.455,5.082-26.438c-0.023-9.982,10.184-18.264,18.424-19.953c0.462-0.092,0.939-0.072,1.423,0.039
			c2.121-7.096,17.917-11.656,20.925-12.791c0,0,16.176-14.666,20.363-16.137c0.77-0.277,1.307,0.664,1.641,2.402
			c4.404-3.992,10.918-10.385,13.543-5.498c0.011,0.023,0.022,0.051,0.034,0.076c6.052-4.598,21.268-16.342,23.04-8.611
			C98.488,59.536,82.196,74.366,75.727,79.935z"/>
		<g>
			<path fill="#F9DBA7" d="M68.73,73.612c0,0-5.057-16.664-0.931-19.631c4.132-2.965,22.722-18.449,24.699-9.854
				C94.471,52.72,68.73,73.612,68.73,73.612z"/>
			<path fill="#D7B576" d="M54.352,85.28c0,0-4.494-22.123-0.32-25.51c4.176-3.391,12.36-12.736,15.389-7.113
				c3.029,5.631,4.909,18.717-1.384,23.826C61.744,81.589,54.352,85.28,54.352,85.28z"/>
			<path fill="#F9DBA7" d="M36.96,99.396c0,0,9.361-3.365,14.064-7.184c4.701-3.818,7.403-37.932,3.216-36.455
				c-4.19,1.476-20.365,16.142-20.365,16.142L36.96,99.396z"/>
			<path fill="#F9DBA7" d="M-11.978,131.038c0,0,5.107-16.459,5.084-26.436C-6.92,94.618,3.283,86.337,11.53,84.647
				c8.241-1.691,21.479,30.262,4.711,43.488c-16.765,13.221-25.316,11.697-27.949,8.453
				C-14.343,133.339-11.978,131.038-11.978,131.038z"/>
			<path opacity="0.6" fill="#F9EAD1" d="M7.234,122.888c-2.581,2.346-5.354,4.715-8.651,5.984c-0.405,0.158-1.16,0.311-1.737,0.422
				c-0.671-1.029-1.505-1.793-2.436-2.305c1.895-7.397,2.949-15.053,4.779-22.951c0.803-3.453,1.627-14.031,7.559-11.723
				c4.809,1.869,9.156,4.697,9.762,10.219C17.339,110.101,12.683,117.931,7.234,122.888z"/>
			<path fill="#D7B576" d="M21.636,116.062c0,0,11.857-5.773,16.492-9.539c4.641-3.76-0.715-35.955-4.253-34.623
				c-3.535,1.326-24.763,7.4-20.639,16.75C17.362,97.997,21.636,116.062,21.636,116.062z"/>
		</g>
	</g>
</g>
</svg>
