<?xml version="1.0" encoding="utf-8"?>
<!-- Generator: Adobe Illustrator 17.0.0, SVG Export Plug-In . SVG Version: 6.00 Build 0)  -->
<!DOCTYPE svg PUBLIC "-//W3C//DTD SVG 1.1//EN" "http://www.w3.org/Graphics/SVG/1.1/DTD/svg11.dtd">
<svg version="1.1" id="Layer_1" xmlns="http://www.w3.org/2000/svg" xmlns:xlink="http://www.w3.org/1999/xlink" x="0px" y="0px"
	 width="129.5px" height="63.5px" viewBox="0 0 129.5 63.5" enable-background="new 0 0 129.5 63.5" xml:space="preserve">
<g>
	<path opacity="0.4" fill="#615248" d="M100.544,40.811c-1.175-1.281-2.561-2.241-4.157-2.661
		c-6.42-1.685-13.182-1.941-13.182-1.941s0.063,0.274,0.178,0.752c-1.95-2.602-3.769-4.478-5.003-4.802
		c-3.079-0.808-7.517-0.83-10.31-0.741c-1.375-3.027-2.841-5.243-4.145-5.584c-3.466-0.908-10.169-1.313-13.517-1.469
		c-2.39-3.449-5.705-6.173-10.114-7.263c-16.977-4.207-22.84-0.183-23.709,3.129c-0.871,3.313,1.67,4.233,1.67,4.233
		s9.37,10.555,12.722,18.011c3.354,7.455,13.763,10.19,20.487,8.665c0.374-0.084,0.722-0.265,1.049-0.506
		c3.974,4.574,17.305,2.646,19.93,2.476c0,0,17.023,5.483,20.647,5.169c0.666-0.061,0.748-0.943,0.413-2.35
		c4.633,1.489,11.648,4.062,11.959-0.47c0.002-0.023,0.001-0.049,0.001-0.069c6.067,1.389,21.387,5.01,20.103-1.354
		C124.417,48.348,107.256,42.783,100.544,40.811z"/>
	<g>
		<path fill="#F9DBA7" d="M91.303,31.618c0,0,1.85,14.141,5.934,14.963c4.085,0.817,23.188,6.091,21.759-0.987
			C117.564,38.514,91.303,31.618,91.303,31.618z"/>
		<path fill="#D7B576" d="M76.633,27.766c0,0,4.119,18.025,8.377,19.145c4.261,1.117,13.524,5.327,13.882,0.107
			c0.359-5.221-2.656-15.623-9.076-17.31C83.395,28.024,76.633,27.766,76.633,27.766z"/>
		<path fill="#F9DBA7" d="M58.888,23.106c0,0,8.124-0.648,12.92,0.611c4.798,1.261,18.332,25.807,14.711,26.12
			c-3.623,0.312-20.647-5.169-20.647-5.169L58.888,23.106z"/>
		<path fill="#F9DBA7" d="M11.684,16.024c0,0,9.369,10.554,12.722,18.009c3.352,7.456,13.762,10.188,20.486,8.666
			c6.722-1.524,5.811-29.835-11.169-34.04c-16.977-4.206-22.841-0.181-23.71,3.131C9.145,15.103,11.684,16.024,11.684,16.024z"/>
		<path opacity="0.6" fill="#F9EAD1" d="M28.772,15.615c-2.718-0.88-5.587-1.713-8.477-1.544c-0.354,0.02-0.968,0.162-1.436,0.273
			c-0.153,0.997-0.517,1.847-1.041,2.541c3.914,4.881,7.284,10.236,11.318,15.515c1.763,2.306,5.953,9.921,9.597,6.194
			c2.957-3.024,5.247-6.6,3.834-10.923C40.631,21.745,34.514,17.475,28.772,15.615z"/>
		<path fill="#D7B576" d="M41.828,15.844c0,0,10.794,0.306,15.525,1.548c4.732,1.242,11.607,27.073,8.519,27.276
			c-3.087,0.199-20.978,2.837-21.057-5.53C44.734,30.772,41.828,15.844,41.828,15.844z"/>
	</g>
</g>
</svg>
