<?xml version="1.0" encoding="utf-8"?>
<!-- Generator: Adobe Illustrator 17.0.0, SVG Export Plug-In . SVG Version: 6.00 Build 0)  -->
<!DOCTYPE svg PUBLIC "-//W3C//DTD SVG 1.1//EN" "http://www.w3.org/Graphics/SVG/1.1/DTD/svg11.dtd">
<svg version="1.1" id="Layer_1" xmlns="http://www.w3.org/2000/svg" xmlns:xlink="http://www.w3.org/1999/xlink" x="0px" y="0px"
	 width="88px" height="63.5px" viewBox="0 0 88 63.5" enable-background="new 0 0 88 63.5" xml:space="preserve">
<g>
	<path opacity="0.4" fill="#615248" d="M76.79,38.515c0.441-1.474,0.566-3.066,0.416-4.712c0.671-0.639,1.039-1.176,1.003-1.572
		c-0.059-0.618-0.555-0.786-1.353-0.631c-0.404-1.767-1.106-3.573-2.058-5.364c0.581-0.666,0.936-1.186,0.963-1.488
		c0.175-1.873-0.926-2.29-2.582-1.189c-1.158-1.705-2.536-3.371-4.106-4.938c0.392-0.681,0.587-1.156,0.499-1.334
		c-0.686-1.429-1.919-2.126-3.117-1.049c-3.147-2.601-6.85-4.803-10.927-6.318c0.064-1.016-0.064-1.642-0.448-1.74
		c-0.362-0.094-0.784,0.343-1.24,1.156c-2.527-0.801-5.175-1.341-7.916-1.538c-1.146-0.081-2.325-0.101-3.523-0.071
		c-0.327-1.111-0.735-1.779-1.248-1.831c-0.568-0.057-0.93,0.683-1.142,1.959c-4.556,0.364-9.327,1.456-13.801,3.107
		c-0.774-0.801-1.44-1.077-1.937-0.594c-0.329,0.32-0.462,0.85-0.442,1.542c-3.107,1.318-6.009,2.908-8.532,4.715
		c-1.115-0.449-2.049,0.377-2.496,1.692c-0.019,0.062-0.006,0.146,0.029,0.254c-2.239,1.957-4.018,4.11-5.153,6.404
		c-0.035,0.05-0.06,0.111-0.086,0.173c-1.257,2.617-1.667,5.406-0.949,8.292c-0.396,0.094-0.611,0.333-0.6,0.759
		c0.015,0.438,0.547,0.993,1.438,1.617c0.276,0.594,0.586,1.192,0.962,1.793c6.677,10.621,14.9,11.153,17.2,13.334
		c2.301,2.181-1.152,5.092,3.635,7.41c4.789,2.316,26.383,3.29,26.383,3.29c2.368,1.838,3.394-6.947,5.035-9.066
		C62.34,50.456,73.389,49.845,76.79,38.515z"/>
	<g>
		<path fill="#F9DBA7" d="M55.805,58.536c2.008,2.225,4.563-6.242,6.554-8.038c1.992-1.794,12.977-0.449,18.319-11.006
			C86.023,28.936,74.45,8.574,55.711,3.819C36.973-0.942,6.332,8.651,13.564,26.556c4.699,11.633,12.7,13.605,14.579,16.155
			c1.879,2.555-2.033,4.81,2.273,7.935C34.723,53.771,55.805,58.536,55.805,58.536z"/>
		<path opacity="0.6" fill="#F9EAD1" d="M53.461,28.278c1.06-5.21-0.697-10.885-3.523-15.278c-2.146-3.344-4.642-5.815-8.145-7.632
			C40.635,4.77,39.441,4.2,38.2,3.778c-0.251,0.951-0.727,1.888-1.495,2.753c-5.553,6.254-15.024,10.788-14.821,20.231
			c0.248,11.599,12.412,12.86,21.912,12.398C49.103,38.899,52.517,32.931,53.461,28.278z"/>
		<path fill="#D7B576" d="M56.44,44.093c0,0,26.485-7.422,26.744-10.536C83.568,28.963,56.44,44.093,56.44,44.093z"/>
		<path fill="#D7B576" d="M52.921,43.022c0,0,28.444-14.618,29.176-17.262c0.731-2.645-1.747-2.716-5.28,0.353
			C73.287,29.18,52.921,43.022,52.921,43.022z"/>
		<path fill="#D7B576" d="M50.371,41.442c0,0,27.45-22.303,26.946-24.114c-0.501-1.813-1.939-2.78-3.673-0.935
			C71.91,18.238,50.371,41.442,50.371,41.442z"/>
		<path fill="#D7B576" d="M35.396,39.199c0,0-24.058-13.336-23.591-16.424C12.49,18.217,35.396,39.199,35.396,39.199z"/>
		<path fill="#D7B576" d="M39.065,38.965c0,0-24.302-20.785-24.404-23.525c-0.102-2.743,2.326-2.24,5.054,1.56
			C22.445,20.797,39.065,38.965,39.065,38.965z"/>
		<path fill="#D7B576" d="M41.914,38.017c0,0-21.566-28.033-20.659-29.682c0.908-1.648,2.529-2.255,3.79-0.061
			C26.308,10.469,41.914,38.017,41.914,38.017z"/>
		<path fill="#D7B576" d="M44.117,37.656c0,0-14.399-32.275-10.168-35.124C38.174-0.316,44.117,37.656,44.117,37.656z"/>
		<path fill="#D7B576" d="M64.658,5.807c2.91,1.341-16.485,33.545-16.485,33.545S61.749,4.467,64.658,5.807z"/>
		<path fill="#D7B576" d="M46.634,37.65c0,0,8.531-35.458,4.717-36.547C47.537,0.014,46.634,37.65,46.634,37.65z"/>
	</g>
</g>
</svg>
