<?xml version="1.0" encoding="utf-8"?>
<!-- Generator: Adobe Illustrator 17.0.0, SVG Export Plug-In . SVG Version: 6.00 Build 0)  -->
<!DOCTYPE svg PUBLIC "-//W3C//DTD SVG 1.1//EN" "http://www.w3.org/Graphics/SVG/1.1/DTD/svg11.dtd">
<svg version="1.1" id="Layer_1" xmlns="http://www.w3.org/2000/svg" xmlns:xlink="http://www.w3.org/1999/xlink" x="0px" y="0px"
	 width="88px" height="81.5px" viewBox="0 0 88 81.5" enable-background="new 0 0 88 81.5" xml:space="preserve">
<g>
	<path opacity="0.4" fill="#615248" d="M24.124,73.654c1.366,0.968,2.956,1.648,4.709,2.072c0.422,0.911,0.85,1.479,1.271,1.575
		c0.655,0.158,1.001-0.295,1.116-1.168c1.961,0.192,4.066,0.099,6.244-0.255c0.482,0.831,0.895,1.378,1.199,1.515
		c1.869,0.828,2.682-0.161,2.122-2.249c2.161-0.603,4.356-1.444,6.519-2.517c0.567,0.641,0.983,1.008,1.201,0.981
		c1.708-0.209,2.857-1.235,2.164-2.847c3.774-2.339,7.331-5.389,10.314-9.059c1.021,0.421,1.712,0.505,1.95,0.144
		c0.221-0.341-0.083-0.926-0.761-1.681c1.703-2.324,3.183-4.866,4.34-7.621c0.483-1.149,0.912-2.358,1.301-3.605
		c1.254,0.052,2.086-0.137,2.321-0.645c0.254-0.568-0.38-1.197-1.619-1.858c1.205-4.823,1.742-10.118,1.6-15.305
		c1.094-0.518,1.611-1.105,1.284-1.786c-0.212-0.45-0.713-0.772-1.433-0.993c-0.279-3.66-0.907-7.206-1.887-10.433
		c0.85-0.993,0.326-2.241-0.878-3.159c-0.056-0.042-0.147-0.059-0.268-0.058c-1.238-2.992-2.837-5.571-4.807-7.541
		c-0.037-0.055-0.095-0.101-0.146-0.148c-2.262-2.206-4.993-3.599-8.214-3.864c0.042-0.44-0.131-0.748-0.573-0.885
		c-0.457-0.139-1.213,0.22-2.168,0.921c-0.709,0.075-1.431,0.187-2.18,0.365C35.578,6.735,32.17,15.022,29.119,16.63
		c-3.047,1.611-4.844-2.961-8.898,1.168C16.168,21.925,7.644,43.833,7.644,43.833c-2.713,1.801,5.981,5.914,7.59,8.344
		C16.847,54.608,13.629,66.207,24.124,73.654z"/>
	<g>
		<path fill="#F9DBA7" d="M15.526,35.861c-2.988,1.294,4.844,6.874,6,9.554c1.159,2.676-4.054,13.524,4.964,22.706
			c9.018,9.181,34.02,4.347,45.447-13.309C83.363,37.163,84.144,2.254,63.184,3.475c-13.623,0.792-18.441,8.351-21.724,9.396
			c-3.285,1.048-4.247-3.768-8.964-0.418C27.778,15.799,15.526,35.861,15.526,35.861z"/>
		<path opacity="0.6" fill="#F9EAD1" d="M47.516,43.981c5.001,2.902,11.459,3.069,16.971,1.688c4.19-1.052,7.607-2.76,10.697-5.737
			c1.022-0.983,2.021-2.015,2.888-3.148c-0.892-0.587-1.691-1.403-2.313-2.495c-4.516-7.898-5.889-19.234-15.688-22.313
			c-12.036-3.783-17.568,8.309-20.396,18.261C38.092,35.792,43.055,41.388,47.516,43.981z"/>
		<path fill="#D7B576" d="M30.186,41.541c0,0-1.57,29.872,1.546,31.226C36.334,74.766,30.186,41.541,30.186,41.541z"/>
		<path fill="#D7B576" d="M32.517,38.293c0,0,5.159,34.394,7.627,36.065c2.468,1.673,3.408-0.854,1.477-5.561
			C39.69,64.09,32.517,38.293,32.517,38.293z"/>
		<path fill="#D7B576" d="M35.034,36.213c0,0,13.419,36.045,15.465,36.16c2.042,0.112,3.538-1.032,2.24-3.463
			C51.439,66.483,35.034,36.213,35.034,36.213z"/>
		<path fill="#D7B576" d="M42.556,21.565c0,0,22.113-20.146,25.134-18.589C72.146,5.269,42.556,21.565,42.556,21.565z"/>
		<path fill="#D7B576" d="M41.519,25.428c0,0,29.877-17.805,32.734-16.955c2.858,0.851,1.498,3.178-3.367,4.665
			C66.022,14.628,41.519,25.428,41.519,25.428z"/>
		<path fill="#D7B576" d="M41.502,28.691c0,0,36.392-12.46,37.773-10.948c1.383,1.507,1.443,3.39-1.258,3.926
			C75.317,22.202,41.502,28.691,41.502,28.691z"/>
		<path fill="#D7B576" d="M41.109,31.085c0,0,38.265-3.594,39.729,1.752C82.301,38.184,41.109,31.085,41.109,31.085z"/>
		<path fill="#D7B576" d="M66.772,63.336c-2.395,2.53-28.823-28.661-28.823-28.661S69.167,60.807,66.772,63.336z"/>
		<path fill="#D7B576" d="M40.24,33.685c0,0,33.562,21.132,36.009,17.582C78.699,47.715,40.24,33.685,40.24,33.685z"/>
	</g>
</g>
</svg>
