<?xml version="1.0" encoding="utf-8"?>
<!-- Generator: Adobe Illustrator 17.0.0, SVG Export Plug-In . SVG Version: 6.00 Build 0)  -->
<!DOCTYPE svg PUBLIC "-//W3C//DTD SVG 1.1//EN" "http://www.w3.org/Graphics/SVG/1.1/DTD/svg11.dtd">
<svg version="1.1" id="Layer_1" xmlns="http://www.w3.org/2000/svg" xmlns:xlink="http://www.w3.org/1999/xlink" x="0px" y="0px"
	 width="120px" height="114px" viewBox="0 0 120 114" enable-background="new 0 0 120 114" xml:space="preserve">
<g>
	<path opacity="0.4" fill="#615248" d="M25.35,43.107c0.664,2.018,1.723,3.783,3.285,5.052c6.294,5.105,13.683,8.797,13.683,8.797
		s0.07-0.337,0.181-0.927c0.862,3.877,1.937,6.879,3.149,7.859c3.018,2.448,7.942,4.709,11.092,6.015
		c0.008,4.059,0.525,7.261,1.8,8.295c3.399,2.757,10.654,6.582,14.302,8.441c0.917,5.039,3.237,9.74,7.59,13.169
		c16.767,13.225,25.316,11.699,27.951,8.455c2.634-3.247,0.27-5.55,0.27-5.55s-5.109-16.454-5.083-26.436
		c0.023-9.983-10.184-18.264-18.424-19.954c-0.462-0.092-0.939-0.071-1.424,0.04c-2.121-7.096-17.918-11.656-20.925-12.791
		c0,0-16.176-14.666-20.363-16.138c-0.77-0.276-1.307,0.665-1.641,2.403c-4.404-3.993-10.918-10.385-13.544-5.499
		c-0.011,0.024-0.022,0.052-0.034,0.077c-6.052-4.598-21.268-16.343-23.04-8.611C2.59,22.709,18.881,37.538,25.35,43.107z"/>
	<g>
		<path fill="#F9DBA7" d="M32.347,36.785c0,0,5.057-16.665,0.931-19.632C29.146,14.188,10.556-1.296,8.579,7.301
			C6.606,15.893,32.347,36.785,32.347,36.785z"/>
		<path fill="#D7B576" d="M46.724,48.452c0,0,4.494-22.123,0.321-25.51c-4.176-3.39-12.36-12.736-15.389-7.112
			c-3.029,5.63-4.909,18.717,1.384,23.825C39.333,44.761,46.724,48.452,46.724,48.452z"/>
		<path fill="#F9DBA7" d="M64.117,62.568c0,0-9.361-3.366-14.065-7.184c-4.701-3.819-7.403-37.933-3.216-36.456
			c4.191,1.477,20.365,16.142,20.365,16.142L64.117,62.568z"/>
		<path fill="#F9DBA7" d="M113.055,94.21c0,0-5.107-16.459-5.084-26.436c0.026-9.983-10.177-18.265-18.423-19.955
			c-8.241-1.69-21.479,30.263-4.711,43.489c16.765,13.221,25.316,11.696,27.949,8.452C115.42,96.511,113.055,94.21,113.055,94.21z"
			/>
		<path opacity="0.6" fill="#F9EAD1" d="M93.843,86.061c2.581,2.346,5.354,4.715,8.651,5.983c0.405,0.159,1.16,0.311,1.737,0.422
			c0.671-1.029,1.505-1.793,2.436-2.304c-1.895-7.396-2.948-15.054-4.778-22.952c-0.803-3.452-1.627-14.031-7.559-11.723
			c-4.809,1.87-9.156,4.698-9.762,10.22C83.738,73.272,88.394,81.104,93.843,86.061z"/>
		<path fill="#D7B576" d="M79.441,79.233c0,0-11.857-5.772-16.492-9.538c-4.641-3.76,0.715-35.955,4.253-34.624
			c3.535,1.326,24.763,7.4,20.639,16.751C83.715,61.169,79.441,79.233,79.441,79.233z"/>
	</g>
</g>
</svg>
