<?xml version="1.0" encoding="utf-8"?>
<!-- Generator: Adobe Illustrator 17.0.0, SVG Export Plug-In . SVG Version: 6.00 Build 0)  -->
<!DOCTYPE svg PUBLIC "-//W3C//DTD SVG 1.1//EN" "http://www.w3.org/Graphics/SVG/1.1/DTD/svg11.dtd">
<svg version="1.1" id="Layer_1" xmlns="http://www.w3.org/2000/svg" xmlns:xlink="http://www.w3.org/1999/xlink" x="0px" y="0px"
	 width="82px" height="87.5px" viewBox="0 0 82 87.5" enable-background="new 0 0 82 87.5" xml:space="preserve">
<g>
	<defs>
		<rect id="SVGID_1_" y="-5" width="79.939" height="95.275"/>
	</defs>
	<clipPath id="SVGID_2_">
		<use xlink:href="#SVGID_1_"  overflow="visible"/>
	</clipPath>
	<g clip-path="url(#SVGID_2_)">
		<path opacity="0.4" fill="#615248" d="M18.252,44.858c-0.094,1.831,0.21,3.706,0.849,5.574c-0.596,0.925-0.871,1.655-0.716,2.103
			c0.244,0.699,0.863,0.752,1.743,0.347c0.968,1.93,2.292,3.822,3.899,5.628c-0.485,0.938-0.748,1.638-0.696,1.999
			c0.331,2.217,1.721,2.388,3.327,0.645c1.823,1.648,3.892,3.184,6.153,4.557c-0.262,0.899-0.355,1.502-0.203,1.686
			c1.196,1.459,2.822,1.917,3.904,0.331c4.378,2.122,9.289,3.624,14.437,4.23c0.21,1.191,0.537,1.88,1.009,1.886
			c0.448,0.006,0.812-0.618,1.111-1.69c3.151,0.212,6.371,0.092,9.599-0.456c1.35-0.228,2.721-0.539,4.1-0.914
			c0.692,1.192,1.353,1.852,1.962,1.769c0.674-0.096,0.882-1.053,0.77-2.589c5.168-1.715,10.384-4.324,15.099-7.502
			c1.123,0.709,1.972,0.842,2.409,0.14c0.291-0.46,0.294-1.113,0.077-1.909c3.225-2.405,6.136-5.068,8.546-7.87
			c1.418,0.202,2.267-1.011,2.411-2.667c0.006-0.073-0.034-0.17-0.106-0.281c2.041-2.901,3.492-5.896,4.158-8.872
			c0.027-0.067,0.037-0.148,0.049-0.224c0.715-3.386,0.402-6.732-1.242-9.87c0.43-0.217,0.612-0.561,0.48-1.048
			c-0.141-0.504-0.917-0.993-2.123-1.466c-0.486-0.61-1.015-1.216-1.621-1.803c-10.732-10.411-20.403-8.7-23.682-10.578
			c-3.28-1.876-0.103-6.221-6.302-7.551c-6.201-1.326-31.476,3.644-31.476,3.644c-3.26-1.455-1.964,9.004-3.267,11.922
			C31.605,26.944,18.983,30.777,18.252,44.858z"/>
		<g>
			<path fill="#F9DBA7" d="M46.233,15.459c-2.951-2.006-3.518,8.517-5.315,11.159c-1.797,2.644-14.895,4.19-18.099,17.923
				c-3.202,13.732,15.949,34.032,38.989,34.244c23.04,0.214,55.804-19.555,42.37-38.234C95.449,28.41,85.629,28.388,82.732,25.962
				c-2.897-2.424,0.994-6.141-4.874-8.541C71.989,15.021,46.233,15.459,46.233,15.459z"/>
			<path opacity="0.6" fill="#F9EAD1" d="M57.5,49.83c0.249,6.329,3.885,12.403,8.398,16.694c3.433,3.261,7.02,5.418,11.588,6.531
				c1.51,0.367,3.054,0.688,4.611,0.823c0.018-1.17,0.305-2.389,0.949-3.606c4.66-8.813,14.346-16.739,11.441-27.612
				c-3.565-13.358-18.005-11.381-28.873-8.156C59.543,36.301,57.278,44.179,57.5,49.83z"/>
			<path fill="#D7B576" d="M49.581,32.36c0,0-28.563,16.079-27.985,19.758C22.448,57.55,49.581,32.36,49.581,32.36z"/>
			<path fill="#D7B576" d="M53.958,32.609c0,0-28.8,24.962-28.899,28.229c-0.1,3.266,2.792,2.651,6.013-1.898
				C34.295,54.392,53.958,32.609,53.958,32.609z"/>
			<path fill="#D7B576" d="M57.357,33.718c0,0-25.476,33.577-24.384,35.536c1.095,1.956,3.034,2.668,4.52,0.041
				C38.976,66.667,57.357,33.718,57.357,33.718z"/>
			<path fill="#D7B576" d="M75.33,32.081c0,0,31.62,8.637,31.956,12.346C107.779,49.898,75.33,32.081,75.33,32.081z"/>
			<path fill="#D7B576" d="M71.145,33.388c0,0,34.013,17.196,34.906,20.34c0.893,3.146-2.062,3.251-6.293-0.376
				C95.523,49.724,71.145,33.388,71.145,33.388z"/>
			<path fill="#D7B576" d="M68.119,35.288c0,0,32.89,26.362,32.304,28.527c-0.583,2.167-2.29,3.328-4.372,1.143
				C93.972,62.77,68.119,35.288,68.119,35.288z"/>
			<path fill="#D7B576" d="M65.671,36.33c0,0,25.788,33.3,21.698,37.793C83.281,78.614,65.671,36.33,65.671,36.33z"/>
			<path fill="#D7B576" d="M50.888,79.011c-3.749-0.73,9.606-43.498,9.606-43.498S54.635,79.739,50.888,79.011z"/>
			<path fill="#D7B576" d="M62.755,37.053c0,0,0.144,43.462,4.868,43.643C72.348,80.876,62.755,37.053,62.755,37.053z"/>
		</g>
	</g>
</g>
</svg>
