<?xml version="1.0" encoding="utf-8"?>
<!-- Generator: Adobe Illustrator 17.0.0, SVG Export Plug-In . SVG Version: 6.00 Build 0)  -->
<!DOCTYPE svg PUBLIC "-//W3C//DTD SVG 1.1//EN" "http://www.w3.org/Graphics/SVG/1.1/DTD/svg11.dtd">
<svg version="1.1" id="Layer_1" xmlns="http://www.w3.org/2000/svg" xmlns:xlink="http://www.w3.org/1999/xlink" x="0px" y="0px"
	 width="249px" height="293px" viewBox="0 0 249 293" enable-background="new 0 0 249 293" xml:space="preserve">
<g>
	<defs>
		<rect id="SVGID_1_" x="-41.092" y="6.5" width="342.368" height="370.685"/>
	</defs>
	<clipPath id="SVGID_2_">
		<use xlink:href="#SVGID_1_"  overflow="visible"/>
	</clipPath>
	<g clip-path="url(#SVGID_2_)">
		<g>
			<rect x="106.756" y="237.674" fill="#5C463C" width="1.001" height="17.268"/>
			<rect x="136.242" y="237.674" fill="#5C463C" width="1.002" height="17.483"/>
			<path fill="#A3402B" d="M144.915,275.028c0,3.717-3.879,6.729-8.665,6.729h-28.608c-4.785,0-8.664-3.012-8.664-6.729v-14.102
				c0-3.719,3.879-6.732,8.664-6.732c0,0,5.639,2.243,15.542,2.243c9.902,0,13.066-2.243,13.066-2.243
				c4.786,0,8.665,3.013,8.665,6.732V275.028z"/>
			<path fill="#843024" d="M124.888,272.624c-7.289,2.735-17.591,5.239-25.425,4.611c1.178,2.631,4.39,4.521,8.179,4.521h28.608
				c4.786,0,8.665-3.012,8.665-6.729v-13.505C142.85,263.47,136.072,268.43,124.888,272.624z"/>
			<path fill="#5C463C" d="M98.978,261.566c0,0,3.658,2.243,7.423-0.32c0,0,5.594,3.738,9.789-0.106c0,0,6.349,3.845,10.759-0.107
				c0,0,4.733,3.525,9.467,0.213c0,0,3.443,3.953,8.607,0.105v1.604c-4.595,3.847-8.607-0.106-8.607-0.106
				c-4.733,3.312-9.467-0.212-9.467-0.212c-4.41,3.95-10.759,0.105-10.759,0.105c-4.195,3.845-9.789,0.106-9.789,0.106
				c-3.765,2.563-7.423,0.32-7.423,0.32V261.566z"/>
			<g>
				<path fill="#F3905A" d="M107.159,263.527c0.002,0.028,0.003,0.059,0.003,0.087c0,0.675-0.297,1.219-0.665,1.219
					c-0.367,0-0.664-0.544-0.664-1.219c0-0.052,0.003-0.1,0.006-0.151c-1.568,0.556-2.812,3.205-2.812,4.915
					c0,1.916,1.487,3.468,3.322,3.468c1.834,0,3.321-1.552,3.321-3.468C109.67,266.727,108.622,264.198,107.159,263.527z"/>
				<path fill="#F3905A" d="M106.497,264.833c0.368,0,0.665-0.544,0.665-1.219c0-0.028-0.001-0.059-0.003-0.087
					c-0.025-0.63-0.312-1.129-0.662-1.129c-0.338,0-0.617,0.465-0.658,1.064c-0.003,0.052-0.006,0.1-0.006,0.151
					C105.832,264.289,106.129,264.833,106.497,264.833z"/>
			</g>
			<g>
				<path fill="#F3905A" d="M116.88,263.527c0,0.028,0.002,0.059,0.002,0.087c0,0.675-0.298,1.219-0.664,1.219
					s-0.664-0.544-0.664-1.219c0-0.052,0.002-0.1,0.006-0.151c-1.569,0.556-2.811,3.205-2.811,4.915
					c0,1.916,1.487,3.468,3.321,3.468s3.322-1.552,3.322-3.468C119.393,266.727,118.344,264.198,116.88,263.527z"/>
				<path fill="#F3905A" d="M116.218,264.833c0.366,0,0.664-0.544,0.664-1.219c0-0.028-0.002-0.059-0.002-0.087
					c-0.024-0.63-0.312-1.129-0.662-1.129c-0.338,0-0.617,0.465-0.658,1.064c-0.004,0.052-0.006,0.1-0.006,0.151
					C115.554,264.289,115.852,264.833,116.218,264.833z"/>
			</g>
			<g>
				<path fill="#F3905A" d="M127.67,263.527c0,0.028,0.002,0.059,0.002,0.087c0,0.675-0.298,1.219-0.665,1.219
					c-0.365,0-0.663-0.544-0.663-1.219c0-0.052,0.002-0.1,0.006-0.151c-1.569,0.556-2.811,3.205-2.811,4.915
					c0,1.916,1.486,3.468,3.321,3.468c1.835,0,3.321-1.552,3.321-3.468C130.182,266.727,129.133,264.198,127.67,263.527z"/>
				<path fill="#F3905A" d="M127.007,264.833c0.367,0,0.665-0.544,0.665-1.219c0-0.028-0.002-0.059-0.002-0.087
					c-0.025-0.63-0.312-1.129-0.663-1.129c-0.338,0-0.616,0.465-0.657,1.064c-0.004,0.052-0.006,0.1-0.006,0.151
					C126.344,264.289,126.642,264.833,127.007,264.833z"/>
			</g>
			<g>
				<path fill="#F3905A" d="M137.138,263.527c0.001,0.028,0.002,0.059,0.002,0.087c0,0.675-0.298,1.219-0.665,1.219
					c-0.366,0-0.664-0.544-0.664-1.219c0-0.052,0.002-0.1,0.005-0.151c-1.569,0.556-2.809,3.205-2.809,4.915
					c0,1.916,1.487,3.468,3.32,3.468c1.836,0,3.323-1.552,3.323-3.468C139.65,266.727,138.6,264.198,137.138,263.527z"/>
				<path fill="#F3905A" d="M136.475,264.833c0.367,0,0.665-0.544,0.665-1.219c0-0.028-0.001-0.059-0.002-0.087
					c-0.026-0.63-0.314-1.129-0.663-1.129c-0.339,0-0.617,0.465-0.659,1.064c-0.003,0.052-0.005,0.1-0.005,0.151
					C135.811,264.289,136.109,264.833,136.475,264.833z"/>
			</g>
		</g>
		<path fill="#FFDE11" d="M106.279,199.216c0,0-16.033-30.182-41.085-72.771c-0.214-0.365-0.427-0.728-0.643-1.094
			c-10.05-17.066-18.148-34.581-23.47-51.747c-5.304-17.108-7.846-33.868-6.808-49.487c0.555-8.35,2.129-16.375,4.857-23.951
			c3.112-8.644,7.335-15.176,11.94-20.1c-3.432,0.398-22.846,4.373-35.922,43.602c-0.05,0.149-0.095,0.299-0.144,0.448
			c-5.518,16.847-5.575,33.685-1.962,49.487c4.561,19.954,14.967,38.256,27.605,52.841c2.909,3.357,5.936,6.521,9.036,9.459
			c27.339,25.9,51.8,66.67,51.8,66.67s4.289,0.286,6.31-2.264C106.933,199.834,106.279,199.216,106.279,199.216z"/>
		<path fill="#FFDE11" d="M227.742,24.116c-0.049-0.149-0.094-0.299-0.144-0.448c-13.077-39.229-32.489-43.204-35.922-43.602
			c4.605,4.924,8.828,11.456,11.939,20.1c2.728,7.576,4.302,15.602,4.857,23.951c1.037,15.619-1.504,32.379-6.808,49.487
			c-5.322,17.166-13.42,34.681-23.47,51.747c-0.216,0.366-0.429,0.729-0.643,1.094c-25.052,42.59-41.084,72.771-41.084,72.771
			s-0.655,0.618-1.514,1.094c2.021,2.55,6.309,2.264,6.309,2.264s24.462-40.77,51.801-66.67c3.101-2.938,6.127-6.102,9.035-9.459
			c12.64-14.585,23.046-32.887,27.607-52.841C233.317,57.801,233.26,40.963,227.742,24.116z"/>
		<path fill="#FBB041" d="M34.142,26.667c-0.093,2.236-0.115,4.496-0.067,6.775l0.125,3.402c0.117,2.314,0.304,4.648,0.556,6.998
			l0.408,3.403c0.283,2.118,0.617,4.249,1.001,6.392l0.349,1.903l0.247,1.216c0.099,0.489,0.198,0.979,0.3,1.467l0.761,3.402
			c0.929,3.967,2.015,7.961,3.261,11.978c5.321,17.166,13.42,34.681,23.47,51.747c0.216,0.366,0.429,0.729,0.643,1.094
			c25.052,42.59,41.085,72.771,41.085,72.771s0.654,0.618,1.514,1.094c1.335,0.738,3.162,1.132,3.79-1.68
			c-0.598-0.465-0.986-0.855-0.986-0.855s-12.602-40.241-25.079-71.331c-1.077-2.682-2.153-5.295-3.218-7.808
			c-5.703-13.442-11.666-28.442-15.757-45.033c-0.181-0.729-0.352-1.464-0.526-2.201l-0.768-3.401
			c-0.119-0.557-0.232-1.118-0.348-1.678l-0.667-3.402c-0.36-1.939-0.691-3.9-0.991-5.881h-0.099h-0.112v-1.414
			c-0.227-1.59-0.429-3.193-0.612-4.811v1.379l-0.217-3.402c-0.227-2.268-0.409-4.561-0.545-6.877l-0.159-3.402
			c-0.075-2.064-0.108-4.15-0.102-6.255l0.051-3.401c0.04-1.57,0.096-3.148,0.187-4.74c0.486-8.625,1.718-17.566,3.876-26.828
			c3.809-16.346,10.243-25.967,17.148-31.528c-3.272-0.596-18.887,0.722-31.588,14.306c-4.605,4.924-8.829,11.456-11.94,20.1
			c-2.727,7.576-4.301,15.602-4.857,23.951"/>
		<path fill="#FBB041" d="M209.069,24.116c-0.555-8.35-2.13-16.375-4.857-23.951c-3.111-8.644-7.334-15.176-11.939-20.1
			c-12.702-13.583-28.314-14.901-31.587-14.306c6.904,5.561,13.339,15.183,17.146,31.528c2.158,9.262,3.39,18.203,3.876,26.828
			c1.009,17.844-1.17,34.329-4.908,49.487c-4.091,16.591-10.053,31.591-15.755,45.033c-1.066,2.513-2.143,5.126-3.219,7.808
			c-12.479,31.09-25.08,71.331-25.08,71.331s-0.39,0.39-0.987,0.855c0.628,2.813,2.456,2.418,3.791,1.68
			c0.857-0.477,1.514-1.094,1.514-1.094s16.033-30.182,41.085-72.771c0.215-0.365,0.428-0.728,0.643-1.094
			c10.049-17.066,18.148-34.581,23.471-51.747C207.565,56.495,210.108,39.735,209.069,24.116z"/>
		<path fill="#F26724" d="M115.872,196.337c-2.061-24.939-7.93-46.955-13.726-69.893c-4.204-16.639-8.366-33.766-11.013-52.841
			c-2.086-15.042-3.226-31.298-2.693-49.487c0.027-0.945,0.056-1.892,0.094-2.846c1.569-40.811,12.697-56.221,22.491-61.799
			c-4.264-1.004-16.956-2.903-28.366,6.288c-6.905,5.561-13.34,15.183-17.148,31.528c-2.158,9.262-3.39,18.203-3.876,26.828
			c-1.008,17.844,1.17,34.329,4.908,49.487c4.091,16.591,10.054,31.591,15.757,45.033c1.064,2.513,2.141,5.126,3.218,7.808
			c12.478,31.09,25.079,71.331,25.079,71.331s0.389,0.39,0.986,0.855c1.534,1.193,4.447,2.893,5.732-0.144
			C116.413,197.483,115.872,196.337,115.872,196.337z"/>
		<path fill="#F26724" d="M181.707,24.116c-0.486-8.625-1.718-17.566-3.876-26.828c-3.808-16.346-10.242-25.967-17.146-31.528
			c-11.411-9.191-24.104-7.292-28.367-6.288c9.793,5.578,20.921,20.988,22.491,61.799c0.037,0.954,0.065,1.9,0.093,2.846
			c0.531,18.189-0.608,34.445-2.694,49.487c-2.645,19.075-6.807,36.202-11.012,52.841c-5.795,22.938-11.665,44.953-13.727,69.893
			c0,0-0.54,1.146-1.442,2.149c1.286,3.036,4.198,1.337,5.731,0.144c0.598-0.465,0.987-0.855,0.987-0.855
			s12.602-40.241,25.08-71.331c1.076-2.682,2.152-5.295,3.219-7.808c5.702-13.442,11.664-28.442,15.755-45.033
			C180.538,58.445,182.716,41.96,181.707,24.116z"/>
		<path fill="#FFDE11" d="M154.902,24.116c-0.027-0.945-0.056-1.892-0.093-2.846c-1.57-40.811-12.698-56.221-22.491-61.799
			c-2.063-1.176-4.066-1.914-5.91-2.363c0.006-0.036,0.011-0.074,0.018-0.11c0,0-1.86-0.558-4.756-0.507
			c-2.892-0.051-4.752,0.507-4.752,0.507c0.005,0.036,0.011,0.074,0.017,0.11c-1.844,0.449-3.846,1.188-5.909,2.363
			c-9.794,5.578-20.922,20.988-22.491,61.799c-0.038,0.954-0.066,1.9-0.094,2.846c-0.532,18.189,0.607,34.445,2.693,49.487
			c2.646,19.075,6.809,36.202,11.013,52.841c5.796,22.938,11.665,44.953,13.726,69.893c0,0,0.541,1.146,1.442,2.149
			c1.053,1.171,2.599,2.147,4.357,0.879c1.759,1.268,3.303,0.292,4.355-0.879c0.902-1.003,1.442-2.149,1.442-2.149
			c2.062-24.939,7.932-46.955,13.727-69.893c4.205-16.639,8.367-33.766,11.012-52.841C154.293,58.562,155.433,42.306,154.902,24.116
			z"/>
		<g>
			<g>
				<path fill="#5C463C" d="M108.781,238.428c-0.303,0-0.553-0.243-0.559-0.548c-0.353-18.469-2.279-28.797-2.299-28.898
					c-0.057-0.305,0.143-0.598,0.445-0.654c0.306-0.055,0.596,0.141,0.655,0.445c0.019,0.104,1.961,10.514,2.316,29.085
					c0.006,0.31-0.239,0.566-0.549,0.57C108.788,238.428,108.785,238.428,108.781,238.428z"/>
				<path fill="#5C463C" d="M114.87,237.786c-0.011,0-0.021,0-0.031-0.002c-0.309-0.016-0.545-0.279-0.528-0.588
					c0.677-12.215-0.573-28.74-0.743-29.72c-0.072-0.274,0.074-0.564,0.345-0.663c0.29-0.108,0.612,0.038,0.72,0.326
					c0.167,0.448,1.485,17.666,0.796,30.119C115.411,237.556,115.165,237.786,114.87,237.786z"/>
				<path fill="#5C463C" d="M121.895,236.903c-0.309,0-0.559-0.251-0.559-0.561l-0.009-29.496c0-0.31,0.25-0.559,0.559-0.559l0,0
					c0.31,0,0.56,0.249,0.56,0.559l0.01,29.496C122.455,236.651,122.204,236.903,121.895,236.903L121.895,236.903z"/>
				<path fill="#5C463C" d="M128.744,236.972c-0.276,0-0.518-0.205-0.554-0.488c-1.462-11.414,0.814-29.175,1.129-29.689
					c0.163-0.263,0.507-0.347,0.77-0.184c0.236,0.145,0.326,0.436,0.226,0.684c-0.314,1.189-2.432,17.99-1.016,29.047
					c0.04,0.307-0.176,0.587-0.481,0.626C128.791,236.971,128.768,236.972,128.744,236.972z"/>
				<path fill="#5C463C" d="M135.06,236.849c-0.29,0-0.535-0.225-0.557-0.52c-1.28-18.152,0.944-29.051,0.968-29.158
					c0.063-0.302,0.355-0.5,0.662-0.433c0.301,0.061,0.495,0.358,0.433,0.661c-0.024,0.107-2.215,10.87-0.946,28.852
					c0.021,0.308-0.21,0.575-0.52,0.596C135.087,236.849,135.074,236.849,135.06,236.849z"/>
			</g>
			<path fill="#C9644F" d="M100.197,200.523c0,0,20.305-10.542,43.212-0.26c0,0-4.165,7.42-5.467,14.186
				c0,0-18.742-3.514-32.408,1.303C105.534,215.752,104.752,208.333,100.197,200.523z"/>
			<path fill="#B04C39" d="M104.752,211.196c0,0,14.057-6.249,34.1-0.521l-1.17,4.427c0,0-18.137-4.075-32.148,0.65L104.752,211.196
				z"/>
			<path opacity="0.4" fill="#BA1F36" d="M99.203,198.821c0,0,20.689-11.631,45.165,0.225l-1.037,1.442
				c0,0-20.507-10.638-43.046,0.18L99.203,198.821z"/>
			<path fill="#C9644F" d="M106.448,236.929c0,0,16.687-4.488,31.419-0.344c0,0,2.647,2.071-0.46,4.143
				c0,0-16.229-3.337-30.731,0.921C106.675,241.649,103.683,239.346,106.448,236.929z"/>
		</g>
	</g>
</g>
</svg>
