<?xml version="1.0" encoding="utf-8"?>
<!-- Generator: Adobe Illustrator 16.0.0, SVG Export Plug-In . SVG Version: 6.00 Build 0)  -->
<!DOCTYPE svg PUBLIC "-//W3C//DTD SVG 1.1//EN" "http://www.w3.org/Graphics/SVG/1.1/DTD/svg11.dtd">
<svg version="1.1" id="Layer_1" xmlns="http://www.w3.org/2000/svg" xmlns:xlink="http://www.w3.org/1999/xlink" x="0px" y="0px"
	 width="234px" height="328.589px" viewBox="0 0 234 328.589" enable-background="new 0 0 234 328.589" xml:space="preserve">
<g>
	<g>
		<rect x="102.383" y="282.847" fill="#5B453B" width="1.001" height="17.268"/>
		<rect x="131.869" y="282.847" fill="#5B453B" width="1.002" height="17.482"/>
		<path fill="#A23F2B" d="M140.543,320.201c0,3.717-3.879,6.729-8.665,6.729h-28.609c-4.785,0-8.664-3.012-8.664-6.729v-14.102
			c0-3.719,3.879-6.73,8.664-6.73c0,0,5.639,2.242,15.542,2.242c9.902,0,13.066-2.242,13.066-2.242c4.786,0,8.665,3.012,8.665,6.73
			V320.201z"/>
		<path fill="#842F24" d="M120.516,317.796c-7.29,2.736-17.591,5.24-25.425,4.611c1.178,2.631,4.39,4.521,8.179,4.521h28.609
			c4.786,0,8.665-3.012,8.665-6.729v-13.504C138.478,308.642,131.699,313.603,120.516,317.796z"/>
		<path fill="#5B453B" d="M94.605,306.74c0,0,3.658,2.242,7.423-0.32c0,0,5.594,3.738,9.789-0.107c0,0,6.349,3.846,10.759-0.105
			c0,0,4.733,3.525,9.467,0.213c0,0,3.443,3.953,8.607,0.105v1.604c-4.595,3.846-8.607-0.107-8.607-0.107
			c-4.733,3.313-9.467-0.211-9.467-0.211c-4.41,3.949-10.759,0.105-10.759,0.105c-4.195,3.844-9.789,0.105-9.789,0.105
			c-3.765,2.564-7.423,0.32-7.423,0.32V306.74z"/>
		<g>
			<path fill="#F28F58" d="M102.786,308.701c0.002,0.027,0.003,0.059,0.003,0.086c0,0.676-0.297,1.219-0.665,1.219
				c-0.367,0-0.664-0.543-0.664-1.219c0-0.051,0.003-0.1,0.006-0.15c-1.568,0.555-2.812,3.205-2.812,4.914
				c0,1.916,1.487,3.469,3.322,3.469c1.834,0,3.321-1.553,3.321-3.469C105.297,311.9,104.249,309.371,102.786,308.701z"/>
			<path fill="#F28F58" d="M102.124,310.005c0.368,0,0.665-0.543,0.665-1.219c0-0.027-0.001-0.059-0.003-0.086
				c-0.025-0.631-0.312-1.129-0.662-1.129c-0.338,0-0.617,0.465-0.658,1.064c-0.003,0.051-0.006,0.1-0.006,0.15
				C101.459,309.462,101.756,310.005,102.124,310.005z"/>
		</g>
		<g>
			<path fill="#F28F58" d="M112.507,308.701c0,0.027,0.002,0.059,0.002,0.086c0,0.676-0.298,1.219-0.664,1.219
				s-0.664-0.543-0.664-1.219c0-0.051,0.002-0.1,0.006-0.15c-1.569,0.555-2.811,3.205-2.811,4.914c0,1.916,1.487,3.469,3.321,3.469
				s3.322-1.553,3.322-3.469C115.02,311.9,113.971,309.371,112.507,308.701z"/>
			<path fill="#F28F58" d="M111.845,310.005c0.366,0,0.664-0.543,0.664-1.219c0-0.027-0.002-0.059-0.002-0.086
				c-0.024-0.631-0.312-1.129-0.662-1.129c-0.338,0-0.617,0.465-0.658,1.064c-0.004,0.051-0.006,0.1-0.006,0.15
				C111.181,309.462,111.479,310.005,111.845,310.005z"/>
		</g>
		<g>
			<path fill="#F28F58" d="M123.298,308.701c0,0.027,0.002,0.059,0.002,0.086c0,0.676-0.298,1.219-0.665,1.219
				c-0.365,0-0.663-0.543-0.663-1.219c0-0.051,0.002-0.1,0.006-0.15c-1.569,0.555-2.811,3.205-2.811,4.914
				c0,1.916,1.486,3.469,3.321,3.469s3.321-1.553,3.321-3.469C125.81,311.9,124.761,309.371,123.298,308.701z"/>
			<path fill="#F28F58" d="M122.635,310.005c0.367,0,0.665-0.543,0.665-1.219c0-0.027-0.002-0.059-0.002-0.086
				c-0.025-0.631-0.312-1.129-0.663-1.129c-0.338,0-0.616,0.465-0.657,1.064c-0.004,0.051-0.006,0.1-0.006,0.15
				C121.972,309.462,122.27,310.005,122.635,310.005z"/>
		</g>
		<g>
			<path fill="#F28F58" d="M132.766,308.701c0.001,0.027,0.002,0.059,0.002,0.086c0,0.676-0.298,1.219-0.665,1.219
				c-0.366,0-0.664-0.543-0.664-1.219c0-0.051,0.002-0.1,0.005-0.15c-1.569,0.555-2.81,3.205-2.81,4.914
				c0,1.916,1.487,3.469,3.32,3.469c1.836,0,3.323-1.553,3.323-3.469C135.277,311.9,134.228,309.371,132.766,308.701z"/>
			<path fill="#F28F58" d="M132.103,310.005c0.367,0,0.665-0.543,0.665-1.219c0-0.027-0.001-0.059-0.002-0.086
				c-0.026-0.631-0.313-1.129-0.663-1.129c-0.339,0-0.617,0.465-0.659,1.064c-0.003,0.051-0.005,0.1-0.005,0.15
				C131.438,309.462,131.736,310.005,132.103,310.005z"/>
		</g>
	</g>
	<path fill="#FFDE17" d="M101.906,244.388c0,0-16.033-30.182-41.085-72.771c-0.214-0.365-0.427-0.727-0.643-1.094
		c-10.05-17.066-18.148-34.581-23.47-51.747c-5.304-17.108-7.846-33.868-6.808-49.487c0.555-8.35,2.129-16.375,4.856-23.951
		c3.112-8.644,7.335-15.176,11.94-20.1c-3.432,0.398-22.846,4.373-35.922,43.603c-0.05,0.149-0.095,0.299-0.145,0.448
		c-5.519,16.847-5.575,33.685-1.962,49.487c4.561,19.954,14.967,38.256,27.605,52.841c2.909,3.357,5.936,6.521,9.036,9.459
		c27.339,25.9,51.8,66.67,51.8,66.67s4.289,0.287,6.31-2.264C102.56,245.007,101.906,244.388,101.906,244.388z"/>
	<path fill="#FFDE17" d="M223.369,69.289c-0.049-0.149-0.094-0.299-0.144-0.448c-13.077-39.229-32.489-43.204-35.922-43.603
		c4.605,4.924,8.828,11.456,11.939,20.1c2.728,7.576,4.302,15.602,4.857,23.951c1.037,15.619-1.504,32.379-6.808,49.487
		c-5.322,17.166-13.42,34.681-23.47,51.747c-0.216,0.367-0.429,0.729-0.644,1.094c-25.052,42.59-41.084,72.771-41.084,72.771
		s-0.655,0.619-1.514,1.094c2.021,2.551,6.309,2.264,6.309,2.264s24.462-40.77,51.801-66.67c3.101-2.938,6.127-6.102,9.035-9.459
		c12.64-14.585,23.046-32.887,27.606-52.841C228.944,102.973,228.888,86.135,223.369,69.289z"/>
	<path fill="#FBB040" d="M29.769,71.839c-0.093,2.236-0.115,4.496-0.067,6.775l0.125,3.402c0.117,2.314,0.304,4.648,0.556,6.998
		l0.408,3.403c0.283,2.118,0.617,4.249,1.001,6.392l0.349,1.903l0.247,1.216c0.099,0.489,0.198,0.979,0.3,1.467l0.761,3.402
		c0.929,3.967,2.015,7.961,3.261,11.978c5.321,17.166,13.42,34.681,23.47,51.747c0.216,0.367,0.429,0.729,0.643,1.094
		c25.052,42.59,41.085,72.771,41.085,72.771s0.654,0.619,1.514,1.094c1.335,0.738,3.162,1.133,3.79-1.68
		c-0.598-0.465-0.986-0.854-0.986-0.854s-12.602-40.242-25.079-71.332c-1.077-2.682-2.153-5.295-3.218-7.808
		c-5.703-13.442-11.666-28.442-15.757-45.033c-0.181-0.729-0.352-1.464-0.526-2.201l-0.768-3.401
		c-0.119-0.557-0.232-1.118-0.348-1.678l-0.667-3.402c-0.36-1.939-0.691-3.9-0.991-5.881h-0.099h-0.112v-1.414
		c-0.227-1.59-0.429-3.193-0.612-4.811v1.379l-0.217-3.402c-0.228-2.268-0.409-4.561-0.545-6.877l-0.159-3.402
		c-0.075-2.064-0.108-4.15-0.102-6.255l0.051-3.401c0.04-1.57,0.096-3.148,0.187-4.74c0.486-8.625,1.718-17.566,3.876-26.828
		c3.809-16.346,10.243-25.967,17.148-31.528c-3.272-0.596-18.887,0.722-31.588,14.306c-4.605,4.924-8.829,11.456-11.94,20.1
		c-2.727,7.576-4.301,15.602-4.856,23.951"/>
	<path fill="#FBB040" d="M204.696,69.289c-0.555-8.35-2.13-16.375-4.857-23.951c-3.111-8.644-7.334-15.176-11.939-20.1
		c-12.702-13.583-28.314-14.901-31.587-14.306c6.904,5.562,13.339,15.183,17.146,31.528c2.158,9.262,3.39,18.203,3.876,26.828
		c1.009,17.844-1.17,34.329-4.908,49.487c-4.091,16.591-10.053,31.591-15.755,45.033c-1.066,2.512-2.143,5.126-3.219,7.808
		c-12.479,31.09-25.08,71.332-25.08,71.332s-0.39,0.389-0.987,0.854c0.628,2.813,2.456,2.418,3.791,1.68
		c0.857-0.477,1.514-1.094,1.514-1.094s16.033-30.182,41.085-72.771c0.215-0.365,0.428-0.727,0.644-1.094
		c10.049-17.066,18.147-34.581,23.471-51.747C203.192,101.667,205.735,84.908,204.696,69.289z"/>
	<path fill="#F26522" d="M111.499,241.509c-2.061-24.939-7.93-46.955-13.726-69.893c-4.204-16.639-8.366-33.766-11.013-52.841
		c-2.086-15.042-3.226-31.298-2.693-49.487c0.027-0.945,0.056-1.892,0.094-2.846c1.569-40.811,12.697-56.221,22.491-61.799
		c-4.264-1.004-16.956-2.903-28.366,6.288c-6.905,5.562-13.34,15.183-17.148,31.528c-2.158,9.262-3.39,18.203-3.876,26.828
		c-1.008,17.844,1.17,34.329,4.908,49.487c4.091,16.591,10.054,31.591,15.757,45.033c1.064,2.512,2.141,5.126,3.218,7.808
		c12.478,31.09,25.079,71.332,25.079,71.332s0.389,0.389,0.986,0.854c1.534,1.193,4.447,2.893,5.731-0.143
		C112.04,242.656,111.499,241.509,111.499,241.509z"/>
	<path fill="#F26522" d="M177.335,69.289c-0.486-8.625-1.718-17.566-3.876-26.828c-3.808-16.346-10.242-25.967-17.146-31.528
		c-11.411-9.191-24.104-7.292-28.367-6.288c9.793,5.578,20.921,20.988,22.491,61.799c0.037,0.954,0.065,1.9,0.093,2.846
		c0.531,18.189-0.608,34.445-2.694,49.487c-2.645,19.075-6.807,36.202-11.012,52.841c-5.795,22.938-11.665,44.953-13.727,69.893
		c0,0-0.54,1.146-1.442,2.15c1.286,3.035,4.198,1.336,5.731,0.143c0.598-0.465,0.987-0.854,0.987-0.854s12.602-40.242,25.08-71.332
		c1.076-2.682,2.152-5.295,3.219-7.808c5.702-13.442,11.664-28.442,15.755-45.033C176.165,103.618,178.344,87.132,177.335,69.289z"
		/>
	<path fill="#FFDE17" d="M150.529,69.289c-0.027-0.945-0.056-1.892-0.093-2.846c-1.57-40.811-12.698-56.221-22.491-61.799
		c-2.063-1.176-4.066-1.914-5.91-2.363c0.006-0.036,0.011-0.074,0.018-0.11c0,0-1.86-0.558-4.756-0.507
		c-2.892-0.051-4.752,0.507-4.752,0.507c0.005,0.036,0.011,0.074,0.017,0.11c-1.844,0.449-3.846,1.188-5.909,2.363
		c-9.794,5.578-20.922,20.988-22.491,61.799c-0.038,0.954-0.066,1.9-0.094,2.846c-0.532,18.189,0.607,34.445,2.693,49.487
		c2.646,19.075,6.809,36.202,11.013,52.841c5.796,22.938,11.665,44.953,13.726,69.893c0,0,0.541,1.146,1.442,2.15
		c1.053,1.17,2.599,2.146,4.358,0.879c1.759,1.268,3.303,0.291,4.355-0.879c0.902-1.004,1.442-2.15,1.442-2.15
		c2.062-24.939,7.932-46.955,13.727-69.893c4.205-16.639,8.367-33.766,11.012-52.841C149.921,103.734,151.061,87.478,150.529,69.289
		z"/>
	<g>
		<g>
			<path fill="#5B453B" d="M104.408,283.601c-0.303,0-0.553-0.244-0.559-0.549c-0.353-18.469-2.279-28.797-2.299-28.898
				c-0.057-0.305,0.143-0.598,0.445-0.654c0.306-0.055,0.596,0.141,0.655,0.445c0.019,0.104,1.961,10.514,2.316,29.086
				c0.006,0.309-0.239,0.564-0.549,0.57C104.415,283.601,104.412,283.601,104.408,283.601z"/>
			<path fill="#5B453B" d="M110.497,282.958c-0.011,0-0.021,0-0.031-0.002c-0.309-0.016-0.545-0.279-0.528-0.588
				c0.677-12.215-0.573-28.74-0.743-29.719c-0.072-0.275,0.074-0.564,0.345-0.664c0.29-0.107,0.612,0.039,0.72,0.326
				c0.167,0.449,1.485,17.666,0.796,30.119C111.038,282.728,110.792,282.958,110.497,282.958z"/>
			<path fill="#5B453B" d="M117.522,282.076c-0.31,0-0.56-0.25-0.56-0.561l-0.009-29.496c0-0.309,0.25-0.559,0.559-0.559l0,0
				c0.31,0,0.56,0.25,0.56,0.559l0.01,29.496C118.082,281.824,117.831,282.076,117.522,282.076L117.522,282.076z"/>
			<path fill="#5B453B" d="M124.371,282.144c-0.276,0-0.518-0.205-0.554-0.488c-1.462-11.414,0.814-29.174,1.129-29.688
				c0.163-0.264,0.507-0.348,0.77-0.186c0.236,0.145,0.326,0.438,0.226,0.684c-0.313,1.189-2.432,17.99-1.016,29.047
				c0.04,0.307-0.176,0.588-0.481,0.627C124.419,282.144,124.396,282.144,124.371,282.144z"/>
			<path fill="#5B453B" d="M130.688,282.021c-0.29,0-0.535-0.225-0.557-0.52c-1.28-18.152,0.944-29.051,0.968-29.158
				c0.063-0.301,0.354-0.5,0.662-0.432c0.301,0.061,0.495,0.357,0.433,0.66c-0.024,0.107-2.215,10.871-0.946,28.852
				c0.021,0.309-0.21,0.576-0.52,0.596C130.715,282.021,130.701,282.021,130.688,282.021z"/>
		</g>
		<path fill="#C8644F" d="M95.824,245.695c0,0,20.305-10.541,43.212-0.26c0,0-4.165,7.42-5.467,14.188
			c0,0-18.743-3.514-32.409,1.303C101.161,260.925,100.379,253.505,95.824,245.695z"/>
		<path fill="#AF4C38" d="M100.379,256.369c0,0,14.057-6.248,34.1-0.521l-1.17,4.428c0,0-18.137-4.076-32.149,0.65L100.379,256.369z
			"/>
		<path opacity="0.4" fill="#BA1A35" d="M94.83,243.994c0,0,20.689-11.631,45.166,0.225l-1.037,1.443c0,0-20.507-10.639-43.046,0.18
			L94.83,243.994z"/>
		<path fill="#C8644F" d="M102.075,282.101c0,0,16.687-4.488,31.419-0.344c0,0,2.647,2.072-0.46,4.143
			c0,0-16.229-3.336-30.732,0.922C102.302,286.822,99.31,284.519,102.075,282.101z"/>
	</g>
</g>
</svg>
