<?xml version="1.0" encoding="utf-8"?>
<!-- Generator: Adobe Illustrator 16.0.0, SVG Export Plug-In . SVG Version: 6.00 Build 0)  -->
<!DOCTYPE svg PUBLIC "-//W3C//DTD SVG 1.1//EN" "http://www.w3.org/Graphics/SVG/1.1/DTD/svg11.dtd">
<svg version="1.1" id="Layer_1" xmlns="http://www.w3.org/2000/svg" xmlns:xlink="http://www.w3.org/1999/xlink" x="0px" y="0px"
	 width="2000px" height="341px" viewBox="0 0 2000 341" enable-background="new 0 0 2000 341" xml:space="preserve">
<g>
	<g>
		<defs>
			<rect id="SVGID_1_" x="-30.358" y="-12.318" width="2037.512" height="358.662"/>
		</defs>
		<clipPath id="SVGID_2_">
			<use xlink:href="#SVGID_1_"  overflow="visible"/>
		</clipPath>
		<g opacity="0.4" clip-path="url(#SVGID_2_)">
			<g>
				<path fill="#615248" d="M-19.314,778.398h2035.389l11.043-754.528c0,0-69.475,60.005-109.962,63.685
					c-202.434,14.725-254.423-85.769-467.897-85.769c-213.476,0-331.119,169.306-526.195,165.629
					c-165.625-3.681-393.962-66.252-625.842-66.252c-231.883,0-253.965,121.462-327.579,110.418L-19.314,778.398z"/>
			</g>
			<g>
				<path fill="#615248" d="M-19.314,825.774h2035.389l11.043-754.528c0,0-69.475,60.005-109.962,63.685
					c-202.434,14.726-254.423-85.769-467.897-85.769c-213.476,0-331.119,169.307-526.195,165.629
					c-165.625-3.68-393.962-66.253-625.842-66.253c-231.883,0-253.965,121.463-327.579,110.421L-19.314,825.774z"/>
			</g>
			<g>
				<path fill="#615248" d="M-34.521,782.875H2000.87l11.042-596.264c0,0-69.476,60.006-109.962,63.686
					c-202.435,14.725-254.423-85.77-467.898-85.77c-213.474,0-369.275,210.265-564.351,206.587
					c-165.626-3.68-305.518-105.61-537.398-105.61c-231.879,0-304.25,119.862-377.864,108.82L-34.521,782.875z"/>
			</g>
			<g>
				<ellipse fill="#615248" cx="215.574" cy="177.618" rx="15.261" ry="11.449"/>
				<ellipse fill="#615248" cx="185.052" cy="195.725" rx="15.26" ry="11.45"/>
				<path fill="#615248" d="M85.669,243.168c0,6.325-6.835,11.449-15.259,11.449c-8.431,0-15.266-5.124-15.266-11.449
					c0-6.324,6.835-11.452,15.266-11.452C78.834,231.716,85.669,236.844,85.669,243.168z"/>
				<path fill="#615248" d="M784.343,212.292c0,2.987-3.227,5.411-7.21,5.411c-3.987,0-7.214-2.424-7.214-5.411
					c0-2.992,3.228-5.412,7.214-5.412C781.116,206.88,784.343,209.3,784.343,212.292z"/>
				<path fill="#615248" d="M794.316,224.15c0,2.986-3.229,5.408-7.211,5.408c-3.984,0-7.213-2.422-7.213-5.408
					c0-2.992,3.229-5.413,7.213-5.413C791.087,218.737,794.316,221.158,794.316,224.15z"/>
				<ellipse fill="#615248" cx="651.288" cy="195.725" rx="7.213" ry="5.411"/>
				<ellipse fill="#615248" cx="765.469" cy="235.602" rx="7.211" ry="5.411"/>
				<path fill="#615248" d="M969.605,224.15c0,2.986-3.23,5.408-7.21,5.408c-3.984,0-7.213-2.422-7.213-5.408
					c0-2.992,3.229-5.413,7.213-5.413C966.375,218.737,969.605,221.158,969.605,224.15z"/>
				<ellipse fill="#615248" cx="955.181" cy="237.757" rx="7.213" ry="5.411"/>
				<ellipse fill="#615248" cx="1031.251" cy="214.959" rx="7.213" ry="5.411"/>
				<path fill="#615248" d="M1027.507,230.189c0,2.987-3.229,5.412-7.214,5.412c-3.98,0-7.212-2.425-7.212-5.412
					c0-2.988,3.231-5.411,7.212-5.411C1024.277,224.778,1027.507,227.201,1027.507,230.189z"/>
				<path fill="#615248" d="M993.767,227.727c0,2.986-3.231,5.411-7.212,5.411c-3.984,0-7.213-2.425-7.213-5.411
					c0-2.992,3.229-5.412,7.213-5.412C990.535,222.314,993.767,224.734,993.767,227.727z"/>
				<path fill="#615248" d="M934.917,227.727c0,2.986-3.229,5.411-7.213,5.411c-3.983,0-7.213-2.425-7.213-5.411
					c0-2.992,3.229-5.412,7.213-5.412C931.688,222.314,934.917,224.734,934.917,227.727z"/>
				<ellipse fill="#615248" cx="907.104" cy="224.778" rx="7.212" ry="5.411"/>
				<path fill="#615248" d="M691.606,204.736c0,2.987-3.229,5.409-7.211,5.409c-3.983,0-7.215-2.422-7.215-5.409
					c0-2.991,3.231-5.411,7.215-5.411C688.377,199.325,691.606,201.745,691.606,204.736z"/>
				<ellipse fill="#615248" cx="630.916" cy="190.313" rx="7.213" ry="5.411"/>
				<ellipse fill="#615248" cx="453.434" cy="181.396" rx="7.212" ry="5.411"/>
				<path fill="#615248" d="M1216.146,130.135c0,2.987-3.232,5.409-7.216,5.409c-3.981,0-7.213-2.422-7.213-5.409
					c0-2.992,3.231-5.409,7.213-5.409C1212.914,124.726,1216.146,127.143,1216.146,130.135z"/>
				<path fill="#615248" d="M1197.74,144.807c0,2.99-3.232,5.412-7.213,5.412c-3.982,0-7.213-2.422-7.213-5.412
					c0-2.991,3.23-5.41,7.213-5.41C1194.508,139.396,1197.74,141.815,1197.74,144.807z"/>
				<ellipse fill="#615248" cx="1254.328" cy="108.313" rx="7.213" ry="5.412"/>
				<ellipse fill="#615248" cx="1323.036" cy="78.646" rx="7.214" ry="5.411"/>
				<path fill="#615248" d="M1375.511,83.357c0,2.987-3.231,5.41-7.215,5.41c-3.981,0-7.214-2.423-7.214-5.41
					c0-2.99,3.232-5.411,7.214-5.411C1372.279,77.946,1375.511,80.367,1375.511,83.357z"/>
				<ellipse fill="#615248" cx="1417.57" cy="59.125" rx="7.212" ry="5.411"/>
				<ellipse fill="#615248" cx="1564.744" cy="70.578" rx="7.212" ry="5.41"/>
				<ellipse fill="#615248" cx="1535.296" cy="96.137" rx="7.213" ry="5.412"/>
				<path fill="#615248" d="M1620.194,107.588c0,2.986-3.229,5.409-7.211,5.409c-3.983,0-7.215-2.423-7.215-5.409
					c0-2.992,3.231-5.412,7.215-5.412C1616.966,102.176,1620.194,104.596,1620.194,107.588z"/>
				<ellipse fill="#615248" cx="1668.419" cy="102.902" rx="7.214" ry="5.411"/>
				<path fill="#615248" d="M1822.719,161.262c0,2.988-3.234,5.41-7.215,5.41c-3.983,0-7.213-2.422-7.213-5.41
					c0-2.991,3.229-5.412,7.213-5.412C1819.484,155.85,1822.719,158.271,1822.719,161.262z"/>
				<ellipse fill="#615248" cx="1757.373" cy="139.396" rx="7.212" ry="5.41"/>
				<ellipse fill="#615248" cx="1823.55" cy="146.757" rx="7.213" ry="5.411"/>
				<path fill="#615248" d="M1845.19,167.301c0,2.987-3.231,5.409-7.213,5.409c-3.982,0-7.214-2.422-7.214-5.409
					c0-2.991,3.231-5.412,7.214-5.412C1841.959,161.889,1845.19,164.31,1845.19,167.301z"/>
				<ellipse fill="#615248" cx="1651.634" cy="99.714" rx="7.213" ry="5.414"/>
				<ellipse fill="#615248" cx="1343.971" cy="91.84" rx="7.213" ry="5.412"/>
				<ellipse fill="#615248" cx="1308.61" cy="89.377" rx="7.212" ry="5.411"/>
				<path fill="#615248" d="M1542.51,80.482c0,2.987-3.23,5.409-7.213,5.409c-3.983,0-7.214-2.422-7.214-5.409
					c0-2.992,3.23-5.412,7.214-5.412C1539.279,75.07,1542.51,77.49,1542.51,80.482z"/>
				<ellipse fill="#615248" cx="1600.046" cy="80.759" rx="7.213" ry="5.411"/>
				<ellipse fill="#615248" cx="1701.883" cy="112.166" rx="7.213" ry="5.411"/>
				<ellipse fill="#615248" cx="1723.019" cy="117.302" rx="7.214" ry="5.411"/>
				<ellipse fill="#615248" cx="1852.404" cy="149.809" rx="7.213" ry="5.411"/>
				<ellipse fill="#615248" cx="1879.452" cy="146.757" rx="7.213" ry="5.411"/>
				<path fill="#615248" d="M1874.041,166.672c0,2.989-3.23,5.411-7.211,5.411c-3.985,0-7.213-2.422-7.213-5.411
					c0-2.992,3.228-5.41,7.213-5.41C1870.811,161.262,1874.041,163.68,1874.041,166.672z"/>
				<ellipse fill="#615248" cx="1910.739" cy="149.809" rx="7.213" ry="5.411"/>
				<path fill="#615248" d="M1946.786,141.348c0,2.987-3.231,5.409-7.213,5.409c-3.983,0-7.215-2.422-7.215-5.409
					c0-2.991,3.231-5.411,7.215-5.411C1943.555,135.937,1946.786,138.356,1946.786,141.348z"/>
				<path fill="#615248" d="M606.97,190.313c0,2.989-3.231,5.411-7.212,5.411c-3.985,0-7.215-2.422-7.215-5.411
					s3.23-5.409,7.215-5.409C603.739,184.904,606.97,187.324,606.97,190.313z"/>
				<ellipse fill="#615248" cx="493.013" cy="170.572" rx="7.212" ry="5.412"/>
				<path fill="#615248" d="M425.996,175.984c0,2.986-3.23,5.411-7.213,5.411c-3.984,0-7.213-2.425-7.213-5.411
					c0-2.992,3.229-5.412,7.213-5.412C422.766,170.572,425.996,172.992,425.996,175.984z"/>
				<ellipse fill="#615248" cx="467.86" cy="170.572" rx="7.214" ry="5.412"/>
				<path fill="#615248" d="M196.482,172.206c0,2.988-3.229,5.41-7.212,5.41s-7.214-2.422-7.214-5.41
					c0-2.993,3.231-5.411,7.214-5.411S196.482,169.213,196.482,172.206z"/>
				<path fill="#615248" d="M88.587,220.267c0,2.989-3.23,5.409-7.211,5.409c-3.982,0-7.212-2.42-7.212-5.409
					c0-2.991,3.23-5.409,7.212-5.409C85.357,214.857,88.587,217.275,88.587,220.267z"/>
				<path fill="#615248" d="M248.704,165.163c0,2.987-3.23,5.409-7.214,5.409c-3.98,0-7.211-2.422-7.211-5.409
					c0-2.992,3.231-5.412,7.211-5.412C245.474,159.751,248.704,162.171,248.704,165.163z"/>
				<ellipse fill="#615248" cx="278.912" cy="159.751" rx="7.213" ry="5.412"/>
				<path fill="#615248" d="M300.546,172.206c0,2.988-3.225,5.41-7.208,5.41c-3.984,0-7.213-2.422-7.213-5.41
					c0-2.993,3.229-5.411,7.213-5.411C297.321,166.795,300.546,169.213,300.546,172.206z"/>
				<path fill="#615248" d="M560.96,194.091c0,2.987-3.232,5.411-7.212,5.411c-3.984,0-7.215-2.424-7.215-5.411
					c0-2.989,3.231-5.411,7.215-5.411C557.728,188.68,560.96,191.102,560.96,194.091z"/>
				<ellipse fill="#615248" cx="297.316" cy="157.605" rx="7.213" ry="5.412"/>
				<ellipse fill="#615248" cx="315.72" cy="161.383" rx="7.214" ry="5.412"/>
				<ellipse fill="#615248" cx="335.755" cy="157.605" rx="7.211" ry="5.412"/>
				<path fill="#615248" d="M48.098,248.58c0,2.986-3.229,5.409-7.212,5.409c-3.981,0-7.212-2.423-7.212-5.409
					c0-2.991,3.23-5.412,7.212-5.412C44.869,243.168,48.098,245.589,48.098,248.58z"/>
				<ellipse fill="#615248" cx="21.254" cy="254.617" rx="7.213" ry="5.412"/>
				<path fill="#615248" d="M485.144,181.396c0,2.083-2.255,3.775-5.037,3.775c-2.782,0-5.034-1.692-5.034-3.775
					c0-2.09,2.252-3.779,5.034-3.779C482.889,177.616,485.144,179.306,485.144,181.396z"/>
				<ellipse fill="#615248" cx="308.51" cy="170.572" rx="5.035" ry="3.779"/>
				<path fill="#615248" d="M281.769,172.208c0,2.084-2.253,3.776-5.032,3.776c-2.783,0-5.037-1.692-5.037-3.776
					c0-2.091,2.254-3.779,5.037-3.779C279.515,168.429,281.769,170.117,281.769,172.208z"/>
				<path fill="#615248" d="M182.055,177.618c0,2.085-2.252,3.777-5.031,3.777c-2.783,0-5.038-1.692-5.038-3.777
					c0-2.09,2.255-3.778,5.038-3.778C179.803,173.84,182.055,175.528,182.055,177.618z"/>
				<path fill="#615248" d="M169.792,172.208c0,2.084-2.256,3.776-5.036,3.776c-2.783,0-5.034-1.692-5.034-3.776
					c0-2.091,2.251-3.779,5.034-3.779C167.536,168.429,169.792,170.117,169.792,172.208z"/>
				<path fill="#615248" d="M169.792,184.275c0,2.085-2.256,3.777-5.036,3.777c-2.783,0-5.034-1.692-5.034-3.777
					c0-2.09,2.251-3.78,5.034-3.78C167.536,180.495,169.792,182.186,169.792,184.275z"/>
				<path fill="#615248" d="M157.163,177.618c0,2.085-2.253,3.777-5.032,3.777c-2.784,0-5.037-1.692-5.037-3.777
					c0-2.09,2.253-3.778,5.037-3.778C154.91,173.84,157.163,175.528,157.163,177.618z"/>
				<path fill="#615248" d="M215.576,195.725c0,2.086-2.253,3.777-5.031,3.777c-2.787,0-5.039-1.691-5.039-3.777
					c0-2.09,2.252-3.779,5.039-3.779C213.323,191.945,215.576,193.635,215.576,195.725z"/>
				<path fill="#615248" d="M244.347,177.618c0,2.085-2.253,3.777-5.032,3.777c-2.784,0-5.037-1.692-5.037-3.777
					c0-2.09,2.253-3.778,5.037-3.778C242.094,173.84,244.347,175.528,244.347,177.618z"/>
				<path fill="#615248" d="M227.507,161.385c0,2.086-2.254,3.778-5.034,3.778c-2.78,0-5.035-1.692-5.035-3.778
					c0-2.09,2.255-3.779,5.035-3.779C225.253,157.605,227.507,159.295,227.507,161.385z"/>
				<path fill="#615248" d="M167.231,195.725c0,2.086-2.253,3.777-5.032,3.777c-2.782,0-5.037-1.691-5.037-3.777
					c0-2.09,2.255-3.779,5.037-3.779C164.978,191.945,167.231,193.635,167.231,195.725z"/>
				<path fill="#615248" d="M70.408,225.68c0,2.086-2.256,3.778-5.037,3.778c-2.779,0-5.034-1.692-5.034-3.778
					c0-2.09,2.255-3.779,5.034-3.779C68.152,221.9,70.408,223.59,70.408,225.68z"/>
				<path fill="#615248" d="M58.168,258.396c0,2.087-2.255,3.776-5.035,3.776c-2.783,0-5.036-1.689-5.036-3.776
					c0-2.089,2.253-3.779,5.036-3.779C55.914,254.617,58.168,256.308,58.168,258.396z"/>
				<ellipse fill="#615248" cx="33.675" cy="260.031" rx="5.034" ry="3.778"/>
				<path fill="#615248" d="M14.041,265.954c0,2.084-2.252,3.775-5.031,3.775c-2.783,0-5.038-1.691-5.038-3.775
					c0-2.09,2.255-3.781,5.038-3.781C11.789,262.173,14.041,263.864,14.041,265.954z"/>
				<ellipse fill="#615248" cx="88.586" cy="231.718" rx="5.035" ry="3.778"/>
				<path fill="#615248" d="M335.754,169.945c0,2.084-2.253,3.775-5.032,3.775c-2.783,0-5.038-1.691-5.038-3.775
					c0-2.09,2.255-3.777,5.038-3.777C333.5,166.168,335.754,167.855,335.754,169.945z"/>
				<path fill="#615248" d="M432.816,166.797c0,2.084-2.253,3.775-5.033,3.775c-2.785,0-5.037-1.691-5.037-3.775
					c0-2.09,2.252-3.779,5.037-3.779C430.563,163.018,432.816,164.707,432.816,166.797z"/>
				<ellipse fill="#615248" cx="465.147" cy="183.43" rx="2.322" ry="1.741"/>
				<path fill="#615248" d="M495.335,183.43c0,0.963-1.04,1.741-2.322,1.741c-1.286,0-2.323-0.778-2.323-1.741
					s1.037-1.742,2.323-1.742C494.295,181.688,495.335,182.467,495.335,183.43z"/>
				<ellipse fill="#615248" cx="507.58" cy="168.938" rx="2.323" ry="1.743"/>
				<ellipse fill="#615248" cx="507.58" cy="188.053" rx="2.323" ry="1.741"/>
				<ellipse fill="#615248" cx="320.612" cy="173.84" rx="2.322" ry="1.742"/>
				<path fill="#615248" d="M233.16,191.945c0,0.963-1.04,1.743-2.325,1.743c-1.281,0-2.319-0.78-2.319-1.743
					c0-0.961,1.038-1.741,2.319-1.741C232.12,190.204,233.16,190.984,233.16,191.945z"/>
				<path fill="#615248" d="M268.943,166.797c0,0.961-1.041,1.741-2.319,1.741c-1.285,0-2.326-0.78-2.326-1.741
					c0-0.963,1.041-1.744,2.326-1.744C267.903,165.053,268.943,165.834,268.943,166.797z"/>
				<path fill="#615248" d="M271.267,152.194c0,0.963-1.039,1.741-2.324,1.741c-1.283,0-2.319-0.778-2.319-1.741
					c0-0.964,1.037-1.741,2.319-1.741C270.229,150.453,271.267,151.23,271.267,152.194z"/>
				<ellipse fill="#615248" cx="230.838" cy="155.972" rx="2.322" ry="1.741"/>
				<path fill="#615248" d="M310.831,152.194c0,0.963-1.039,1.741-2.325,1.741c-1.282,0-2.319-0.778-2.319-1.741
					c0-0.964,1.037-1.741,2.319-1.741C309.792,150.453,310.831,151.23,310.831,152.194z"/>
				<path fill="#615248" d="M327.577,154.34c0,0.962-1.042,1.743-2.325,1.743c-1.282,0-2.319-0.781-2.319-1.743
					c0-0.963,1.037-1.741,2.319-1.741C326.536,152.599,327.577,153.377,327.577,154.34z"/>
				<ellipse fill="#615248" cx="345.289" cy="153.936" rx="2.323" ry="1.744"/>
				<path fill="#615248" d="M357.1,153.936c0,0.963-1.04,1.744-2.324,1.744c-1.28,0-2.319-0.781-2.319-1.744
					c0-0.961,1.039-1.741,2.319-1.741C356.06,152.194,357.1,152.975,357.1,153.936z"/>
				<path fill="#615248" d="M370.598,152.599c0,0.962-1.041,1.741-2.325,1.741c-1.284,0-2.32-0.779-2.32-1.741
					c0-0.965,1.037-1.743,2.32-1.743C369.557,150.855,370.598,151.634,370.598,152.599z"/>
				<path fill="#615248" d="M364.053,157.605c0,0.961-1.04,1.744-2.321,1.744c-1.287,0-2.323-0.783-2.323-1.744
					s1.036-1.741,2.323-1.741C363.013,155.864,364.053,156.645,364.053,157.605z"/>
				<path fill="#615248" d="M349.933,161.383c0,0.962-1.041,1.741-2.322,1.741c-1.286,0-2.322-0.779-2.322-1.741
					c0-0.963,1.037-1.743,2.322-1.743C348.892,159.64,349.933,160.42,349.933,161.383z"/>
				<ellipse fill="#615248" cx="342.967" cy="168.538" rx="2.322" ry="1.744"/>
				<path fill="#615248" d="M328.009,163.018c0,0.959-1.04,1.741-2.325,1.741c-1.283,0-2.318-0.782-2.318-1.741
					c0-0.963,1.036-1.744,2.318-1.744C326.969,161.273,328.009,162.055,328.009,163.018z"/>
				<path fill="#615248" d="M306.85,164.759c0,0.961-1.041,1.743-2.321,1.743c-1.285,0-2.324-0.782-2.324-1.743
					s1.039-1.741,2.324-1.741C305.809,163.018,306.85,163.798,306.85,164.759z"/>
				<path fill="#615248" d="M290.769,163.419c0,0.962-1.04,1.744-2.325,1.744c-1.282,0-2.319-0.782-2.319-1.744
					c0-0.963,1.037-1.741,2.319-1.741C289.729,161.678,290.769,162.456,290.769,163.419z"/>
				<ellipse fill="#615248" cx="286.123" cy="152.194" rx="2.322" ry="1.741"/>
				<path fill="#615248" d="M418.783,166.168c0,0.96-1.04,1.739-2.323,1.739c-1.281,0-2.322-0.779-2.322-1.739
					c0-0.965,1.041-1.743,2.322-1.743C417.743,164.425,418.783,165.203,418.783,166.168z"/>
				<path fill="#615248" d="M202.637,208.918c0,0.961-1.041,1.74-2.324,1.74c-1.281,0-2.322-0.779-2.322-1.74
					c0-0.965,1.041-1.743,2.322-1.743C201.596,207.175,202.637,207.953,202.637,208.918z"/>
				<path fill="#615248" d="M172.111,216.599c0,0.961-1.041,1.741-2.319,1.741c-1.285,0-2.326-0.78-2.326-1.741
					c0-0.965,1.041-1.741,2.326-1.741C171.07,214.857,172.111,215.634,172.111,216.599z"/>
				<ellipse fill="#615248" cx="147.095" cy="220.267" rx="2.323" ry="1.741"/>
				<path fill="#615248" d="M137.272,223.751c0,0.962-1.04,1.741-2.318,1.741c-1.286,0-2.325-0.779-2.325-1.741
					c0-0.963,1.039-1.743,2.325-1.743C136.232,222.008,137.272,222.788,137.272,223.751z"/>
				<path fill="#615248" d="M141.917,216.599c0,0.961-1.041,1.741-2.321,1.741c-1.284,0-2.325-0.78-2.325-1.741
					c0-0.965,1.041-1.741,2.325-1.741C140.876,214.857,141.917,215.634,141.917,216.599z"/>
				<ellipse fill="#615248" cx="103.05" cy="243.26" rx="2.321" ry="1.741"/>
				<path fill="#615248" d="M93.232,246.742c0,0.963-1.041,1.744-2.326,1.744c-1.281,0-2.32-0.781-2.32-1.744
					c0-0.961,1.039-1.741,2.32-1.741C92.191,245.001,93.232,245.781,93.232,246.742z"/>
				<path fill="#615248" d="M97.876,239.59c0,0.961-1.04,1.743-2.326,1.743c-1.282,0-2.318-0.782-2.318-1.743
					c0-0.962,1.037-1.741,2.318-1.741C96.837,237.849,97.876,238.628,97.876,239.59z"/>
				<path fill="#615248" d="M543.118,181.781c0,0.959-1.039,1.742-2.322,1.742c-1.285,0-2.321-0.783-2.321-1.742
					c0-0.964,1.037-1.741,2.321-1.741C542.079,180.04,543.118,180.817,543.118,181.781z"/>
				<path fill="#615248" d="M530.976,185.266c0,0.96-1.041,1.742-2.321,1.742c-1.284,0-2.324-0.782-2.324-1.742
					c0-0.963,1.04-1.742,2.324-1.742C529.935,183.523,530.976,184.303,530.976,185.266z"/>
				<path fill="#615248" d="M535.62,178.113c0,0.959-1.04,1.741-2.322,1.741s-2.322-0.782-2.322-1.741
					c0-0.966,1.04-1.743,2.322-1.743S535.62,177.147,535.62,178.113z"/>
				<ellipse fill="#615248" cx="771.539" cy="220.358" rx="2.323" ry="1.741"/>
				<ellipse fill="#615248" cx="759.398" cy="223.843" rx="2.322" ry="1.741"/>
				<ellipse fill="#615248" cx="764.041" cy="216.688" rx="2.322" ry="1.743"/>
				<path fill="#615248" d="M951.701,229.652c0,0.962-1.041,1.744-2.319,1.744c-1.286,0-2.326-0.782-2.326-1.744
					c0-0.963,1.04-1.742,2.326-1.742C950.66,227.91,951.701,228.689,951.701,229.652z"/>
				<ellipse fill="#615248" cx="937.239" cy="233.138" rx="2.323" ry="1.741"/>
				<ellipse fill="#615248" cx="941.884" cy="225.984" rx="2.322" ry="1.742"/>
				<path fill="#615248" d="M1048.037,226.078c0,0.961-1.042,1.742-2.321,1.742c-1.284,0-2.323-0.781-2.323-1.742
					c0-0.963,1.039-1.744,2.323-1.744C1046.995,224.334,1048.037,225.115,1048.037,226.078z"/>
				<ellipse fill="#615248" cx="1033.573" cy="229.562" rx="2.322" ry="1.743"/>
				<path fill="#615248" d="M1040.539,222.407c0,0.962-1.042,1.745-2.322,1.745c-1.282,0-2.322-0.783-2.322-1.745
					c0-0.961,1.04-1.741,2.322-1.741C1039.497,220.666,1040.539,221.446,1040.539,222.407z"/>
				<path fill="#615248" d="M1090.657,201.739c0,0.962-1.038,1.743-2.32,1.743c-1.285,0-2.322-0.781-2.322-1.743
					s1.037-1.742,2.322-1.742C1089.619,199.997,1090.657,200.777,1090.657,201.739z"/>
				<ellipse fill="#615248" cx="1076.194" cy="205.225" rx="2.321" ry="1.743"/>
				<ellipse fill="#615248" cx="1080.838" cy="198.069" rx="2.322" ry="1.743"/>
				<path fill="#615248" d="M1216.142,144.898c0,0.961-1.04,1.741-2.321,1.741c-1.285,0-2.321-0.78-2.321-1.741
					c0-0.963,1.036-1.742,2.321-1.742C1215.102,143.156,1216.142,143.936,1216.142,144.898z"/>
				<ellipse fill="#615248" cx="1201.676" cy="148.384" rx="2.323" ry="1.741"/>
				<ellipse fill="#615248" cx="1206.321" cy="141.23" rx="2.322" ry="1.741"/>
				<ellipse fill="#615248" cx="1267.611" cy="121.812" rx="2.322" ry="1.743"/>
				<ellipse fill="#615248" cx="1255.468" cy="125.296" rx="2.322" ry="1.741"/>
				<path fill="#615248" d="M1262.436,118.144c0,0.961-1.041,1.743-2.322,1.743c-1.283,0-2.323-0.782-2.323-1.743
					c0-0.966,1.04-1.741,2.323-1.741C1261.395,116.402,1262.436,117.178,1262.436,118.144z"/>
				<ellipse fill="#615248" cx="1375.795" cy="96.23" rx="2.322" ry="1.742"/>
				<ellipse fill="#615248" cx="1363.653" cy="99.714" rx="2.322" ry="1.744"/>
				<path fill="#615248" d="M1370.617,92.563c0,0.96-1.038,1.741-2.321,1.741c-1.28,0-2.32-0.781-2.32-1.741
					c0-0.965,1.04-1.743,2.32-1.743C1369.579,90.819,1370.617,91.598,1370.617,92.563z"/>
				<ellipse fill="#615248" cx="1384.146" cy="85.799" rx="2.323" ry="1.743"/>
				<path fill="#615248" d="M1375.795,73.235c0,0.962-1.042,1.742-2.322,1.742c-1.282,0-2.324-0.78-2.324-1.742
					c0-0.963,1.042-1.741,2.324-1.741C1374.753,71.494,1375.795,72.272,1375.795,73.235z"/>
				<path fill="#615248" d="M1363.652,70.578c0,0.96-1.041,1.741-2.321,1.741c-1.283,0-2.322-0.781-2.322-1.741
					c0-0.965,1.039-1.743,2.322-1.743C1362.611,68.835,1363.652,69.613,1363.652,70.578z"/>
				<ellipse fill="#615248" cx="1334.435" cy="70.668" rx="2.323" ry="1.743"/>
				<ellipse fill="#615248" cx="1330.25" cy="90.097" rx="2.322" ry="1.743"/>
				<path fill="#615248" d="M1328.386,109.527c0,0.959-1.039,1.742-2.322,1.742c-1.282,0-2.323-0.783-2.323-1.742
					c0-0.963,1.041-1.741,2.323-1.741C1327.347,107.786,1328.386,108.564,1328.386,109.527z"/>
				<ellipse fill="#615248" cx="1321.876" cy="128.959" rx="2.322" ry="1.741"/>
				<ellipse fill="#615248" cx="1427.736" cy="70.668" rx="2.323" ry="1.743"/>
				<ellipse fill="#615248" cx="1415.593" cy="74.152" rx="2.322" ry="1.743"/>
				<ellipse fill="#615248" cx="1420.237" cy="66.998" rx="2.322" ry="1.743"/>
				<ellipse fill="#615248" cx="1567.2" cy="84.15" rx="2.322" ry="1.741"/>
				<ellipse fill="#615248" cx="1555.059" cy="87.635" rx="2.321" ry="1.742"/>
				<path fill="#615248" d="M1562.024,80.482c0,0.961-1.042,1.743-2.324,1.743c-1.28,0-2.32-0.782-2.32-1.743
					c0-0.966,1.04-1.742,2.32-1.742C1560.982,78.74,1562.024,79.517,1562.024,80.482z"/>
				<ellipse fill="#615248" cx="1624.047" cy="82.502" rx="2.322" ry="1.741"/>
				<ellipse fill="#615248" cx="1609.582" cy="89.377" rx="2.323" ry="1.743"/>
				<path fill="#615248" d="M1616.548,80.482c0,0.961-1.04,1.743-2.321,1.743c-1.283,0-2.322-0.782-2.322-1.743
					c0-0.966,1.039-1.742,2.322-1.742C1615.508,78.74,1616.548,79.517,1616.548,80.482z"/>
				<path fill="#615248" d="M1634.763,113.816c0,0.961-1.038,1.744-2.321,1.744c-1.286,0-2.324-0.783-2.324-1.744
					s1.038-1.741,2.324-1.741C1633.725,112.075,1634.763,112.855,1634.763,113.816z"/>
				<ellipse fill="#615248" cx="1620.298" cy="117.302" rx="2.322" ry="1.743"/>
				<ellipse fill="#615248" cx="1624.942" cy="110.148" rx="2.322" ry="1.742"/>
				<ellipse fill="#615248" cx="1641.295" cy="113.908" rx="2.323" ry="1.742"/>
				<ellipse fill="#615248" cx="1653.955" cy="115.65" rx="2.322" ry="1.743"/>
				<ellipse fill="#615248" cx="1658.599" cy="108.498" rx="2.322" ry="1.742"/>
				<path fill="#615248" d="M1694.67,107.679c0,0.964-1.04,1.744-2.324,1.744c-1.283,0-2.321-0.78-2.321-1.744
					c0-0.961,1.038-1.739,2.321-1.739C1693.63,105.939,1694.67,106.718,1694.67,107.679z"/>
				<ellipse fill="#615248" cx="1680.204" cy="111.164" rx="2.321" ry="1.743"/>
				<ellipse fill="#615248" cx="1684.849" cy="104.012" rx="2.323" ry="1.743"/>
				<path fill="#615248" d="M1788.045,136.121c0,0.96-1.04,1.741-2.321,1.741c-1.283,0-2.323-0.781-2.323-1.741
					c0-0.965,1.04-1.741,2.323-1.741C1787.005,134.38,1788.045,135.156,1788.045,136.121z"/>
				<path fill="#615248" d="M1775.902,139.606c0,0.959-1.039,1.741-2.32,1.741c-1.282,0-2.322-0.782-2.322-1.741
					c0-0.966,1.04-1.744,2.322-1.744C1774.863,137.862,1775.902,138.641,1775.902,139.606z"/>
				<ellipse fill="#615248" cx="1778.225" cy="132.451" rx="2.322" ry="1.743"/>
				<path fill="#615248" d="M1895.058,161.98c0,0.961-1.04,1.742-2.32,1.742c-1.286,0-2.323-0.781-2.323-1.742
					c0-0.965,1.037-1.744,2.323-1.744C1894.018,160.236,1895.058,161.016,1895.058,161.98z"/>
				<ellipse fill="#615248" cx="1880.594" cy="165.464" rx="2.323" ry="1.741"/>
				<ellipse fill="#615248" cx="1885.239" cy="158.31" rx="2.322" ry="1.745"/>
				<ellipse fill="#615248" cx="1858.475" cy="174.551" rx="2.322" ry="1.741"/>
				<ellipse fill="#615248" cx="1846.333" cy="178.035" rx="2.322" ry="1.742"/>
				<ellipse fill="#615248" cx="1850.977" cy="170.883" rx="2.322" ry="1.741"/>
				<path fill="#615248" d="M1788.939,174.643c0,0.961-1.04,1.741-2.32,1.741c-1.286,0-2.322-0.78-2.322-1.741
					c0-0.964,1.036-1.741,2.322-1.741C1787.899,172.901,1788.939,173.679,1788.939,174.643z"/>
				<ellipse fill="#615248" cx="1774.476" cy="178.127" rx="2.322" ry="1.741"/>
				<path fill="#615248" d="M1781.442,170.973c0,0.961-1.041,1.743-2.324,1.743c-1.28,0-2.32-0.782-2.32-1.743
					c0-0.964,1.04-1.739,2.32-1.739C1780.401,169.233,1781.442,170.009,1781.442,170.973z"/>
				<path fill="#615248" d="M1937.193,152.26c0,0.961-1.039,1.742-2.321,1.742c-1.286,0-2.322-0.781-2.322-1.742
					c0-0.963,1.036-1.743,2.322-1.743C1936.154,150.517,1937.193,151.297,1937.193,152.26z"/>
				<ellipse fill="#615248" cx="1922.729" cy="155.745" rx="2.322" ry="1.741"/>
				<path fill="#615248" d="M1929.695,148.592c0,0.961-1.039,1.742-2.322,1.742c-1.282,0-2.321-0.781-2.321-1.742
					c0-0.966,1.039-1.741,2.321-1.741C1928.656,146.851,1929.695,147.626,1929.695,148.592z"/>
				<ellipse fill="#615248" cx="1841.688" cy="156.66" rx="2.322" ry="1.741"/>
				<ellipse fill="#615248" cx="1829.546" cy="160.143" rx="2.322" ry="1.744"/>
				<ellipse fill="#615248" cx="1834.19" cy="152.99" rx="2.322" ry="1.741"/>
				<ellipse fill="#615248" cx="1748.506" cy="161.059" rx="2.322" ry="1.742"/>
				<ellipse fill="#615248" cx="1736.363" cy="164.544" rx="2.322" ry="1.741"/>
				<ellipse fill="#615248" cx="1741.008" cy="157.391" rx="2.322" ry="1.742"/>
				<path fill="#615248" d="M156.775,208.918c0,0.961-1.041,1.74-2.326,1.74c-1.281,0-2.319-0.779-2.319-1.74
					c0-0.965,1.038-1.743,2.319-1.743C155.734,207.175,156.775,207.953,156.775,208.918z"/>
				<path fill="#615248" d="M522.585,175.984c0,2.085-2.254,3.776-5.033,3.776s-5.035-1.691-5.035-3.776
					c0-2.091,2.256-3.778,5.035-3.778S522.585,173.894,522.585,175.984z"/>
				<path fill="#615248" d="M510.294,194.093c0,2.084-2.254,3.778-5.035,3.778c-2.782,0-5.034-1.694-5.034-3.778
					c0-2.09,2.252-3.779,5.034-3.779C508.041,190.313,510.294,192.003,510.294,194.093z"/>
				<path fill="#615248" d="M640.985,212.292c0,2.085-2.255,3.777-5.035,3.777c-2.779,0-5.034-1.692-5.034-3.777
					c0-2.09,2.255-3.78,5.034-3.78C638.73,208.512,640.985,210.202,640.985,212.292z"/>
				<path fill="#615248" d="M677.18,194.093c0,2.084-2.255,3.778-5.034,3.778s-5.035-1.694-5.035-3.778
					c0-2.09,2.256-3.779,5.035-3.779S677.18,192.003,677.18,194.093z"/>
				<path fill="#615248" d="M672.146,208.514c0,2.086-2.252,3.778-5.032,3.778c-2.785,0-5.037-1.692-5.037-3.778
					c0-2.089,2.252-3.777,5.037-3.777C669.894,204.736,672.146,206.425,672.146,208.514z"/>
				<path fill="#615248" d="M1013.081,218.737c0,2.085-2.254,3.776-5.032,3.776c-2.784,0-5.037-1.691-5.037-3.776
					c0-2.089,2.253-3.778,5.037-3.778C1010.827,214.959,1013.081,216.648,1013.081,218.737z"/>
				<path fill="#615248" d="M1090.657,190.317c0,2.084-2.253,3.775-5.032,3.775c-2.783,0-5.036-1.691-5.036-3.775
					c0-2.09,2.253-3.779,5.036-3.779C1088.404,186.538,1090.657,188.228,1090.657,190.317z"/>
				<path fill="#615248" d="M1071.641,197.871c0,2.085-2.252,3.777-5.031,3.777c-2.785,0-5.038-1.692-5.038-3.777
					c0-2.092,2.253-3.78,5.038-3.78C1069.389,194.091,1071.641,195.779,1071.641,197.871z"/>
				<path fill="#615248" d="M1410.355,70.578c0,6.323-6.832,11.449-15.26,11.449c-8.431,0-15.263-5.126-15.263-11.449
					c0-6.326,6.832-11.453,15.263-11.453C1403.523,59.125,1410.355,64.252,1410.355,70.578z"/>
				<ellipse fill="#615248" cx="1788.045" cy="155.85" rx="15.262" ry="11.451"/>
				<path fill="#615248" d="M1823.55,185.909c0,6.325-6.832,11.45-15.259,11.45c-8.432,0-15.264-5.125-15.264-11.45
					s6.832-11.452,15.264-11.452C1816.718,174.457,1823.55,179.584,1823.55,185.909z"/>
			</g>
		</g>
		<g clip-path="url(#SVGID_2_)">
			<g>
				<path fill="#FFFFFC" d="M-19.314,786.551h2035.389l11.043-754.528c0,0-69.475,60.005-109.962,63.685
					c-202.434,14.724-254.423-85.769-467.897-85.769c-213.476,0-331.119,169.305-526.195,165.629
					c-165.625-3.682-393.962-66.253-625.842-66.253c-231.883,0-253.965,121.463-327.579,110.419L-19.314,786.551z"/>
			</g>
			<g>
				<path fill="#67CADB" d="M-19.314,833.926h2035.389l11.043-754.528c0,0-69.475,60.006-109.962,63.686
					c-202.434,14.726-254.423-85.77-467.897-85.77c-213.476,0-331.119,169.308-526.195,165.63
					C757.437,219.263,529.1,156.69,297.221,156.69c-231.883,0-253.965,121.462-327.579,110.42L-19.314,833.926z"/>
			</g>
			<g>
				<path fill="#18C0D9" d="M-34.521,791.027H2000.87l11.042-596.264c0,0-69.476,60.006-109.962,63.686
					c-202.435,14.724-254.423-85.77-467.898-85.77c-213.474,0-369.275,210.265-564.351,206.587
					c-165.626-3.681-305.518-105.61-537.398-105.61c-231.879,0-304.25,119.862-377.864,108.82L-34.521,791.027z"/>
			</g>
			<g>
				<ellipse fill="#FFFFFC" cx="215.574" cy="185.77" rx="15.261" ry="11.45"/>
				<ellipse fill="#FFFFFC" cx="185.052" cy="203.877" rx="15.26" ry="11.449"/>
				<path fill="#FFFFFC" d="M85.669,251.32c0,6.325-6.835,11.449-15.259,11.449c-8.431,0-15.266-5.124-15.266-11.449
					c0-6.324,6.835-11.452,15.266-11.452C78.834,239.868,85.669,244.996,85.669,251.32z"/>
				<path fill="#FFFFFC" d="M784.343,220.443c0,2.988-3.227,5.412-7.21,5.412c-3.987,0-7.214-2.424-7.214-5.412
					c0-2.991,3.228-5.411,7.214-5.411C781.116,215.032,784.343,217.452,784.343,220.443z"/>
				<ellipse fill="#FFFFFC" cx="787.104" cy="232.301" rx="7.212" ry="5.41"/>
				<ellipse fill="#FFFFFC" cx="651.288" cy="203.877" rx="7.213" ry="5.411"/>
				<path fill="#FFFFFC" d="M772.68,243.754c0,2.986-3.228,5.411-7.21,5.411s-7.211-2.425-7.211-5.411
					c0-2.992,3.229-5.412,7.211-5.412S772.68,240.762,772.68,243.754z"/>
				<ellipse fill="#FFFFFC" cx="962.393" cy="232.301" rx="7.212" ry="5.41"/>
				<ellipse fill="#FFFFFC" cx="955.181" cy="245.909" rx="7.213" ry="5.411"/>
				<ellipse fill="#FFFFFC" cx="1031.251" cy="223.11" rx="7.213" ry="5.412"/>
				<path fill="#FFFFFC" d="M1027.507,238.342c0,2.987-3.229,5.412-7.214,5.412c-3.98,0-7.212-2.425-7.212-5.412
					c0-2.989,3.231-5.412,7.212-5.412C1024.277,232.93,1027.507,235.353,1027.507,238.342z"/>
				<ellipse fill="#FFFFFC" cx="986.554" cy="235.878" rx="7.213" ry="5.411"/>
				<ellipse fill="#FFFFFC" cx="927.703" cy="235.878" rx="7.213" ry="5.411"/>
				<ellipse fill="#FFFFFC" cx="907.104" cy="232.93" rx="7.212" ry="5.412"/>
				<path fill="#FFFFFC" d="M691.606,212.889c0,2.987-3.229,5.409-7.211,5.409c-3.983,0-7.215-2.422-7.215-5.409
					c0-2.991,3.231-5.411,7.215-5.411C688.377,207.478,691.606,209.897,691.606,212.889z"/>
				<ellipse fill="#FFFFFC" cx="630.916" cy="198.466" rx="7.213" ry="5.411"/>
				<path fill="#FFFFFC" d="M460.646,189.548c0,2.987-3.228,5.411-7.211,5.411c-3.984,0-7.213-2.424-7.213-5.411
					c0-2.992,3.229-5.413,7.213-5.413C457.418,184.135,460.646,186.556,460.646,189.548z"/>
				<path fill="#FFFFFC" d="M1216.146,138.286c0,2.988-3.232,5.409-7.216,5.409c-3.981,0-7.213-2.421-7.213-5.409
					c0-2.991,3.231-5.409,7.213-5.409C1212.914,132.877,1216.146,135.295,1216.146,138.286z"/>
				<path fill="#FFFFFC" d="M1197.74,152.959c0,2.988-3.232,5.411-7.213,5.411c-3.982,0-7.213-2.423-7.213-5.411
					c0-2.991,3.23-5.41,7.213-5.41C1194.508,147.549,1197.74,149.968,1197.74,152.959z"/>
				<ellipse fill="#FFFFFC" cx="1254.328" cy="116.466" rx="7.213" ry="5.411"/>
				<ellipse fill="#FFFFFC" cx="1323.036" cy="86.797" rx="7.214" ry="5.411"/>
				<path fill="#FFFFFC" d="M1375.511,91.51c0,2.987-3.231,5.41-7.215,5.41c-3.981,0-7.214-2.423-7.214-5.41
					c0-2.991,3.232-5.411,7.214-5.411C1372.279,86.099,1375.511,88.519,1375.511,91.51z"/>
				<ellipse fill="#FFFFFC" cx="1417.57" cy="67.277" rx="7.212" ry="5.411"/>
				<path fill="#FFFFFC" d="M1571.956,78.73c0,2.987-3.229,5.41-7.212,5.41c-3.983,0-7.213-2.423-7.213-5.41
					c0-2.991,3.229-5.411,7.213-5.411C1568.727,73.319,1571.956,75.739,1571.956,78.73z"/>
				<ellipse fill="#FFFFFC" cx="1535.296" cy="104.289" rx="7.213" ry="5.412"/>
				<path fill="#FFFFFC" d="M1620.194,115.739c0,2.987-3.229,5.409-7.211,5.409c-3.983,0-7.215-2.422-7.215-5.409
					c0-2.991,3.231-5.412,7.215-5.412C1616.966,110.327,1620.194,112.748,1620.194,115.739z"/>
				<ellipse fill="#FFFFFC" cx="1668.419" cy="111.054" rx="7.214" ry="5.412"/>
				<path fill="#FFFFFC" d="M1822.719,169.414c0,2.986-3.234,5.409-7.215,5.409c-3.983,0-7.213-2.423-7.213-5.409
					c0-2.991,3.229-5.412,7.213-5.412C1819.484,164.002,1822.719,166.423,1822.719,169.414z"/>
				<ellipse fill="#FFFFFC" cx="1757.373" cy="147.549" rx="7.212" ry="5.41"/>
				<ellipse fill="#FFFFFC" cx="1823.55" cy="154.909" rx="7.213" ry="5.411"/>
				<path fill="#FFFFFC" d="M1845.19,175.453c0,2.986-3.231,5.409-7.213,5.409c-3.982,0-7.214-2.423-7.214-5.409
					c0-2.992,3.231-5.412,7.214-5.412C1841.959,170.041,1845.19,172.461,1845.19,175.453z"/>
				<ellipse fill="#FFFFFC" cx="1651.634" cy="107.865" rx="7.213" ry="5.414"/>
				<ellipse fill="#FFFFFC" cx="1343.971" cy="99.992" rx="7.213" ry="5.412"/>
				<ellipse fill="#FFFFFC" cx="1308.61" cy="97.529" rx="7.212" ry="5.411"/>
				<path fill="#FFFFFC" d="M1542.51,88.634c0,2.988-3.23,5.409-7.213,5.409c-3.983,0-7.214-2.421-7.214-5.409
					c0-2.991,3.23-5.411,7.214-5.411C1539.279,83.223,1542.51,85.643,1542.51,88.634z"/>
				<ellipse fill="#FFFFFC" cx="1600.046" cy="88.911" rx="7.213" ry="5.411"/>
				<path fill="#FFFFFC" d="M1709.096,120.318c0,2.987-3.231,5.41-7.213,5.41c-3.983,0-7.213-2.423-7.213-5.41
					c0-2.991,3.229-5.411,7.213-5.411C1705.864,114.907,1709.096,117.327,1709.096,120.318z"/>
				<ellipse fill="#FFFFFC" cx="1723.019" cy="125.454" rx="7.214" ry="5.411"/>
				<ellipse fill="#FFFFFC" cx="1852.404" cy="157.96" rx="7.213" ry="5.412"/>
				<ellipse fill="#FFFFFC" cx="1879.452" cy="154.909" rx="7.213" ry="5.411"/>
				<ellipse fill="#FFFFFC" cx="1866.829" cy="174.823" rx="7.212" ry="5.412"/>
				<ellipse fill="#FFFFFC" cx="1910.739" cy="157.96" rx="7.213" ry="5.412"/>
				<path fill="#FFFFFC" d="M1946.786,149.5c0,2.987-3.231,5.409-7.213,5.409c-3.983,0-7.215-2.422-7.215-5.409
					c0-2.992,3.231-5.412,7.215-5.412C1943.555,144.088,1946.786,146.508,1946.786,149.5z"/>
				<path fill="#FFFFFC" d="M606.97,198.466c0,2.989-3.231,5.411-7.212,5.411c-3.985,0-7.215-2.422-7.215-5.411
					c0-2.99,3.23-5.409,7.215-5.409C603.739,193.057,606.97,195.476,606.97,198.466z"/>
				<ellipse fill="#FFFFFC" cx="493.013" cy="178.724" rx="7.212" ry="5.411"/>
				<ellipse fill="#FFFFFC" cx="418.783" cy="184.135" rx="7.213" ry="5.413"/>
				<ellipse fill="#FFFFFC" cx="467.86" cy="178.724" rx="7.214" ry="5.411"/>
				<path fill="#FFFFFC" d="M196.482,180.358c0,2.987-3.229,5.409-7.212,5.409s-7.214-2.422-7.214-5.409
					c0-2.993,3.231-5.412,7.214-5.412S196.482,177.365,196.482,180.358z"/>
				<path fill="#FFFFFC" d="M88.587,228.419c0,2.989-3.23,5.409-7.211,5.409c-3.982,0-7.212-2.42-7.212-5.409
					c0-2.992,3.23-5.409,7.212-5.409C85.357,223.01,88.587,225.427,88.587,228.419z"/>
				<path fill="#FFFFFC" d="M248.704,173.314c0,2.988-3.23,5.409-7.214,5.409c-3.98,0-7.211-2.421-7.211-5.409
					c0-2.991,3.231-5.411,7.211-5.411C245.474,167.903,248.704,170.323,248.704,173.314z"/>
				<ellipse fill="#FFFFFC" cx="278.912" cy="167.903" rx="7.213" ry="5.411"/>
				<path fill="#FFFFFC" d="M300.546,180.358c0,2.987-3.225,5.409-7.208,5.409c-3.984,0-7.213-2.422-7.213-5.409
					c0-2.993,3.229-5.412,7.213-5.412C297.321,174.946,300.546,177.365,300.546,180.358z"/>
				<path fill="#FFFFFC" d="M560.96,202.243c0,2.987-3.232,5.411-7.212,5.411c-3.984,0-7.215-2.424-7.215-5.411
					c0-2.989,3.231-5.411,7.215-5.411C557.728,196.832,560.96,199.254,560.96,202.243z"/>
				<path fill="#FFFFFC" d="M304.529,165.758c0,2.989-3.23,5.412-7.212,5.412c-3.983,0-7.213-2.423-7.213-5.412
					c0-2.992,3.23-5.412,7.213-5.412C301.299,160.346,304.529,162.766,304.529,165.758z"/>
				<ellipse fill="#FFFFFC" cx="315.72" cy="169.535" rx="7.214" ry="5.411"/>
				<path fill="#FFFFFC" d="M342.966,165.758c0,2.989-3.227,5.412-7.21,5.412c-3.985,0-7.212-2.423-7.212-5.412
					c0-2.992,3.227-5.412,7.212-5.412C339.739,160.346,342.966,162.766,342.966,165.758z"/>
				<path fill="#FFFFFC" d="M48.098,256.731c0,2.987-3.229,5.41-7.212,5.41c-3.981,0-7.212-2.423-7.212-5.41
					c0-2.991,3.23-5.411,7.212-5.411C44.869,251.32,48.098,253.74,48.098,256.731z"/>
				<ellipse fill="#FFFFFC" cx="21.254" cy="262.77" rx="7.213" ry="5.412"/>
				<path fill="#FFFFFC" d="M485.144,189.548c0,2.083-2.255,3.774-5.037,3.774c-2.782,0-5.034-1.691-5.034-3.774
					c0-2.091,2.252-3.78,5.034-3.78C482.889,185.768,485.144,187.457,485.144,189.548z"/>
				<ellipse fill="#FFFFFC" cx="308.51" cy="178.724" rx="5.035" ry="3.78"/>
				<path fill="#FFFFFC" d="M281.769,180.36c0,2.084-2.253,3.774-5.032,3.774c-2.783,0-5.037-1.69-5.037-3.774
					c0-2.091,2.254-3.779,5.037-3.779C279.515,176.581,281.769,178.27,281.769,180.36z"/>
				<path fill="#FFFFFC" d="M182.055,185.77c0,2.086-2.252,3.778-5.031,3.778c-2.783,0-5.038-1.692-5.038-3.778
					c0-2.089,2.255-3.777,5.038-3.777C179.803,181.992,182.055,183.681,182.055,185.77z"/>
				<path fill="#FFFFFC" d="M169.792,180.36c0,2.084-2.256,3.774-5.036,3.774c-2.783,0-5.034-1.69-5.034-3.774
					c0-2.091,2.251-3.779,5.034-3.779C167.536,176.581,169.792,178.27,169.792,180.36z"/>
				<path fill="#FFFFFC" d="M169.792,192.428c0,2.085-2.256,3.777-5.036,3.777c-2.783,0-5.034-1.692-5.034-3.777
					c0-2.09,2.251-3.78,5.034-3.78C167.536,188.647,169.792,190.338,169.792,192.428z"/>
				<path fill="#FFFFFC" d="M157.163,185.77c0,2.086-2.253,3.778-5.032,3.778c-2.784,0-5.037-1.692-5.037-3.778
					c0-2.089,2.253-3.777,5.037-3.777C154.91,181.992,157.163,183.681,157.163,185.77z"/>
				<path fill="#FFFFFC" d="M215.576,203.877c0,2.085-2.253,3.777-5.031,3.777c-2.787,0-5.039-1.692-5.039-3.777
					c0-2.09,2.252-3.779,5.039-3.779C213.323,200.098,215.576,201.787,215.576,203.877z"/>
				<path fill="#FFFFFC" d="M244.347,185.77c0,2.086-2.253,3.778-5.032,3.778c-2.784,0-5.037-1.692-5.037-3.778
					c0-2.089,2.253-3.777,5.037-3.777C242.094,181.992,244.347,183.681,244.347,185.77z"/>
				<path fill="#FFFFFC" d="M227.507,169.537c0,2.086-2.254,3.777-5.034,3.777c-2.78,0-5.035-1.691-5.035-3.777
					c0-2.09,2.255-3.779,5.035-3.779C225.253,165.758,227.507,167.447,227.507,169.537z"/>
				<path fill="#FFFFFC" d="M167.231,203.877c0,2.085-2.253,3.777-5.032,3.777c-2.782,0-5.037-1.692-5.037-3.777
					c0-2.09,2.255-3.779,5.037-3.779C164.978,200.098,167.231,201.787,167.231,203.877z"/>
				<path fill="#FFFFFC" d="M70.408,233.832c0,2.086-2.256,3.777-5.037,3.777c-2.779,0-5.034-1.691-5.034-3.777
					c0-2.09,2.255-3.779,5.034-3.779C68.152,230.053,70.408,231.742,70.408,233.832z"/>
				<path fill="#FFFFFC" d="M58.168,266.549c0,2.086-2.255,3.775-5.035,3.775c-2.783,0-5.036-1.689-5.036-3.775
					c0-2.089,2.253-3.779,5.036-3.779C55.914,262.77,58.168,264.46,58.168,266.549z"/>
				<path fill="#FFFFFC" d="M38.709,268.184c0,2.086-2.254,3.777-5.034,3.777c-2.781,0-5.034-1.691-5.034-3.777
					c0-2.09,2.253-3.779,5.034-3.779C36.455,264.404,38.709,266.094,38.709,268.184z"/>
				<path fill="#FFFFFC" d="M14.041,274.106c0,2.084-2.252,3.775-5.031,3.775c-2.783,0-5.038-1.691-5.038-3.775
					c0-2.09,2.255-3.782,5.038-3.782C11.789,270.324,14.041,272.017,14.041,274.106z"/>
				<ellipse fill="#FFFFFC" cx="88.586" cy="239.87" rx="5.035" ry="3.777"/>
				<path fill="#FFFFFC" d="M335.754,178.097c0,2.085-2.253,3.775-5.032,3.775c-2.783,0-5.038-1.69-5.038-3.775
					c0-2.09,2.255-3.776,5.038-3.776C333.5,174.32,335.754,176.007,335.754,178.097z"/>
				<path fill="#FFFFFC" d="M432.816,174.948c0,2.085-2.253,3.775-5.033,3.775c-2.785,0-5.037-1.69-5.037-3.775
					c0-2.09,2.252-3.778,5.037-3.778C430.563,171.17,432.816,172.858,432.816,174.948z"/>
				<path fill="#FFFFFC" d="M467.469,191.582c0,0.963-1.041,1.74-2.322,1.74c-1.285,0-2.322-0.777-2.322-1.74
					c0-0.965,1.037-1.743,2.322-1.743C466.429,189.839,467.469,190.617,467.469,191.582z"/>
				<path fill="#FFFFFC" d="M495.335,191.582c0,0.963-1.04,1.74-2.322,1.74c-1.286,0-2.323-0.777-2.323-1.74
					c0-0.965,1.037-1.743,2.323-1.743C494.295,189.839,495.335,190.617,495.335,191.582z"/>
				<ellipse fill="#FFFFFC" cx="507.58" cy="177.091" rx="2.323" ry="1.743"/>
				<ellipse fill="#FFFFFC" cx="507.58" cy="196.205" rx="2.323" ry="1.741"/>
				<ellipse fill="#FFFFFC" cx="320.612" cy="181.992" rx="2.322" ry="1.741"/>
				<ellipse fill="#FFFFFC" cx="230.838" cy="200.098" rx="2.322" ry="1.743"/>
				<path fill="#FFFFFC" d="M268.943,174.948c0,0.962-1.041,1.741-2.319,1.741c-1.285,0-2.326-0.779-2.326-1.741
					c0-0.963,1.041-1.743,2.326-1.743C267.903,173.205,268.943,173.985,268.943,174.948z"/>
				<path fill="#FFFFFC" d="M271.267,160.346c0,0.964-1.039,1.742-2.324,1.742c-1.283,0-2.319-0.778-2.319-1.742
					c0-0.963,1.037-1.741,2.319-1.741C270.229,158.604,271.267,159.383,271.267,160.346z"/>
				<ellipse fill="#FFFFFC" cx="230.838" cy="164.124" rx="2.322" ry="1.741"/>
				<path fill="#FFFFFC" d="M310.831,160.346c0,0.964-1.039,1.742-2.325,1.742c-1.282,0-2.319-0.778-2.319-1.742
					c0-0.963,1.037-1.741,2.319-1.741C309.792,158.604,310.831,159.383,310.831,160.346z"/>
				<path fill="#FFFFFC" d="M327.577,162.492c0,0.961-1.042,1.743-2.325,1.743c-1.282,0-2.319-0.782-2.319-1.743
					c0-0.963,1.037-1.742,2.319-1.742C326.536,160.75,327.577,161.529,327.577,162.492z"/>
				<ellipse fill="#FFFFFC" cx="345.289" cy="162.088" rx="2.323" ry="1.743"/>
				<ellipse fill="#FFFFFC" cx="354.778" cy="162.088" rx="2.322" ry="1.743"/>
				<ellipse fill="#FFFFFC" cx="368.275" cy="160.75" rx="2.323" ry="1.742"/>
				<path fill="#FFFFFC" d="M364.053,165.758c0,0.961-1.04,1.744-2.321,1.744c-1.287,0-2.323-0.783-2.323-1.744
					c0-0.962,1.036-1.742,2.323-1.742C363.013,164.016,364.053,164.796,364.053,165.758z"/>
				<path fill="#FFFFFC" d="M349.933,169.535c0,0.961-1.041,1.741-2.322,1.741c-1.286,0-2.322-0.78-2.322-1.741
					c0-0.963,1.037-1.743,2.322-1.743C348.892,167.792,349.933,168.572,349.933,169.535z"/>
				<ellipse fill="#FFFFFC" cx="342.967" cy="176.689" rx="2.322" ry="1.744"/>
				<path fill="#FFFFFC" d="M328.009,171.17c0,0.959-1.04,1.741-2.325,1.741c-1.283,0-2.318-0.782-2.318-1.741
					c0-0.965,1.036-1.744,2.318-1.744C326.969,169.426,328.009,170.205,328.009,171.17z"/>
				<path fill="#FFFFFC" d="M306.85,172.911c0,0.961-1.041,1.743-2.321,1.743c-1.285,0-2.324-0.782-2.324-1.743
					s1.039-1.741,2.324-1.741C305.809,171.17,306.85,171.95,306.85,172.911z"/>
				<path fill="#FFFFFC" d="M290.769,171.571c0,0.961-1.04,1.743-2.325,1.743c-1.282,0-2.319-0.782-2.319-1.743
					c0-0.963,1.037-1.741,2.319-1.741C289.729,169.83,290.769,170.608,290.769,171.571z"/>
				<ellipse fill="#FFFFFC" cx="286.123" cy="160.346" rx="2.322" ry="1.742"/>
				<path fill="#FFFFFC" d="M418.783,174.32c0,0.959-1.04,1.739-2.323,1.739c-1.281,0-2.322-0.78-2.322-1.739
					c0-0.965,1.041-1.744,2.322-1.744C417.743,172.576,418.783,173.355,418.783,174.32z"/>
				<path fill="#FFFFFC" d="M202.637,217.07c0,0.961-1.041,1.738-2.324,1.738c-1.281,0-2.322-0.777-2.322-1.738
					c0-0.966,1.041-1.744,2.322-1.744C201.596,215.326,202.637,216.104,202.637,217.07z"/>
				<path fill="#FFFFFC" d="M172.111,224.751c0,0.961-1.041,1.741-2.319,1.741c-1.285,0-2.326-0.78-2.326-1.741
					c0-0.966,1.041-1.741,2.326-1.741C171.07,223.01,172.111,223.785,172.111,224.751z"/>
				<ellipse fill="#FFFFFC" cx="147.095" cy="228.419" rx="2.323" ry="1.741"/>
				<path fill="#FFFFFC" d="M137.272,231.903c0,0.961-1.04,1.741-2.318,1.741c-1.286,0-2.325-0.78-2.325-1.741
					c0-0.963,1.039-1.743,2.325-1.743C136.232,230.16,137.272,230.94,137.272,231.903z"/>
				<path fill="#FFFFFC" d="M141.917,224.751c0,0.961-1.041,1.741-2.321,1.741c-1.284,0-2.325-0.78-2.325-1.741
					c0-0.966,1.041-1.741,2.325-1.741C140.876,223.01,141.917,223.785,141.917,224.751z"/>
				<ellipse fill="#FFFFFC" cx="103.05" cy="251.411" rx="2.321" ry="1.741"/>
				<path fill="#FFFFFC" d="M93.232,254.895c0,0.963-1.041,1.744-2.326,1.744c-1.281,0-2.32-0.781-2.32-1.744
					c0-0.962,1.039-1.742,2.32-1.742C92.191,253.152,93.232,253.933,93.232,254.895z"/>
				<path fill="#FFFFFC" d="M97.876,247.741c0,0.962-1.04,1.744-2.326,1.744c-1.282,0-2.318-0.782-2.318-1.744
					c0-0.961,1.037-1.741,2.318-1.741C96.837,246,97.876,246.78,97.876,247.741z"/>
				<ellipse fill="#FFFFFC" cx="540.796" cy="189.933" rx="2.322" ry="1.741"/>
				<path fill="#FFFFFC" d="M530.976,193.418c0,0.959-1.041,1.742-2.321,1.742c-1.284,0-2.324-0.783-2.324-1.742
					c0-0.963,1.04-1.744,2.324-1.744C529.935,191.674,530.976,192.455,530.976,193.418z"/>
				<path fill="#FFFFFC" d="M535.62,186.266c0,0.959-1.04,1.741-2.322,1.741s-2.322-0.782-2.322-1.741
					c0-0.966,1.04-1.744,2.322-1.744S535.62,185.3,535.62,186.266z"/>
				<ellipse fill="#FFFFFC" cx="771.539" cy="228.51" rx="2.323" ry="1.742"/>
				<ellipse fill="#FFFFFC" cx="759.398" cy="231.995" rx="2.322" ry="1.741"/>
				<ellipse fill="#FFFFFC" cx="764.041" cy="224.84" rx="2.322" ry="1.744"/>
				<path fill="#FFFFFC" d="M951.701,237.805c0,0.962-1.041,1.743-2.319,1.743c-1.286,0-2.326-0.781-2.326-1.743
					c0-0.963,1.04-1.742,2.326-1.742C950.66,236.063,951.701,236.842,951.701,237.805z"/>
				<path fill="#FFFFFC" d="M939.562,241.289c0,0.962-1.041,1.742-2.326,1.742c-1.282,0-2.32-0.78-2.32-1.742
					c0-0.963,1.038-1.741,2.32-1.741C938.521,239.548,939.562,240.326,939.562,241.289z"/>
				<ellipse fill="#FFFFFC" cx="941.884" cy="234.137" rx="2.322" ry="1.741"/>
				<path fill="#FFFFFC" d="M1048.037,234.229c0,0.961-1.042,1.741-2.321,1.741c-1.284,0-2.323-0.78-2.323-1.741
					c0-0.963,1.039-1.743,2.323-1.743C1046.995,232.486,1048.037,233.267,1048.037,234.229z"/>
				<ellipse fill="#FFFFFC" cx="1033.573" cy="237.713" rx="2.322" ry="1.744"/>
				<ellipse fill="#FFFFFC" cx="1038.217" cy="230.56" rx="2.322" ry="1.743"/>
				<path fill="#FFFFFC" d="M1090.657,209.891c0,0.962-1.038,1.744-2.32,1.744c-1.285,0-2.322-0.782-2.322-1.744
					c0-0.961,1.037-1.741,2.322-1.741C1089.619,208.149,1090.657,208.93,1090.657,209.891z"/>
				<ellipse fill="#FFFFFC" cx="1076.194" cy="213.377" rx="2.321" ry="1.743"/>
				<ellipse fill="#FFFFFC" cx="1080.838" cy="206.221" rx="2.322" ry="1.744"/>
				<path fill="#FFFFFC" d="M1216.142,153.051c0,0.961-1.04,1.741-2.321,1.741c-1.285,0-2.321-0.78-2.321-1.741
					c0-0.965,1.036-1.742,2.321-1.742C1215.102,151.309,1216.142,152.086,1216.142,153.051z"/>
				<ellipse fill="#FFFFFC" cx="1201.676" cy="156.535" rx="2.323" ry="1.741"/>
				<ellipse fill="#FFFFFC" cx="1206.321" cy="149.382" rx="2.322" ry="1.741"/>
				<ellipse fill="#FFFFFC" cx="1267.611" cy="129.963" rx="2.322" ry="1.744"/>
				<ellipse fill="#FFFFFC" cx="1255.468" cy="133.448" rx="2.322" ry="1.741"/>
				<path fill="#FFFFFC" d="M1262.436,126.296c0,0.961-1.041,1.743-2.322,1.743c-1.283,0-2.323-0.782-2.323-1.743
					c0-0.966,1.04-1.742,2.323-1.742C1261.395,124.554,1262.436,125.33,1262.436,126.296z"/>
				<ellipse fill="#FFFFFC" cx="1375.795" cy="104.383" rx="2.322" ry="1.741"/>
				<ellipse fill="#FFFFFC" cx="1363.653" cy="107.865" rx="2.322" ry="1.744"/>
				<path fill="#FFFFFC" d="M1370.617,100.715c0,0.959-1.038,1.741-2.321,1.741c-1.28,0-2.32-0.782-2.32-1.741
					c0-0.965,1.04-1.743,2.32-1.743C1369.579,98.972,1370.617,99.75,1370.617,100.715z"/>
				<ellipse fill="#FFFFFC" cx="1384.146" cy="93.949" rx="2.323" ry="1.744"/>
				<path fill="#FFFFFC" d="M1375.795,81.388c0,0.961-1.042,1.741-2.322,1.741c-1.282,0-2.324-0.78-2.324-1.741
					c0-0.963,1.042-1.741,2.324-1.741C1374.753,79.646,1375.795,80.425,1375.795,81.388z"/>
				<path fill="#FFFFFC" d="M1363.652,78.73c0,0.959-1.041,1.741-2.321,1.741c-1.283,0-2.322-0.782-2.322-1.741
					c0-0.965,1.039-1.743,2.322-1.743C1362.611,76.987,1363.652,77.766,1363.652,78.73z"/>
				<ellipse fill="#FFFFFC" cx="1334.435" cy="78.82" rx="2.323" ry="1.743"/>
				<ellipse fill="#FFFFFC" cx="1330.25" cy="98.249" rx="2.322" ry="1.743"/>
				<path fill="#FFFFFC" d="M1328.386,117.68c0,0.959-1.039,1.742-2.322,1.742c-1.282,0-2.323-0.783-2.323-1.742
					c0-0.964,1.041-1.741,2.323-1.741C1327.347,115.938,1328.386,116.716,1328.386,117.68z"/>
				<path fill="#FFFFFC" d="M1324.198,137.111c0,0.959-1.04,1.741-2.322,1.741s-2.321-0.782-2.321-1.741
					c0-0.965,1.039-1.745,2.321-1.745S1324.198,136.146,1324.198,137.111z"/>
				<ellipse fill="#FFFFFC" cx="1427.736" cy="78.82" rx="2.323" ry="1.743"/>
				<ellipse fill="#FFFFFC" cx="1415.593" cy="82.305" rx="2.322" ry="1.742"/>
				<ellipse fill="#FFFFFC" cx="1420.237" cy="75.15" rx="2.322" ry="1.743"/>
				<ellipse fill="#FFFFFC" cx="1567.2" cy="92.302" rx="2.322" ry="1.741"/>
				<ellipse fill="#FFFFFC" cx="1555.059" cy="95.786" rx="2.321" ry="1.743"/>
				<ellipse fill="#FFFFFC" cx="1559.702" cy="88.634" rx="2.322" ry="1.744"/>
				<ellipse fill="#FFFFFC" cx="1624.047" cy="90.654" rx="2.322" ry="1.741"/>
				<ellipse fill="#FFFFFC" cx="1609.582" cy="97.529" rx="2.323" ry="1.743"/>
				<ellipse fill="#FFFFFC" cx="1614.226" cy="88.634" rx="2.322" ry="1.744"/>
				<path fill="#FFFFFC" d="M1634.763,121.969c0,0.961-1.038,1.744-2.321,1.744c-1.286,0-2.324-0.783-2.324-1.744
					c0-0.962,1.038-1.742,2.324-1.742C1633.725,120.227,1634.763,121.007,1634.763,121.969z"/>
				<ellipse fill="#FFFFFC" cx="1620.298" cy="125.454" rx="2.322" ry="1.743"/>
				<ellipse fill="#FFFFFC" cx="1624.942" cy="118.301" rx="2.322" ry="1.741"/>
				<ellipse fill="#FFFFFC" cx="1641.295" cy="122.06" rx="2.323" ry="1.741"/>
				<path fill="#FFFFFC" d="M1656.276,123.801c0,0.963-1.04,1.745-2.321,1.745c-1.282,0-2.322-0.782-2.322-1.745
					c0-0.961,1.04-1.741,2.322-1.741C1655.236,122.06,1656.276,122.84,1656.276,123.801z"/>
				<path fill="#FFFFFC" d="M1660.921,116.65c0,0.959-1.04,1.741-2.321,1.741c-1.282,0-2.323-0.782-2.323-1.741
					c0-0.965,1.041-1.743,2.323-1.743C1659.881,114.907,1660.921,115.686,1660.921,116.65z"/>
				<path fill="#FFFFFC" d="M1694.67,115.83c0,0.965-1.04,1.744-2.324,1.744c-1.283,0-2.321-0.779-2.321-1.744
					c0-0.961,1.038-1.739,2.321-1.739C1693.63,114.091,1694.67,114.869,1694.67,115.83z"/>
				<ellipse fill="#FFFFFC" cx="1680.204" cy="119.315" rx="2.321" ry="1.744"/>
				<ellipse fill="#FFFFFC" cx="1684.849" cy="112.162" rx="2.323" ry="1.744"/>
				<path fill="#FFFFFC" d="M1788.045,144.273c0,0.959-1.04,1.741-2.321,1.741c-1.283,0-2.323-0.782-2.323-1.741
					c0-0.965,1.04-1.741,2.323-1.741C1787.005,142.532,1788.045,143.309,1788.045,144.273z"/>
				<ellipse fill="#FFFFFC" cx="1773.581" cy="147.758" rx="2.321" ry="1.742"/>
				<ellipse fill="#FFFFFC" cx="1778.225" cy="140.604" rx="2.322" ry="1.743"/>
				<path fill="#FFFFFC" d="M1895.058,170.132c0,0.961-1.04,1.741-2.32,1.741c-1.286,0-2.323-0.78-2.323-1.741
					c0-0.965,1.037-1.743,2.323-1.743C1894.018,168.389,1895.058,169.167,1895.058,170.132z"/>
				<ellipse fill="#FFFFFC" cx="1880.594" cy="173.616" rx="2.323" ry="1.741"/>
				<ellipse fill="#FFFFFC" cx="1885.239" cy="166.462" rx="2.322" ry="1.743"/>
				<ellipse fill="#FFFFFC" cx="1858.475" cy="182.703" rx="2.322" ry="1.741"/>
				<ellipse fill="#FFFFFC" cx="1846.333" cy="186.188" rx="2.322" ry="1.741"/>
				<ellipse fill="#FFFFFC" cx="1850.977" cy="179.035" rx="2.322" ry="1.741"/>
				<path fill="#FFFFFC" d="M1788.939,182.795c0,0.961-1.04,1.741-2.32,1.741c-1.286,0-2.322-0.78-2.322-1.741
					c0-0.964,1.036-1.742,2.322-1.742C1787.899,181.053,1788.939,181.831,1788.939,182.795z"/>
				<ellipse fill="#FFFFFC" cx="1774.476" cy="186.279" rx="2.322" ry="1.741"/>
				<ellipse fill="#FFFFFC" cx="1779.12" cy="179.125" rx="2.322" ry="1.743"/>
				<path fill="#FFFFFC" d="M1937.193,160.412c0,0.961-1.039,1.742-2.321,1.742c-1.286,0-2.322-0.781-2.322-1.742
					c0-0.964,1.036-1.744,2.322-1.744C1936.154,158.668,1937.193,159.448,1937.193,160.412z"/>
				<ellipse fill="#FFFFFC" cx="1922.729" cy="163.897" rx="2.322" ry="1.741"/>
				<path fill="#FFFFFC" d="M1929.695,156.744c0,0.961-1.039,1.741-2.322,1.741c-1.282,0-2.321-0.78-2.321-1.741
					c0-0.966,1.039-1.741,2.321-1.741C1928.656,155.003,1929.695,155.778,1929.695,156.744z"/>
				<ellipse fill="#FFFFFC" cx="1841.688" cy="164.813" rx="2.322" ry="1.741"/>
				<ellipse fill="#FFFFFC" cx="1829.546" cy="168.295" rx="2.322" ry="1.744"/>
				<ellipse fill="#FFFFFC" cx="1834.19" cy="161.143" rx="2.322" ry="1.741"/>
				<ellipse fill="#FFFFFC" cx="1748.506" cy="169.211" rx="2.322" ry="1.741"/>
				<ellipse fill="#FFFFFC" cx="1736.363" cy="172.695" rx="2.322" ry="1.741"/>
				<ellipse fill="#FFFFFC" cx="1741.008" cy="165.543" rx="2.322" ry="1.741"/>
				<path fill="#FFFFFC" d="M156.775,217.07c0,0.961-1.041,1.738-2.326,1.738c-1.281,0-2.319-0.777-2.319-1.738
					c0-0.966,1.038-1.744,2.319-1.744C155.734,215.326,156.775,216.104,156.775,217.07z"/>
				<ellipse fill="#FFFFFC" cx="517.551" cy="184.135" rx="5.034" ry="3.778"/>
				<path fill="#FFFFFC" d="M510.294,202.245c0,2.084-2.254,3.776-5.035,3.776c-2.782,0-5.034-1.692-5.034-3.776
					c0-2.091,2.252-3.779,5.034-3.779C508.041,198.466,510.294,200.154,510.294,202.245z"/>
				<ellipse fill="#FFFFFC" cx="635.951" cy="220.443" rx="5.034" ry="3.778"/>
				<path fill="#FFFFFC" d="M677.18,202.245c0,2.084-2.255,3.776-5.034,3.776s-5.035-1.692-5.035-3.776
					c0-2.091,2.256-3.779,5.035-3.779S677.18,200.154,677.18,202.245z"/>
				<path fill="#FFFFFC" d="M672.146,216.666c0,2.086-2.252,3.777-5.032,3.777c-2.785,0-5.037-1.691-5.037-3.777
					c0-2.09,2.252-3.777,5.037-3.777C669.894,212.889,672.146,214.576,672.146,216.666z"/>
				<path fill="#FFFFFC" d="M1013.081,226.89c0,2.084-2.254,3.775-5.032,3.775c-2.784,0-5.037-1.691-5.037-3.775
					c0-2.09,2.253-3.779,5.037-3.779C1010.827,223.11,1013.081,224.8,1013.081,226.89z"/>
				<path fill="#FFFFFC" d="M1090.657,198.47c0,2.084-2.253,3.775-5.032,3.775c-2.783,0-5.036-1.691-5.036-3.775
					c0-2.09,2.253-3.78,5.036-3.78C1088.404,194.689,1090.657,196.38,1090.657,198.47z"/>
				<path fill="#FFFFFC" d="M1071.641,206.021c0,2.087-2.252,3.778-5.031,3.778c-2.785,0-5.038-1.691-5.038-3.778
					c0-2.092,2.253-3.778,5.038-3.778C1069.389,202.243,1071.641,203.93,1071.641,206.021z"/>
				<path fill="#FFFFFC" d="M1410.355,78.73c0,6.323-6.832,11.447-15.26,11.447c-8.431,0-15.263-5.124-15.263-11.447
					c0-6.326,6.832-11.453,15.263-11.453C1403.523,67.277,1410.355,72.404,1410.355,78.73z"/>
				<ellipse fill="#FFFFFC" cx="1788.045" cy="164.002" rx="15.262" ry="11.451"/>
				<path fill="#FFFFFC" d="M1823.55,194.061c0,6.325-6.832,11.45-15.259,11.45c-8.432,0-15.264-5.125-15.264-11.45
					s6.832-11.451,15.264-11.451C1816.718,182.609,1823.55,187.735,1823.55,194.061z"/>
			</g>
		</g>
	</g>
	<path fill="#E2E3E4" d="M456.36,222.723c-0.241-19.429-8.222-37.022-20.995-49.842c-13.034-13.082-31.051-21.194-50.933-21.194
		c-0.051,0-0.102,0-0.151,0c-19.422,0.041-37.066,7.824-49.995,20.418c-13.23,12.881-21.537,30.795-21.782,50.618
		c-0.004,0.302-0.011,0.603-0.011,0.902c0,19.881,8.107,37.903,21.19,50.939c12.988,12.935,30.875,20.959,50.598,20.999
		c0.05,0,0.101,0,0.151,0c20.181,0,38.445-8.355,51.521-21.787c12.628-12.967,20.42-30.666,20.42-50.151
		C456.374,223.325,456.365,223.024,456.36,222.723z M384.433,267.817c-0.051,0-0.102-0.004-0.151-0.004
		c-12.074-0.038-23.024-4.95-30.984-12.863c-8.059-8.009-13.054-19.092-13.054-31.325c0-0.3,0.006-0.603,0.008-0.902
		c0.247-12.173,5.439-23.15,13.646-31.004c7.907-7.571,18.609-12.244,30.384-12.282c0.05,0,0.101-0.002,0.151-0.002
		c12.232,0,23.315,4.998,31.324,13.059c7.749,7.791,12.618,18.45,12.857,30.229c0.003,0.3,0.009,0.603,0.009,0.902
		c0,11.835-4.675,22.598-12.278,30.535C408.293,262.571,396.964,267.817,384.433,267.817z"/>
	<g>
		<path fill="#FFFFFF" d="M465.302,225.704c-0.241-19.429-8.222-37.022-20.996-49.842l-19.608,19.611
			c7.749,7.792,12.618,18.452,12.857,30.23H465.302z"/>
		<path fill="#ED2224" d="M393.375,154.666c-0.051,0-0.102,0.002-0.151,0.002v27.75c0.05,0,0.101-0.002,0.151-0.002
			c12.232,0,23.315,4.997,31.323,13.058l19.608-19.611C431.274,162.778,413.255,154.666,393.375,154.666z"/>
		<path fill="#ED2224" d="M465.302,225.704h-27.747c0.003,0.3,0.009,0.601,0.009,0.901c0,11.836-4.675,22.597-12.277,30.536
			l19.609,19.616c12.628-12.967,20.419-30.666,20.419-50.152C465.315,226.305,465.306,226.006,465.302,225.704z"/>
		<path fill="#FFFFFF" d="M393.375,270.797c-0.051,0-0.102-0.002-0.151-0.002v27.748c0.05,0,0.101,0,0.151,0
			c20.181,0,38.444-8.354,51.521-21.785l-19.609-19.616C417.235,265.553,405.906,270.797,393.375,270.797z"/>
		<path fill="#EDEDED" d="M349.185,226.605c0-0.301,0.006-0.602,0.009-0.901h-27.747c-0.005,0.302-0.012,0.601-0.012,0.901
			c0,19.882,8.108,37.902,21.191,50.938l19.614-19.614C354.181,249.923,349.185,238.838,349.185,226.605z"/>
		<path fill="#ED2224" d="M342.626,277.544c12.987,12.937,30.875,20.958,50.598,20.999v-27.748
			c-12.074-0.038-23.024-4.95-30.984-12.865L342.626,277.544z"/>
		<path fill="#EDEDED" d="M393.224,182.418v-27.75c-19.423,0.039-37.066,7.824-49.996,20.418L362.84,194.7
			C370.747,187.127,381.448,182.456,393.224,182.418z"/>
		<path fill="#ED2224" d="M362.84,194.7l-19.612-19.614c-13.229,12.881-21.538,30.795-21.781,50.618h27.747
			C349.439,213.529,354.633,202.551,362.84,194.7z"/>
	</g>
</g>
</svg>
