<?xml version="1.0" encoding="utf-8"?>
<!-- Generator: Adobe Illustrator 16.0.0, SVG Export Plug-In . SVG Version: 6.00 Build 0)  -->
<!DOCTYPE svg PUBLIC "-//W3C//DTD SVG 1.1//EN" "http://www.w3.org/Graphics/SVG/1.1/DTD/svg11.dtd">
<svg version="1.1" id="Layer_1" xmlns="http://www.w3.org/2000/svg" xmlns:xlink="http://www.w3.org/1999/xlink" x="0px" y="0px"
	 width="83.815px" height="98px" viewBox="0 0 83.815 98" enable-background="new 0 0 83.815 98" xml:space="preserve">
<g>
</g>
<g>
	<g>
		<g>
			<g>
				<polygon fill-rule="evenodd" clip-rule="evenodd" fill="#1AAF91" points="31.229,54.106 45.124,59.164 35.247,86.3 
					29.723,79.864 21.353,81.243 				"/>
				<g>
					<polygon fill-rule="evenodd" clip-rule="evenodd" fill="#80E5D1" points="35.274,55.579 26.226,80.44 23.117,80.953 
						32.694,54.638 					"/>
					<polygon fill-rule="evenodd" clip-rule="evenodd" fill="#80E5D1" points="39.468,57.104 30.747,81.059 29.723,79.864 
						28.167,80.119 36.888,56.164 					"/>
					<polygon fill-rule="evenodd" clip-rule="evenodd" fill="#80E5D1" points="43.659,58.629 34.082,84.943 32.03,82.552 
						41.079,57.692 					"/>
				</g>
			</g>
			<g>
				<polygon fill-rule="evenodd" clip-rule="evenodd" fill="#1AAF91" points="55.932,54.106 42.037,59.164 51.915,86.3 
					57.438,79.864 65.808,81.243 				"/>
				<g>
					<polygon fill-rule="evenodd" clip-rule="evenodd" fill="#80E5D1" points="51.886,55.579 60.935,80.44 64.042,80.953 
						54.468,54.641 					"/>
					<polygon fill-rule="evenodd" clip-rule="evenodd" fill="#80E5D1" points="47.693,57.104 56.411,81.059 57.438,79.864 
						58.992,80.119 50.273,56.164 					"/>
					<polygon fill-rule="evenodd" clip-rule="evenodd" fill="#80E5D1" points="43.502,58.629 53.079,84.943 55.131,82.552 
						46.082,57.692 					"/>
				</g>
			</g>
		</g>
		<polygon fill-rule="evenodd" clip-rule="evenodd" fill="#FFB103" points="43.579,19.122 49.745,24.23 57.739,23.722 59.723,31.48 
			66.487,35.764 63.534,43.209 66.487,50.651 59.723,54.937 57.739,62.695 49.745,62.186 43.579,67.294 37.413,62.186 
			29.422,62.695 27.438,54.937 20.672,50.651 23.627,43.209 20.672,35.764 27.438,31.48 29.422,23.722 37.413,24.23 		"/>
		<path fill-rule="evenodd" clip-rule="evenodd" fill="#FFD96B" d="M43.579,61.229c9.926,0,18.021-8.096,18.021-18.02
			c0-9.925-8.096-18.019-18.021-18.019c-9.923,0-18.018,8.094-18.018,18.019C25.562,53.133,33.656,61.229,43.579,61.229z"/>
		<path fill-rule="evenodd" clip-rule="evenodd" fill="#FFEFC1" d="M43.579,25.191c5.056,0,9.621,2.08,12.895,5.432
			c0,9.951-8.068,18.019-18.02,18.019c-5.055,0-9.621-2.084-12.894-5.436C25.562,33.255,33.63,25.191,43.579,25.191z"/>
		<text transform="matrix(1 0 0 1 35.6499 53.9878)" fill="#E3583F" font-family="'PTSans-Bold'" font-size="28.9184">1</text>
		<path fill-rule="evenodd" clip-rule="evenodd" fill="#F4826E" d="M42.339,48.219v-9.317l0.435-1.969l-1.389,1.705l-2.573,1.765
			l-1.591-2.169l6.595-5.32h2.109v14.107C44.788,47.541,43.589,47.945,42.339,48.219z"/>
	</g>
</g>
</svg>
