<?xml version="1.0" encoding="utf-8"?>
<!-- Generator: Adobe Illustrator 16.0.0, SVG Export Plug-In . SVG Version: 6.00 Build 0)  -->
<!DOCTYPE svg PUBLIC "-//W3C//DTD SVG 1.1//EN" "http://www.w3.org/Graphics/SVG/1.1/DTD/svg11.dtd">
<svg version="1.1" id="Layer_1" xmlns="http://www.w3.org/2000/svg" xmlns:xlink="http://www.w3.org/1999/xlink" x="0px" y="0px"
	 width="131px" height="164.075px" viewBox="0 0 131 164.075" enable-background="new 0 0 131 164.075" xml:space="preserve">
<g>
</g>
<g>
	<g>
		<path fill="#FFB103" d="M107.647,31.571c-1.286,0-2.329-1.127-2.329-2.52c0-1.389,1.043-2.515,2.329-2.515h16.685
			c1.288,0,2.33,1.126,2.33,2.515c0,0.232-0.029,0.461-0.084,0.672c-0.617,3.442-9.415,48.162-50.733,48.883
			c-1.282,0.023-2.335-1.084-2.358-2.469c-0.02-1.385,1.004-2.525,2.285-2.547c32.947-0.574,43.221-32.08,45.646-42.02H107.647
			L107.647,31.571z M23.537,26.537c1.287,0,2.328,1.126,2.328,2.515c0,1.393-1.041,2.52-2.328,2.52H9.688
			c2.145,9.865,11.582,41.445,44.545,42.02c1.283,0.021,2.305,1.162,2.285,2.547s-1.076,2.492-2.355,2.469
			C12.787,77.883,5.119,33.101,4.592,29.662c-0.047-0.194-0.069-0.398-0.069-0.61c0-1.389,1.042-2.515,2.325-2.515H23.537z"/>
		<rect x="62.268" y="92.91" fill-rule="evenodd" clip-rule="evenodd" fill="#FFD96B" width="6.65" height="17.983"/>
		<rect x="62.268" y="84.975" fill-rule="evenodd" clip-rule="evenodd" fill="#FFB103" width="6.65" height="9.721"/>
		<rect x="62.268" y="102.217" fill-rule="evenodd" clip-rule="evenodd" fill="#FFB103" width="6.65" height="9.724"/>
		<path fill-rule="evenodd" clip-rule="evenodd" fill="#FFD96B" d="M65.592,134.637c9.165,0,16.64-6.791,16.64-15.119
			c0-8.329-7.475-15.12-16.64-15.12c-9.164,0-16.641,6.791-16.641,15.12C48.951,127.846,56.428,134.637,65.592,134.637z"/>
		<rect x="26.311" y="125.016" fill-rule="evenodd" clip-rule="evenodd" fill="#8E4A15" width="78.563" height="30.329"/>
		<rect x="40.951" y="130.633" fill-rule="evenodd" clip-rule="evenodd" fill="#FFB103" width="49.283" height="19.093"/>
		<rect x="45.554" y="119.072" fill-rule="evenodd" clip-rule="evenodd" fill="#FFD96B" width="40.075" height="5.944"/>
		<rect x="48.951" y="117.38" fill-rule="evenodd" clip-rule="evenodd" fill="#FFB103" width="33.28" height="1.691"/>
		<path fill-rule="evenodd" clip-rule="evenodd" fill="#FFEFC1" d="M78.94,115.868c-2.213-5.365-5.42-8.664-9.324-10.25
			c2.436,1.76,3.737,6.127,4.202,10.25H78.94z"/>
		<path fill-rule="evenodd" clip-rule="evenodd" fill="#FFD96B" d="M65.592,93.187c9.165,0,16.64-7.343,16.64-16.345
			c0-9.007-7.475-16.35-16.64-16.35c-9.164,0-16.641,7.343-16.641,16.35C48.951,85.844,56.428,93.187,65.592,93.187z"/>
		<path fill-rule="evenodd" clip-rule="evenodd" fill="#FFEFC1" d="M78.94,80.043c-2.213,5.366-5.42,8.665-9.324,10.248
			c2.436-1.757,3.737-6.127,4.202-10.248H78.94z"/>
		<path fill-rule="evenodd" clip-rule="evenodd" fill="#FFD96B" d="M65.592,76.276c17.924,0,32.621-13.574,34.027-30.828H31.564
			C32.97,62.702,47.669,76.276,65.592,76.276z"/>
		<path fill-rule="evenodd" clip-rule="evenodd" fill="#FFEFC1" d="M92.979,49.305c-4.542,11.008-11.12,17.778-19.131,21.03
			c4.997-3.612,7.665-12.575,8.624-21.03H92.979z"/>
		<rect x="31.564" y="14.353" fill-rule="evenodd" clip-rule="evenodd" fill="#FFB103" width="68.055" height="32.79"/>
		<path fill-rule="evenodd" clip-rule="evenodd" fill="#FFD96B" d="M27.217,12.655h76.748c2.67,0,4.857,2.185,4.857,4.857V40.59
			c0,2.674-2.188,4.857-4.857,4.857H27.217c-2.669,0-4.856-2.184-4.856-4.857V17.512C22.36,14.839,24.548,12.655,27.217,12.655z"/>
		<rect x="49.383" y="71.81" fill-rule="evenodd" clip-rule="evenodd" fill="#FFB103" width="32.416" height="1.695"/>
		<rect x="82.554" y="16.429" fill-rule="evenodd" clip-rule="evenodd" fill="#FFEFC1" width="11.16" height="25.241"/>
		<rect x="65.963" y="95.595" fill-rule="evenodd" clip-rule="evenodd" fill="#FFEFC1" width="2.178" height="5.385"/>
	</g>
</g>
</svg>
