<?xml version="1.0" encoding="utf-8"?>
<!-- Generator: Adobe Illustrator 16.0.0, SVG Export Plug-In . SVG Version: 6.00 Build 0)  -->
<!DOCTYPE svg PUBLIC "-//W3C//DTD SVG 1.1//EN" "http://www.w3.org/Graphics/SVG/1.1/DTD/svg11.dtd">
<svg version="1.1" id="Layer_1" xmlns="http://www.w3.org/2000/svg" xmlns:xlink="http://www.w3.org/1999/xlink" x="0px" y="0px"
	 width="101.725px" height="77.723px" viewBox="0 0 101.725 77.723" enable-background="new 0 0 101.725 77.723"
	 xml:space="preserve">
<g>
	<g>
		<g>
			<g>
				<path fill="#045382" d="M21.548,26.443v4.472h-3.273v5.48h3.273v16.27h6.74v-16.27h4.527c0,0,0.422-2.625,0.623-5.498h-5.12
					v-3.741c0-0.561,0.73-1.313,1.457-1.313h3.671V20.14h-4.987C21.385,20.14,21.548,25.625,21.548,26.443L21.548,26.443z
					 M21.548,26.443"/>
			</g>
		</g>
	</g>
	<g>
		<g>
			<g>
				<path fill="#34B2E4" d="M87.879,27.423c-1.406,0.624-2.944,1.061-4.538,1.246c1.631-0.975,2.873-2.528,3.481-4.378
					c-1.524,0.904-3.222,1.568-5.035,1.916c-1.439-1.527-3.496-2.495-5.77-2.495c-4.36,0-7.912,3.549-7.912,7.912
					c0,0.623,0.067,1.228,0.205,1.802c-6.582-0.33-12.41-3.47-16.318-8.264c-0.675,1.164-1.068,2.532-1.068,3.978
					c0,2.744,1.398,5.172,3.519,6.582c-1.298-0.037-2.507-0.401-3.578-0.986v0.092c0,3.838,2.736,7.038,6.344,7.769
					c-0.652,0.173-1.361,0.267-2.083,0.267c-0.501,0-0.998-0.049-1.495-0.137c1.016,3.14,3.93,5.42,7.396,5.498
					c-2.709,2.116-6.128,3.374-9.832,3.374c-0.63,0-1.253-0.03-1.876-0.101c3.503,2.243,7.652,3.548,12.131,3.548
					c14.549,0,22.495-12.045,22.495-22.502l-0.015-1.019C85.479,30.401,86.822,29.011,87.879,27.423L87.879,27.423z M87.879,27.423"
					/>
			</g>
		</g>
	</g>
</g>
</svg>
