<?xml version="1.0" encoding="utf-8"?>
<!-- Generator: Adobe Illustrator 16.0.0, SVG Export Plug-In . SVG Version: 6.00 Build 0)  -->
<!DOCTYPE svg PUBLIC "-//W3C//DTD SVG 1.1//EN" "http://www.w3.org/Graphics/SVG/1.1/DTD/svg11.dtd">
<svg version="1.1" id="Layer_1" xmlns="http://www.w3.org/2000/svg" xmlns:xlink="http://www.w3.org/1999/xlink" x="0px" y="0px"
	 width="399.963px" height="273.042px" viewBox="0 0 399.963 273.042" enable-background="new 0 0 399.963 273.042"
	 xml:space="preserve">
<g>
	<text transform="matrix(1 0 0 1 25.7549 157.8672)" fill="#FFFFFF" font-family="'CeraGR-Regular'" font-size="8.0623">1</text>
	<text transform="matrix(1 0 0 1 16.7446 154.751)" font-family="'CeraGR-Regular'" font-size="18.9831" letter-spacing="1">11</text>
	<g>
		<g>
			<g>
				<g>
					<g>
						<polygon fill="#D6D6D6" points="206.2,250.68 209.139,224.256 238.081,215.411 238.081,215.027 238.708,215.218 
							239.338,215.027 239.338,215.411 268.281,224.256 271.217,250.68 282.124,253.196 282.124,262.004 239.338,262.004 
							238.081,262.004 195.293,262.004 195.293,253.196 						"/>
						<polygon fill="#BFBFBF" points="207.223,241.494 269.686,236.911 268.943,230.217 208.405,230.217 						"/>
						<polygon fill="#BFBFBF" points="282.124,256.243 282.124,262.004 195.293,262.004 195.293,260.501 282.124,253.196 						"/>
						<path fill="#D6D6D6" d="M87.057,223.904c0,4.595,3.719,8.316,8.303,8.316h287.187c4.587,0,8.302-3.722,8.302-8.316V21.258
							c0-4.591-3.715-8.316-8.302-8.316H95.36c-4.584,0-8.303,3.726-8.303,8.316V223.904z"/>
					</g>
					<g>
						<g>
							<path fill="#6EC6D3" d="M386.76,190.516V19.976c0-2.544-1.746-4.615-3.893-4.615H95.217c-2.145,0-3.893,2.071-3.893,4.615
								v170.54H386.76z"/>
							<path fill="#3A3B42" d="M95.764,19.782h286.559c0.009,0.053,0.019,0.116,0.019,0.193v166.118H95.746V19.976
								C95.746,19.898,95.752,19.835,95.764,19.782 M95.217,10.938c-4.59,0-8.313,4.05-8.313,9.038v174.961h304.279V19.976
								c0-4.988-3.727-9.038-8.316-9.038H95.217L95.217,10.938z"/>
						</g>
					</g>
				</g>
			</g>
		</g>
		<g>
			<defs>
				<circle id="SVGID_3_" cx="238.455" cy="81.753" r="46.026"/>
			</defs>
			<clipPath id="SVGID_2_">
				<use xlink:href="#SVGID_3_"  overflow="visible"/>
			</clipPath>
			<g clip-path="url(#SVGID_2_)">
				<circle fill="#EFEFEF" cx="238.455" cy="81.753" r="46.026"/>
				<g>
					<g>
						<path fill="#634C40" d="M228.04,72.2l10.415,0.773l10.417-0.773c0,0-1.184,5.508-0.986,8.747
							c0.2,3.239-0.578,5.097-0.578,5.097h-8.853h-8.849c0,0-0.779-1.857-0.582-5.097C229.225,77.708,228.04,72.2,228.04,72.2z"/>
						<g>
							<path fill="#E9AE97" d="M238.581,79.924h5.341v7.926c0,0.897-2.392,1.621-5.341,1.621s-5.339-0.724-5.339-1.621v-7.926
								H238.581z"/>
							<polygon fill="#EDEDED" points="245.584,84.397 245.584,103.263 231.323,103.263 231.323,84.397 238.455,87.186 							"/>
							<polygon fill="#DFDFDF" points="238.455,87.186 245.584,84.397 247.917,86.021 244.92,91.594 							"/>
							<polygon fill="#DFDFDF" points="238.455,87.186 231.323,84.397 228.991,86.021 231.983,91.303 							"/>
							<ellipse fill="#F8C3AA" cx="219.375" cy="128.958" rx="2.783" ry="4.658"/>
							<path fill="#F8C3AA" d="M254.75,128.958c0,2.57,1.247,4.658,2.782,4.658c1.541,0,2.787-2.088,2.787-4.658
								c0-2.572-1.246-4.656-2.787-4.656C255.997,124.302,254.75,126.386,254.75,128.958z"/>
							<path fill="#E34856" d="M216.592,127.707c0,0,0.666-26.794,0.914-33.449c0.225-5.994,3.927-7.062,4.664-7.217v-0.022
								l6.82-0.997l9.464,6.819l9.462-6.819l6.822,0.997v0.022c0.738,0.155,4.439,1.223,4.664,7.217
								c0.25,6.655,0.916,33.449,0.916,33.449h-5.707l-0.828-22.475l-1.627,22.39l-13.702,0.085l-13.696-0.069l-1.627-22.44
								l-0.831,22.51H216.592z"/>
						</g>
						<path fill="#F8C3AA" d="M240.036,84.461c-0.514,0.118-1.041,0.184-1.581,0.184c-0.538,0-1.067-0.065-1.581-0.184
							c-2.356-0.719-6.67-7.169-6.672-7.146c-0.482-1.572-1.178-3.905-1.178-5.721c0-7.207,4.223-13.051,9.431-13.051
							c5.209,0,9.431,5.844,9.431,13.051c0,1.815-0.773,4.261-1.255,5.832C246.627,77.4,242.394,83.742,240.036,84.461z"/>
						<g>
							<path fill="#F8C3AA" d="M247.068,70.778c-0.245,1.291,0.017,2.445,0.587,2.585c0.571,0.142,1.233-0.79,1.483-2.077
								c0.245-1.287-0.015-2.446-0.585-2.583C247.979,68.562,247.318,69.492,247.068,70.778z"/>
							<path fill="#F8C3AA" d="M229.84,70.778c0.25,1.291-0.014,2.445-0.582,2.585c-0.573,0.142-1.237-0.79-1.485-2.077
								s0.015-2.446,0.586-2.583C228.928,68.562,229.593,69.492,229.84,70.778z"/>
						</g>
						<path fill="#634C40" d="M228.161,67.513c0.617-11.313,9.195-10.627,10.368-9.667c0.913-0.978,9.592-1.84,10.222,9.667
							c0,0,1.161,1.207,0.121,4.688c0,0,0.639-4.592-1.148-3.038c0,0-0.398,1.187-0.293,2.672c0,0-0.459-3.217-0.979-4.235
							c-0.519-1.021-3.898-3.059-6.137-3.059c-1.291,0-1.714,0-1.836,0c-0.01,0-0.018,0-0.024,0l0,0l0,0c-0.017,0-0.022,0-0.022,0
							c-0.125,0-0.543,0-1.838,0c-2.24,0-5.616,2.038-6.137,3.059c-0.52,1.019-0.979,4.235-0.979,4.235
							c0.109-1.485-0.29-2.672-0.29-2.672c-1.79-1.554-1.149,3.038-1.149,3.038C227.002,68.72,228.161,67.513,228.161,67.513z"/>
					</g>
					<path fill="#634C40" d="M229.559,66.988l0.482-0.825c-0.037-0.022-0.071-0.041-0.105-0.061l1.387-2.121
						c0,0,8.309-3.008,8.51-2.957c0.113,0.027,2.048,1.186,3.736,2.203h0.353c0,0-0.05,0.051-0.138,0.132
						c1.25,0.757,2.314,1.401,2.314,1.401s-3.89,1.95-8.555,2.684c-0.291,0.069-0.575,0.112-0.846,0.12c-0.006,0-0.01,0-0.016,0
						c-0.597,0.074-1.207,0.12-1.816,0.141c-1.943,0.253-3.153,0.737-3.153,0.737c0.317-0.296,1.216-0.548,2.05-0.729
						c-0.611-0.017-1.222-0.068-1.827-0.155c-0.63,0.637-1.07,1.428-1.025,2.386c0,0-0.217-1.282,0.54-2.463
						C230.805,67.364,230.172,67.204,229.559,66.988z"/>
				</g>
			</g>
		</g>
	</g>
	<g>
		<g>
			<path fill="#F9F9F9" d="M151.937,233.814H22.178c-4.348,0-7.904-3.555-7.904-7.901V148.19c0-4.346,3.557-7.9,7.904-7.9h129.759
				c4.345,0,7.902,3.555,7.902,7.9v77.723C159.839,230.26,156.282,233.814,151.937,233.814z"/>
			<path fill="#31333A" d="M155.832,235.546H18.28c-3.409,0-6.184-2.203-6.184-4.908v-87.171c0-2.704,2.774-4.908,6.184-4.908
				h137.552c3.411,0,6.185,2.204,6.185,4.908v87.171C162.016,233.343,159.243,235.546,155.832,235.546z M18.28,142.019
				c-1.008,0-1.826,0.65-1.826,1.448v87.171c0,0.797,0.818,1.45,1.826,1.45h137.552c1.009,0,1.828-0.653,1.828-1.45v-87.171
				c0-0.798-0.819-1.448-1.828-1.448H18.28z"/>
		</g>
		<g>
			<g>
				<line fill="#F9F9F9" x1="87.057" y1="233.814" x2="63.536" y2="261.028"/>
				<polygon fill="#31333A" points="65.33,262.004 61.737,260.051 85.258,232.839 88.852,234.794 				"/>
			</g>
			<g>
				<line fill="#F9F9F9" x1="87.057" y1="233.814" x2="110.579" y2="261.028"/>
				<polygon fill="#31333A" points="108.782,262.004 85.258,234.794 88.852,232.839 112.374,260.051 				"/>
			</g>
		</g>
		<g>
			<g>
				<rect x="23.975" y="150.386" fill="#D1D1D1" width="126.166" height="0.691"/>
			</g>
			<g>
				<rect x="23.975" y="160.764" fill="#D1D1D1" width="126.166" height="0.691"/>
			</g>
			<g>
				<rect x="23.975" y="171.142" fill="#D1D1D1" width="126.166" height="0.691"/>
			</g>
			<g>
				<rect x="23.975" y="181.519" fill="#D1D1D1" width="126.166" height="0.689"/>
			</g>
			<g>
				<rect x="23.975" y="191.896" fill="#D1D1D1" width="126.166" height="0.69"/>
			</g>
			<g>
				<rect x="23.975" y="202.272" fill="#D1D1D1" width="126.166" height="0.691"/>
			</g>
			<g>
				<rect x="23.975" y="212.65" fill="#D1D1D1" width="126.166" height="0.691"/>
			</g>
			<g>
				<rect x="23.975" y="223.026" fill="#D1D1D1" width="126.166" height="0.693"/>
			</g>
		</g>
	</g>
	<g>
		<rect x="193.611" y="140.29" fill="#045382" width="89.538" height="30.852"/>
		
			<text transform="matrix(1 0 0 1 204.2427 164.2754)" fill="#F2F1F1" font-family="'CeraGR-Bold'" font-size="22.7798" letter-spacing="2">VOTE</text>
	</g>
	<rect x="24.53" y="152.616" fill="#FF3369" width="9.19" height="6.724"/>
	<rect x="33.72" y="152.616" fill="#ECECEC" width="114.647" height="6.724"/>
	<rect x="24.53" y="163.058" fill="#FF3369" width="9.19" height="6.723"/>
	<rect x="33.72" y="163.058" fill="#ECECEC" width="111.483" height="6.723"/>
	<rect x="24.53" y="173.261" fill="#FF3369" width="9.19" height="6.723"/>
	<rect x="33.72" y="173.261" fill="#ECECEC" width="106.897" height="6.723"/>
	<rect x="24.53" y="183.691" fill="#FF3369" width="9.19" height="6.722"/>
	<rect x="33.72" y="183.691" fill="#ECECEC" width="97.563" height="6.722"/>
	<rect x="24.725" y="194.025" fill="#FF3369" width="9.191" height="6.723"/>
	<rect x="33.917" y="194.025" fill="#ECECEC" width="93.728" height="6.723"/>
	<rect x="24.725" y="204.466" fill="#FF3369" width="9.191" height="6.724"/>
	<rect x="33.917" y="204.466" fill="#ECECEC" width="88.824" height="6.724"/>
	<rect x="24.725" y="215.027" fill="#FF3369" width="9.191" height="6.724"/>
	<rect x="33.917" y="215.027" fill="#ECECEC" width="85.977" height="6.724"/>
</g>
</svg>
