<?xml version="1.0" encoding="utf-8"?>
<!-- Generator: Adobe Illustrator 16.0.0, SVG Export Plug-In . SVG Version: 6.00 Build 0)  -->
<!DOCTYPE svg PUBLIC "-//W3C//DTD SVG 1.1//EN" "http://www.w3.org/Graphics/SVG/1.1/DTD/svg11.dtd">
<svg version="1.1" id="Layer_1" xmlns="http://www.w3.org/2000/svg" xmlns:xlink="http://www.w3.org/1999/xlink" x="0px" y="0px"
	 width="526px" height="157.3px" viewBox="0 0 526 157.3" enable-background="new 0 0 526 157.3" xml:space="preserve">
<g>
	<g>
		
			<line fill-rule="evenodd" clip-rule="evenodd" fill="none" stroke="#A8C6E9" stroke-miterlimit="10" x1="367.389" y1="60.343" x2="446.225" y2="60.343"/>
		
			<line fill-rule="evenodd" clip-rule="evenodd" fill="none" stroke="#A8C6E9" stroke-miterlimit="10" x1="388.46" y1="66.349" x2="463.558" y2="66.349"/>
		
			<line fill-rule="evenodd" clip-rule="evenodd" fill="none" stroke="#A8C6E9" stroke-miterlimit="10" x1="396.401" y1="72.356" x2="492.869" y2="72.356"/>
		
			<line fill-rule="evenodd" clip-rule="evenodd" fill="none" stroke="#A8C6E9" stroke-miterlimit="10" x1="371.229" y1="54.333" x2="466.617" y2="54.333"/>
		
			<line fill-rule="evenodd" clip-rule="evenodd" fill="none" stroke="#A8C6E9" stroke-miterlimit="10" x1="351.93" y1="145.308" x2="391.557" y2="145.308"/>
		
			<line fill-rule="evenodd" clip-rule="evenodd" fill="none" stroke="#A8C6E9" stroke-miterlimit="10" x1="368.662" y1="138.778" x2="420.86" y2="139.211"/>
		
			<line fill-rule="evenodd" clip-rule="evenodd" fill="none" stroke="#A8C6E9" stroke-miterlimit="10" x1="85.39" y1="145.308" x2="125.017" y2="145.308"/>
		
			<line fill-rule="evenodd" clip-rule="evenodd" fill="none" stroke="#A8C6E9" stroke-miterlimit="10" x1="102.123" y1="138.778" x2="154.32" y2="139.211"/>
		
			<line fill-rule="evenodd" clip-rule="evenodd" fill="none" stroke="#A8C6E9" stroke-miterlimit="10" x1="373.967" y1="78.364" x2="470.438" y2="78.364"/>
		
			<line fill-rule="evenodd" clip-rule="evenodd" fill="none" stroke="#A8C6E9" stroke-miterlimit="10" x1="407.087" y1="84.371" x2="482.184" y2="84.371"/>
		
			<line fill-rule="evenodd" clip-rule="evenodd" fill="none" stroke="#A8C6E9" stroke-miterlimit="10" x1="413.988" y1="90.378" x2="510.461" y2="90.378"/>
		
			<line fill-rule="evenodd" clip-rule="evenodd" fill="none" stroke="#A8C6E9" stroke-miterlimit="10" x1="391.557" y1="96.385" x2="488.027" y2="96.385"/>
		
			<line fill-rule="evenodd" clip-rule="evenodd" fill="none" stroke="#A8C6E9" stroke-miterlimit="10" x1="357.813" y1="102.392" x2="454.282" y2="102.392"/>
		
			<line fill-rule="evenodd" clip-rule="evenodd" fill="none" stroke="#A8C6E9" stroke-miterlimit="10" x1="406.809" y1="108.401" x2="478.65" y2="108.401"/>
		
			<line fill-rule="evenodd" clip-rule="evenodd" fill="none" stroke="#A8C6E9" stroke-miterlimit="10" x1="350.837" y1="114.408" x2="446.225" y2="114.408"/>
		<g>
			<g>
				<g opacity="0.4">
					<path fill-rule="evenodd" clip-rule="evenodd" fill="#605147" d="M256.302,25.173c-0.986,1.157-2.209,4.534-2.633,6.266
						c-0.42,1.735-2.288,3.203-3.261,4.148c-0.975,0.949-1.496,1.82-0.702,2.511c0.792,0.691,0.825,1.148,0.189,1.676
						c-0.635,0.526-0.27,0.827,0.443,1.323c0.707,0.497,0.325,0.668-0.114,0.85c-0.434,0.18-0.515,0.609-0.148,1.219
						c0.365,0.609,0.376,0.971,0.044,2.014c-0.335,1.042-0.17,2.882,1.835,2.788c2.005-0.095,5.983-0.479,7.477-1.416
						c1.497-0.936,3.291-2.246,3.764-3.831c0.473-1.586,4.557-9.343,2.646-14.359C263.927,23.345,257.954,23.547,256.302,25.173z"/>
					<path fill-rule="evenodd" clip-rule="evenodd" fill="#605147" d="M262.476,43.97c1.605-1.032,6.637,0.903,8.775,0.244
						c2.141-0.654,8.587-3.15,8.035-10.565c-0.549-7.413-4.593-11.583-11.333-12.513c-6.742-0.928-10.206,1.228-12.105,4.848
						C253.946,29.604,259.312,39.833,262.476,43.97z"/>
					<path fill-rule="evenodd" clip-rule="evenodd" fill="#605147" d="M257.871,47.17c4.277-0.745,5.458,0.982,6.741,7.571
						c0.922,4.738,0.497,12.969-2.918,27.15c-0.106,0.438-0.202,0.86-0.292,1.279h23.288c0.314-15.342-18.591-29.517-11.19-38.914
						c3.729-4.736-5.231-7.271-11.04-4.873C256.648,41.782,254.531,47.748,257.871,47.17z"/>
					<path fill-rule="evenodd" clip-rule="evenodd" fill="#605147" d="M298.859,19.479c-2.15,3.995-4.679,8.37-18.746,0.613
						c-14.065-7.752-24.833-1.724-24.861,5.446c-0.342,7.658,11.406,10.357,24.931,8.925
						C290.791,33.337,301.434,29.229,298.859,19.479z"/>
					<path fill-rule="evenodd" clip-rule="evenodd" fill="#605147" d="M301.964,39.698c-0.792-2.706,0.185-6.398-11.313-2.786
						c-11.494,3.609-16.023-2.066-15.118-6.427c0.778-4.699,8.979-4.909,17.012-2.295C298.845,30.241,304.783,34.105,301.964,39.698
						z"/>
					<path fill-rule="evenodd" clip-rule="evenodd" fill="#605147" d="M307.178,38.589c-3.516,2.869-5.577,8.664-17.558-6.594
						c-11.979-15.263-23.165-11.846-25.931-5.229c-3.245,6.946,7.458,14.69,20.504,18.532
						C294.429,48.313,305.836,48.583,307.178,38.589z"/>
					<path fill-rule="evenodd" clip-rule="evenodd" fill="#605147" d="M257.161,23.07c9.823,6.701,9.159,12.844,12.415,27.29
						c3.256,14.443,18.204,22.217,28.883,10.128c-8.612,2.514-10.253-0.346-13.024-11.131
						C281.086,32.447,281.701,10.062,257.161,23.07z"/>
					<path fill-rule="evenodd" clip-rule="evenodd" fill="#605147" d="M267.683,31.634c1.45,0.474,1.879,3.147,0.958,5.971
						c-0.921,2.821-2.845,4.727-4.295,4.252c-1.454-0.47-1.885-3.144-0.963-5.969C264.305,33.066,266.228,31.16,267.683,31.634z"/>
					<path fill-rule="evenodd" clip-rule="evenodd" fill="#605147" d="M284.755,62.162c1.118,0.361,2.313,0.643,3.604,0.834
						c-1.288-0.065-2.486-0.208-3.604-0.419V62.162L284.755,62.162z M284.755,41.388v-1.065c4.249,3.385,10.648,5.81,16.981,3.708
						C295.203,47.525,288.89,45.306,284.755,41.388L284.755,41.388z M284.755,34.006v-0.77c2.414-0.159,5.074-0.562,8.015-1.261
						C289.818,32.97,287.159,33.632,284.755,34.006z M271.45,41.237c-0.845,4.464,1.584,17.118,13.305,20.925v0.415
						C270.656,59.909,269.671,46.113,271.45,41.237L271.45,41.237z M284.755,33.236v0.77c-11.938,1.863-17.59-3.347-21.39-9.823
						C267.78,29.457,273.69,33.956,284.755,33.236L284.755,33.236z M284.755,40.322c-1.501-1.197-2.737-2.513-3.599-3.789
						c0.832,1.714,2.064,3.403,3.599,4.854V40.322z"/>
				</g>
				<g>
					<defs>
						<rect id="SVGID_1_" x="241.055" y="11.621" width="63.353" height="49.303"/>
					</defs>
					<clipPath id="SVGID_2_">
						<use xlink:href="#SVGID_1_"  overflow="visible"/>
					</clipPath>
					<g clip-path="url(#SVGID_2_)">
						<path fill-rule="evenodd" clip-rule="evenodd" fill="#F9C698" d="M254.463,25.276c-0.989,1.157-2.209,4.534-2.634,6.268
							c-0.42,1.733-2.289,3.2-3.266,4.149c-0.973,0.949-1.494,1.818-0.699,2.508c0.797,0.689,0.826,1.153,0.192,1.68
							c-0.632,0.524-0.272,0.821,0.439,1.319c0.709,0.499,0.325,0.672-0.108,0.85c-0.437,0.18-0.517,0.609-0.15,1.22
							c0.367,0.608,0.377,0.968,0.043,2.014c-0.338,1.043-0.17,2.881,1.836,2.788c2.005-0.091,5.981-0.479,7.477-1.417
							c1.493-0.934,3.291-2.246,3.764-3.831c0.471-1.586,4.555-9.343,2.643-14.357C262.089,23.448,256.115,23.652,254.463,25.276z"
							/>
						<path fill-rule="evenodd" clip-rule="evenodd" fill="#F9C698" d="M260.638,44.078c1.602-1.034,6.634,0.9,8.776,0.242
							c2.135-0.656,8.581-3.154,8.034-10.568c-0.552-7.413-4.595-11.582-11.335-12.51c-6.74-0.93-10.207,1.228-12.106,4.847
							C252.106,29.707,257.471,39.938,260.638,44.078z"/>
						<path fill-rule="evenodd" clip-rule="evenodd" fill="#F9C698" d="M256.029,47.27c4.278-0.74,5.458,0.989,6.745,7.577
							c0.923,4.738,0.496,12.967-2.92,27.148c-0.104,0.439-0.199,0.86-0.292,1.281h23.286c0.316-15.346-18.592-29.514-11.187-38.913
							c3.729-4.736-5.229-7.274-11.042-4.875C254.806,41.886,252.689,47.852,256.029,47.27z"/>
						<path fill-rule="evenodd" clip-rule="evenodd" fill="#EAB36A" d="M297.019,19.583c-2.15,3.995-4.68,8.37-18.747,0.615
							c-14.065-7.754-24.831-1.726-24.858,5.444c-0.347,7.66,11.408,10.36,24.928,8.925
							C288.948,33.44,299.595,29.335,297.019,19.583z"/>
						
							<path fill-rule="evenodd" clip-rule="evenodd" fill="#EAB36A" stroke="#6E6E6E" stroke-width="0.216" stroke-miterlimit="22.9256" d="
							M300.125,39.803c-0.793-2.704,0.183-6.397-11.311-2.788c-11.495,3.613-16.026-2.064-15.123-6.425
							c0.779-4.698,8.981-4.905,17.015-2.296C297.005,30.341,302.943,34.21,300.125,39.803z"/>
						
							<ellipse transform="matrix(0.3104 -0.9506 0.9506 0.3104 147.1306 276.5306)" fill-rule="evenodd" clip-rule="evenodd" fill="#F9C698" cx="264.172" cy="36.851" rx="5.378" ry="2.766"/>
					</g>
				</g>
			</g>
			<g>
				<path fill="#58595B" d="M227.179,57.929c-0.353,0.757-1.252,1.083-2.013,0.73l-0.642-0.301
					c-0.755-0.355-1.082-1.258-0.729-2.014l4.104-8.771c0.354-0.757,1.254-1.087,2.015-0.731l0.641,0.301
					c0.757,0.353,1.085,1.259,0.729,2.014L227.179,57.929z"/>
				<path fill="#259AAB" d="M17.356,79.587c0,0,31.273-26.463,98.483-26.463l175.257,2.992l24.3-14.205
					c0,0,75.521-0.169,112.156,37.676c0,0,11.219,14.663-8.971,27.002c0,0-56.078,19.813-103.56,20.186l-2.991-5.607l-183.563,0.375
					l-1.871,5.232l-68.207-13.459C58.392,113.315-4.404,118.008,17.356,79.587z"/>
				<path fill="#3DAEB7" d="M427.552,79.587c-36.634-37.845-112.156-37.676-112.156-37.676l-24.3,14.205
					C291.096,56.116,366.667,55.406,427.552,79.587z"/>
				<path fill="#16807E" d="M17.356,79.08C10.425,91.315,12.081,100,17.544,106h403.836c16.288-13,6.171-26.92,6.171-26.92
					c-0.093-0.099-0.191-2.08-0.289-2.08H17.716C17.475,77,17.356,79.08,17.356,79.08z"/>
				<polygon fill="#58595B" points="215.363,54.842 242.868,24 239.13,24 207.076,54.708 				"/>
				<polygon fill="#A8C6E9" points="239.13,23.963 196.36,54.5 207.076,54.681 				"/>
				<path fill="#0F1114" d="M59.668,113.315l66.176,13.185l-0.796-21.289c0-11.656-15.34-20.211-28.992-20.211H71.152
					C59.495,85,54,92.571,54,104.23v9.266C56,113.521,59.668,113.315,59.668,113.315z"/>
				<path fill="#494949" d="M119.856,117.513c0,18.015-14.605,32.615-32.615,32.615c-18.011,0-32.616-14.601-32.616-32.615
					c0-18.013,14.604-32.616,32.616-32.616C105.25,84.896,119.856,99.5,119.856,117.513z"/>
				<circle fill="#FFFFFF" cx="87.241" cy="117.513" r="26.26"/>
				<circle fill="#494949" cx="87.241" cy="117.513" r="23.393"/>
				<path fill="#FFFFFF" d="M105.899,117.513c0,10.303-8.357,18.656-18.658,18.656c-10.306,0-18.656-8.354-18.656-18.656
					c0-10.304,8.35-18.654,18.656-18.654C97.542,98.858,105.899,107.209,105.899,117.513z"/>
				<g>
					<circle fill="#494949" cx="87.24" cy="117.513" r="2.019"/>
					<polygon fill="#494949" points="82.446,132 87.53,123.195 92.617,132 					"/>
					<polygon fill="#494949" points="100.324,125.983 92.915,119.014 102.652,116.084 					"/>
					<polygon fill="#494949" points="98.192,107.117 89.709,112.732 89.088,102.579 					"/>
					<polygon fill="#494949" points="79.336,104.869 82.857,114.408 72.834,112.688 					"/>
					<polygon fill="#494949" points="72.252,115.417 81.77,119.003 73.905,125.451 					"/>
				</g>
				<path fill="#0F1114" d="M335.847,85C324.188,85,318,92.571,318,104.23v22.53c24-0.364,52.382-6.209,72.587-11.517l-0.705-10.033
					c0-11.656-15.482-20.211-29.135-20.211H335.847z"/>
				<circle fill="#494949" cx="351.932" cy="117.513" r="32.615"/>
				<path fill="#FFFFFF" d="M378.194,117.513c0,14.505-11.759,26.26-26.264,26.26c-14.502,0-26.257-11.755-26.257-26.26
					c0-14.502,11.755-26.259,26.257-26.259C366.435,91.254,378.194,103.011,378.194,117.513z"/>
				<path fill="#494949" d="M375.325,117.513c0,12.922-10.474,23.396-23.395,23.396c-12.918,0-23.392-10.474-23.392-23.396
					c0-12.919,10.474-23.391,23.392-23.391C364.851,94.122,375.325,104.594,375.325,117.513z"/>
				<circle fill="#FFFFFF" cx="351.931" cy="117.513" r="18.656"/>
				<g>
					<path fill="#494949" d="M353.948,117.513c0,1.114-0.901,2.02-2.019,2.02c-1.114,0-2.017-0.905-2.017-2.02
						c0-1.113,0.903-2.019,2.017-2.019C353.047,115.494,353.948,116.399,353.948,117.513z"/>
					<polygon fill="#494949" points="347.135,132 352.219,123.195 357.308,132 					"/>
					<polygon fill="#494949" points="365.014,125.983 357.604,119.014 367.343,116.084 					"/>
					<polygon fill="#494949" points="362.882,107.117 354.401,112.732 353.78,102.579 					"/>
					<polygon fill="#494949" points="344.028,104.869 347.55,114.408 337.523,112.688 					"/>
					<polygon fill="#494949" points="336.943,115.417 346.464,119.003 338.595,125.451 					"/>
				</g>
				<path fill="#58595B" d="M291.096,56.116l0.867-0.508l-1.908-17.065c0,0-6.575-11.409-19.23,17.229L291.096,56.116z"/>
				<path fill="#E55353" d="M412,91h18.608c0.181-2-0.161-4-0.676-4H412V91z"/>
				<rect x="412" y="87" fill="#DD9300" width="8" height="4"/>
				<path fill="#FFFFFF" d="M27.456,74.788c1.521,2.992,8.742,2.38,16.134-1.376c6.982-3.544,11.607-8.615,10.822-11.69
					c-12.049,3.716-21.074,7.983-27.198,11.417C27.142,73.739,27.207,74.299,27.456,74.788z"/>
				<path fill="#E5E6E7" d="M34.287,72.126c0.999,1.965,5.746,1.564,10.604-0.904c4.589-2.328,7.626-5.662,7.112-7.683
					c-7.917,2.439-13.852,5.246-17.875,7.502C34.081,71.437,34.125,71.804,34.287,72.126z"/>
				<path opacity="0.7" fill="#FFFFFF" d="M58.34,65.033c0,0,25.609-8.917,57.573-8.729l35.145,0.933
					C151.058,57.236,95.943,57.31,58.34,65.033z"/>
				<rect x="40" y="87" fill="#065652" width="14" height="2"/>
				<polygon opacity="0.7" fill="#FFFFFF" points="257.494,58.801 293.563,59.739 314.125,48.109 293.732,62.942 				"/>
			</g>
			<g>
				<path fill-rule="evenodd" clip-rule="evenodd" fill="#EAB36A" d="M305.337,38.692c-3.512,2.869-5.579,8.666-17.557-6.594
					c-11.978-15.261-23.166-11.846-25.934-5.229c-3.242,6.946,7.461,14.692,20.508,18.534
					C292.585,48.414,303.992,48.687,305.337,38.692z"/>
				<path fill-rule="evenodd" clip-rule="evenodd" fill="#EAB36A" d="M255.321,23.174c9.825,6.702,9.16,12.846,12.417,27.289
					c3.256,14.444,18.202,22.219,28.882,10.129c-8.612,2.514-10.253-0.345-13.026-11.13
					C279.244,32.551,279.862,10.165,255.321,23.174z"/>
				<path fill-rule="evenodd" clip-rule="evenodd" fill="#FC5979" d="M282.916,62.264c1.117,0.363,2.315,0.647,3.604,0.834
					c-1.287-0.061-2.484-0.206-3.604-0.415V62.264L282.916,62.264z M282.916,41.493v-1.067c4.249,3.381,10.651,5.812,16.98,3.71
					C293.362,47.63,287.049,45.409,282.916,41.493L282.916,41.493z M282.916,34.111V33.34c2.415-0.155,5.07-0.562,8.013-1.262
					C287.978,33.073,285.32,33.737,282.916,34.111z M269.612,41.341c-0.844,4.467,1.584,17.117,13.304,20.923v0.419
					C268.817,60.013,267.83,46.217,269.612,41.341L269.612,41.341z M282.916,33.34v0.771c-11.938,1.861-17.592-3.349-21.388-9.825
					C265.94,29.561,271.852,34.06,282.916,33.34L282.916,33.34z M282.916,40.426c-1.503-1.197-2.735-2.511-3.601-3.789
					c0.834,1.717,2.068,3.403,3.601,4.856V40.426z"/>
			</g>
		</g>
	</g>
</g>
</svg>
