<?xml version="1.0" encoding="utf-8"?>
<!-- Generator: Adobe Illustrator 16.0.0, SVG Export Plug-In . SVG Version: 6.00 Build 0)  -->
<!DOCTYPE svg PUBLIC "-//W3C//DTD SVG 1.1//EN" "http://www.w3.org/Graphics/SVG/1.1/DTD/svg11.dtd">
<svg version="1.1" id="Layer_1" xmlns="http://www.w3.org/2000/svg" xmlns:xlink="http://www.w3.org/1999/xlink" x="0px" y="0px"
	 width="310.248px" height="124px" viewBox="0 0 310.248 124" enable-background="new 0 0 310.248 124" xml:space="preserve">
<g>
	<g>
		<g>
			<polygon fill="#5E1F13" points="102.692,101.138 65.043,18.743 67.071,17.731 104.719,100.415 			"/>
			<g>
				<g>
					
						<rect x="16.75" y="39.19" transform="matrix(0.9111 -0.4122 0.4122 0.9111 -15.9272 12.3459)" fill="#FFFFFF" width="7.819" height="7.818"/>
					<rect x="23.874" y="35.964" transform="matrix(0.911 -0.4124 0.4124 0.911 -13.9719 15.0078)" width="7.821" height="7.819"/>
					
						<rect x="30.999" y="32.743" transform="matrix(0.9112 -0.4121 0.4121 0.9112 -12.0012 17.6401)" fill="#FFFFFF" width="7.819" height="7.817"/>
					<rect x="38.123" y="29.52" transform="matrix(0.9111 -0.4123 0.4123 0.9111 -10.0432 20.3013)" width="7.819" height="7.818"/>
					
						<rect x="45.247" y="26.294" transform="matrix(0.911 -0.4124 0.4124 0.911 -8.0811 22.957)" fill="#FFFFFF" width="7.818" height="7.819"/>
					<rect x="52.37" y="23.072" transform="matrix(0.9112 -0.412 0.412 0.9112 -6.1175 25.5852)" width="7.822" height="7.819"/>
					
						<rect x="59.479" y="19.856" transform="matrix(0.9111 -0.4122 0.4122 0.9111 -4.1605 28.2426)" fill="#FFFFFF" width="7.82" height="7.819"/>
				</g>
				<rect x="19.973" y="46.311" transform="matrix(0.911 -0.4124 0.4124 0.911 -18.5866 14.32)" width="7.821" height="7.821"/>
				
					<rect x="27.098" y="43.09" transform="matrix(0.9112 -0.412 0.412 0.9112 -16.61 16.9498)" fill="#FFFFFF" width="7.82" height="7.819"/>
				<rect x="34.222" y="39.863" transform="matrix(0.911 -0.4124 0.4124 0.911 -14.6579 19.6194)" width="7.82" height="7.822"/>
				
					<rect x="41.347" y="36.643" transform="matrix(0.9111 -0.4122 0.4122 0.9111 -12.6931 22.2628)" fill="#FFFFFF" width="7.817" height="7.819"/>
				<rect x="48.47" y="33.418" transform="matrix(0.9111 -0.4122 0.4122 0.9111 -10.7299 24.9116)" width="7.823" height="7.82"/>
				
					<rect x="55.594" y="30.194" transform="matrix(0.911 -0.4124 0.4124 0.911 -8.7688 27.5707)" fill="#FFFFFF" width="7.818" height="7.821"/>
				<rect x="62.719" y="26.973" transform="matrix(0.9112 -0.412 0.412 0.9112 -6.8057 30.1908)" width="7.82" height="7.818"/>
				<g>
					
						<rect x="23.205" y="53.436" transform="matrix(0.9112 -0.412 0.412 0.9112 -21.2178 16.2648)" fill="#FFFFFF" width="7.82" height="7.817"/>
					<rect x="30.33" y="50.211" transform="matrix(0.9111 -0.4122 0.4122 0.9111 -19.2646 18.925)" width="7.818" height="7.82"/>
					
						<rect x="37.453" y="46.986" transform="matrix(0.911 -0.4123 0.4123 0.911 -17.3055 21.5826)" fill="#FFFFFF" width="7.821" height="7.821"/>
					<rect x="44.578" y="43.763" transform="matrix(0.9111 -0.4123 0.4123 0.9111 -15.3414 24.229)" width="7.819" height="7.82"/>
					
						<rect x="51.702" y="40.539" transform="matrix(0.9111 -0.4123 0.4123 0.9111 -13.3786 26.8795)" fill="#FFFFFF" width="7.819" height="7.82"/>
					<rect x="58.826" y="37.314" transform="matrix(0.911 -0.4124 0.4124 0.911 -11.4179 29.5417)" width="7.819" height="7.82"/>
					
						<rect x="65.934" y="34.102" transform="matrix(0.9111 -0.4122 0.4122 0.9111 -9.4583 32.169)" fill="#FFFFFF" width="7.818" height="7.817"/>
				</g>
				<rect x="26.429" y="60.555" transform="matrix(0.911 -0.4125 0.4125 0.911 -23.8916 18.2556)" width="7.819" height="7.823"/>
				
					<rect x="33.554" y="57.336" transform="matrix(0.9112 -0.412 0.412 0.9112 -21.9057 20.8747)" fill="#FFFFFF" width="7.82" height="7.818"/>
				<rect x="40.677" y="54.111" transform="matrix(0.911 -0.4124 0.4124 0.911 -19.9583 23.5487)" width="7.82" height="7.82"/>
				
					<rect x="47.802" y="50.887" transform="matrix(0.9111 -0.4123 0.4123 0.9111 -17.9916 26.1918)" fill="#FFFFFF" width="7.819" height="7.819"/>
				<rect x="54.926" y="47.664" transform="matrix(0.911 -0.4123 0.4123 0.911 -16.0303 28.8457)" width="7.819" height="7.819"/>
				
					<rect x="62.049" y="44.44" transform="matrix(0.9111 -0.4122 0.4122 0.9111 -14.0657 31.4882)" fill="#FFFFFF" width="7.82" height="7.819"/>
				<rect x="69.173" y="41.215" transform="matrix(0.911 -0.4124 0.4124 0.911 -12.1055 34.1561)" width="7.819" height="7.821"/>
				<g>
					
						<rect x="29.662" y="67.678" transform="matrix(0.9111 -0.4122 0.4122 0.9111 -26.5215 20.1998)" fill="#FFFFFF" width="7.819" height="7.82"/>
					<rect x="36.786" y="64.452" transform="matrix(0.911 -0.4125 0.4125 0.911 -24.5743 22.8718)" width="7.82" height="7.822"/>
					
						<rect x="43.91" y="61.231" transform="matrix(0.9111 -0.4122 0.4122 0.9111 -22.5996 25.5028)" fill="#FFFFFF" width="7.818" height="7.819"/>
					<rect x="51.033" y="58.005" transform="matrix(0.911 -0.4125 0.4125 0.911 -20.6463 28.1732)" width="7.818" height="7.821"/>
					
						<rect x="58.157" y="54.785" transform="matrix(0.9112 -0.4121 0.4121 0.9112 -18.6709 30.7904)" fill="#FFFFFF" width="7.821" height="7.817"/>
					<rect x="65.281" y="51.56" transform="matrix(0.911 -0.4123 0.4123 0.911 -16.7156 33.4632)" width="7.821" height="7.819"/>
					
						<rect x="72.388" y="48.345" transform="matrix(0.9111 -0.4121 0.4121 0.9111 -14.7544 36.0869)" fill="#FFFFFF" width="7.82" height="7.819"/>
				</g>
			</g>
		</g>
		<g>
			<polygon fill="#5E1F13" points="210.245,101.149 243.949,17.065 241.876,16.151 208.185,100.523 			"/>
			<g>
				<g>
					
						<rect x="285.529" y="35.382" transform="matrix(-0.9295 -0.3687 0.3687 -0.9295 543.9948 182.5368)" fill="#FFFFFF" width="7.818" height="7.819"/>
					
						<rect x="278.258" y="32.499" transform="matrix(-0.9296 -0.3687 0.3687 -0.9296 531.0365 174.2812)" width="7.819" height="7.819"/>
					
						<rect x="270.989" y="29.617" transform="matrix(-0.9296 -0.3685 0.3685 -0.9296 518.1016 165.9892)" fill="#FFFFFF" width="7.821" height="7.819"/>
					
						<rect x="263.722" y="26.733" transform="matrix(-0.9295 -0.3688 0.3688 -0.9295 505.0922 157.8354)" width="7.819" height="7.821"/>
					
						<rect x="256.454" y="23.853" transform="matrix(-0.9296 -0.3686 0.3686 -0.9296 492.1586 149.5411)" fill="#FFFFFF" width="7.818" height="7.818"/>
					
						<rect x="249.182" y="20.968" transform="matrix(-0.9296 -0.3685 0.3685 -0.9296 479.2014 141.2814)" width="7.822" height="7.82"/>
					
						<rect x="241.932" y="18.096" transform="matrix(-0.9297 -0.3684 0.3684 -0.9297 466.2842 133.0344)" fill="#FFFFFF" width="7.82" height="7.818"/>
				</g>
				
					<rect x="282.644" y="42.651" transform="matrix(-0.9296 -0.3686 0.3686 -0.9296 535.7642 195.4745)" width="7.82" height="7.819"/>
				
					<rect x="275.376" y="39.768" transform="matrix(-0.9296 -0.3685 0.3685 -0.9296 522.8182 187.2051)" fill="#FFFFFF" width="7.82" height="7.819"/>
				
					<rect x="268.108" y="36.884" transform="matrix(-0.9295 -0.3688 0.3688 -0.9295 509.8113 179.0402)" width="7.819" height="7.821"/>
				
					<rect x="260.839" y="34.004" transform="matrix(-0.9296 -0.3685 0.3685 -0.9296 496.8999 170.7079)" fill="#FFFFFF" width="7.819" height="7.818"/>
				
					<rect x="253.568" y="31.119" transform="matrix(-0.9295 -0.3687 0.3687 -0.9295 483.9031 162.5228)" width="7.822" height="7.821"/>
				
					<rect x="246.303" y="28.238" transform="matrix(-0.9296 -0.3685 0.3685 -0.9296 470.968 154.2372)" fill="#FFFFFF" width="7.818" height="7.82"/>
				
					<rect x="239.029" y="25.355" transform="matrix(-0.9296 -0.3685 0.3685 -0.9296 457.9935 146.0052)" width="7.822" height="7.82"/>
				<g>
					
						<rect x="279.755" y="49.918" transform="matrix(-0.9296 -0.3685 0.3685 -0.9296 527.5374 208.3861)" fill="#FFFFFF" width="7.819" height="7.819"/>
					
						<rect x="272.487" y="47.033" transform="matrix(-0.9295 -0.3688 0.3688 -0.9295 514.5266 200.2216)" width="7.818" height="7.822"/>
					
						<rect x="265.214" y="44.152" transform="matrix(-0.9296 -0.3685 0.3685 -0.9296 501.594 191.9255)" fill="#FFFFFF" width="7.822" height="7.82"/>
					
						<rect x="257.947" y="41.266" transform="matrix(-0.9295 -0.3689 0.3689 -0.9295 488.5811 183.7653)" width="7.82" height="7.822"/>
					
						<rect x="250.68" y="38.388" transform="matrix(-0.9296 -0.3685 0.3685 -0.9296 475.669 175.4432)" fill="#FFFFFF" width="7.817" height="7.818"/>
					
						<rect x="243.41" y="35.502" transform="matrix(-0.9295 -0.3688 0.3688 -0.9295 462.6738 167.254)" width="7.82" height="7.82"/>
					
						<rect x="236.16" y="32.628" transform="matrix(-0.9296 -0.3685 0.3685 -0.9296 449.7788 158.9709)" fill="#FFFFFF" width="7.818" height="7.819"/>
				</g>
				
					<rect x="276.873" y="57.184" transform="matrix(-0.9295 -0.3689 0.3689 -0.9295 519.2199 221.463)" width="7.817" height="7.82"/>
				
					<rect x="269.601" y="54.305" transform="matrix(-0.9297 -0.3683 0.3683 -0.9297 506.3522 213.0771)" fill="#FFFFFF" width="7.821" height="7.816"/>
				
					<rect x="262.333" y="51.42" transform="matrix(-0.9295 -0.3687 0.3687 -0.9295 493.3232 204.9361)" width="7.821" height="7.82"/>
				
					<rect x="255.067" y="48.539" transform="matrix(-0.9295 -0.3687 0.3687 -0.9295 480.3681 196.6838)" fill="#FFFFFF" width="7.816" height="7.818"/>
				
					<rect x="247.796" y="45.653" transform="matrix(-0.9295 -0.3687 0.3687 -0.9295 467.3988 188.4487)" width="7.821" height="7.82"/>
				
					<rect x="240.529" y="42.772" transform="matrix(-0.9295 -0.3688 0.3688 -0.9295 454.4325 180.2169)" fill="#FFFFFF" width="7.82" height="7.818"/>
				
					<rect x="233.259" y="39.889" transform="matrix(-0.9296 -0.3685 0.3685 -0.9296 441.5056 171.917)" width="7.82" height="7.818"/>
				<g>
					
						<rect x="273.978" y="64.452" transform="matrix(-0.9297 -0.3684 0.3684 -0.9297 511.0529 234.2825)" fill="#FFFFFF" width="7.82" height="7.818"/>
					
						<rect x="266.711" y="61.567" transform="matrix(-0.9295 -0.3689 0.3689 -0.9295 498.0018 226.167)" width="7.82" height="7.821"/>
					
						<rect x="259.442" y="58.688" transform="matrix(-0.9296 -0.3685 0.3685 -0.9296 485.1095 217.8227)" fill="#FFFFFF" width="7.819" height="7.817"/>
					
						<rect x="252.176" y="55.802" transform="matrix(-0.9294 -0.369 0.369 -0.9294 472.0599 209.7098)" width="7.817" height="7.82"/>
					
						<rect x="244.904" y="52.922" transform="matrix(-0.9296 -0.3686 0.3686 -0.9296 459.1635 201.3685)" fill="#FFFFFF" width="7.821" height="7.816"/>
					
						<rect x="237.637" y="50.038" transform="matrix(-0.9295 -0.3687 0.3687 -0.9295 446.1825 193.1552)" width="7.818" height="7.817"/>
					<polygon fill="#FFFFFF" points="229.216,53.266 236.488,56.146 239.372,48.879 232.102,45.998 					"/>
				</g>
			</g>
		</g>
		<g>
			<g>
				<path fill="#FBB040" d="M237.129,77.673l8.842-10.318C222.022,54.46,160.124,54.46,158.28,54.46
					c-1.842,0-57.111,0-87.693,12.895l8.844,10.318L69.114,93.516c0,0,41.268-12.525,89.166-12.525
					c47.897,0,89.166,12.525,89.166,12.525L237.129,77.673z"/>
			</g>
			<path fill="none" d="M83.897,80.901c0,0,63.984-20.681,149.355,0"/>
			<text transform="matrix(0.9753 -0.2211 0.2211 0.9753 90.4941 79.0615)"><tspan x="0" y="0" fill="#FFFFFF" font-family="'CeraGR-Bold'" font-size="12.339">T</tspan><tspan x="7.149" y="0.022" fill="#FFFFFF" font-family="'CeraGR-Bold'" font-size="12.339" rotate="1.395">I</tspan><tspan x="10.615" y="0.065" fill="#FFFFFF" font-family="'CeraGR-Bold'" font-size="12.339" rotate="2.942">M</tspan><tspan x="20.396" y="0.591" fill="#FFFFFF" font-family="'CeraGR-Bold'" font-size="12.339" rotate="4.735">E</tspan><tspan x="27.41" y="1.174" fill="#FFFFFF" font-family="'CeraGR-Bold'" font-size="12.339" rotate="6.132">S</tspan><tspan x="34.224" y="1.919" fill="#FFFFFF" font-family="'CeraGR-Bold'" font-size="12.339" rotate="7.129"> </tspan><tspan x="37.608" y="2.281" fill="#FFFFFF" font-family="'CeraGR-Bold'" font-size="12.339" rotate="8.655">W</tspan><tspan x="50.145" y="4.217" fill="#FFFFFF" font-family="'CeraGR-Bold'" font-size="12.339" rotate="10.701">O</tspan><tspan x="59.522" y="5.986" fill="#FFFFFF" font-family="'CeraGR-Bold'" font-size="12.339" rotate="12.448">M</tspan><tspan x="69.093" y="8.118" fill="#FFFFFF" font-family="'CeraGR-Bold'" font-size="12.339" rotate="13.954">E</tspan><tspan x="75.892" y="9.796" fill="#FFFFFF" font-family="'CeraGR-Bold'" font-size="12.339" rotate="15.351">N</tspan><tspan x="84.354" y="12.144" fill="#FFFFFF" font-family="'CeraGR-Bold'" font-size="12.339" rotate="16.455">’</tspan><tspan x="87.869" y="13.167" fill="#FFFFFF" font-family="'CeraGR-Bold'" font-size="12.339" rotate="17.381">S</tspan><tspan x="94.438" y="15.238" fill="#FFFFFF" font-family="'CeraGR-Bold'" font-size="12.339" rotate="18.292"> </tspan><tspan x="97.694" y="16.29" fill="#FFFFFF" font-family="'CeraGR-Bold'" font-size="12.339" rotate="19.338">D</tspan><tspan x="105.674" y="19.094" fill="#FFFFFF" font-family="'CeraGR-Bold'" font-size="12.339" rotate="20.769">R</tspan><tspan x="113.017" y="21.899" fill="#FFFFFF" font-family="'CeraGR-Bold'" font-size="12.339" rotate="21.764">I</tspan><tspan x="116.271" y="23.174" fill="#FFFFFF" font-family="'CeraGR-Bold'" font-size="12.339" rotate="22.78">V</tspan><tspan x="123.733" y="26.314" fill="#FFFFFF" font-family="'CeraGR-Bold'" font-size="12.339" rotate="24.101">E</tspan></text>
		</g>
	</g>
</g>
</svg>
