<?xml version="1.0" encoding="utf-8"?>
<!-- Generator: Adobe Illustrator 16.0.0, SVG Export Plug-In . SVG Version: 6.00 Build 0)  -->
<!DOCTYPE svg PUBLIC "-//W3C//DTD SVG 1.1//EN" "http://www.w3.org/Graphics/SVG/1.1/DTD/svg11.dtd">
<svg version="1.1" id="Layer_1" xmlns="http://www.w3.org/2000/svg" xmlns:xlink="http://www.w3.org/1999/xlink" x="0px" y="0px"
	 width="156.228px" height="149.3px" viewBox="0 0 156.228 149.3" enable-background="new 0 0 156.228 149.3" xml:space="preserve">
<g>
	<g>
		<rect x="15.38" y="10.262" fill="#949637" width="127.487" height="127.476"/>
		<g>
			
				<rect x="48.455" y="23.459" transform="matrix(0.9987 -0.0504 0.0504 0.9987 -3.4042 4.341)" fill="#CCD5BD" width="71.921" height="92.49"/>
			
				<rect x="45.997" y="26.655" transform="matrix(0.996 -0.0889 0.0889 0.996 -6.156 7.5743)" fill="#D5DCC4" width="71.921" height="92.489"/>
			<g>
				
					<rect x="42.761" y="28.479" transform="matrix(0.9861 -0.1659 0.1659 0.9861 -11.3043 14.093)" fill="#DFE5CB" width="71.919" height="92.489"/>
				
					<rect x="45.266" y="38.97" transform="matrix(0.9861 -0.1659 0.1659 0.9861 -6.0668 12.7723)" fill="#794629" width="56.291" height="7.454"/>
				<g>
					<g>
						<g>
							<circle fill="#EA563B" cx="59.234" cy="82.105" r="6.79"/>
							<path fill="#FFFFFF" d="M58.592,85.772c-0.341,0.055-0.704-0.026-0.995-0.264l-2.169-1.758
								c-0.536-0.434-0.617-1.219-0.183-1.755c0.433-0.536,1.219-0.618,1.753-0.184l1.226,0.993l2.883-3.381
								c0.444-0.524,1.234-0.588,1.759-0.141c0.524,0.446,0.586,1.233,0.142,1.758l-3.673,4.308
								C59.137,85.583,58.871,85.723,58.592,85.772z"/>
						</g>
						<g>
							<g>
								<g>
									
										<rect x="70.564" y="73.865" transform="matrix(0.9861 -0.1659 0.1659 0.9861 -11.1954 15.5759)" fill="#794629" width="34.183" height="1.9"/>
								</g>
								<g>
									
										<rect x="71.454" y="79.576" transform="matrix(0.9861 -0.1659 0.1659 0.9861 -12.2005 14.9775)" fill="#794629" width="24.212" height="1.898"/>
								</g>
							</g>
						</g>
					</g>
					<g>
						<g>
							<circle fill="#EA563B" cx="56.309" cy="64.708" r="6.79"/>
							<path fill="#FFFFFF" d="M55.666,68.375c-0.342,0.055-0.704-0.028-0.994-0.264L52.5,66.355
								c-0.533-0.434-0.616-1.221-0.183-1.756c0.434-0.536,1.219-0.618,1.755-0.184l1.226,0.992l2.881-3.38
								c0.447-0.524,1.234-0.588,1.76-0.141c0.523,0.446,0.587,1.234,0.139,1.759l-3.668,4.306
								C56.21,68.186,55.945,68.327,55.666,68.375z"/>
						</g>
						<g>
							<g>
								<g>
									
										<rect x="68.381" y="56.343" transform="matrix(0.9861 -0.1659 0.1659 0.9861 -8.3193 14.9711)" fill="#794629" width="34.183" height="1.9"/>
								</g>
								<g>
									
										<rect x="69.355" y="63.057" transform="matrix(0.9861 -0.166 0.166 0.9861 -9.5805 13.4087)" fill="#794629" width="12.105" height="1.898"/>
								</g>
							</g>
						</g>
					</g>
					<g>
						<g>
							<circle fill="#EA563B" cx="62.085" cy="99.048" r="6.79"/>
							<path fill="#FFFFFF" d="M61.442,102.713c-0.343,0.058-0.704-0.027-0.993-0.261l-2.169-1.76
								c-0.536-0.436-0.62-1.22-0.184-1.756c0.433-0.535,1.218-0.617,1.753-0.184l1.226,0.991l2.882-3.378
								c0.445-0.524,1.234-0.588,1.758-0.142c0.525,0.446,0.588,1.234,0.141,1.76l-3.672,4.308
								C61.986,102.525,61.722,102.667,61.442,102.713z"/>
						</g>
						<g>
							<g>
								<g>
									
										<rect x="73.001" y="90.879" transform="matrix(0.9862 -0.1658 0.1658 0.9862 -13.9796 16.2103)" fill="#794629" width="34.181" height="1.897"/>
								</g>
								<g>
									
										<rect x="73.933" y="97.08" transform="matrix(0.9862 -0.1658 0.1658 0.9862 -15.1053 15.1309)" fill="#794629" width="18.263" height="1.898"/>
								</g>
							</g>
						</g>
					</g>
				</g>
				<polygon fill="#794629" points="112.302,105.882 98.318,108.234 98.005,106.362 111.984,104.009 				"/>
			</g>
		</g>
	</g>
</g>
</svg>
