<?xml version="1.0" encoding="utf-8"?>
<!-- Generator: Adobe Illustrator 16.0.0, SVG Export Plug-In . SVG Version: 6.00 Build 0)  -->
<!DOCTYPE svg PUBLIC "-//W3C//DTD SVG 1.1//EN" "http://www.w3.org/Graphics/SVG/1.1/DTD/svg11.dtd">
<svg version="1.1" id="Layer_1" xmlns="http://www.w3.org/2000/svg" xmlns:xlink="http://www.w3.org/1999/xlink" x="0px" y="0px"
	 width="462.102px" height="256.075px" viewBox="0 0 462.102 256.075" enable-background="new 0 0 462.102 256.075"
	 xml:space="preserve">
<g>
	<g>
		<path fill="#2B3990" d="M131.245,115.209c0-54.034,43.804-97.836,97.835-97.836c54.038,0,97.838,43.802,97.838,97.836
			s-43.801,97.836-97.838,97.836C175.048,213.045,131.245,169.243,131.245,115.209"/>
	</g>
	<g>
		<g>
			<rect x="18.303" y="241.44" fill="#BCBEC0" width="423.694" height="4.001"/>
			<rect x="18.303" y="240.094" fill="#BCBEC0" width="423.694" height="1.347"/>
		</g>
		<rect x="186.568" y="74.4" fill="#F5F4E6" width="86.829" height="165.693"/>
		<rect x="186.542" y="232.882" fill="#E6DBAF" width="86.826" height="7.212"/>
		<rect x="186.568" y="80.174" fill="#E6DBAF" width="86.829" height="2.535"/>
		<rect x="186.568" y="229.853" opacity="0.8" fill="#FFFFFF" width="86.829" height="3.029"/>
		<g>
			<g>
				<rect x="218.657" y="219.664" fill="#428296" width="22.651" height="20.43"/>
				<rect x="220.53" y="221.604" fill="#BEE0EB" width="18.906" height="18.489"/>
				<rect x="229.219" y="220.356" fill="#428296" width="1.526" height="19.737"/>
			</g>
			<g opacity="0.4">
				<g>
					<polygon fill="#FFFFFF" points="229.219,222.355 220.53,233.638 220.53,232.897 229.219,221.613 					"/>
					<polygon fill="#FFFFFF" points="229.219,228.749 220.53,240.094 220.53,238.764 229.219,227.479 					"/>
					<polygon fill="#FFFFFF" points="229.219,226.477 220.53,237.759 220.53,235.258 229.219,223.974 					"/>
				</g>
				<g>
					<polygon fill="#FFFFFF" points="239.436,222.355 230.745,233.638 230.745,232.897 239.436,221.613 					"/>
					<polygon fill="#FFFFFF" points="239.436,228.749 230.745,240.094 230.745,238.764 239.436,227.479 					"/>
					<polygon fill="#FFFFFF" points="239.436,226.477 230.745,237.759 230.745,235.258 239.436,223.974 					"/>
				</g>
			</g>
			<g>
				<path fill="#428296" d="M227.985,235.379c0,0.207-0.168,0.376-0.376,0.376l0,0c-0.207,0-0.375-0.169-0.375-0.376v-3.289
					c0-0.205,0.168-0.377,0.375-0.377l0,0c0.208,0,0.376,0.172,0.376,0.377V235.379z"/>
				<path fill="#428296" d="M232.731,235.379c0,0.207-0.169,0.376-0.377,0.376l0,0c-0.207,0-0.375-0.169-0.375-0.376v-3.289
					c0-0.205,0.169-0.377,0.375-0.377l0,0c0.208,0,0.377,0.172,0.377,0.377V235.379z"/>
			</g>
		</g>
		<g>
			<g>
				<path fill="#DE4747" d="M247.656,221.804c-1.663-7.752-8.943-13.589-17.674-13.589c-8.73,0-16.011,5.837-17.673,13.589H247.656z
					"/>
				<path fill="#F55B5B" d="M244.517,221.804c-1.367-7.752-7.353-13.589-14.534-13.589c-7.18,0-13.167,5.837-14.534,13.589H244.517z
					"/>
				<path fill="#DE4747" d="M240.078,221.804c-0.949-7.752-5.107-13.589-10.095-13.589c-4.987,0-9.146,5.837-10.096,13.589H240.078z
					"/>
				<path fill="#F55B5B" d="M233.91,221.804c-0.369-7.752-1.987-13.589-3.928-13.589c-1.939,0-3.558,5.837-3.927,13.589H233.91z"/>
			</g>
			<g>
				<path fill="#B33939" d="M214.516,223.984c1.22,0,2.21-0.976,2.21-2.181h-4.419C212.307,223.009,213.296,223.984,214.516,223.984
					z"/>
				<path fill="#B33939" d="M218.936,223.984c1.22,0,2.209-0.976,2.209-2.181h-4.418
					C216.726,223.009,217.715,223.984,218.936,223.984z"/>
				<path fill="#B33939" d="M223.354,223.984c1.221,0,2.208-0.976,2.208-2.181h-4.418
					C221.145,223.009,222.133,223.984,223.354,223.984z"/>
				<path fill="#B33939" d="M227.773,223.984c1.22,0,2.209-0.976,2.209-2.181h-4.419
					C225.563,223.009,226.554,223.984,227.773,223.984z"/>
				<path fill="#B33939" d="M232.191,223.984c1.221,0,2.209-0.976,2.209-2.181h-4.418
					C229.982,223.009,230.972,223.984,232.191,223.984z"/>
				<path fill="#B33939" d="M236.611,223.984c1.22,0,2.208-0.976,2.208-2.181H234.4C234.4,223.009,235.391,223.984,236.611,223.984z
					"/>
				<path fill="#B33939" d="M241.03,223.984c1.219,0,2.208-0.976,2.208-2.181h-4.419C238.819,223.009,239.81,223.984,241.03,223.984
					z"/>
				<path fill="#B33939" d="M245.447,223.984c1.221,0,2.21-0.976,2.21-2.181h-4.419
					C243.238,223.009,244.228,223.984,245.447,223.984z"/>
			</g>
		</g>
		<g>
			<g>
				<rect x="186.568" y="204.889" opacity="0.6" fill="#E6DBAF" width="86.829" height="0.785"/>
				<rect x="186.568" y="205.674" opacity="0.8" fill="#FFFFFF" width="86.829" height="0.783"/>
			</g>
			<g>
				<rect x="186.568" y="180.483" opacity="0.6" fill="#E6DBAF" width="86.829" height="0.786"/>
				<rect x="186.568" y="181.27" opacity="0.8" fill="#FFFFFF" width="86.829" height="0.784"/>
			</g>
			<g>
				<rect x="186.568" y="156.076" opacity="0.6" fill="#E6DBAF" width="86.829" height="0.785"/>
				<rect x="186.568" y="156.861" opacity="0.8" fill="#FFFFFF" width="86.829" height="0.785"/>
			</g>
			<g>
				<rect x="186.568" y="131.674" opacity="0.6" fill="#E6DBAF" width="86.829" height="0.784"/>
				<rect x="186.568" y="132.458" opacity="0.8" fill="#FFFFFF" width="86.829" height="0.784"/>
			</g>
			<g>
				<rect x="186.568" y="107.271" opacity="0.6" fill="#E6DBAF" width="86.829" height="0.782"/>
				<rect x="186.568" y="108.053" opacity="0.8" fill="#FFFFFF" width="86.829" height="0.783"/>
			</g>
			<g>
				<g>
					<g>
						<rect x="191.94" y="185.672" fill="#428296" width="9.6" height="15.316"/>
						<rect x="192.76" y="186.408" fill="#BEE0EB" width="7.96" height="13.844"/>
						<g opacity="0.4">
							<polygon fill="#FFFFFF" points="200.72,190.309 192.76,198.53 192.76,196.789 200.72,188.57 							"/>
							<polygon fill="#FFFFFF" points="200.72,192.069 192.76,200.287 192.76,199.779 200.72,191.561 							"/>
							<polygon fill="#FFFFFF" points="200.72,187.705 192.76,195.926 192.76,194.62 200.72,186.4 							"/>
						</g>
						<rect x="190.869" y="200.252" fill="#1E6D85" width="11.743" height="1.196"/>
					</g>
					<g>
						<rect x="208.563" y="185.672" fill="#428296" width="9.598" height="15.316"/>
						<rect x="209.381" y="186.408" fill="#BEE0EB" width="7.96" height="13.844"/>
						<g opacity="0.4">
							<polygon fill="#FFFFFF" points="217.341,190.309 209.381,198.53 209.381,196.789 217.341,188.57 							"/>
							<polygon fill="#FFFFFF" points="217.341,192.069 209.381,200.287 209.381,199.779 217.341,191.561 							"/>
							<polygon fill="#FFFFFF" points="217.341,187.705 209.381,195.926 209.381,194.62 217.341,186.4 							"/>
						</g>
						<rect x="207.49" y="200.252" fill="#1E6D85" width="11.742" height="1.196"/>
					</g>
					<g>
						<rect x="225.183" y="185.672" fill="#428296" width="9.598" height="15.316"/>
						<rect x="226.003" y="186.408" fill="#BEE0EB" width="7.958" height="13.844"/>
						<g opacity="0.4">
							<polygon fill="#FFFFFF" points="233.962,190.309 226.003,198.53 226.003,196.789 233.962,188.57 							"/>
							<polygon fill="#FFFFFF" points="233.962,192.069 226.003,200.287 226.003,199.779 233.962,191.561 							"/>
							<polygon fill="#FFFFFF" points="233.962,187.705 226.003,195.926 226.003,194.62 233.962,186.4 							"/>
						</g>
						<rect x="224.111" y="200.252" fill="#1E6D85" width="11.744" height="1.196"/>
					</g>
					<g>
						<rect x="241.804" y="185.672" fill="#428296" width="9.599" height="15.316"/>
						<rect x="242.625" y="186.408" fill="#BEE0EB" width="7.958" height="13.844"/>
						<g opacity="0.4">
							<polygon fill="#FFFFFF" points="250.583,190.309 242.625,198.53 242.625,196.789 250.583,188.57 							"/>
							<polygon fill="#FFFFFF" points="250.583,192.069 242.625,200.287 242.625,199.779 250.583,191.561 							"/>
							<polygon fill="#FFFFFF" points="250.583,187.705 242.625,195.926 242.625,194.62 250.583,186.4 							"/>
						</g>
						<rect x="240.732" y="200.252" fill="#1E6D85" width="11.743" height="1.196"/>
					</g>
					<g>
						<rect x="258.425" y="185.672" fill="#428296" width="9.599" height="15.316"/>
						<rect x="259.245" y="186.408" fill="#BEE0EB" width="7.96" height="13.844"/>
						<g opacity="0.4">
							<polygon fill="#FFFFFF" points="267.205,190.309 259.245,198.53 259.245,196.789 267.205,188.57 							"/>
							<polygon fill="#FFFFFF" points="267.205,192.069 259.245,200.287 259.245,199.779 267.205,191.561 							"/>
							<polygon fill="#FFFFFF" points="267.205,187.705 259.245,195.926 259.245,194.62 267.205,186.4 							"/>
						</g>
						<rect x="257.354" y="200.252" fill="#1E6D85" width="11.744" height="1.196"/>
					</g>
				</g>
				<g>
					<g>
						<rect x="191.94" y="161.267" fill="#428296" width="9.6" height="15.315"/>
						<rect x="192.76" y="162.004" fill="#BEE0EB" width="7.96" height="13.842"/>
						<g opacity="0.4">
							<polygon fill="#FFFFFF" points="200.72,165.905 192.76,174.125 192.76,172.383 200.72,164.164 							"/>
							<polygon fill="#FFFFFF" points="200.72,167.664 192.76,175.885 192.76,175.373 200.72,167.154 							"/>
							<polygon fill="#FFFFFF" points="200.72,163.298 192.76,171.521 192.76,170.215 200.72,161.993 							"/>
						</g>
						<rect x="190.869" y="175.846" fill="#1E6D85" width="11.743" height="1.198"/>
					</g>
					<g>
						<rect x="208.563" y="161.267" fill="#428296" width="9.598" height="15.315"/>
						<rect x="209.381" y="162.004" fill="#BEE0EB" width="7.96" height="13.842"/>
						<g opacity="0.4">
							<polygon fill="#FFFFFF" points="217.341,165.905 209.381,174.125 209.381,172.383 217.341,164.164 							"/>
							<polygon fill="#FFFFFF" points="217.341,167.664 209.381,175.885 209.381,175.373 217.341,167.154 							"/>
							<polygon fill="#FFFFFF" points="217.341,163.298 209.381,171.521 209.381,170.215 217.341,161.993 							"/>
						</g>
						<rect x="207.49" y="175.846" fill="#1E6D85" width="11.742" height="1.198"/>
					</g>
					<g>
						<rect x="225.183" y="161.267" fill="#428296" width="9.598" height="15.315"/>
						<rect x="226.003" y="162.004" fill="#BEE0EB" width="7.958" height="13.842"/>
						<g opacity="0.4">
							<polygon fill="#FFFFFF" points="233.962,165.905 226.003,174.125 226.003,172.383 233.962,164.164 							"/>
							<polygon fill="#FFFFFF" points="233.962,167.664 226.003,175.885 226.003,175.373 233.962,167.154 							"/>
							<polygon fill="#FFFFFF" points="233.962,163.298 226.003,171.521 226.003,170.215 233.962,161.993 							"/>
						</g>
						<rect x="224.111" y="175.846" fill="#1E6D85" width="11.744" height="1.198"/>
					</g>
					<g>
						<rect x="241.804" y="161.267" fill="#428296" width="9.599" height="15.315"/>
						<rect x="242.625" y="162.004" fill="#BEE0EB" width="7.958" height="13.842"/>
						<g opacity="0.4">
							<polygon fill="#FFFFFF" points="250.583,165.905 242.625,174.125 242.625,172.383 250.583,164.164 							"/>
							<polygon fill="#FFFFFF" points="250.583,167.664 242.625,175.885 242.625,175.373 250.583,167.154 							"/>
							<polygon fill="#FFFFFF" points="250.583,163.298 242.625,171.521 242.625,170.215 250.583,161.993 							"/>
						</g>
						<rect x="240.732" y="175.846" fill="#1E6D85" width="11.743" height="1.198"/>
					</g>
					<g>
						<rect x="258.425" y="161.267" fill="#428296" width="9.599" height="15.315"/>
						<rect x="259.245" y="162.004" fill="#BEE0EB" width="7.96" height="13.842"/>
						<g opacity="0.4">
							<polygon fill="#FFFFFF" points="267.205,165.905 259.245,174.125 259.245,172.383 267.205,164.164 							"/>
							<polygon fill="#FFFFFF" points="267.205,167.664 259.245,175.885 259.245,175.373 267.205,167.154 							"/>
							<polygon fill="#FFFFFF" points="267.205,163.298 259.245,171.521 259.245,170.215 267.205,161.993 							"/>
						</g>
						<rect x="257.354" y="175.846" fill="#1E6D85" width="11.744" height="1.198"/>
					</g>
				</g>
				<g>
					<g>
						<rect x="191.94" y="136.861" fill="#428296" width="9.6" height="15.318"/>
						<rect x="192.76" y="137.597" fill="#BEE0EB" width="7.96" height="13.844"/>
						<g opacity="0.4">
							<polygon fill="#FFFFFF" points="200.72,141.498 192.76,149.718 192.76,147.978 200.72,139.76 							"/>
							<polygon fill="#FFFFFF" points="200.72,143.258 192.76,151.479 192.76,150.97 200.72,142.75 							"/>
							<polygon fill="#FFFFFF" points="200.72,138.895 192.76,147.114 192.76,145.81 200.72,137.59 							"/>
						</g>
						<rect x="190.869" y="151.44" fill="#1E6D85" width="11.743" height="1.196"/>
					</g>
					<g>
						<rect x="208.563" y="136.861" fill="#428296" width="9.598" height="15.318"/>
						<rect x="209.381" y="137.597" fill="#BEE0EB" width="7.96" height="13.844"/>
						<g opacity="0.4">
							<polygon fill="#FFFFFF" points="217.341,141.498 209.381,149.718 209.381,147.978 217.341,139.76 							"/>
							<polygon fill="#FFFFFF" points="217.341,143.258 209.381,151.479 209.381,150.97 217.341,142.75 							"/>
							<polygon fill="#FFFFFF" points="217.341,138.895 209.381,147.114 209.381,145.81 217.341,137.59 							"/>
						</g>
						<rect x="207.49" y="151.44" fill="#1E6D85" width="11.742" height="1.196"/>
					</g>
					<g>
						<rect x="225.183" y="136.861" fill="#428296" width="9.598" height="15.318"/>
						<rect x="226.003" y="137.597" fill="#BEE0EB" width="7.958" height="13.844"/>
						<g opacity="0.4">
							<polygon fill="#FFFFFF" points="233.962,141.498 226.003,149.718 226.003,147.978 233.962,139.76 							"/>
							<polygon fill="#FFFFFF" points="233.962,143.258 226.003,151.479 226.003,150.97 233.962,142.75 							"/>
							<polygon fill="#FFFFFF" points="233.962,138.895 226.003,147.114 226.003,145.81 233.962,137.59 							"/>
						</g>
						<rect x="224.111" y="151.44" fill="#1E6D85" width="11.744" height="1.196"/>
					</g>
					<g>
						<rect x="241.804" y="136.861" fill="#428296" width="9.599" height="15.318"/>
						<rect x="242.625" y="137.597" fill="#BEE0EB" width="7.958" height="13.844"/>
						<g opacity="0.4">
							<polygon fill="#FFFFFF" points="250.583,141.498 242.625,149.718 242.625,147.978 250.583,139.76 							"/>
							<polygon fill="#FFFFFF" points="250.583,143.258 242.625,151.479 242.625,150.97 250.583,142.75 							"/>
							<polygon fill="#FFFFFF" points="250.583,138.895 242.625,147.114 242.625,145.81 250.583,137.59 							"/>
						</g>
						<rect x="240.732" y="151.44" fill="#1E6D85" width="11.743" height="1.196"/>
					</g>
					<g>
						<rect x="258.425" y="136.861" fill="#428296" width="9.599" height="15.318"/>
						<rect x="259.245" y="137.597" fill="#BEE0EB" width="7.96" height="13.844"/>
						<g opacity="0.4">
							<polygon fill="#FFFFFF" points="267.205,141.498 259.245,149.718 259.245,147.978 267.205,139.76 							"/>
							<polygon fill="#FFFFFF" points="267.205,143.258 259.245,151.479 259.245,150.97 267.205,142.75 							"/>
							<polygon fill="#FFFFFF" points="267.205,138.895 259.245,147.114 259.245,145.81 267.205,137.59 							"/>
						</g>
						<rect x="257.354" y="151.44" fill="#1E6D85" width="11.744" height="1.196"/>
					</g>
				</g>
				<g>
					<g>
						<rect x="191.94" y="112.457" fill="#428296" width="9.6" height="15.316"/>
						<rect x="192.76" y="113.193" fill="#BEE0EB" width="7.96" height="13.842"/>
						<g opacity="0.4">
							<polygon fill="#FFFFFF" points="200.72,117.096 192.76,125.314 192.76,123.574 200.72,115.354 							"/>
							<polygon fill="#FFFFFF" points="200.72,118.853 192.76,127.074 192.76,126.564 200.72,118.343 							"/>
							<polygon fill="#FFFFFF" points="200.72,114.489 192.76,122.711 192.76,121.405 200.72,113.185 							"/>
						</g>
						<rect x="190.869" y="127.035" fill="#1E6D85" width="11.743" height="1.198"/>
					</g>
					<g>
						<rect x="208.563" y="112.457" fill="#428296" width="9.598" height="15.316"/>
						<rect x="209.381" y="113.193" fill="#BEE0EB" width="7.96" height="13.842"/>
						<g opacity="0.4">
							<polygon fill="#FFFFFF" points="217.341,117.096 209.381,125.314 209.381,123.574 217.341,115.354 							"/>
							<polygon fill="#FFFFFF" points="217.341,118.853 209.381,127.074 209.381,126.564 217.341,118.343 							"/>
							<polygon fill="#FFFFFF" points="217.341,114.489 209.381,122.711 209.381,121.405 217.341,113.185 							"/>
						</g>
						<rect x="207.49" y="127.035" fill="#1E6D85" width="11.742" height="1.198"/>
					</g>
					<g>
						<rect x="225.183" y="112.457" fill="#428296" width="9.598" height="15.316"/>
						<rect x="226.003" y="113.193" fill="#BEE0EB" width="7.958" height="13.842"/>
						<g opacity="0.4">
							<polygon fill="#FFFFFF" points="233.962,117.096 226.003,125.314 226.003,123.574 233.962,115.354 							"/>
							<polygon fill="#FFFFFF" points="233.962,118.853 226.003,127.074 226.003,126.564 233.962,118.343 							"/>
							<polygon fill="#FFFFFF" points="233.962,114.489 226.003,122.711 226.003,121.405 233.962,113.185 							"/>
						</g>
						<rect x="224.111" y="127.035" fill="#1E6D85" width="11.744" height="1.198"/>
					</g>
					<g>
						<rect x="241.804" y="112.457" fill="#428296" width="9.599" height="15.316"/>
						<rect x="242.625" y="113.193" fill="#BEE0EB" width="7.958" height="13.842"/>
						<g opacity="0.4">
							<polygon fill="#FFFFFF" points="250.583,117.096 242.625,125.314 242.625,123.574 250.583,115.354 							"/>
							<polygon fill="#FFFFFF" points="250.583,118.853 242.625,127.074 242.625,126.564 250.583,118.343 							"/>
							<polygon fill="#FFFFFF" points="250.583,114.489 242.625,122.711 242.625,121.405 250.583,113.185 							"/>
						</g>
						<rect x="240.732" y="127.035" fill="#1E6D85" width="11.743" height="1.198"/>
					</g>
					<g>
						<rect x="258.425" y="112.457" fill="#428296" width="9.599" height="15.316"/>
						<rect x="259.245" y="113.193" fill="#BEE0EB" width="7.96" height="13.842"/>
						<g opacity="0.4">
							<polygon fill="#FFFFFF" points="267.205,117.096 259.245,125.314 259.245,123.574 267.205,115.354 							"/>
							<polygon fill="#FFFFFF" points="267.205,118.853 259.245,127.074 259.245,126.564 267.205,118.343 							"/>
							<polygon fill="#FFFFFF" points="267.205,114.489 259.245,122.711 259.245,121.405 267.205,113.185 							"/>
						</g>
						<rect x="257.354" y="127.035" fill="#1E6D85" width="11.744" height="1.198"/>
					</g>
				</g>
				<g>
					<g>
						<rect x="191.94" y="88.049" fill="#428296" width="9.6" height="15.319"/>
						<rect x="192.76" y="88.788" fill="#BEE0EB" width="7.96" height="13.844"/>
						<g opacity="0.4">
							<polygon fill="#FFFFFF" points="200.72,92.688 192.76,100.909 192.76,99.169 200.72,90.949 							"/>
							<polygon fill="#FFFFFF" points="200.72,94.448 192.76,102.669 192.76,102.159 200.72,93.939 							"/>
							<polygon fill="#FFFFFF" points="200.72,90.084 192.76,98.306 192.76,97 200.72,88.777 							"/>
						</g>
						<rect x="190.869" y="102.632" fill="#1E6D85" width="11.743" height="1.193"/>
					</g>
					<g>
						<rect x="208.563" y="88.049" fill="#428296" width="9.598" height="15.319"/>
						<rect x="209.381" y="88.788" fill="#BEE0EB" width="7.96" height="13.844"/>
						<g opacity="0.4">
							<polygon fill="#FFFFFF" points="217.341,92.688 209.381,100.909 209.381,99.169 217.341,90.949 							"/>
							<polygon fill="#FFFFFF" points="217.341,94.448 209.381,102.669 209.381,102.159 217.341,93.939 							"/>
							<polygon fill="#FFFFFF" points="217.341,90.084 209.381,98.306 209.381,97 217.341,88.777 							"/>
						</g>
						<rect x="207.49" y="102.632" fill="#1E6D85" width="11.742" height="1.193"/>
					</g>
					<g>
						<rect x="225.183" y="88.049" fill="#428296" width="9.598" height="15.319"/>
						<rect x="226.003" y="88.788" fill="#BEE0EB" width="7.958" height="13.844"/>
						<g opacity="0.4">
							<polygon fill="#FFFFFF" points="233.962,92.688 226.003,100.909 226.003,99.169 233.962,90.949 							"/>
							<polygon fill="#FFFFFF" points="233.962,94.448 226.003,102.669 226.003,102.159 233.962,93.939 							"/>
							<polygon fill="#FFFFFF" points="233.962,90.084 226.003,98.306 226.003,97 233.962,88.777 							"/>
						</g>
						<rect x="224.111" y="102.632" fill="#1E6D85" width="11.744" height="1.193"/>
					</g>
					<g>
						<rect x="241.804" y="88.049" fill="#428296" width="9.599" height="15.319"/>
						<rect x="242.625" y="88.788" fill="#BEE0EB" width="7.958" height="13.844"/>
						<g opacity="0.4">
							<polygon fill="#FFFFFF" points="250.583,92.688 242.625,100.909 242.625,99.169 250.583,90.949 							"/>
							<polygon fill="#FFFFFF" points="250.583,94.448 242.625,102.669 242.625,102.159 250.583,93.939 							"/>
							<polygon fill="#FFFFFF" points="250.583,90.084 242.625,98.306 242.625,97 250.583,88.777 							"/>
						</g>
						<rect x="240.732" y="102.632" fill="#1E6D85" width="11.743" height="1.193"/>
					</g>
					<g>
						<rect x="258.425" y="88.049" fill="#428296" width="9.599" height="15.319"/>
						<rect x="259.245" y="88.788" fill="#BEE0EB" width="7.96" height="13.844"/>
						<g opacity="0.4">
							<polygon fill="#FFFFFF" points="267.205,92.688 259.245,100.909 259.245,99.169 267.205,90.949 							"/>
							<polygon fill="#FFFFFF" points="267.205,94.448 259.245,102.669 259.245,102.159 267.205,93.939 							"/>
							<polygon fill="#FFFFFF" points="267.205,90.084 259.245,98.306 259.245,97 267.205,88.777 							"/>
						</g>
						<rect x="257.354" y="102.632" fill="#1E6D85" width="11.744" height="1.193"/>
					</g>
				</g>
			</g>
		</g>
		<g>
			<g>
				<g>
					<rect x="191.076" y="208.832" fill="#428296" width="6.817" height="13.338"/>
					<rect x="191.658" y="209.473" fill="#BEE0EB" width="5.654" height="12.057"/>
					<g opacity="0.4">
						<polygon fill="#FFFFFF" points="197.312,212.872 191.658,220.028 191.658,218.515 197.312,211.354 						"/>
						<polygon fill="#FFFFFF" points="197.312,214.402 191.658,221.561 191.658,221.117 197.312,213.957 						"/>
						<polygon fill="#FFFFFF" points="197.312,210.602 191.658,217.76 191.658,216.623 197.312,209.465 						"/>
					</g>
				</g>
				<g>
					<rect x="203.546" y="208.832" fill="#428296" width="6.817" height="13.338"/>
					<rect x="204.128" y="209.473" fill="#BEE0EB" width="5.653" height="12.057"/>
					<g opacity="0.4">
						<polygon fill="#FFFFFF" points="209.781,212.872 204.128,220.028 204.128,218.515 209.781,211.354 						"/>
						<polygon fill="#FFFFFF" points="209.781,214.402 204.128,221.561 204.128,221.117 209.781,213.957 						"/>
						<polygon fill="#FFFFFF" points="209.781,210.602 204.128,217.76 204.128,216.623 209.781,209.465 						"/>
					</g>
				</g>
				<g>
					<rect x="197.312" y="208.832" fill="#428296" width="6.816" height="13.338"/>
					<rect x="197.893" y="209.473" fill="#BEE0EB" width="5.653" height="12.057"/>
					<g opacity="0.4">
						<polygon fill="#FFFFFF" points="203.546,212.872 197.893,220.028 197.893,218.515 203.546,211.354 						"/>
						<polygon fill="#FFFFFF" points="203.546,214.402 197.893,221.561 197.893,221.117 203.546,213.957 						"/>
						<polygon fill="#FFFFFF" points="203.546,210.602 197.893,217.76 197.893,216.623 203.546,209.465 						"/>
					</g>
				</g>
			</g>
			<g>
				<g>
					<rect x="249.601" y="208.832" fill="#428296" width="6.818" height="13.338"/>
					<rect x="250.182" y="209.473" fill="#BEE0EB" width="5.654" height="12.057"/>
					<g opacity="0.4">
						<polygon fill="#FFFFFF" points="255.836,212.872 250.182,220.028 250.182,218.515 255.836,211.354 						"/>
						<polygon fill="#FFFFFF" points="255.836,214.402 250.182,221.561 250.182,221.117 255.836,213.957 						"/>
						<polygon fill="#FFFFFF" points="255.836,210.602 250.182,217.76 250.182,216.623 255.836,209.465 						"/>
					</g>
				</g>
				<g>
					<rect x="262.072" y="208.832" fill="#428296" width="6.817" height="13.338"/>
					<rect x="262.654" y="209.473" fill="#BEE0EB" width="5.653" height="12.057"/>
					<g opacity="0.4">
						<polygon fill="#FFFFFF" points="268.307,212.872 262.654,220.028 262.654,218.515 268.307,211.354 						"/>
						<polygon fill="#FFFFFF" points="268.307,214.402 262.654,221.561 262.654,221.117 268.307,213.957 						"/>
						<polygon fill="#FFFFFF" points="268.307,210.602 262.654,217.76 262.654,216.623 268.307,209.465 						"/>
					</g>
				</g>
				<g>
					<rect x="255.836" y="208.832" fill="#428296" width="6.818" height="13.338"/>
					<rect x="256.418" y="209.473" fill="#BEE0EB" width="5.654" height="12.057"/>
					<g opacity="0.4">
						<polygon fill="#FFFFFF" points="262.072,212.872 256.418,220.028 256.418,218.515 262.072,211.354 						"/>
						<polygon fill="#FFFFFF" points="262.072,214.402 256.418,221.561 256.418,221.117 262.072,213.957 						"/>
						<polygon fill="#FFFFFF" points="262.072,210.602 256.418,217.76 256.418,216.623 262.072,209.465 						"/>
					</g>
				</g>
			</g>
		</g>
		<rect x="184.259" y="73.66" fill="#1E6D85" width="91.448" height="6.514"/>
		<rect x="184.259" y="73.66" fill="#448BA1" width="91.448" height="3.257"/>
		<g>
			<rect x="186.568" y="74.4" fill="#FBB040" width="86.829" height="165.693"/>
			<rect x="229.982" y="74.4" fill="#FBB040" width="43.414" height="165.693"/>
		</g>
		<rect x="186.542" y="232.882" fill="#E6DBAF" width="86.826" height="7.212"/>
		<rect x="186.568" y="80.174" fill="#E6DBAF" width="86.829" height="2.535"/>
		<rect x="186.568" y="229.853" opacity="0.8" fill="#FFFFFF" width="86.829" height="3.029"/>
		<g>
			<rect x="218.657" y="219.716" fill="#428296" width="22.651" height="20.378"/>
			<rect x="220.53" y="221.656" fill="#BEE0EB" width="18.906" height="18.438"/>
			<rect x="229.219" y="220.406" fill="#428296" width="1.526" height="19.688"/>
		</g>
		<g opacity="0.4">
			<g>
				<polygon fill="#FFFFFF" points="229.219,222.355 220.53,233.638 220.53,232.897 229.219,221.613 				"/>
				<polygon fill="#FFFFFF" points="229.219,228.749 220.53,240.094 220.53,238.764 229.219,227.479 				"/>
				<polygon fill="#FFFFFF" points="229.219,226.477 220.53,237.759 220.53,235.258 229.219,223.974 				"/>
			</g>
			<g>
				<polygon fill="#FFFFFF" points="239.436,222.355 230.745,233.638 230.745,232.897 239.436,221.613 				"/>
				<polygon fill="#FFFFFF" points="239.436,228.749 230.745,240.094 230.745,238.764 239.436,227.479 				"/>
				<polygon fill="#FFFFFF" points="239.436,226.477 230.745,237.759 230.745,235.258 239.436,223.974 				"/>
			</g>
		</g>
		<g>
			<path fill="#428296" d="M227.958,235.379c0,0.207-0.169,0.376-0.376,0.376l0,0c-0.208,0-0.376-0.169-0.376-0.376v-3.289
				c0-0.205,0.168-0.377,0.376-0.377l0,0c0.208,0,0.376,0.172,0.376,0.377V235.379z"/>
			<path fill="#428296" d="M232.703,235.379c0,0.207-0.168,0.376-0.376,0.376l0,0c-0.208,0-0.375-0.169-0.375-0.376v-3.289
				c0-0.205,0.167-0.377,0.375-0.377l0,0c0.208,0,0.376,0.172,0.376,0.377V235.379z"/>
		</g>
		<g>
			<rect x="186.568" y="204.889" opacity="0.6" fill="#BDB490" width="86.829" height="0.785"/>
			<rect x="186.568" y="205.674" opacity="0.8" fill="#FFFFFF" width="86.829" height="0.783"/>
		</g>
		<g>
			<rect x="186.568" y="180.483" opacity="0.6" fill="#BDB490" width="86.829" height="0.786"/>
			<rect x="186.568" y="181.27" opacity="0.8" fill="#FFFFFF" width="86.829" height="0.784"/>
		</g>
		<g>
			<rect x="186.568" y="156.076" opacity="0.6" fill="#BDB490" width="86.829" height="0.785"/>
			<rect x="186.568" y="156.861" opacity="0.8" fill="#FFFFFF" width="86.829" height="0.785"/>
		</g>
		<g>
			<rect x="186.568" y="131.674" opacity="0.6" fill="#BDB490" width="86.829" height="0.784"/>
			<rect x="186.568" y="132.458" opacity="0.8" fill="#FFFFFF" width="86.829" height="0.784"/>
		</g>
		<g>
			<rect x="186.568" y="107.271" opacity="0.6" fill="#BDB490" width="86.829" height="0.782"/>
			<rect x="186.568" y="108.053" opacity="0.8" fill="#FFFFFF" width="86.829" height="0.783"/>
		</g>
		<g>
			<g>
				<g>
					<rect x="191.94" y="185.672" fill="#428296" width="9.6" height="15.316"/>
					<rect x="192.76" y="186.408" fill="#BEE0EB" width="7.96" height="13.844"/>
					<g opacity="0.4">
						<polygon fill="#FFFFFF" points="200.72,190.309 192.76,198.53 192.76,196.789 200.72,188.57 						"/>
						<polygon fill="#FFFFFF" points="200.72,192.069 192.76,200.287 192.76,199.779 200.72,191.561 						"/>
						<polygon fill="#FFFFFF" points="200.72,187.705 192.76,195.926 192.76,194.62 200.72,186.4 						"/>
					</g>
					<rect x="190.869" y="200.252" fill="#1E6D85" width="11.743" height="1.196"/>
				</g>
				<g>
					<rect x="208.563" y="185.672" fill="#428296" width="9.598" height="15.316"/>
					<rect x="209.381" y="186.408" fill="#BEE0EB" width="7.96" height="13.844"/>
					<g opacity="0.4">
						<polygon fill="#FFFFFF" points="217.341,190.309 209.381,198.53 209.381,196.789 217.341,188.57 						"/>
						<polygon fill="#FFFFFF" points="217.341,192.069 209.381,200.287 209.381,199.779 217.341,191.561 						"/>
						<polygon fill="#FFFFFF" points="217.341,187.705 209.381,195.926 209.381,194.62 217.341,186.4 						"/>
					</g>
					<rect x="207.49" y="200.252" fill="#1E6D85" width="11.742" height="1.196"/>
				</g>
				<g>
					<rect x="225.183" y="185.672" fill="#428296" width="9.598" height="15.316"/>
					<rect x="226.003" y="186.408" fill="#BEE0EB" width="7.958" height="13.844"/>
					<g opacity="0.4">
						<polygon fill="#FFFFFF" points="233.962,190.309 226.003,198.53 226.003,196.789 233.962,188.57 						"/>
						<polygon fill="#FFFFFF" points="233.962,192.069 226.003,200.287 226.003,199.779 233.962,191.561 						"/>
						<polygon fill="#FFFFFF" points="233.962,187.705 226.003,195.926 226.003,194.62 233.962,186.4 						"/>
					</g>
					<rect x="224.111" y="200.252" fill="#1E6D85" width="11.744" height="1.196"/>
				</g>
				<g>
					<rect x="241.804" y="185.672" fill="#428296" width="9.599" height="15.316"/>
					<rect x="242.625" y="186.408" fill="#BEE0EB" width="7.958" height="13.844"/>
					<g opacity="0.4">
						<polygon fill="#FFFFFF" points="250.583,190.309 242.625,198.53 242.625,196.789 250.583,188.57 						"/>
						<polygon fill="#FFFFFF" points="250.583,192.069 242.625,200.287 242.625,199.779 250.583,191.561 						"/>
						<polygon fill="#FFFFFF" points="250.583,187.705 242.625,195.926 242.625,194.62 250.583,186.4 						"/>
					</g>
					<rect x="240.732" y="200.252" fill="#1E6D85" width="11.743" height="1.196"/>
				</g>
				<g>
					<rect x="258.425" y="185.672" fill="#428296" width="9.599" height="15.316"/>
					<rect x="259.245" y="186.408" fill="#BEE0EB" width="7.96" height="13.844"/>
					<g opacity="0.4">
						<polygon fill="#FFFFFF" points="267.205,190.309 259.245,198.53 259.245,196.789 267.205,188.57 						"/>
						<polygon fill="#FFFFFF" points="267.205,192.069 259.245,200.287 259.245,199.779 267.205,191.561 						"/>
						<polygon fill="#FFFFFF" points="267.205,187.705 259.245,195.926 259.245,194.62 267.205,186.4 						"/>
					</g>
					<rect x="257.354" y="200.252" fill="#1E6D85" width="11.744" height="1.196"/>
				</g>
			</g>
			<g>
				<g>
					<rect x="191.94" y="161.267" fill="#428296" width="9.6" height="15.315"/>
					<rect x="192.76" y="162.004" fill="#BEE0EB" width="7.96" height="13.842"/>
					<g opacity="0.4">
						<polygon fill="#FFFFFF" points="200.72,165.905 192.76,174.125 192.76,172.383 200.72,164.164 						"/>
						<polygon fill="#FFFFFF" points="200.72,167.664 192.76,175.885 192.76,175.373 200.72,167.154 						"/>
						<polygon fill="#FFFFFF" points="200.72,163.298 192.76,171.521 192.76,170.215 200.72,161.993 						"/>
					</g>
					<rect x="190.869" y="175.846" fill="#1E6D85" width="11.743" height="1.198"/>
				</g>
				<g>
					<rect x="208.563" y="161.267" fill="#428296" width="9.598" height="15.315"/>
					<rect x="209.381" y="162.004" fill="#BEE0EB" width="7.96" height="13.842"/>
					<g opacity="0.4">
						<polygon fill="#FFFFFF" points="217.341,165.905 209.381,174.125 209.381,172.383 217.341,164.164 						"/>
						<polygon fill="#FFFFFF" points="217.341,167.664 209.381,175.885 209.381,175.373 217.341,167.154 						"/>
						<polygon fill="#FFFFFF" points="217.341,163.298 209.381,171.521 209.381,170.215 217.341,161.993 						"/>
					</g>
					<rect x="207.49" y="175.846" fill="#1E6D85" width="11.742" height="1.198"/>
				</g>
				<g>
					<rect x="225.183" y="161.267" fill="#428296" width="9.598" height="15.315"/>
					<rect x="226.003" y="162.004" fill="#BEE0EB" width="7.958" height="13.842"/>
					<g opacity="0.4">
						<polygon fill="#FFFFFF" points="233.962,165.905 226.003,174.125 226.003,172.383 233.962,164.164 						"/>
						<polygon fill="#FFFFFF" points="233.962,167.664 226.003,175.885 226.003,175.373 233.962,167.154 						"/>
						<polygon fill="#FFFFFF" points="233.962,163.298 226.003,171.521 226.003,170.215 233.962,161.993 						"/>
					</g>
					<rect x="224.111" y="175.846" fill="#1E6D85" width="11.744" height="1.198"/>
				</g>
				<g>
					<rect x="241.804" y="161.267" fill="#428296" width="9.599" height="15.315"/>
					<rect x="242.625" y="162.004" fill="#BEE0EB" width="7.958" height="13.842"/>
					<g opacity="0.4">
						<polygon fill="#FFFFFF" points="250.583,165.905 242.625,174.125 242.625,172.383 250.583,164.164 						"/>
						<polygon fill="#FFFFFF" points="250.583,167.664 242.625,175.885 242.625,175.373 250.583,167.154 						"/>
						<polygon fill="#FFFFFF" points="250.583,163.298 242.625,171.521 242.625,170.215 250.583,161.993 						"/>
					</g>
					<rect x="240.732" y="175.846" fill="#1E6D85" width="11.743" height="1.198"/>
				</g>
				<g>
					<rect x="258.425" y="161.267" fill="#428296" width="9.599" height="15.315"/>
					<rect x="259.245" y="162.004" fill="#BEE0EB" width="7.96" height="13.842"/>
					<g opacity="0.4">
						<polygon fill="#FFFFFF" points="267.205,165.905 259.245,174.125 259.245,172.383 267.205,164.164 						"/>
						<polygon fill="#FFFFFF" points="267.205,167.664 259.245,175.885 259.245,175.373 267.205,167.154 						"/>
						<polygon fill="#FFFFFF" points="267.205,163.298 259.245,171.521 259.245,170.215 267.205,161.993 						"/>
					</g>
					<rect x="257.354" y="175.846" fill="#1E6D85" width="11.744" height="1.198"/>
				</g>
			</g>
			<g>
				<g>
					<rect x="191.94" y="136.861" fill="#428296" width="9.6" height="15.318"/>
					<rect x="192.76" y="137.597" fill="#BEE0EB" width="7.96" height="13.844"/>
					<g opacity="0.4">
						<polygon fill="#FFFFFF" points="200.72,141.498 192.76,149.718 192.76,147.978 200.72,139.76 						"/>
						<polygon fill="#FFFFFF" points="200.72,143.258 192.76,151.479 192.76,150.97 200.72,142.75 						"/>
						<polygon fill="#FFFFFF" points="200.72,138.895 192.76,147.114 192.76,145.81 200.72,137.59 						"/>
					</g>
					<rect x="190.869" y="151.44" fill="#1E6D85" width="11.743" height="1.196"/>
				</g>
				<g>
					<rect x="208.563" y="136.861" fill="#428296" width="9.598" height="15.318"/>
					<rect x="209.381" y="137.597" fill="#BEE0EB" width="7.96" height="13.844"/>
					<g opacity="0.4">
						<polygon fill="#FFFFFF" points="217.341,141.498 209.381,149.718 209.381,147.978 217.341,139.76 						"/>
						<polygon fill="#FFFFFF" points="217.341,143.258 209.381,151.479 209.381,150.97 217.341,142.75 						"/>
						<polygon fill="#FFFFFF" points="217.341,138.895 209.381,147.114 209.381,145.81 217.341,137.59 						"/>
					</g>
					<rect x="207.49" y="151.44" fill="#1E6D85" width="11.742" height="1.196"/>
				</g>
				<g>
					<rect x="225.183" y="136.861" fill="#428296" width="9.598" height="15.318"/>
					<rect x="226.003" y="137.597" fill="#BEE0EB" width="7.958" height="13.844"/>
					<g opacity="0.4">
						<polygon fill="#FFFFFF" points="233.962,141.498 226.003,149.718 226.003,147.978 233.962,139.76 						"/>
						<polygon fill="#FFFFFF" points="233.962,143.258 226.003,151.479 226.003,150.97 233.962,142.75 						"/>
						<polygon fill="#FFFFFF" points="233.962,138.895 226.003,147.114 226.003,145.81 233.962,137.59 						"/>
					</g>
					<rect x="224.111" y="151.44" fill="#1E6D85" width="11.744" height="1.196"/>
				</g>
				<g>
					<rect x="241.804" y="136.861" fill="#428296" width="9.599" height="15.318"/>
					<rect x="242.625" y="137.597" fill="#BEE0EB" width="7.958" height="13.844"/>
					<g opacity="0.4">
						<polygon fill="#FFFFFF" points="250.583,141.498 242.625,149.718 242.625,147.978 250.583,139.76 						"/>
						<polygon fill="#FFFFFF" points="250.583,143.258 242.625,151.479 242.625,150.97 250.583,142.75 						"/>
						<polygon fill="#FFFFFF" points="250.583,138.895 242.625,147.114 242.625,145.81 250.583,137.59 						"/>
					</g>
					<rect x="240.732" y="151.44" fill="#1E6D85" width="11.743" height="1.196"/>
				</g>
				<g>
					<rect x="258.425" y="136.861" fill="#428296" width="9.599" height="15.318"/>
					<rect x="259.245" y="137.597" fill="#BEE0EB" width="7.96" height="13.844"/>
					<g opacity="0.4">
						<polygon fill="#FFFFFF" points="267.205,141.498 259.245,149.718 259.245,147.978 267.205,139.76 						"/>
						<polygon fill="#FFFFFF" points="267.205,143.258 259.245,151.479 259.245,150.97 267.205,142.75 						"/>
						<polygon fill="#FFFFFF" points="267.205,138.895 259.245,147.114 259.245,145.81 267.205,137.59 						"/>
					</g>
					<rect x="257.354" y="151.44" fill="#1E6D85" width="11.744" height="1.196"/>
				</g>
			</g>
			<g>
				<g>
					<rect x="191.94" y="112.457" fill="#428296" width="9.6" height="15.316"/>
					<rect x="192.76" y="113.193" fill="#BEE0EB" width="7.96" height="13.842"/>
					<g opacity="0.4">
						<polygon fill="#FFFFFF" points="200.72,117.096 192.76,125.314 192.76,123.574 200.72,115.354 						"/>
						<polygon fill="#FFFFFF" points="200.72,118.853 192.76,127.074 192.76,126.564 200.72,118.343 						"/>
						<polygon fill="#FFFFFF" points="200.72,114.489 192.76,122.711 192.76,121.405 200.72,113.185 						"/>
					</g>
					<rect x="190.869" y="127.035" fill="#1E6D85" width="11.743" height="1.198"/>
				</g>
				<g>
					<rect x="208.563" y="112.457" fill="#428296" width="9.598" height="15.316"/>
					<rect x="209.381" y="113.193" fill="#BEE0EB" width="7.96" height="13.842"/>
					<g opacity="0.4">
						<polygon fill="#FFFFFF" points="217.341,117.096 209.381,125.314 209.381,123.574 217.341,115.354 						"/>
						<polygon fill="#FFFFFF" points="217.341,118.853 209.381,127.074 209.381,126.564 217.341,118.343 						"/>
						<polygon fill="#FFFFFF" points="217.341,114.489 209.381,122.711 209.381,121.405 217.341,113.185 						"/>
					</g>
					<rect x="207.49" y="127.035" fill="#1E6D85" width="11.742" height="1.198"/>
				</g>
				<g>
					<rect x="225.183" y="112.457" fill="#428296" width="9.598" height="15.316"/>
					<rect x="226.003" y="113.193" fill="#BEE0EB" width="7.958" height="13.842"/>
					<g opacity="0.4">
						<polygon fill="#FFFFFF" points="233.962,117.096 226.003,125.314 226.003,123.574 233.962,115.354 						"/>
						<polygon fill="#FFFFFF" points="233.962,118.853 226.003,127.074 226.003,126.564 233.962,118.343 						"/>
						<polygon fill="#FFFFFF" points="233.962,114.489 226.003,122.711 226.003,121.405 233.962,113.185 						"/>
					</g>
					<rect x="224.111" y="127.035" fill="#1E6D85" width="11.744" height="1.198"/>
				</g>
				<g>
					<rect x="241.804" y="112.457" fill="#428296" width="9.599" height="15.316"/>
					<rect x="242.625" y="113.193" fill="#BEE0EB" width="7.958" height="13.842"/>
					<g opacity="0.4">
						<polygon fill="#FFFFFF" points="250.583,117.096 242.625,125.314 242.625,123.574 250.583,115.354 						"/>
						<polygon fill="#FFFFFF" points="250.583,118.853 242.625,127.074 242.625,126.564 250.583,118.343 						"/>
						<polygon fill="#FFFFFF" points="250.583,114.489 242.625,122.711 242.625,121.405 250.583,113.185 						"/>
					</g>
					<rect x="240.732" y="127.035" fill="#1E6D85" width="11.743" height="1.198"/>
				</g>
				<g>
					<rect x="258.425" y="112.457" fill="#428296" width="9.599" height="15.316"/>
					<rect x="259.245" y="113.193" fill="#BEE0EB" width="7.96" height="13.842"/>
					<g opacity="0.4">
						<polygon fill="#FFFFFF" points="267.205,117.096 259.245,125.314 259.245,123.574 267.205,115.354 						"/>
						<polygon fill="#FFFFFF" points="267.205,118.853 259.245,127.074 259.245,126.564 267.205,118.343 						"/>
						<polygon fill="#FFFFFF" points="267.205,114.489 259.245,122.711 259.245,121.405 267.205,113.185 						"/>
					</g>
					<rect x="257.354" y="127.035" fill="#1E6D85" width="11.744" height="1.198"/>
				</g>
			</g>
			<g>
				<g>
					<rect x="191.94" y="88.049" fill="#428296" width="9.6" height="15.319"/>
					<rect x="192.76" y="88.788" fill="#BEE0EB" width="7.96" height="13.844"/>
					<g opacity="0.4">
						<polygon fill="#FFFFFF" points="200.72,92.688 192.76,100.909 192.76,99.169 200.72,90.949 						"/>
						<polygon fill="#FFFFFF" points="200.72,94.448 192.76,102.669 192.76,102.159 200.72,93.939 						"/>
						<polygon fill="#FFFFFF" points="200.72,90.084 192.76,98.306 192.76,97 200.72,88.777 						"/>
					</g>
					<rect x="190.869" y="102.632" fill="#1E6D85" width="11.743" height="1.193"/>
				</g>
				<g>
					<rect x="208.563" y="88.049" fill="#428296" width="9.598" height="15.319"/>
					<rect x="209.381" y="88.788" fill="#BEE0EB" width="7.96" height="13.844"/>
					<g opacity="0.4">
						<polygon fill="#FFFFFF" points="217.341,92.688 209.381,100.909 209.381,99.169 217.341,90.949 						"/>
						<polygon fill="#FFFFFF" points="217.341,94.448 209.381,102.669 209.381,102.159 217.341,93.939 						"/>
						<polygon fill="#FFFFFF" points="217.341,90.084 209.381,98.306 209.381,97 217.341,88.777 						"/>
					</g>
					<rect x="207.49" y="102.632" fill="#1E6D85" width="11.742" height="1.193"/>
				</g>
				<g>
					<rect x="225.183" y="88.049" fill="#428296" width="9.598" height="15.319"/>
					<rect x="226.003" y="88.788" fill="#BEE0EB" width="7.958" height="13.844"/>
					<g opacity="0.4">
						<polygon fill="#FFFFFF" points="233.962,92.688 226.003,100.909 226.003,99.169 233.962,90.949 						"/>
						<polygon fill="#FFFFFF" points="233.962,94.448 226.003,102.669 226.003,102.159 233.962,93.939 						"/>
						<polygon fill="#FFFFFF" points="233.962,90.084 226.003,98.306 226.003,97 233.962,88.777 						"/>
					</g>
					<rect x="224.111" y="102.632" fill="#1E6D85" width="11.744" height="1.193"/>
				</g>
				<g>
					<rect x="241.804" y="88.049" fill="#428296" width="9.599" height="15.319"/>
					<rect x="242.625" y="88.788" fill="#BEE0EB" width="7.958" height="13.844"/>
					<g opacity="0.4">
						<polygon fill="#FFFFFF" points="250.583,92.688 242.625,100.909 242.625,99.169 250.583,90.949 						"/>
						<polygon fill="#FFFFFF" points="250.583,94.448 242.625,102.669 242.625,102.159 250.583,93.939 						"/>
						<polygon fill="#FFFFFF" points="250.583,90.084 242.625,98.306 242.625,97 250.583,88.777 						"/>
					</g>
					<rect x="240.732" y="102.632" fill="#1E6D85" width="11.743" height="1.193"/>
				</g>
				<g>
					<rect x="258.425" y="88.049" fill="#428296" width="9.599" height="15.319"/>
					<rect x="259.245" y="88.788" fill="#BEE0EB" width="7.96" height="13.844"/>
					<g opacity="0.4">
						<polygon fill="#FFFFFF" points="267.205,92.688 259.245,100.909 259.245,99.169 267.205,90.949 						"/>
						<polygon fill="#FFFFFF" points="267.205,94.448 259.245,102.669 259.245,102.159 267.205,93.939 						"/>
						<polygon fill="#FFFFFF" points="267.205,90.084 259.245,98.306 259.245,97 267.205,88.777 						"/>
					</g>
					<rect x="257.354" y="102.632" fill="#1E6D85" width="11.744" height="1.193"/>
				</g>
			</g>
		</g>
		<g>
			<g>
				<g>
					<rect x="191.076" y="208.832" fill="#428296" width="6.817" height="13.338"/>
					<rect x="191.658" y="209.473" fill="#BEE0EB" width="5.654" height="12.057"/>
					<g opacity="0.4">
						<polygon fill="#FFFFFF" points="197.312,212.872 191.658,220.028 191.658,218.515 197.312,211.354 						"/>
						<polygon fill="#FFFFFF" points="197.312,214.402 191.658,221.561 191.658,221.117 197.312,213.957 						"/>
						<polygon fill="#FFFFFF" points="197.312,210.602 191.658,217.76 191.658,216.623 197.312,209.465 						"/>
					</g>
				</g>
				<g>
					<rect x="203.546" y="208.832" fill="#428296" width="6.817" height="13.338"/>
					<rect x="204.128" y="209.473" fill="#BEE0EB" width="5.653" height="12.057"/>
					<g opacity="0.4">
						<polygon fill="#FFFFFF" points="209.781,212.872 204.128,220.028 204.128,218.515 209.781,211.354 						"/>
						<polygon fill="#FFFFFF" points="209.781,214.402 204.128,221.561 204.128,221.117 209.781,213.957 						"/>
						<polygon fill="#FFFFFF" points="209.781,210.602 204.128,217.76 204.128,216.623 209.781,209.465 						"/>
					</g>
				</g>
				<g>
					<rect x="197.312" y="208.832" fill="#428296" width="6.816" height="13.338"/>
					<rect x="197.893" y="209.473" fill="#BEE0EB" width="5.653" height="12.057"/>
					<g opacity="0.4">
						<polygon fill="#FFFFFF" points="203.546,212.872 197.893,220.028 197.893,218.515 203.546,211.354 						"/>
						<polygon fill="#FFFFFF" points="203.546,214.402 197.893,221.561 197.893,221.117 203.546,213.957 						"/>
						<polygon fill="#FFFFFF" points="203.546,210.602 197.893,217.76 197.893,216.623 203.546,209.465 						"/>
					</g>
				</g>
			</g>
			<g>
				<g>
					<rect x="249.601" y="208.832" fill="#428296" width="6.818" height="13.338"/>
					<rect x="250.182" y="209.473" fill="#BEE0EB" width="5.654" height="12.057"/>
					<g opacity="0.4">
						<polygon fill="#FFFFFF" points="255.836,212.872 250.182,220.028 250.182,218.515 255.836,211.354 						"/>
						<polygon fill="#FFFFFF" points="255.836,214.402 250.182,221.561 250.182,221.117 255.836,213.957 						"/>
						<polygon fill="#FFFFFF" points="255.836,210.602 250.182,217.76 250.182,216.623 255.836,209.465 						"/>
					</g>
				</g>
				<g>
					<rect x="262.072" y="208.832" fill="#428296" width="6.817" height="13.338"/>
					<rect x="262.654" y="209.473" fill="#BEE0EB" width="5.653" height="12.057"/>
					<g opacity="0.4">
						<polygon fill="#FFFFFF" points="268.307,212.872 262.654,220.028 262.654,218.515 268.307,211.354 						"/>
						<polygon fill="#FFFFFF" points="268.307,214.402 262.654,221.561 262.654,221.117 268.307,213.957 						"/>
						<polygon fill="#FFFFFF" points="268.307,210.602 262.654,217.76 262.654,216.623 268.307,209.465 						"/>
					</g>
				</g>
				<g>
					<rect x="255.836" y="208.832" fill="#428296" width="6.818" height="13.338"/>
					<rect x="256.418" y="209.473" fill="#BEE0EB" width="5.654" height="12.057"/>
					<g opacity="0.4">
						<polygon fill="#FFFFFF" points="262.072,212.872 256.418,220.028 256.418,218.515 262.072,211.354 						"/>
						<polygon fill="#FFFFFF" points="262.072,214.402 256.418,221.561 256.418,221.117 262.072,213.957 						"/>
						<polygon fill="#FFFFFF" points="262.072,210.602 256.418,217.76 256.418,216.623 262.072,209.465 						"/>
					</g>
				</g>
			</g>
		</g>
		<rect x="184.259" y="73.66" fill="#1E6D85" width="91.448" height="6.514"/>
		<rect x="184.259" y="73.66" fill="#448BA1" width="91.448" height="3.257"/>
		<g>
			<g>
				<g>
					<path fill="#FF3369" d="M251.415,62.413c0.898,0,1.625,0.727,1.625,1.626v19.24c0,0.899-0.727,1.627-1.625,1.627H208.55
						c-0.896,0-1.624-0.728-1.624-1.627v-19.24c0-0.899,0.728-1.626,1.624-1.626H251.415z"/>
				</g>
			</g>
			<g>
				<path fill="none" stroke="#FFDE5A" stroke-miterlimit="10" d="M249.422,63.961c0.813,0,1.472,0.658,1.472,1.472v16.453
					c0,0.812-0.659,1.474-1.472,1.474h-38.878c-0.815,0-1.474-0.662-1.474-1.474V65.433c0-0.813,0.658-1.472,1.474-1.472H249.422z"
					/>
			</g>
			<g>
				<path fill="#FFFFFF" d="M213.867,71.749v3.42h3.612v-3.42h1.56v8.54h-1.56v-3.765h-3.612v3.765h-1.56v-8.54H213.867z"/>
				<path fill="#FFFFFF" d="M228.403,75.932c0,2.862-1.735,4.497-4.092,4.497c-2.409,0-3.929-1.837-3.929-4.348
					c0-2.623,1.647-4.474,4.055-4.474C226.933,71.607,228.403,73.497,228.403,75.932z M222.029,76.057
					c0,1.735,0.874,3.117,2.37,3.117c1.508,0,2.357-1.395,2.357-3.182c0-1.609-0.797-3.131-2.357-3.131
					C222.853,72.861,222.029,74.294,222.029,76.057z"/>
				<path fill="#FFFFFF" d="M231.042,73.054h-2.434v-1.305h6.45v1.305H232.6v7.235h-1.558V73.054z"/>
				<path fill="#FFFFFF" d="M240.839,76.498h-3.221v2.512h3.601v1.279h-5.157v-8.54h4.966v1.277h-3.41v2.206h3.221V76.498z"/>
				<path fill="#FFFFFF" d="M242.588,71.749h1.559v7.233h3.511v1.307h-5.07V71.749z"/>
			</g>
			<g>
				<polygon fill="#FFDE5A" points="213.705,66.154 214.135,67.025 215.094,67.162 214.399,67.841 214.563,68.796 213.705,68.346 
					212.847,68.796 213.011,67.841 212.317,67.162 213.276,67.025 				"/>
				<polygon fill="#FFDE5A" points="221.826,66.154 222.256,67.025 223.216,67.162 222.52,67.841 222.685,68.796 221.826,68.346 
					220.968,68.796 221.131,67.841 220.438,67.162 221.397,67.025 				"/>
				<polygon fill="#FFDE5A" points="229.948,66.154 230.375,67.025 231.336,67.162 230.642,67.841 230.805,68.796 229.948,68.346 
					229.09,68.796 229.253,67.841 228.559,67.162 229.518,67.025 				"/>
				<polygon fill="#FFDE5A" points="238.068,66.154 238.497,67.025 239.457,67.162 238.763,67.841 238.927,68.796 238.068,68.346 
					237.211,68.796 237.375,67.841 236.68,67.162 237.64,67.025 				"/>
				<polygon fill="#FFDE5A" points="246.19,66.154 246.618,67.025 247.577,67.162 246.884,67.841 247.048,68.796 246.19,68.346 
					245.332,68.796 245.496,67.841 244.8,67.162 245.76,67.025 				"/>
			</g>
		</g>
		<g>
			<path fill="#21C6F9" d="M163.465,115.43c0,3.695-2.998,6.691-6.695,6.691h-28.763c-3.696,0-6.692-2.996-6.692-6.691l0,0
				c0-3.697,2.996-6.697,6.692-6.697h28.763C160.467,108.732,163.465,111.732,163.465,115.43L163.465,115.43z"/>
			<path fill="#21C6F9" d="M137.023,112.323c0,5.414-4.386,9.798-9.797,9.798c-5.41,0-9.796-4.384-9.796-9.798
				c0-5.409,4.386-9.797,9.796-9.797C132.637,102.526,137.023,106.914,137.023,112.323z"/>
			<circle fill="#21C6F9" cx="152.432" cy="106.316" r="6.323"/>
			<circle fill="#21C6F9" cx="138.472" cy="105.004" r="12.59"/>
		</g>
		<g>
			<path fill="#83E8FF" d="M149.462,79.183c0,2.501,2.029,4.529,4.531,4.529h19.466c2.502,0,4.53-2.028,4.53-4.529l0,0
				c0-2.503-2.028-4.53-4.53-4.53h-19.466C151.491,74.652,149.462,76.68,149.462,79.183L149.462,79.183z"/>
			<circle fill="#83E8FF" cx="173.988" cy="77.08" r="6.631"/>
			<circle fill="#83E8FF" cx="156.929" cy="73.016" r="4.28"/>
			<circle fill="#83E8FF" cx="166.376" cy="72.126" r="8.521"/>
		</g>
		<g>
			<path fill="#21C6F9" d="M292.417,118.658c0,4.002,3.245,7.248,7.248,7.248h31.142c4.004,0,7.248-3.246,7.248-7.248l0,0
				c0-4.005-3.244-7.247-7.248-7.247h-31.142C295.662,111.411,292.417,114.653,292.417,118.658L292.417,118.658z"/>
			<circle fill="#21C6F9" cx="331.653" cy="115.297" r="10.608"/>
			<path fill="#21C6F9" d="M297.516,108.794c0,3.781,3.064,6.848,6.846,6.848c3.78,0,6.846-3.066,6.846-6.848
				c0-3.778-3.066-6.847-6.846-6.847C300.58,101.947,297.516,105.016,297.516,108.794z"/>
			<circle fill="#21C6F9" cx="319.476" cy="107.371" r="13.631"/>
		</g>
		<g>
			<path fill="#83E8FF" d="M311.061,100.272c0,2.554-2.07,4.625-4.627,4.625H286.55c-2.556,0-4.627-2.071-4.627-4.625l0,0
				c0-2.555,2.071-4.63,4.627-4.63h19.883C308.99,95.643,311.061,97.718,311.061,100.272L311.061,100.272z"/>
			<circle fill="#83E8FF" cx="286.01" cy="98.125" r="6.773"/>
			<path fill="#83E8FF" d="M307.806,93.975c0,2.411-1.958,4.369-4.371,4.369c-2.415,0-4.372-1.958-4.372-4.369
				c0-2.416,1.958-4.371,4.372-4.371C305.849,89.604,307.806,91.559,307.806,93.975z"/>
			<circle fill="#83E8FF" cx="293.785" cy="93.063" r="8.703"/>
		</g>
		<g>
			<g>
				<g>
					<rect x="283.913" y="232.639" fill="#B37A4D" width="1.134" height="5.977"/>
					<path fill="#3DB830" d="M284.52,208.832c0,0-5.169,9.223-5.169,17.405s5.169,8.183,5.169,8.183s5.172,0,5.172-8.183
						S284.52,208.832,284.52,208.832z"/>
					<path opacity="0.2" fill="#FFFFFF" d="M284.479,208.906c-0.466,0.851-5.129,9.559-5.129,17.331
						c0,7.774,4.663,8.162,5.129,8.181V208.906z"/>
					<rect x="280.822" y="237.759" fill="#9DB6CC" width="7.396" height="2.335"/>
				</g>
				<circle opacity="0.2" fill="#FFFFFF" cx="286.887" cy="222.602" r="0.939"/>
				<circle opacity="0.2" fill="#FFFFFF" cx="281.914" cy="225.575" r="1.358"/>
				<circle opacity="0.2" fill="#FFFFFF" cx="286.53" cy="229.262" r="1.483"/>
				<circle opacity="0.2" fill="#FFFFFF" cx="283.965" cy="218.192" r="1.603"/>
			</g>
			<g>
				<g>
					<rect x="174.836" y="232.639" fill="#B37A4D" width="1.134" height="5.977"/>
					<path fill="#3DB830" d="M175.444,208.832c0,0-5.169,9.223-5.169,17.405s5.169,8.183,5.169,8.183s5.172,0,5.172-8.183
						S175.444,208.832,175.444,208.832z"/>
					<path opacity="0.2" fill="#FFFFFF" d="M175.404,208.906c-0.466,0.851-5.129,9.559-5.129,17.331
						c0,7.774,4.663,8.162,5.129,8.181V208.906z"/>
					<rect x="171.748" y="237.759" fill="#9DB6CC" width="7.395" height="2.335"/>
				</g>
				<circle opacity="0.2" fill="#FFFFFF" cx="177.813" cy="222.602" r="0.94"/>
				<circle opacity="0.2" fill="#FFFFFF" cx="172.839" cy="225.575" r="1.358"/>
				<circle opacity="0.2" fill="#FFFFFF" cx="177.454" cy="229.262" r="1.483"/>
				<circle opacity="0.2" fill="#FFFFFF" cx="174.89" cy="218.192" r="1.603"/>
			</g>
		</g>
		<g>
			<g>
				<rect x="191.004" y="88.795" fill="#DE4747" width="11.473" height="0.943"/>
				<polygon fill="#F55B5B" points="201.375,87.361 196.741,87.361 192.105,87.361 191.004,88.795 196.741,88.795 202.477,88.795 
									"/>
			</g>
			<g>
				<rect x="207.625" y="88.795" fill="#DE4747" width="11.472" height="0.943"/>
				<polygon fill="#F55B5B" points="217.995,87.361 213.362,87.361 208.727,87.361 207.625,88.795 213.362,88.795 219.097,88.795 
									"/>
			</g>
			<g>
				<rect x="224.247" y="88.795" fill="#DE4747" width="11.472" height="0.943"/>
				<polygon fill="#F55B5B" points="234.616,87.361 229.982,87.361 225.347,87.361 224.247,88.795 229.982,88.795 235.719,88.795 
									"/>
			</g>
			<g>
				<rect x="240.868" y="88.795" fill="#DE4747" width="11.472" height="0.943"/>
				<polygon fill="#F55B5B" points="251.237,87.361 246.603,87.361 241.97,87.361 240.868,88.795 246.603,88.795 252.339,88.795 
									"/>
			</g>
			<g>
				<rect x="257.489" y="88.795" fill="#DE4747" width="11.472" height="0.943"/>
				<polygon fill="#F55B5B" points="267.858,87.361 263.225,87.361 258.59,87.361 257.489,88.795 263.225,88.795 268.961,88.795 
									"/>
			</g>
		</g>
		<g>
			<g>
				<rect x="191.004" y="113.194" fill="#DE4747" width="11.473" height="0.946"/>
				<polygon fill="#F55B5B" points="201.375,111.763 196.741,111.763 192.105,111.763 191.004,113.194 196.741,113.194 
					202.477,113.194 				"/>
			</g>
			<g>
				<rect x="207.625" y="113.194" fill="#DE4747" width="11.472" height="0.946"/>
				<polygon fill="#F55B5B" points="217.995,111.763 213.362,111.763 208.727,111.763 207.625,113.194 213.362,113.194 
					219.097,113.194 				"/>
			</g>
			<g>
				<rect x="224.247" y="113.194" fill="#DE4747" width="11.472" height="0.946"/>
				<polygon fill="#F55B5B" points="234.616,111.763 229.982,111.763 225.347,111.763 224.247,113.194 229.982,113.194 
					235.719,113.194 				"/>
			</g>
			<g>
				<rect x="240.868" y="113.194" fill="#DE4747" width="11.472" height="0.946"/>
				<polygon fill="#F55B5B" points="251.237,111.763 246.603,111.763 241.97,111.763 240.868,113.194 246.603,113.194 
					252.339,113.194 				"/>
			</g>
			<g>
				<rect x="257.489" y="113.194" fill="#DE4747" width="11.472" height="0.946"/>
				<polygon fill="#F55B5B" points="267.858,111.763 263.225,111.763 258.59,111.763 257.489,113.194 263.225,113.194 
					268.961,113.194 				"/>
			</g>
		</g>
		<g>
			<g>
				<rect x="191.004" y="137.602" fill="#DE4747" width="11.473" height="0.943"/>
				<polygon fill="#F55B5B" points="201.375,136.171 196.741,136.171 192.105,136.171 191.004,137.602 196.741,137.602 
					202.477,137.602 				"/>
			</g>
			<g>
				<rect x="207.625" y="137.602" fill="#DE4747" width="11.472" height="0.943"/>
				<polygon fill="#F55B5B" points="217.995,136.171 213.362,136.171 208.727,136.171 207.625,137.602 213.362,137.602 
					219.097,137.602 				"/>
			</g>
			<g>
				<rect x="224.247" y="137.602" fill="#DE4747" width="11.472" height="0.943"/>
				<polygon fill="#F55B5B" points="234.616,136.171 229.982,136.171 225.347,136.171 224.247,137.602 229.982,137.602 
					235.719,137.602 				"/>
			</g>
			<g>
				<rect x="240.868" y="137.602" fill="#DE4747" width="11.472" height="0.943"/>
				<polygon fill="#F55B5B" points="251.237,136.171 246.603,136.171 241.97,136.171 240.868,137.602 246.603,137.602 
					252.339,137.602 				"/>
			</g>
			<g>
				<rect x="257.489" y="137.602" fill="#DE4747" width="11.472" height="0.943"/>
				<polygon fill="#F55B5B" points="267.858,136.171 263.225,136.171 258.59,136.171 257.489,137.602 263.225,137.602 
					268.961,137.602 				"/>
			</g>
		</g>
		<g>
			<g>
				<rect x="191.004" y="162.004" fill="#DE4747" width="11.473" height="0.945"/>
				<polygon fill="#F55B5B" points="201.375,160.571 196.741,160.571 192.105,160.571 191.004,162.004 196.741,162.004 
					202.477,162.004 				"/>
			</g>
			<g>
				<rect x="207.625" y="162.004" fill="#DE4747" width="11.472" height="0.945"/>
				<polygon fill="#F55B5B" points="217.995,160.571 213.362,160.571 208.727,160.571 207.625,162.004 213.362,162.004 
					219.097,162.004 				"/>
			</g>
			<g>
				<rect x="224.247" y="162.004" fill="#DE4747" width="11.472" height="0.945"/>
				<polygon fill="#F55B5B" points="234.616,160.571 229.982,160.571 225.347,160.571 224.247,162.004 229.982,162.004 
					235.719,162.004 				"/>
			</g>
			<g>
				<rect x="240.868" y="162.004" fill="#DE4747" width="11.472" height="0.945"/>
				<polygon fill="#F55B5B" points="251.237,160.571 246.603,160.571 241.97,160.571 240.868,162.004 246.603,162.004 
					252.339,162.004 				"/>
			</g>
			<g>
				<rect x="257.489" y="162.004" fill="#DE4747" width="11.472" height="0.945"/>
				<polygon fill="#F55B5B" points="267.858,160.571 263.225,160.571 258.59,160.571 257.489,162.004 263.225,162.004 
					268.961,162.004 				"/>
			</g>
		</g>
		<g>
			<g>
				<rect x="191.004" y="186.4" fill="#DE4747" width="11.473" height="0.944"/>
				<polygon fill="#F55B5B" points="201.375,184.967 196.741,184.967 192.105,184.967 191.004,186.4 196.741,186.4 202.477,186.4 
									"/>
			</g>
			<g>
				<rect x="207.625" y="186.4" fill="#DE4747" width="11.472" height="0.944"/>
				<polygon fill="#F55B5B" points="217.995,184.967 213.362,184.967 208.727,184.967 207.625,186.4 213.362,186.4 219.097,186.4 
									"/>
			</g>
			<g>
				<rect x="224.247" y="186.4" fill="#DE4747" width="11.472" height="0.944"/>
				<polygon fill="#F55B5B" points="234.616,184.967 229.982,184.967 225.347,184.967 224.247,186.4 229.982,186.4 235.719,186.4 
									"/>
			</g>
			<g>
				<rect x="240.868" y="186.4" fill="#DE4747" width="11.472" height="0.944"/>
				<polygon fill="#F55B5B" points="251.237,184.967 246.603,184.967 241.97,184.967 240.868,186.4 246.603,186.4 252.339,186.4 
									"/>
			</g>
			<g>
				<rect x="257.489" y="186.4" fill="#DE4747" width="11.472" height="0.944"/>
				<polygon fill="#F55B5B" points="267.858,184.967 263.225,184.967 258.59,184.967 257.489,186.4 263.225,186.4 268.961,186.4 
									"/>
			</g>
		</g>
		<g>
			<g>
				<rect x="191.004" y="88.795" fill="#DE4747" width="11.473" height="0.943"/>
				<polygon fill="#F55B5B" points="201.375,87.361 196.741,87.361 192.105,87.361 191.004,88.795 196.741,88.795 202.477,88.795 
									"/>
			</g>
			<g>
				<rect x="207.625" y="88.795" fill="#DE4747" width="11.472" height="0.943"/>
				<polygon fill="#F55B5B" points="217.995,87.361 213.362,87.361 208.727,87.361 207.625,88.795 213.362,88.795 219.097,88.795 
									"/>
			</g>
			<g>
				<rect x="224.247" y="88.795" fill="#DE4747" width="11.472" height="0.943"/>
				<polygon fill="#F55B5B" points="234.616,87.361 229.982,87.361 225.347,87.361 224.247,88.795 229.982,88.795 235.719,88.795 
									"/>
			</g>
			<g>
				<rect x="240.868" y="88.795" fill="#DE4747" width="11.472" height="0.943"/>
				<polygon fill="#F55B5B" points="251.237,87.361 246.603,87.361 241.97,87.361 240.868,88.795 246.603,88.795 252.339,88.795 
									"/>
			</g>
			<g>
				<rect x="257.489" y="88.795" fill="#DE4747" width="11.472" height="0.943"/>
				<polygon fill="#F55B5B" points="267.858,87.361 263.225,87.361 258.59,87.361 257.489,88.795 263.225,88.795 268.961,88.795 
									"/>
			</g>
		</g>
		<g>
			<g>
				<rect x="180.616" y="88.795" fill="#DE4747" width="5.952" height="0.943"/>
				<polygon fill="#F55B5B" points="186.568,87.361 180.616,88.795 185.084,88.795 186.568,88.795 				"/>
			</g>
			<g>
				<rect x="180.616" y="113.194" fill="#DE4747" width="5.952" height="0.946"/>
				<polygon fill="#F55B5B" points="186.568,111.763 180.616,113.194 185.084,113.194 186.568,113.194 				"/>
			</g>
			<g>
				<rect x="180.616" y="137.602" fill="#DE4747" width="5.952" height="0.943"/>
				<polygon fill="#F55B5B" points="186.568,136.171 180.616,137.602 185.084,137.602 186.568,137.602 				"/>
			</g>
			<g>
				<rect x="180.616" y="162.004" fill="#DE4747" width="5.952" height="0.945"/>
				<polygon fill="#F55B5B" points="186.568,160.571 180.616,162.004 185.084,162.004 186.568,162.004 				"/>
			</g>
			<g>
				<rect x="180.616" y="186.4" fill="#DE4747" width="5.952" height="0.944"/>
				<polygon fill="#F55B5B" points="186.568,184.967 180.616,186.4 185.084,186.4 186.568,186.4 				"/>
			</g>
		</g>
		<g>
			<g>
				<rect x="273.396" y="88.795" fill="#DE4747" width="5.954" height="0.943"/>
				<polygon fill="#F55B5B" points="273.396,87.361 279.35,88.795 274.881,88.795 273.396,88.795 				"/>
			</g>
			<g>
				<rect x="273.396" y="113.194" fill="#DE4747" width="5.954" height="0.946"/>
				<polygon fill="#F55B5B" points="273.396,111.763 279.35,113.194 274.881,113.194 273.396,113.194 				"/>
			</g>
			<g>
				<rect x="273.396" y="137.602" fill="#DE4747" width="5.954" height="0.943"/>
				<polygon fill="#F55B5B" points="273.396,136.171 279.35,137.602 274.881,137.602 273.396,137.602 				"/>
			</g>
			<g>
				<rect x="273.396" y="162.004" fill="#DE4747" width="5.954" height="0.945"/>
				<polygon fill="#F55B5B" points="273.396,160.571 279.35,162.004 274.881,162.004 273.396,162.004 				"/>
			</g>
			<g>
				<rect x="273.396" y="186.4" fill="#DE4747" width="5.954" height="0.944"/>
				<polygon fill="#F55B5B" points="273.396,184.967 279.35,186.4 274.881,186.4 273.396,186.4 				"/>
			</g>
		</g>
		<g>
			<g>
				<rect x="214.466" y="218.477" fill="#8AA0B3" width="1.028" height="17.999"/>
				<rect x="213.63" y="235.21" fill="#7C90A1" width="2.701" height="4.884"/>
			</g>
			<g>
				<rect x="244.47" y="218.477" fill="#8AA0B3" width="1.027" height="17.999"/>
				<rect x="243.634" y="235.21" fill="#7C90A1" width="2.701" height="4.884"/>
			</g>
		</g>
		<g>
			<g>
				<path fill="#DE4747" d="M247.656,221.804c-1.663-7.752-8.943-13.589-17.674-13.589c-8.73,0-16.011,5.837-17.673,13.589H247.656z
					"/>
				<path fill="#F55B5B" d="M244.517,221.804c-1.367-7.752-7.353-13.589-14.534-13.589c-7.18,0-13.167,5.837-14.534,13.589H244.517z
					"/>
				<path fill="#DE4747" d="M240.078,221.804c-0.949-7.752-5.107-13.589-10.095-13.589c-4.987,0-9.146,5.837-10.096,13.589H240.078z
					"/>
				<path fill="#F55B5B" d="M233.91,221.804c-0.369-7.752-1.987-13.589-3.928-13.589c-1.939,0-3.558,5.837-3.927,13.589H233.91z"/>
			</g>
			<g>
				<path fill="#B33939" d="M214.516,223.984c1.22,0,2.21-0.976,2.21-2.181h-4.419C212.307,223.009,213.296,223.984,214.516,223.984
					z"/>
				<path fill="#B33939" d="M218.936,223.984c1.22,0,2.209-0.976,2.209-2.181h-4.418
					C216.726,223.009,217.715,223.984,218.936,223.984z"/>
				<path fill="#B33939" d="M223.354,223.984c1.221,0,2.208-0.976,2.208-2.181h-4.418
					C221.145,223.009,222.133,223.984,223.354,223.984z"/>
				<path fill="#B33939" d="M227.773,223.984c1.22,0,2.209-0.976,2.209-2.181h-4.419
					C225.563,223.009,226.554,223.984,227.773,223.984z"/>
				<path fill="#B33939" d="M232.191,223.984c1.221,0,2.209-0.976,2.209-2.181h-4.418
					C229.982,223.009,230.972,223.984,232.191,223.984z"/>
				<path fill="#B33939" d="M236.611,223.984c1.22,0,2.208-0.976,2.208-2.181H234.4C234.4,223.009,235.391,223.984,236.611,223.984z
					"/>
				<path fill="#B33939" d="M241.03,223.984c1.219,0,2.208-0.976,2.208-2.181h-4.419C238.819,223.009,239.81,223.984,241.03,223.984
					z"/>
				<path fill="#B33939" d="M245.447,223.984c1.221,0,2.21-0.976,2.21-2.181h-4.419
					C243.238,223.009,244.228,223.984,245.447,223.984z"/>
			</g>
		</g>
		<g>
			<g>
				<g>
					<g>
						<rect x="207.141" y="233.623" fill="#B37A4D" width="0.848" height="4.645"/>
						<g>
							<polygon fill="#B34F39" points="207.54,236.253 205.294,236.253 206.029,240.094 207.54,240.094 209.049,240.094 
								209.786,236.253 							"/>
							<polygon fill="#CF5B42" points="205.57,237.69 209.509,237.69 209.621,237.108 205.457,237.108 							"/>
							<polygon opacity="0.1" fill="#FFFFFF" points="207.54,236.253 207.54,236.253 205.294,236.253 206.029,240.094 
								207.54,240.094 207.54,240.094 							"/>
						</g>
					</g>
					<g>
						<path fill="#3DB830" d="M211.218,230.319c0,2.853-1.647,3.902-3.679,3.902c-2.032,0-3.679-1.05-3.679-3.902
							s2.53-6.435,3.679-6.435S211.218,227.467,211.218,230.319z"/>
						<path opacity="0.2" fill="#FFFFFF" d="M203.86,230.319c0,2.853,1.647,3.902,3.679,3.902v-10.337
							C206.39,223.885,203.86,227.465,203.86,230.319z"/>
						<circle opacity="0.2" fill="#FFFFFF" cx="207.262" cy="227.037" r="1.107"/>
						<circle opacity="0.2" fill="#FFFFFF" cx="208.992" cy="231.768" r="1.202"/>
						<path opacity="0.2" fill="#FFFFFF" d="M206.724,230.578c0,0.439-0.354,0.793-0.791,0.793c-0.438,0-0.791-0.354-0.791-0.793
							c0-0.434,0.353-0.791,0.791-0.791C206.37,229.787,206.724,230.145,206.724,230.578z"/>
					</g>
				</g>
				<g>
					<g>
						<rect x="197.135" y="233.623" fill="#B37A4D" width="0.848" height="4.645"/>
						<g>
							<polygon fill="#B34F39" points="197.533,236.253 195.288,236.253 196.024,240.094 197.533,240.094 199.043,240.094 
								199.78,236.253 							"/>
							<polygon fill="#CF5B42" points="195.565,237.69 199.504,237.69 199.615,237.108 195.453,237.108 							"/>
							<polygon opacity="0.1" fill="#FFFFFF" points="197.533,236.253 197.533,236.253 195.288,236.253 196.024,240.094 
								197.533,240.094 197.533,240.094 							"/>
						</g>
					</g>
					<g>
						<path fill="#3DB830" d="M201.212,230.319c0,2.853-1.647,3.902-3.679,3.902c-2.03,0-3.679-1.05-3.679-3.902
							s2.53-6.435,3.679-6.435C198.684,223.885,201.212,227.467,201.212,230.319z"/>
						<path opacity="0.2" fill="#FFFFFF" d="M193.854,230.319c0,2.853,1.648,3.902,3.679,3.902v-10.337
							C196.384,223.885,193.854,227.465,193.854,230.319z"/>
						<circle opacity="0.2" fill="#FFFFFF" cx="197.257" cy="227.037" r="1.107"/>
						<circle opacity="0.2" fill="#FFFFFF" cx="198.987" cy="231.768" r="1.203"/>
						<path opacity="0.2" fill="#FFFFFF" d="M196.719,230.578c0,0.439-0.354,0.793-0.791,0.793c-0.438,0-0.79-0.354-0.79-0.793
							c0-0.434,0.353-0.791,0.79-0.791C196.365,229.787,196.719,230.145,196.719,230.578z"/>
					</g>
				</g>
			</g>
			<g>
				<g>
					<g>
						<rect x="262.032" y="233.623" fill="#B37A4D" width="0.848" height="4.645"/>
						<g>
							<polygon fill="#B34F39" points="262.43,236.253 260.186,236.253 260.922,240.094 262.43,240.094 263.94,240.094 
								264.677,236.253 							"/>
							<polygon fill="#CF5B42" points="260.461,237.69 264.401,237.69 264.512,237.108 260.349,237.108 							"/>
							<polygon opacity="0.1" fill="#FFFFFF" points="262.43,236.253 262.43,236.253 260.186,236.253 260.922,240.094 
								262.43,240.094 262.43,240.094 							"/>
						</g>
					</g>
					<g>
						<path fill="#3DB830" d="M266.111,230.319c0,2.853-1.649,3.902-3.681,3.902c-2.031,0-3.679-1.05-3.679-3.902
							s2.531-6.435,3.679-6.435C263.58,223.885,266.111,227.467,266.111,230.319z"/>
						<path opacity="0.2" fill="#FFFFFF" d="M258.751,230.319c0,2.853,1.648,3.902,3.679,3.902v-10.337
							C261.282,223.885,258.751,227.465,258.751,230.319z"/>
						<circle opacity="0.2" fill="#FFFFFF" cx="262.153" cy="227.037" r="1.107"/>
						<circle opacity="0.2" fill="#FFFFFF" cx="263.884" cy="231.768" r="1.203"/>
						<path opacity="0.2" fill="#FFFFFF" d="M261.616,230.578c0,0.439-0.355,0.793-0.792,0.793s-0.792-0.354-0.792-0.793
							c0-0.434,0.355-0.791,0.792-0.791S261.616,230.145,261.616,230.578z"/>
					</g>
				</g>
				<g>
					<g>
						<rect x="252.028" y="233.623" fill="#B37A4D" width="0.847" height="4.645"/>
						<g>
							<polygon fill="#B34F39" points="252.425,236.253 250.18,236.253 250.916,240.094 252.425,240.094 253.935,240.094 
								254.671,236.253 							"/>
							<polygon fill="#CF5B42" points="250.456,237.69 254.396,237.69 254.508,237.108 250.344,237.108 							"/>
							<polygon opacity="0.1" fill="#FFFFFF" points="252.425,236.253 252.425,236.253 250.18,236.253 250.916,240.094 
								252.425,240.094 252.425,240.094 							"/>
						</g>
					</g>
					<g>
						<path fill="#3DB830" d="M256.104,230.319c0,2.853-1.647,3.902-3.678,3.902c-2.032,0-3.678-1.05-3.678-3.902
							s2.529-6.435,3.678-6.435S256.104,227.467,256.104,230.319z"/>
						<path opacity="0.2" fill="#FFFFFF" d="M248.747,230.319c0,2.853,1.646,3.902,3.678,3.902v-10.337
							C251.276,223.885,248.747,227.465,248.747,230.319z"/>
						<circle opacity="0.2" fill="#FFFFFF" cx="252.148" cy="227.037" r="1.107"/>
						<circle opacity="0.2" fill="#FFFFFF" cx="253.878" cy="231.768" r="1.203"/>
						<path opacity="0.2" fill="#FFFFFF" d="M251.61,230.578c0,0.439-0.354,0.793-0.792,0.793c-0.436,0-0.79-0.354-0.79-0.793
							c0-0.434,0.354-0.791,0.79-0.791C251.256,229.787,251.61,230.145,251.61,230.578z"/>
					</g>
				</g>
			</g>
		</g>
	</g>
	<g>
		<g>
			<rect x="320.436" y="232.061" fill="#B37A4D" width="1.135" height="5.976"/>
			<path fill="#3DB830" d="M321.043,208.254c0,0-5.169,9.223-5.169,17.404c0,8.184,5.169,8.184,5.169,8.184s5.172,0,5.172-8.184
				C326.215,217.477,321.043,208.254,321.043,208.254z"/>
			<path opacity="0.2" fill="#FFFFFF" d="M321.003,208.328c-0.466,0.852-5.129,9.559-5.129,17.33c0,7.775,4.664,8.163,5.129,8.181
				V208.328z"/>
			<rect x="317.346" y="237.181" fill="#9DB6CC" width="7.396" height="2.335"/>
		</g>
		<circle opacity="0.2" fill="#FFFFFF" cx="323.411" cy="222.023" r="0.939"/>
		<circle opacity="0.2" fill="#FFFFFF" cx="318.438" cy="224.997" r="1.358"/>
		<circle opacity="0.2" fill="#FFFFFF" cx="323.054" cy="228.683" r="1.483"/>
		<circle opacity="0.2" fill="#FFFFFF" cx="320.489" cy="217.613" r="1.603"/>
	</g>
	<g>
		<g>
			<rect x="358.278" y="232.061" fill="#B37A4D" width="1.135" height="5.976"/>
			<path fill="#3DB830" d="M358.886,208.254c0,0-5.17,9.223-5.17,17.404c0,8.184,5.17,8.184,5.17,8.184s5.172,0,5.172-8.184
				C364.058,217.477,358.886,208.254,358.886,208.254z"/>
			<path opacity="0.2" fill="#FFFFFF" d="M358.846,208.328c-0.466,0.852-5.13,9.559-5.13,17.33c0,7.775,4.664,8.163,5.13,8.181
				V208.328z"/>
			<rect x="355.188" y="237.181" fill="#9DB6CC" width="7.396" height="2.335"/>
		</g>
		<circle opacity="0.2" fill="#FFFFFF" cx="361.253" cy="222.023" r="0.939"/>
		<circle opacity="0.2" fill="#FFFFFF" cx="356.28" cy="224.997" r="1.358"/>
		<circle opacity="0.2" fill="#FFFFFF" cx="360.896" cy="228.683" r="1.483"/>
		<circle opacity="0.2" fill="#FFFFFF" cx="358.331" cy="217.613" r="1.603"/>
	</g>
	<g>
		<g>
			<rect x="402.285" y="232.061" fill="#B37A4D" width="1.134" height="5.976"/>
			<path fill="#3DB830" d="M402.892,208.254c0,0-5.169,9.223-5.169,17.404c0,8.184,5.169,8.184,5.169,8.184s5.172,0,5.172-8.184
				C408.063,217.477,402.892,208.254,402.892,208.254z"/>
			<path opacity="0.2" fill="#FFFFFF" d="M402.852,208.328c-0.466,0.852-5.129,9.559-5.129,17.33c0,7.775,4.663,8.163,5.129,8.181
				V208.328z"/>
			<rect x="399.194" y="237.181" fill="#9DB6CC" width="7.396" height="2.335"/>
		</g>
		<circle opacity="0.2" fill="#FFFFFF" cx="405.259" cy="222.023" r="0.939"/>
		<circle opacity="0.2" fill="#FFFFFF" cx="400.286" cy="224.997" r="1.358"/>
		<circle opacity="0.2" fill="#FFFFFF" cx="404.902" cy="228.683" r="1.483"/>
		<circle opacity="0.2" fill="#FFFFFF" cx="402.337" cy="217.613" r="1.603"/>
	</g>
	<g>
		<g>
			<rect x="50.763" y="232.061" fill="#B37A4D" width="1.135" height="5.976"/>
			<path fill="#3DB830" d="M51.37,208.254c0,0-5.169,9.223-5.169,17.404c0,8.184,5.169,8.184,5.169,8.184s5.172,0,5.172-8.184
				C56.542,217.477,51.37,208.254,51.37,208.254z"/>
			<path opacity="0.2" fill="#FFFFFF" d="M51.33,208.328c-0.466,0.852-5.13,9.559-5.13,17.33c0,7.775,4.664,8.163,5.13,8.181
				V208.328z"/>
			<rect x="47.672" y="237.181" fill="#9DB6CC" width="7.396" height="2.335"/>
		</g>
		<circle opacity="0.2" fill="#FFFFFF" cx="53.737" cy="222.023" r="0.939"/>
		<circle opacity="0.2" fill="#FFFFFF" cx="48.765" cy="224.997" r="1.358"/>
		<circle opacity="0.2" fill="#FFFFFF" cx="53.38" cy="228.683" r="1.483"/>
		<circle opacity="0.2" fill="#FFFFFF" cx="50.815" cy="217.613" r="1.603"/>
	</g>
	<g>
		<g>
			<rect x="88.604" y="232.061" fill="#B37A4D" width="1.135" height="5.976"/>
			<path fill="#3DB830" d="M89.212,208.254c0,0-5.169,9.223-5.169,17.404c0,8.184,5.169,8.184,5.169,8.184s5.172,0,5.172-8.184
				C94.384,217.477,89.212,208.254,89.212,208.254z"/>
			<path opacity="0.2" fill="#FFFFFF" d="M89.172,208.328c-0.466,0.852-5.129,9.559-5.129,17.33c0,7.775,4.664,8.163,5.129,8.181
				V208.328z"/>
			<rect x="85.514" y="237.181" fill="#9DB6CC" width="7.396" height="2.335"/>
		</g>
		<circle opacity="0.2" fill="#FFFFFF" cx="91.58" cy="222.023" r="0.939"/>
		<circle opacity="0.2" fill="#FFFFFF" cx="86.607" cy="224.997" r="1.358"/>
		<circle opacity="0.2" fill="#FFFFFF" cx="91.222" cy="228.683" r="1.483"/>
		<circle opacity="0.2" fill="#FFFFFF" cx="88.657" cy="217.613" r="1.603"/>
	</g>
	<g>
		<g>
			<rect x="132.611" y="232.061" fill="#B37A4D" width="1.134" height="5.976"/>
			<path fill="#3DB830" d="M133.218,208.254c0,0-5.169,9.223-5.169,17.404c0,8.184,5.169,8.184,5.169,8.184s5.172,0,5.172-8.184
				C138.39,217.477,133.218,208.254,133.218,208.254z"/>
			<path opacity="0.2" fill="#FFFFFF" d="M133.178,208.328c-0.466,0.852-5.129,9.559-5.129,17.33c0,7.775,4.663,8.163,5.129,8.181
				V208.328z"/>
			<rect x="129.521" y="237.181" fill="#9DB6CC" width="7.396" height="2.335"/>
		</g>
		<circle opacity="0.2" fill="#FFFFFF" cx="135.586" cy="222.023" r="0.939"/>
		<circle opacity="0.2" fill="#FFFFFF" cx="130.613" cy="224.997" r="1.358"/>
		<circle opacity="0.2" fill="#FFFFFF" cx="135.229" cy="228.683" r="1.483"/>
		<circle opacity="0.2" fill="#FFFFFF" cx="132.663" cy="217.613" r="1.603"/>
	</g>
</g>
</svg>
