<?xml version="1.0" encoding="utf-8"?>
<!-- Generator: Adobe Illustrator 16.0.0, SVG Export Plug-In . SVG Version: 6.00 Build 0)  -->
<!DOCTYPE svg PUBLIC "-//W3C//DTD SVG 1.1//EN" "http://www.w3.org/Graphics/SVG/1.1/DTD/svg11.dtd">
<svg version="1.1" id="Layer_1" xmlns="http://www.w3.org/2000/svg" xmlns:xlink="http://www.w3.org/1999/xlink" x="0px" y="0px"
	 width="244px" height="168.334px" viewBox="0 0 244 168.334" enable-background="new 0 0 244 168.334" xml:space="preserve">
<g>
	<g>
		<g>
			<path fill="#F0F0F0" stroke="#808285" stroke-width="0.25" stroke-miterlimit="10" d="M135.297,54.983
				c-1.261-12.482-8.705-41.727-8.705-41.727s-13.195-2.894-23.277,4.071c0,0,2.041,30.191,4.729,42.423
				c4.74,21.579,15.518,25.327,16.283,26.071s5.789,32.35,5.815,33.513c0.024,1.164-0.696,5.763-3.165,7.515
				c-2.471,1.751-6.404,3.431-6.404,3.431l0.289,1.82c0,0,3.766,1.315,13.352-0.438c9.582-1.755,12.756-4.134,12.756-4.134
				l-0.287-1.817c0,0-4.246-0.247-7.125-1.063c-2.877-0.813-4.988-4.92-5.326-6.03c-0.339-1.105-6.725-32.474-6.232-33.436
				C128.492,84.216,137.52,77.001,135.297,54.983z"/>
			
				<linearGradient id="SVGID_1_" gradientUnits="userSpaceOnUse" x1="120.1167" y1="104.5938" x2="120.1167" y2="47.8691" gradientTransform="matrix(1 0.0349 0 1 0 -23.6189)">
				<stop  offset="0" style="stop-color:#15C10E"/>
				<stop  offset="0.1146" style="stop-color:#1BC30D"/>
				<stop  offset="0.2751" style="stop-color:#2ECA0C"/>
				<stop  offset="0.4627" style="stop-color:#4CD40A"/>
				<stop  offset="0.6709" style="stop-color:#75E306"/>
				<stop  offset="0.8934" style="stop-color:#AAF502"/>
				<stop  offset="1" style="stop-color:#C6FF00"/>
			</linearGradient>
			<path opacity="0.7" fill="url(#SVGID_1_)" d="M106.717,34.772l23.471,2.568c0,0,9.877,40.376-4.396,43.579
				C110.182,84.424,107.247,41.526,106.717,34.772z"/>
			<path opacity="0.4" fill="#FFFFFF" d="M127.672,50.066c-1.301-0.043-2.357,1.013-2.357,2.365c0,1.352,1.057,2.482,2.357,2.529
				c1.304,0.045,2.359-1.012,2.359-2.363S128.976,50.113,127.672,50.066z M127.911,50.866c-0.834-0.031-1.509,0.646-1.509,1.511
				c0,0.391,0.137,0.752,0.367,1.033c-0.432-0.288-0.722-0.791-0.722-1.356c0-0.863,0.675-1.542,1.508-1.513
				c0.456,0.016,0.864,0.24,1.14,0.582C128.467,50.971,128.197,50.875,127.911,50.866z"/>
			<path opacity="0.4" fill="#FFFFFF" d="M123.891,68.732c-1.324-0.046-2.396,1.027-2.396,2.402c0,1.373,1.071,2.522,2.396,2.568
				c1.324,0.047,2.395-1.029,2.395-2.404C126.285,69.931,125.215,68.777,123.891,68.732z M124.131,69.541
				c-0.845-0.029-1.531,0.66-1.531,1.537c0,0.398,0.14,0.766,0.373,1.051c-0.439-0.295-0.734-0.805-0.734-1.379
				c0-0.877,0.686-1.566,1.533-1.537c0.464,0.016,0.875,0.246,1.159,0.593C124.699,69.648,124.426,69.553,124.131,69.541z"/>
			<path opacity="0.4" fill="#FFFFFF" d="M118.184,55.225c-1.918-0.069-3.473,1.49-3.473,3.478c0,1.99,1.555,3.655,3.473,3.724
				c1.918,0.066,3.471-1.491,3.471-3.48C121.654,56.957,120.102,55.291,118.184,55.225z M118.572,56.406
				c-1.242-0.044-2.25,0.969-2.25,2.256c0,0.587,0.207,1.124,0.547,1.547c-0.646-0.435-1.078-1.187-1.078-2.029
				c0-1.291,1.01-2.302,2.252-2.259c0.683,0.023,1.293,0.361,1.705,0.869C119.404,56.563,119.002,56.42,118.572,56.406z"/>
			<g>
				<path opacity="0.4" fill="#FFFFFF" d="M112.928,41.24c-1.82-0.061-3.295,1.416-3.295,3.306c0,1.887,1.475,3.469,3.295,3.534
					c1.82,0.063,3.295-1.416,3.295-3.305S114.748,41.306,112.928,41.24z M113.259,42.356c-1.164-0.041-2.106,0.907-2.106,2.115
					c0,0.544,0.193,1.049,0.514,1.444c-0.604-0.406-1.008-1.109-1.008-1.9c0-1.208,0.941-2.154,2.105-2.111
					c0.639,0.021,1.207,0.337,1.595,0.813C114.037,42.501,113.661,42.372,113.259,42.356z"/>
			</g>
			
				<linearGradient id="SVGID_2_" gradientUnits="userSpaceOnUse" x1="542.1079" y1="-83.0288" x2="542.1079" y2="-128.5347" gradientTransform="matrix(-1.3378 0.4921 0.3736 0.9406 891.7281 -127.2187)">
				<stop  offset="0" style="stop-color:#FFFFFF;stop-opacity:0"/>
				<stop  offset="0.5409" style="stop-color:#FFFFFF"/>
				<stop  offset="1" style="stop-color:#FFFFFF;stop-opacity:0"/>
			</linearGradient>
			<path fill="url(#SVGID_2_)" d="M123.01,17.371c0,0,6.451,22.43,8.07,45.702c0,0-7.177-33.528-11.41-44.859L123.01,17.371z"/>
			<path fill="#EBB07E" d="M168.348,127.605c-9.24-2.385-22.299-5.051-29.193-7.707c-6.892-2.654-14.95-7.951-15.937-8.82
				c-0.984-0.87-0.516-4.076,0.806-5.455c0.768-0.798,8.554-0.271,9.292-0.247c0.737,0.029-8.277-2.327-9.343-2.534
				c-1.064-0.209-7.943,0.357-8.686-0.132c-0.746-0.492-1.314-4.214-1.314-4.214s-5.161,0.078-5.568-0.53
				c-0.412-0.614-1.313-2.938-0.168-4.261c1.15-1.318,10.9-4.547,13.114-5.065c2.214-0.52,11.554-0.702,14.013-0.702
				c2.461,0,4.344-0.188,4.344-0.188s-15.948-3.463-28.436,2.579c-0.328,0.158-1.067,0.646-2.46,0.425
				c-1.392-0.221-2.212-3.988-1.721-4.735c0.491-0.746,7.212-4.339,8.604-4.97c1.395-0.633,12.784-3.976,14.016-4.104
				c1.229-0.124,19.095,3.303,21.308,3.977c2.211,0.671,8.11,4.788,8.438,4.968c0.328,0.182,17.351,16.401,27.946,20.354
				c7.786,2.907,45.283,1.262,45.283,1.262s0,37.482,0,37.226C232.686,144.477,182.402,131.23,168.348,127.605z"/>
			<path fill="#EBCAAE" d="M113.893,91.948c0,0,1.639,3.884-0.328,4.495c-3.48,1.083-5.082,1.863-5.572,1.508
				c-0.49-0.358-1.311-3.363-0.326-4.264C108.648,92.786,113.564,91.343,113.893,91.948z"/>
			<path fill="#EBCAAE" d="M111.789,83.792c0,0,1.375,3.896-0.158,4.788c-2.715,1.577-3.336,1.65-3.885,1.709
				c-0.484,0.054-1.572-2.813-0.818-3.886C107.68,85.33,111.516,83.193,111.789,83.792z"/>
			<g opacity="0.7">
				<path fill="#CC895C" d="M123.973,102.842c0.826,0.158,6.434,1.611,8.564,2.244c0.719,0.027,1.188,0.05,1.188,0.05
					c-1.967-2.107-9.334-3.635-10.9-3.694c-2.799-0.109-2.31-3.046-2.209-4.677c0.174-2.823,17.043-0.673,17.043-0.673
					s-11.227-2.687-14.178-2.277c-2.285,0.315-10.368,3.18-14.011,4.492c1.628,0.233,4.503,0.189,4.503,0.189
					s0.617,3.682,1.314,4.214C115.984,103.24,122.908,102.633,123.973,102.842z"/>
			</g>
			<path opacity="0.7" fill="#CC895C" d="M133.282,85.067c-2.683-0.243-7.325-0.931-15.011,1.435c-5,1.536-8.004,3.24-9.494,4.242
				c0.012,0,0.023,0.006,0.034,0.009c1.393,0.221,2.132-0.267,2.46-0.425c12.487-6.042,28.436-2.579,28.436-2.579
				C140.477,87.677,135.967,85.312,133.282,85.067z"/>
		</g>
		<g>
			<path opacity="0.7" fill="#FF4F14" d="M47.654,61.041c0,0-3.102-4.896-5.375-5.037c-2.271-0.141-0.422,5.817,1.91,8.303
				C46.52,66.789,48.833,62.744,47.654,61.041z"/>
			<path fill="#EBB07E" d="M48.907,148.99c0,0,8.817-33.584,23.567-46.412C84.487,92.126,89.806,90.326,89.96,89.023
				c0.152-1.301-3.997-3.897-3.997-3.897s0.809-4.827,0.223-5.941c-0.584-1.114,2.484-4.642-2.06-8.167l-1.11-22.28
				c0,0-1.318-0.743-3.3,1.673c-1.983,2.412-2.712,10.394-2.712,10.394l-16.59-2.597l-7.922,9.84c0,0-2.934-5.941-4.462-7.799
				c-1.536-1.854-7.737-5.013-4.983,1.3c2.759,6.313,5.384,14.853,5.977,16.338c0.596,1.486-2.188,9.097-2.33,10.769
				s1.719,16.895,2.028,21.906c0.312,5.013-23.221,31.006-31.574,38.43H48.907z"/>
			<g>
				<polygon fill="none" stroke="#1D1D1B" stroke-width="0.25" stroke-miterlimit="10" points="86.571,91.779 86.578,91.773 
					86.578,91.773 				"/>
				<path opacity="0.4" fill="#CC895C" d="M46.098,122.006l11.504-3.136l2.961-26.888l2.9-3.367c0,0-1.842,7.372,5.225,9.29
					c6.85,1.857,14.252-3.74,17.081-5.588c-2.846,1.919-7.291,4.896-13.294,10.261c-8.795,7.858-14.821,21.443-17.967,29.385
					C54.346,124.845,46.098,122.006,46.098,122.006z"/>
			</g>
			<path fill="#F0F0F0" stroke="#808285" stroke-width="0.25" stroke-miterlimit="10" d="M55.067,118.002
				c0.978-1.65,3.213-18.769,3.632-24.336c0.418-5.57-1.643-6.311-3.999-11.51s-7.841-24.135,5.73-68.136
				c0,0,11.681-0.556,21.243,3.158c0,0,0.236,16.407-1.332,32.545c-0.702,1.2-1.572,3.519-1.68,7.184
				c-0.063,2.175-0.009,3.772,0.09,4.935c-0.488,2.761-1.055,5.362-1.717,7.69C72.043,87.087,64.469,84.58,62.627,94.783
				c-2.104,11.654-3.688,23.126-2.543,24.426c1.396,1.582,5.688,3.854,9.771,4.902l-0.141,1.856c0,0-14.79,1.554-26.867-5.38
				l0.455-1.605C43.303,118.982,54.123,119.585,55.067,118.002z"/>
			<path fill="#CD8A5D" d="M85.098,77.734l-8.88-5.573C76.218,72.161,82.072,74.438,85.098,77.734z"/>
			<path fill="#CD8A5D" d="M84.91,90.303c0,0-6.994-3.162-7.854-3.182c-0.861-0.021-4.586,1.301-5.355,1.16
				c-0.771-0.14-1.902-0.836-1.902-0.836s1.755,0.489,3.484,0.072s4.156-0.836,4.503-0.908
				C78.131,86.542,83.912,89.466,84.91,90.303z"/>
			<path fill="#CD8A5D" d="M85.005,84.501c0,0-3.165-1.273-6.341-1.273c0,0,1.172-2.964,1.059-3.509c0,0-2.662-1.37-3.172-2.014
				l-1.424-1.031l4.987,2.796l-0.644,3.278C79.471,82.748,82.894,83.41,85.005,84.501z"/>
			
				<linearGradient id="SVGID_3_" gradientUnits="userSpaceOnUse" x1="943.8242" y1="84.8809" x2="943.8242" y2="37.7856" gradientTransform="matrix(-1 0 0.0249 1 1009.1438 0)">
				<stop  offset="0" style="stop-color:#15C10E"/>
				<stop  offset="0.1146" style="stop-color:#1BC30D"/>
				<stop  offset="0.2751" style="stop-color:#2ECA0C"/>
				<stop  offset="0.4627" style="stop-color:#4CD40A"/>
				<stop  offset="0.6709" style="stop-color:#75E306"/>
				<stop  offset="0.8934" style="stop-color:#AAF502"/>
				<stop  offset="1" style="stop-color:#C6FF00"/>
			</linearGradient>
			<path opacity="0.7" fill="url(#SVGID_3_)" d="M79.596,38.156l-22.892-0.37c0,0-9.504,44.166,4.929,46.97
				C76.752,87.688,79.596,38.156,79.596,38.156z"/>
			<path fill="#EBB07E" d="M65.342,72.161l12.256,0.919l-1.865,3.508c0,0-4.947-0.829-7.887-1.3
				C64.902,74.816,65.342,72.161,65.342,72.161z"/>
			<path opacity="0.4" fill="#FFFFFF" d="M69.754,47.188c-1.443,0-2.581,1.168-2.545,2.607c0.036,1.438,1.232,2.607,2.672,2.607
				c1.441,0,2.577-1.169,2.54-2.607C72.386,48.355,71.189,47.188,69.754,47.188z M70.035,48.028c-0.92,0-1.65,0.748-1.627,1.666
				c0.012,0.419,0.174,0.797,0.436,1.09c-0.486-0.293-0.818-0.817-0.835-1.42c-0.022-0.92,0.704-1.669,1.628-1.669
				c0.502,0,0.958,0.229,1.273,0.579C70.652,48.12,70.354,48.028,70.035,48.028z"/>
			<path opacity="0.4" fill="#FFFFFF" d="M60.421,50.829c-1.872,0-3.353,1.518-3.308,3.392c0.047,1.875,1.603,3.395,3.479,3.395
				c1.874,0,3.355-1.52,3.307-3.395C63.854,52.347,62.295,50.829,60.421,50.829z M60.79,51.922c-1.195,0-2.146,0.972-2.115,2.171
				c0.013,0.542,0.226,1.037,0.565,1.419c-0.632-0.385-1.066-1.067-1.084-1.85c-0.03-1.201,0.917-2.171,2.115-2.171
				c0.656,0,1.249,0.292,1.658,0.752C61.596,52.039,61.207,51.922,60.79,51.922z"/>
			<path opacity="0.4" fill="#FFFFFF" d="M62.719,40.243c-1.184,0-2.119,0.96-2.092,2.144c0.031,1.181,1.014,2.141,2.197,2.141
				c1.183,0,2.119-0.96,2.089-2.141C64.883,41.203,63.898,40.243,62.719,40.243z M62.949,40.934c-0.754,0-1.354,0.613-1.336,1.371
				c0.009,0.346,0.145,0.654,0.355,0.896c-0.398-0.241-0.671-0.675-0.684-1.168c-0.018-0.757,0.578-1.37,1.337-1.37
				c0.411,0,0.787,0.184,1.047,0.475C63.458,41.009,63.211,40.934,62.949,40.934z"/>
			<path opacity="0.4" fill="#FFFFFF" d="M63.654,66.741c-1.209,0-2.166,0.981-2.136,2.189c0.032,1.213,1.036,2.192,2.247,2.192
				c1.212,0,2.167-0.979,2.138-2.192C65.873,67.723,64.867,66.741,63.654,66.741z M63.895,67.448c-0.771,0-1.386,0.628-1.365,1.401
				c0.009,0.348,0.145,0.669,0.361,0.914c-0.406-0.245-0.688-0.688-0.699-1.191c-0.021-0.776,0.594-1.404,1.367-1.404
				c0.424,0,0.806,0.189,1.072,0.486C64.414,67.523,64.162,67.448,63.895,67.448z"/>
			
				<linearGradient id="SVGID_4_" gradientUnits="userSpaceOnUse" x1="934.7207" y1="66.562" x2="934.7207" y2="20.6187" gradientTransform="matrix(-1 0 0.0249 1 1009.1438 0)">
				<stop  offset="0" style="stop-color:#FFFFFF;stop-opacity:0"/>
				<stop  offset="0.5409" style="stop-color:#FFFFFF"/>
				<stop  offset="1" style="stop-color:#FFFFFF;stop-opacity:0"/>
			</linearGradient>
			<path fill="url(#SVGID_4_)" d="M78.545,21.746c0,0-1.359,22.294-6.044,44.816c0,0,2.933-33.78,2.813-45.943L78.545,21.746z"/>
			<path fill="#EBB07E" d="M80.037,67.87c0,0-10.449-7.007-12.441-7.136c-1.995-0.136-4.795,2.146,0.803,5.661
				c5.246,3.294,9.148,6.177,9.148,6.177L80.037,67.87z"/>
			<path fill="#FF4F14" d="M82.771,46.613c-0.552,0.111-1.063,1.616-0.873,4.753c0.202,3.343,1.698,2.697,1.698,2.697
				S83.325,46.504,82.771,46.613z M63.861,59.533c0.568-0.557,5.568,1.382,7.156,2.469c1.591,1.086,1.166,2.813-1.211,2.322
				c-2.38-0.487-5.797-3.055-5.797-3.055C63.426,60.758,63.289,60.095,63.861,59.533z M73.148,73.518c0,0-0.979,0.64-4.035,0.283
				c-3.061-0.354-4.291-1.418-4.233-1.917c0.06-0.494,6.742-0.083,7.894,0.486C73.467,72.715,73.783,73.377,73.148,73.518z
				 M69.049,85.063c1.053-0.354,7.526-2.555,7.925-0.782c0.399,1.774-6.598,2.841-6.598,2.841
				C68.244,86.977,67.992,85.418,69.049,85.063z"/>
			<path fill="#CC895C" d="M83.77,71.006l-5.766-4.147C78.004,66.858,81.473,68.286,83.77,71.006z"/>
		</g>
	</g>
</g>
</svg>
