<?xml version="1.0" encoding="utf-8"?>
<!-- Generator: Adobe Illustrator 16.0.0, SVG Export Plug-In . SVG Version: 6.00 Build 0)  -->
<!DOCTYPE svg PUBLIC "-//W3C//DTD SVG 1.1//EN" "http://www.w3.org/Graphics/SVG/1.1/DTD/svg11.dtd">
<svg version="1.1" id="Layer_1" xmlns="http://www.w3.org/2000/svg" xmlns:xlink="http://www.w3.org/1999/xlink" x="0px" y="0px"
	 width="40px" height="30px" viewBox="0 0 40 30" enable-background="new 0 0 40 30" xml:space="preserve">
<g>
	<g>
		<defs>
			<rect id="SVGID_1_" y="2.932" width="40" height="24.137"/>
		</defs>
		<clipPath id="SVGID_2_">
			<use xlink:href="#SVGID_1_"  overflow="visible"/>
		</clipPath>
		<path clip-path="url(#SVGID_2_)" fill="#FFFFFF" d="M33.53,23.428c-1.4,1.193-2.833,2.328-4.301,3.434l-0.063-0.076l3.83-3.928
			c0.633-0.654,1.204-1.377,1.887-1.971c0.336-0.299,0.677-0.598,1.028-0.885c0.322-0.301,0.739-0.564,0.965-0.902h0.093
			c-0.008,0.553-0.309,0.951-0.547,1.355c-0.251,0.4-0.547,0.764-0.849,1.113C34.976,22.277,34.223,22.826,33.53,23.428
			L33.53,23.428z M30.873,19.436c-0.249,0.521-0.324,1.113-0.485,1.672c-0.332,1.127-0.661,2.252-0.979,3.395l0.094,0.035
			c0.579-1.033,1.121-2.086,1.612-3.156c0.246-0.535,0.565-1.057,0.688-1.639c0.058-0.297,0.11-0.598,0.125-0.904
			c0-0.311,0.031-0.643-0.171-0.973l-0.089,0.043C31.434,18.398,31.093,18.908,30.873,19.436L30.873,19.436z M35.64,24.258
			c-0.542,0.199-1.02,0.557-1.531,0.834c-1.022,0.563-2.055,1.133-3.083,1.707l0.036,0.09c1.136-0.322,2.263-0.678,3.371-1.09
			c0.552-0.207,1.146-0.346,1.647-0.676c0.252-0.16,0.499-0.336,0.723-0.551c0.227-0.215,0.476-0.43,0.571-0.809l-0.096-0.031
			C36.768,23.916,36.171,24.043,35.64,24.258L35.64,24.258z M34.892,17.057c0.396,0,0.709-0.318,0.709-0.709
			c0-0.391-0.313-0.705-0.709-0.705c-0.386,0-0.705,0.314-0.705,0.705C34.187,16.738,34.506,17.057,34.892,17.057L34.892,17.057z
			 M38.435,19.826c-0.612,0-1.105,0.494-1.105,1.105c0,0.609,0.493,1.104,1.105,1.104c0.609,0,1.104-0.498,1.104-1.104
			C39.538,20.32,39.044,19.826,38.435,19.826L38.435,19.826z M37.674,18.57c0.422,0,0.761-0.342,0.761-0.762
			s-0.339-0.752-0.761-0.752c-0.412,0-0.754,0.332-0.754,0.752S37.262,18.57,37.674,18.57L37.674,18.57z M32.484,17.764
			c0,0.475,0.382,0.855,0.853,0.855c0.472,0,0.85-0.381,0.85-0.855c0-0.469-0.378-0.851-0.85-0.851
			C32.866,16.913,32.484,17.295,32.484,17.764L32.484,17.764z M27.877,22v2.811c0,1.023-1.266,1.854-2.827,1.854
			c-1.563,0-2.825-0.83-2.825-1.854v-2.52H11.071v2.52c0,1.023-1.265,1.854-2.828,1.854s-2.828-0.83-2.828-1.854v-3.029
			c-1.07-0.568-1.774-1.555-1.774-2.676V14.6c0-0.998,0.556-1.88,1.432-2.465l-4.678-0.257c0,0-0.889-0.591,0-2.249
			c0.894-1.66,4.652,0,4.652,0l0.264,2.358c0.099-0.06,0.197-0.109,0.301-0.158L6.74,6.91c0.395-3.094,2.428-3.974,4.759-3.974
			h10.781c2.578-0.089,4.351,1.63,4.76,3.974l1.126,4.92c0.102,0.049,0.206,0.104,0.305,0.158l0.258-2.358c0,0,4.466-1.66,4.655,0
			c0.188,1.658,0,2.249,0,2.249l-4.676,0.257c0.871,0.584,1.434,1.467,1.434,2.465v4.505C30.136,20.389,29.207,21.494,27.877,22
			L27.877,22z M11.557,15.809H6.457v2.423h5.101V15.809z M21.537,17.25h-8.736v1.059h8.736V17.25z M21.629,15.88h-8.738v1.061h8.738
			V15.88z M26.966,11.148c0.076,0,0.158,0.003,0.229,0.007l-1.212-4.857c-0.372-1.6-1.755-2.565-3.254-2.565H11.049
			c-1.503,0-3.031,1.187-3.255,2.565l-1.217,4.857c0.077-0.004,0.152-0.007,0.229-0.007H26.966z M28.021,15.809h-5.101v2.423h5.101
			V15.809z M28.021,15.809"/>
	</g>
</g>
</svg>
